/* XPM */
static const char * cancel_xpm[] = {
"24 24 107 2",
"  	c None",
". 	c #BD2F2F",
"+ 	c #BC2E2E",
"@ 	c #BC2F2F",
"# 	c #BA2E2E",
"$ 	c #B82E2E",
"% 	c #B62D2D",
"& 	c #B32C2C",
"* 	c #B02B2B",
"= 	c #AC2A2A",
"- 	c #A92929",
"; 	c #A62929",
"> 	c #A32828",
", 	c #A02727",
"' 	c #9D2626",
") 	c #9B2525",
"! 	c #992525",
"~ 	c #982525",
"{ 	c #CE4343",
"] 	c #D14646",
"^ 	c #D24747",
"/ 	c #D34848",
"( 	c #D44949",
"_ 	c #D54A4A",
": 	c #D54B4B",
"< 	c #D34A4A",
"[ 	c #D14949",
"} 	c #CF4747",
"| 	c #CC4545",
"1 	c #C94343",
"2 	c #C64141",
"3 	c #C43F3F",
"4 	c #C13E3E",
"5 	c #BF3E3E",
"6 	c #BE3D3D",
"7 	c #BD3D3D",
"8 	c #BA3B3B",
"9 	c #E05C5C",
"0 	c #D75D5D",
"a 	c #DD6262",
"b 	c #E36868",
"c 	c #E96D6D",
"d 	c #ED7171",
"e 	c #F17373",
"f 	c #F37575",
"g 	c #F37474",
"h 	c #F17070",
"i 	c #ED6A6A",
"j 	c #E86363",
"k 	c #E35B5B",
"l 	c #DD5454",
"m 	c #D94E4E",
"n 	c #D64A4A",
"o 	c #E15454",
"p 	c #DF5B5B",
"q 	c #CE5959",
"r 	c #D46060",
"s 	c #DC6767",
"t 	c #E36D6D",
"u 	c #E97272",
"v 	c #EE7676",
"w 	c #F07777",
"x 	c #F07676",
"y 	c #EE7171",
"z 	c #E96A6A",
"A 	c #E36161",
"B 	c #DC5757",
"C 	c #D54D4D",
"D 	c #CF4646",
"E 	c #CC4242",
"F 	c #CB4141",
"G 	c #E05454",
"H 	c #D85D5D",
"I 	c #DE6262",
"J 	c #F37373",
"K 	c #EE6A6A",
"L 	c #DE5454",
"M 	c #D74B4B",
"N 	c #CD4242",
"O 	c #CF4545",
"P 	c #CE4747",
"Q 	c #CD4747",
"R 	c #CC4747",
"S 	c #CA4747",
"T 	c #C94646",
"U 	c #C64545",
"V 	c #C44343",
"W 	c #C14141",
"X 	c #BF3F3F",
"Y 	c #BD3E3E",
"Z 	c #BB3C3C",
"` 	c #BA3C3C",
" .	c #B93A3A",
"..	c #BB2E2E",
"+.	c #B92E2E",
"@.	c #B72D2D",
"#.	c #B42C2C",
"$.	c #B12C2C",
"%.	c #AE2B2B",
"&.	c #AB2A2A",
"*.	c #A82929",
"=.	c #A42828",
"-.	c #A12727",
";.	c #9E2626",
">.	c #9C2626",
",.	c #9A2525",
"'.	c #972424",
"                                                ",
"                                                ",
"                                                ",
"                                                ",
"                                                ",
"                                                ",
"                                                ",
"                                                ",
"  . + . . + . @ + # $ % & * = - ; > , ' ) ! ~   ",
"  + { ] ^ / ( _ : : < [ } | 1 2 3 4 5 6 7 8 ~   ",
"  . 9 0 a b c d e f g h i j k l m n n n n o ~   ",
"  + p q r s t u v w x y z A B C D E F F E G ~   ",
"  . p q r s t u v w x y z A B C D E E E E G ~   ",
"  . 9 H I b c d e g J h K j k L m M M M M o ~   ",
"  . N O D D P Q R S T U V W X Y Z ` 8 8 8  .~   ",
"    ..+.@.#.$.%.&.*.=.-.;.>.,.~ '.'.'.'.'.'.    ",
"                                                ",
"                                                ",
"                                                ",
"                                                ",
"                                                ",
"                                                ",
"                                                ",
"                                                "};
