/* XPM */
static const char * doit_xpm[] = {
"24 24 235 2",
"  	c None",
". 	c #2CB42D",
"+ 	c #2CB22D",
"@ 	c #4AC03A",
"# 	c #3DBA34",
"$ 	c #2BB12C",
"% 	c #5AC741",
"& 	c #9FE861",
"* 	c #3DB934",
"= 	c #2BAF2C",
"- 	c #9FED6B",
"; 	c #9FEB64",
"> 	c #3DB734",
", 	c #2BAD2B",
"' 	c #5AC742",
") 	c #9AEE6E",
"! 	c #92EE70",
"~ 	c #A1ED66",
"{ 	c #3DB634",
"] 	c #2AAB2A",
"^ 	c #2DB92E",
"/ 	c #2DB82E",
"( 	c #2DB72E",
"_ 	c #2DB62E",
": 	c #2DB52D",
"< 	c #2CB32D",
"[ 	c #2CB22C",
"} 	c #2BB02C",
"| 	c #5CC742",
"1 	c #9CF170",
"2 	c #89EF74",
"3 	c #94F273",
"4 	c #A1EE66",
"5 	c #3CB433",
"6 	c #29A92A",
"7 	c #2EB82F",
"8 	c #60CB42",
"9 	c #7BD44D",
"0 	c #7CD54F",
"a 	c #7ED750",
"b 	c #7FD851",
"c 	c #80D952",
"d 	c #82DA54",
"e 	c #83DB55",
"f 	c #84DC56",
"g 	c #86DD57",
"h 	c #86DE57",
"i 	c #9DEB64",
"j 	c #94F173",
"k 	c #89F074",
"l 	c #89F073",
"m 	c #91F16F",
"n 	c #9DEC63",
"o 	c #3BB232",
"p 	c #29A729",
"q 	c #2EB72F",
"r 	c #78D44C",
"s 	c #73CE53",
"t 	c #6FCE55",
"u 	c #74D359",
"v 	c #79D85E",
"w 	c #7DDC62",
"x 	c #82E166",
"y 	c #86E56A",
"z 	c #8AE96D",
"A 	c #8DEC70",
"B 	c #90EF72",
"C 	c #8EF073",
"D 	c #8AF074",
"E 	c #85EF70",
"F 	c #80EC6B",
"G 	c #87EB67",
"H 	c #98E85E",
"I 	c #3AB031",
"J 	c #28A529",
"K 	c #7AD54E",
"L 	c #71CF56",
"M 	c #69CF58",
"N 	c #6FD45D",
"O 	c #74D962",
"P 	c #79DE66",
"Q 	c #7EE36A",
"R 	c #82E76E",
"S 	c #85EB71",
"T 	c #88EE73",
"U 	c #88F072",
"V 	c #84EE6F",
"W 	c #7FEC6B",
"X 	c #79E865",
"Y 	c #72E35F",
"Z 	c #7AE35B",
"` 	c #92E458",
" .	c #39AE30",
"..	c #28A328",
"+.	c #7BD64F",
"@.	c #76D55B",
"#.	c #6FD55D",
"$.	c #75DA62",
"%.	c #7ADF67",
"&.	c #7FE46B",
"*.	c #83E86E",
"=.	c #86EB71",
"-.	c #7FEB6A",
";.	c #78E764",
">.	c #71E35E",
",.	c #6ADE57",
"'.	c #63D951",
").	c #6DDA4F",
"!.	c #8CDF53",
"~.	c #37AC2F",
"{.	c #27A128",
"].	c #7DD750",
"^.	c #7CDA60",
"/.	c #76DB63",
"(.	c #7BE067",
"_.	c #83E86F",
":.	c #86EC71",
"<.	c #89EE73",
"[.	c #87F072",
"}.	c #83EE6E",
"|.	c #7EEB69",
"1.	c #77E763",
"2.	c #70E25D",
"3.	c #69DD56",
"4.	c #62D850",
"5.	c #5BD449",
"6.	c #55D044",
"7.	c #63D346",
"8.	c #88DD50",
"9.	c #37AA2E",
"0.	c #27A027",
"a.	c #2DB42E",
"b.	c #7ED952",
"c.	c #81DF65",
"d.	c #7BE068",
"e.	c #80E56C",
"f.	c #84E96F",
"g.	c #87EC71",
"h.	c #89F174",
"i.	c #87F071",
"j.	c #83ED6D",
"k.	c #7DEA68",
"l.	c #76E662",
"m.	c #6FE15C",
"n.	c #68DC55",
"o.	c #61D84F",
"p.	c #5AD349",
"q.	c #54CF43",
"r.	c #4FCC3F",
"s.	c #5DD142",
"t.	c #89DE50",
"u.	c #3BAC30",
"v.	c #279F27",
"w.	c #2DB32D",
"x.	c #80DA53",
"y.	c #86E469",
"z.	c #87ED72",
"A.	c #86EF71",
"B.	c #82ED6D",
"C.	c #7CEA68",
"D.	c #75E562",
"E.	c #6EE15B",
"F.	c #67DC54",
"G.	c #60D74E",
"H.	c #59D248",
"I.	c #53CF42",
"J.	c #4FCB3E",
"K.	c #81DB54",
"L.	c #8BE96D",
"M.	c #85EA70",
"N.	c #86EF70",
"O.	c #81ED6C",
"P.	c #7BE967",
"Q.	c #75E561",
"R.	c #6DE05A",
"S.	c #66DB53",
"T.	c #5FD64D",
"U.	c #58D247",
"V.	c #53CE42",
"W.	c #4ECB3E",
"X.	c #5DD042",
"Y.	c #3CAC30",
"Z.	c #82DC55",
"`.	c #92ED6F",
" +	c #8EEE72",
".+	c #8FF073",
"++	c #90F174",
"@+	c #8FF172",
"#+	c #8CF06F",
"$+	c #87EE6C",
"%+	c #82EA67",
"&+	c #7CE661",
"*+	c #75E25B",
"=+	c #6ADC54",
"-+	c #5ED64C",
";+	c #57D146",
">+	c #52CE41",
",+	c #8ADE50",
"'+	c #2CB12D",
")+	c #6CD14A",
"!+	c #8EE25C",
"~+	c #8EE35C",
"{+	c #8DE25B",
"]+	c #8BE159",
"^+	c #89DF57",
"/+	c #87DE55",
"(+	c #85DC53",
"_+	c #83DA51",
":+	c #8FE256",
"<+	c #66D64A",
"[+	c #51CD41",
"}+	c #4ECB3D",
"|+	c #2CB02C",
"1+	c #2BAE2B",
"2+	c #2BAC2B",
"3+	c #2AAA2A",
"4+	c #2AA92A",
"5+	c #29A82A",
"6+	c #29A72A",
"7+	c #29A629",
"8+	c #29A529",
"9+	c #54BE3B",
"0+	c #74D94B",
"a+	c #4DCB3D",
"b+	c #5CD042",
"c+	c #52BC39",
"d+	c #72D849",
"e+	c #3CAD30",
"f+	c #51BB39",
"g+	c #7CDC4D",
"h+	c #8ADF50",
"i+	c #3DAD30",
"j+	c #51BA38",
"k+	c #91E153",
"l+	c #47B434",
"                        .                       ",
"                        . +                     ",
"                        @ # $                   ",
"                        % & * =                 ",
"                        % - ; > ,               ",
"                        ' ) ! ~ { ]             ",
"^ / ( ( _ : . < + [ $ } | 1 2 3 4 5 6           ",
"7 8 9 0 a b c d e f g h i j k l m n o p         ",
"q r s t u v w x y z A B C D l E F G H I J       ",
"( K L M N O P Q R S T 2 k U V W X Y Z `  ...    ",
"_ +.@.#.$.%.&.*.=.T k k U V -.;.>.,.'.).!.~.{.  ",
": ].^./.(.&._.:.<.k k [.}.|.1.2.3.4.5.6.7.8.9.0.",
"a.b.c.d.e.f.g.<.k h.i.j.k.l.m.n.o.p.q.r.s.t.u.v.",
"w.x.y.e.f.z.2 D l A.B.C.D.E.F.G.H.I.J.s.t.u.v.  ",
"+ K.L.M.z.2 D l N.O.P.Q.R.S.T.U.V.W.X.t.Y.v.    ",
"[ Z.`. +.+++@+#+$+%+&+*+=+-+;+>+W.X.,+Y.v.      ",
"'+)+!+~+~+~+{+]+^+/+(+_+:+<+[+}+X.,+Y.v.        ",
"|+= 1+, 2+] 3+4+5+6+7+8+9+0+a+b+t.Y.v.          ",
"                        c+d+b+,+e+v.            ",
"                        f+g+h+i+v.              ",
"                        j+k+i+v.                ",
"                        l+i+v.                  ",
"                        0.v.                    ",
"                        v.                      "};
