/* XPM */
static char * hostSearch_xpm[] = {
"32 32 688 2",
"  	c None",
". 	c #A5AAB5",
"+ 	c #A5A9B5",
"@ 	c #A4A9B5",
"# 	c #A4A8B5",
"$ 	c #A3A8B4",
"% 	c #A3A7B4",
"& 	c #A2A7B4",
"* 	c #A2A7B3",
"= 	c #A2A6B3",
"- 	c #A1A6B3",
"; 	c #A0A5B3",
"> 	c #A0A5B2",
", 	c #9FA4B2",
"' 	c #9FA4B1",
") 	c #9EA3B1",
"! 	c #9DA2B0",
"~ 	c #9CA2B0",
"{ 	c #9CA1B0",
"] 	c #9BA1AF",
"^ 	c #9AA0AF",
"/ 	c #A6AAB6",
"( 	c #AAADB9",
"_ 	c #BBBEC7",
": 	c #BABEC7",
"< 	c #BABDC6",
"[ 	c #B9BDC6",
"} 	c #B9BCC6",
"| 	c #B8BCC6",
"1 	c #B8BBC5",
"2 	c #B7BBC5",
"3 	c #B6BAC5",
"4 	c #B6BAC4",
"5 	c #B6B9C4",
"6 	c #B5B9C4",
"7 	c #B5B9C3",
"8 	c #B4B8C3",
"9 	c #B3B8C3",
"0 	c #B3B7C3",
"a 	c #B2B7C2",
"b 	c #B1B6C1",
"c 	c #9DA3B2",
"d 	c #989EAE",
"e 	c #E3E4E8",
"f 	c #EFF1F5",
"g 	c #EEF0F5",
"h 	c #EEEFF4",
"i 	c #EDEFF4",
"j 	c #ECEEF4",
"k 	c #ECEEF3",
"l 	c #EBEDF3",
"m 	c #EAECF3",
"n 	c #EAECF2",
"o 	c #E9EBF2",
"p 	c #E9EBF1",
"q 	c #E8EAF1",
"r 	c #E7EAF1",
"s 	c #E7E9F0",
"t 	c #E6E9F0",
"u 	c #E5E8F0",
"v 	c #E5E8EF",
"w 	c #E4E7EF",
"x 	c #E4E6EF",
"y 	c #E3E6EE",
"z 	c #DBDEE4",
"A 	c #ECEDF0",
"B 	c #E3E6EF",
"C 	c #E2E5EE",
"D 	c #E1E5EE",
"E 	c #E1E4ED",
"F 	c #E0E3ED",
"G 	c #DFE3EC",
"H 	c #DEE2EC",
"I 	c #DDE1EB",
"J 	c #DCE0EB",
"K 	c #DBDFEA",
"L 	c #DADEEA",
"M 	c #D9DDE9",
"N 	c #D8DCE8",
"O 	c #D7DCE8",
"P 	c #D6DBE7",
"Q 	c #D5DAE7",
"R 	c #D4D9E6",
"S 	c #D3D8E5",
"T 	c #D2D7E5",
"U 	c #D1D6E4",
"V 	c #D0D5E4",
"W 	c #D0D5E3",
"X 	c #E4E6EB",
"Y 	c #979DAD",
"Z 	c #A5AAB6",
"` 	c #A4B2D5",
" .	c #4A67B0",
"..	c #4765AF",
"+.	c #4765AE",
"@.	c #4764AE",
"#.	c #4764AD",
"$.	c #4763AC",
"%.	c #4663AB",
"&.	c #4662AB",
"*.	c #4662AA",
"=.	c #4662A9",
"-.	c #4661A8",
";.	c #4561A7",
">.	c #4560A7",
",.	c #4560A6",
"'.	c #455FA5",
").	c #445FA4",
"!.	c #445EA3",
"~.	c #4861A4",
"{.	c #A4AFCF",
"].	c #CED3E2",
"^.	c #E3E5EB",
"/.	c #EBECF0",
"(.	c #E2E6EE",
"_.	c #8296C7",
":.	c #5470BF",
"<.	c #6A84DC",
"[.	c #6983DC",
"}.	c #6D86DC",
"|.	c #7A91DD",
"1.	c #7990DD",
"2.	c #788FDD",
"3.	c #788FDC",
"4.	c #778EDC",
"5.	c #768DDC",
"6.	c #768CDB",
"7.	c #758CDB",
"8.	c #758BDB",
"9.	c #748BDB",
"0.	c #728ADA",
"a.	c #4C65AD",
"b.	c #8897C1",
"c.	c #CCD2E2",
"d.	c #969CAD",
"e.	c #8295C7",
"f.	c #5A76C5",
"g.	c #5674EA",
"h.	c #4365E8",
"i.	c #4667E8",
"j.	c #889DF0",
"k.	c #8A9FF1",
"l.	c #869BF0",
"m.	c #849AF0",
"n.	c #8298F0",
"o.	c #8096EF",
"p.	c #7D94EF",
"q.	c #7B93EF",
"r.	c #7991EF",
"s.	c #778FEE",
"t.	c #758DEE",
"u.	c #7E95EF",
"v.	c #5069B2",
"w.	c #8796C0",
"x.	c #CBD0E1",
"y.	c #E2E5EB",
"z.	c #959CAC",
"A.	c #EAECF0",
"B.	c #8195C6",
"C.	c #5A76C4",
"D.	c #5473EA",
"E.	c #3F61E8",
"F.	c #6883ED",
"G.	c #8399F0",
"H.	c #8197F0",
"I.	c #7F95EF",
"J.	c #7C93EF",
"K.	c #7A91EF",
"L.	c #7890EF",
"M.	c #768EEE",
"N.	c #738CEE",
"O.	c #718AEE",
"P.	c #6F88EE",
"Q.	c #6D86ED",
"R.	c #7A92EE",
"S.	c #5068B1",
"T.	c #8695BF",
"U.	c #C9CFE0",
"V.	c #E2E4EA",
"W.	c #959BAC",
"X.	c #EAEBEF",
"Y.	c #8094C5",
"Z.	c #5A75C4",
"`.	c #4C6CE9",
" +	c #8197EC",
".+	c #8799E0",
"++	c #8D9ACD",
"@+	c #9299B8",
"#+	c #989AA9",
"$+	c #999CA6",
"%+	c #9799A8",
"&+	c #8F95B3",
"*+	c #8895CA",
"=+	c #7C8FDF",
"-+	c #6D86EA",
";+	c #5068B0",
">+	c #8594BF",
",+	c #C7CEDF",
"'+	c #E1E4EA",
")+	c #949BAC",
"!+	c #E9EBEF",
"~+	c #8093C5",
"{+	c #8FA3F1",
"]+	c #5875EB",
"^+	c #4164E8",
"/+	c #5372DD",
"(+	c #8C99C5",
"_+	c #9A9CA9",
":+	c #A5A5AA",
"<+	c #B0B0B5",
"[+	c #BCBCC0",
"}+	c #C3C3C7",
"|+	c #C6C6C9",
"1+	c #C0C0C4",
"2+	c #B0B0B4",
"3+	c #9799A5",
"4+	c #8692BF",
"5+	c #8194E0",
"6+	c #5269B0",
"7+	c #8493BE",
"8+	c #C5CCDE",
"9+	c #E1E3EA",
"0+	c #949AAB",
"a+	c #7F92C4",
"b+	c #5A75C3",
"c+	c #8CA0F1",
"d+	c #496AE9",
"e+	c #4166E8",
"f+	c #5E7AD8",
"g+	c #8B94B0",
"h+	c #9E9FA7",
"i+	c #B5B5BA",
"j+	c #C4C4C8",
"k+	c #D1D1D4",
"l+	c #DFDFE2",
"m+	c #E7E7EA",
"n+	c #F0F0F2",
"o+	c #F4F4F7",
"p+	c #EEEEF0",
"q+	c #DDDDE0",
"r+	c #A7A7AE",
"s+	c #9195A9",
"t+	c #6B7BAB",
"u+	c #8393BD",
"v+	c #C4CBDD",
"w+	c #939AAB",
"x+	c #E9EAEF",
"y+	c #DADEE9",
"z+	c #7F92C3",
"A+	c #7C94EF",
"B+	c #728EED",
"C+	c #607CD7",
"D+	c #9A9CA5",
"E+	c #A9A9AE",
"F+	c #BDBDC2",
"G+	c #C8C8CD",
"H+	c #C9C9CD",
"I+	c #C3C3C6",
"J+	c #B7B7BB",
"K+	c #B4B4B8",
"L+	c #BDBDC0",
"M+	c #D5D5D8",
"N+	c #E8E9EB",
"O+	c #F4F5F7",
"P+	c #EFEFF1",
"Q+	c #C0C0C3",
"R+	c #96979C",
"S+	c #8B95B3",
"T+	c #C3C9DB",
"U+	c #E0E3EA",
"V+	c #E8EAEE",
"W+	c #7E91C3",
"X+	c #5A74C2",
"Y+	c #849BF0",
"Z+	c #7993EF",
"`+	c #8199E3",
" @	c #9299B2",
".@	c #A9A9AD",
"+@	c #C6C6CA",
"@@	c #B5B5B9",
"#@	c #A3A3A9",
"$@	c #9FA7B0",
"%@	c #A2B3C2",
"&@	c #A2B5C6",
"*@	c #A2B2C2",
"=@	c #9EA4AE",
"-@	c #A5A6AC",
";@	c #ECECEF",
">@	c #E6E6E9",
",@	c #BABABE",
"'@	c #8F929D",
")@	c #B9BFCE",
"!@	c #E0E2E9",
"~@	c #9299AB",
"{@	c #E8E9EE",
"]@	c #7D90C2",
"^@	c #8199EF",
"/@	c #7893EC",
"(@	c #8E9CC6",
"_@	c #9FA0A7",
":@	c #C6C6CB",
"<@	c #B1B1B6",
"[@	c #9DA1A8",
"}@	c #A7C0D1",
"|@	c #A7D3ED",
"1@	c #A0D5F6",
"2@	c #9BD3F7",
"3@	c #9BD0F5",
"4@	c #A4CAEB",
"5@	c #A7B9CE",
"6@	c #9B9CA4",
"7@	c #E1E2E5",
"8@	c #DADADE",
"9@	c #A0A0A4",
"0@	c #A5A7B1",
"a@	c #DADDE4",
"b@	c #9299AA",
"c@	c #E7E9EE",
"d@	c #D5D9E6",
"e@	c #7C8FC1",
"f@	c #7F97EF",
"g@	c #7E96DF",
"h@	c #999CAA",
"i@	c #B4B4B9",
"j@	c #9DA1A7",
"k@	c #ABCFE5",
"l@	c #B4E2FC",
"m@	c #BAE5FD",
"n@	c #B2E1FD",
"o@	c #9DD8FB",
"p@	c #8ED0FB",
"q@	c #8ACBF9",
"r@	c #99CBF9",
"s@	c #A9C3E4",
"t@	c #999AA1",
"u@	c #D4D5D9",
"v@	c #BFBFC3",
"w@	c #94959A",
"x@	c #CCCED4",
"y@	c #9198AA",
"z@	c #E7E8EE",
"A@	c #D3D8E6",
"B@	c #7B8EC0",
"C@	c #5A74C1",
"D@	c #7C96EF",
"E@	c #8698CF",
"F@	c #A4A5A9",
"G@	c #C3C3C8",
"H@	c #A7BECF",
"I@	c #B2E2FC",
"J@	c #CDECFD",
"K@	c #D6EFFD",
"L@	c #B8E4FD",
"M@	c #98D5FB",
"N@	c #87CDFA",
"O@	c #84C7F9",
"P@	c #88C5F9",
"Q@	c #9EC9F8",
"R@	c #AAB7CD",
"S@	c #9C9DA2",
"T@	c #C5C4C9",
"U@	c #C3C2C8",
"V@	c #9D9DA2",
"W@	c #B5B7BC",
"X@	c #E6E8ED",
"Y@	c #D1D6E5",
"Z@	c #7B8DBF",
"`@	c #5A74C0",
" #	c #7893EF",
".#	c #8D98BA",
"+#	c #AFAFB4",
"@#	c #D0D0D4",
"##	c #A1A7AF",
"$#	c #A9D4ED",
"%#	c #B8E6FD",
"&#	c #D4EFFE",
"*#	c #CAEBFE",
"=#	c #A0DBFC",
"-#	c #87CEFB",
";#	c #81C8FA",
">#	c #85C6F9",
",#	c #8AC5F9",
"'#	c #95C6F8",
")#	c #AFC5E9",
"!#	c #9C9EA8",
"~#	c #B3B3B8",
"{#	c #C1C0C6",
"]#	c #A4A4A9",
"^#	c #9F9FA4",
"/#	c #E5E8ED",
"(#	c #7A8CBE",
"_#	c #5973C0",
":#	c #7994EF",
"<#	c #BABABF",
"[#	c #DEDEE1",
"}#	c #A5B5C2",
"|#	c #A6DAF5",
"1#	c #AFE3FD",
"2#	c #B6E5FC",
"3#	c #A1DDFC",
"4#	c #88D1FB",
"5#	c #83CCFA",
"6#	c #88CBFA",
"7#	c #90CAF9",
"8#	c #97CAF9",
"9#	c #9CC9F9",
"0#	c #B2CCF3",
"a#	c #A7AEBD",
"b#	c #A1A1A6",
"c#	c #BBBAC0",
"d#	c #A6A5AB",
"e#	c #909095",
"f#	c #9097A9",
"g#	c #E5E7EC",
"h#	c #CED3E3",
"i#	c #7B8EBF",
"j#	c #4A65AE",
"k#	c #5A74BF",
"l#	c #9497A3",
"m#	c #C1C2C5",
"n#	c #E6E7EA",
"o#	c #A4B4C2",
"p#	c #9DCFED",
"q#	c #98D2F4",
"r#	c #93CFF2",
"s#	c #83C6EF",
"t#	c #7DC1ED",
"u#	c #83C1EC",
"v#	c #8BC3ED",
"w#	c #94C4EB",
"x#	c #9BC5EB",
"y#	c #A0C6EB",
"z#	c #B3CBE8",
"A#	c #A8AFBB",
"B#	c #9C9BA0",
"C#	c #B6B5BB",
"D#	c #8D8D92",
"E#	c #B5BED7",
"F#	c #7B8DBE",
"G#	c #778ABB",
"H#	c #9597A2",
"I#	c #BDBDC1",
"J#	c #A7B1BD",
"K#	c #A3CEEA",
"L#	c #8ECCF0",
"M#	c #88C8EE",
"N#	c #84C4EB",
"O#	c #88C4EB",
"P#	c #91C5EA",
"Q#	c #99C8EB",
"R#	c #A1C9EA",
"S#	c #A7CBEA",
"T#	c #A9CCEA",
"U#	c #BACEE4",
"V#	c #A8ACB5",
"W#	c #9C9CA1",
"X#	c #B1B0B7",
"Y#	c #A09FA5",
"Z#	c #8F8F93",
"`#	c #9DA3B1",
" $	c #E4E6EC",
".$	c #CCD1E1",
"+$	c #CACFE0",
"@$	c #C8CEDF",
"#$	c #A9ABB4",
"$$	c #F2F2F5",
"%$	c #D6D6DA",
"&$	c #A3A6AD",
"*$	c #BDD8E7",
"=$	c #A1D9F6",
"-$	c #9AD5F6",
";$	c #9ED5F5",
">$	c #A6D7F5",
",$	c #AED9F5",
"'$	c #B5DBF5",
")$	c #BBDCF5",
"!$	c #BEDDF5",
"~$	c #BBDAEA",
"{$	c #B7D5C8",
"]$	c #999E9E",
"^$	c #A2A2A7",
"/$	c #ADACB3",
"($	c #9A9A9F",
"_$	c #9B9CA1",
":$	c #8F97A9",
"<$	c #C9CCD4",
"[$	c #E5E7ED",
"}$	c #C7C8CE",
"|$	c #ADADB1",
"1$	c #ECECEE",
"2$	c #EAE9EC",
"3$	c #A7A7AC",
"4$	c #BAC5CD",
"5$	c #C0E6F9",
"6$	c #ADDEF9",
"7$	c #ADDEF8",
"8$	c #B6E0F9",
"9$	c #BDE2F8",
"0$	c #C3E4F9",
"a$	c #C6E5F8",
"b$	c #CAE6F8",
"c$	c #D6EAF6",
"d$	c #BAC2C3",
"e$	c #929397",
"f$	c #A7A6AD",
"g$	c #A9A8AF",
"h$	c #939398",
"i$	c #A4A6AC",
"j$	c #9A9FAF",
"k$	c #999FAE",
"l$	c #9CA1AE",
"m$	c #9999A0",
"n$	c #D8D8DB",
"o$	c #F6F6F8",
"p$	c #C7C7CA",
"q$	c #9C9EA3",
"r$	c #BBCBD7",
"s$	c #B5D5E9",
"t$	c #AAD1E8",
"u$	c #ABD0E9",
"v$	c #AFD1E9",
"w$	c #B3D2E9",
"x$	c #B9D4E8",
"y$	c #C5D8E8",
"z$	c #C3CCD5",
"A$	c #949599",
"B$	c #ABABB1",
"C$	c #8C8C91",
"D$	c #9397A2",
"E$	c #9FA0A6",
"F$	c #A3A3A7",
"G$	c #EDEDEF",
"H$	c #BBBBC0",
"I$	c #9B9B9F",
"J$	c #B9C0C6",
"K$	c #CCDCE5",
"L$	c #CFE3F0",
"M$	c #D0E5F2",
"N$	c #D0E4F0",
"O$	c #D0DCE5",
"P$	c #BABFC4",
"Q$	c #949498",
"R$	c #ABAAB1",
"S$	c #AAA9B0",
"T$	c #98979D",
"U$	c #A7AAB4",
"V$	c #9A9BA0",
"W$	c #E4E4E7",
"X$	c #E2E2E6",
"Y$	c #B9B9BD",
"Z$	c #9D9DA1",
"`$	c #9FA0A5",
" %	c #ADB1B6",
".%	c #B0B4BA",
"+%	c #ACAFB5",
"@%	c #929297",
"#%	c #B3B3B7",
"$%	c #BDA990",
"%%	c #C8CBD2",
"&%	c #E7E8EC",
"*%	c #E6E8EC",
"=%	c #E6E7EB",
"-%	c #D3D4D8",
";%	c #999A9E",
">%	c #D9D9DD",
",%	c #C6C5CA",
"'%	c #A3A2A7",
")%	c #A3A2A8",
"!%	c #A8A7AD",
"~%	c #ACABB1",
"{%	c #AAAAB1",
"]%	c #BABABD",
"^%	c #D6D6D9",
"/%	c #CBC0A4",
"(%	c #E4A539",
"_%	c #E38B1C",
":%	c #E8EBF1",
"<%	c #E6E9F1",
"[%	c #E4E8EF",
"}%	c #C9CCD6",
"|%	c #A0A1A6",
"1%	c #9C9CA0",
"2%	c #C2C1C6",
"3%	c #C0BFC5",
"4%	c #B5B4BB",
"5%	c #ACABB2",
"6%	c #A8A8AE",
"7%	c #A2A1A8",
"8%	c #97979B",
"9%	c #BEBEC1",
"0%	c #D8CFA7",
"a%	c #EBC143",
"b%	c #FCC932",
"c%	c #F5A118",
"d%	c #EF8204",
"e%	c #ECEDF1",
"f%	c #D8DAE1",
"g%	c #8A8B8D",
"h%	c #88898B",
"i%	c #88888A",
"j%	c #87888A",
"k%	c #87878A",
"l%	c #868789",
"m%	c #858689",
"n%	c #8A8A8E",
"o%	c #909094",
"p%	c #9B9BA0",
"q%	c #9F9EA4",
"r%	c #99999E",
"s%	c #939298",
"t%	c #8E8D93",
"u%	c #AAABB0",
"v%	c #D9D8DB",
"w%	c #D7D4B5",
"x%	c #EBE157",
"y%	c #FCD739",
"z%	c #FCCA30",
"A%	c #FBC32E",
"B%	c #F39815",
"C%	c #ED7801",
"D%	c #DFE2EA",
"E%	c #B7BAC0",
"F%	c #B4B7BD",
"G%	c #B2B5BC",
"H%	c #B0B3BB",
"I%	c #AEB1BA",
"J%	c #ACAFB8",
"K%	c #AAADB7",
"L%	c #A8ABB6",
"M%	c #A5A9B4",
"N%	c #A1A5AF",
"O%	c #9A9DA5",
"P%	c #92949A",
"Q%	c #8F8F94",
"R%	c #8E8E94",
"S%	c #8E8F93",
"T%	c #96989E",
"U%	c #B5BAC9",
"V%	c #B8B9C3",
"W%	c #BEA992",
"X%	c #E4A638",
"Y%	c #FDF34C",
"Z%	c #FDF048",
"`%	c #FDD638",
" &	c #FDC930",
".&	c #F6A61F",
"+&	c #ED7702",
"@&	c #D8DDE8",
"#&	c #D6DAE7",
"$&	c #D4D8E6",
"%&	c #CFD4E3",
"&&	c #D0CAC3",
"*&	c #E99F3F",
"=&	c #F5A217",
"-&	c #FBE746",
";&	c #FDF34D",
">&	c #FBD138",
",&	c #F29717",
"'&	c #ED7601",
")&	c #B0B4BE",
"!&	c #C7CAD1",
"~&	c #C7C9D1",
"{&	c #C6C9D1",
"]&	c #C5C8D0",
"^&	c #C4C7CF",
"/&	c #C3C6CF",
"(&	c #C2C5CE",
"_&	c #C1C4CD",
":&	c #BFC3CD",
"<&	c #BEC2CC",
"[&	c #BDC1CC",
"}&	c #BCC0CB",
"|&	c #BBC0CA",
"1&	c #BABFCA",
"2&	c #BABECA",
"3&	c #B9BEC9",
"4&	c #C3B8A8",
"5&	c #E78F27",
"6&	c #F29D19",
"7&	c #F6BB2E",
"8&	c #F3A31F",
"9&	c #EE7C06",
"0&	c #A4A8B4",
"a&	c #969DAD",
"b&	c #B19775",
"c&	c #DC8121",
"d&	c #E7790C",
"e&	c #EC7704",
"          . + + @ # $ % & * = - ; > , ' ) ) ! ~ { ] ^           ",
"    / ( _ _ : < < [ [ [ } | 1 2 2 3 4 5 6 7 8 8 9 0 a b c d     ",
"    / e f g g h i i j k l l m n o p q r s t u v w x y y z d     ",
"    / A u w B C D E F G H I J K L M N O P Q R S T U V W X Y     ",
"    Z A w `  .....+.@.#.#.$.%.&.*.=.-.;.>.,.'.).!.~.{.].^.Y     ",
"    + /.(._.:.<.[.[.[.}.|.1.1.2.3.4.4.5.6.7.8.9.0.a.b.c.^.d.    ",
"    + /.D e.f.g.h.h.h.i.j.k.j.l.m.n.o.p.q.r.s.t.u.v.w.x.y.z.    ",
"    @ A.F B.C.D.E.E.E.E.F.G.H.I.J.K.L.M.N.O.P.Q.R.S.T.U.V.W.    ",
"    # X.H Y.Z.M.E.E.E.E.`. +.+++@+#+$+%+&+*+=+-+s.;+>+,+'+)+    ",
"    $ !+I ~+Z.{+]+E.E.^+/+(+_+:+<+[+}+|+1+2+3+4+5+6+7+8+9+0+    ",
"    % !+K a+b+c+p.d+e+f+g+h+i+j+k+l+m+n+o+p+q+r+s+t+u+v+9+w+    ",
"    & x+y+z+b+j.A+B+C+D+E+F+G+H+I+J+K+L+M+N+O+P+Q+R+S+T+U+w+    ",
"    & V+N W+X+Y+Z+`+ @.@F++@@@#@$@%@&@*@=@-@|+;@>@,@'@)@!@~@    ",
"    - {@P ]@X+^@/@(@_@F+:@<@[@}@|@1@2@3@4@5@6@,@7@8@9@0@a@b@    ",
"    - c@d@e@X+f@g@h@i@G+@@j@k@l@m@n@o@p@q@r@s@t@J+u@v@w@x@y@    ",
"    ; z@A@B@C@D@E@F@G@H+#@H@I@J@K@L@M@N@O@P@Q@R@S@T@U@V@W@y@    ",
"    > X@Y@Z@`@ #.#+#@#}+##$#%#&#*#=#-#;#>#,#'#)#!#~#{#]#^#y@    ",
"    , /#V (#_#:#0+<#[#J+}#|#1#2#3#4#5#6#7#8#9#0#a#b#c#d#e#f#    ",
"    , g#h#i#j#k#l#m#n#@@o#p#q#r#s#t#u#v#w#x#y#z#A#B#C##@D#f#    ",
"    ) g#c.E#F#G#H#}+P+I#J#K#L#M#N#O#P#Q#R#S#T#U#V#W#X#Y#Z#f#    ",
"    `# $.$+$U.@$#$I#$$%$&$*$=$-$;$>$,$'$)$!$~${$]$^$/$($_$:$    ",
"    ! <$[$[$ $ $}$|$1$2$3$4$5$6$7$8$9$0$a$b$c$d$e$f$g$h$i$:$    ",
"      { ] ^ j$k$l$m$n$o$p$q$r$s$t$u$v$w$x$y$z$A$W#B$#@C$D$      ",
"                  E$F$;@G$H$I$J$K$L$M$N$O$P$Q$($R$S$T$.@        ",
"      + / / / / / U$V$<#W$X$Y$Z$`$ %.%+%S@@%W#R$S$V@#%|+$%      ",
"    / %%&%&%&%&%*%=%-%;%@@>%%$,%i@'%W#V@)%!%~%{%V@]%^%/%(%_%    ",
"    / A :%r <%[%(.F I }%|%1%[+2%3%c#4%X#5%6%7%8%9%G$0%a%b%c%d%  ",
"    / e%f%g%h%i%j%k%l%m%n%Z#o%p%^$]#^$q%r%s%t%u%v%w%x%y%z%A%B%C%",
"    / A D%E%F%G%H%I%J%K%L%M%N%O%P%Q%R%S%T%+ U%V%W%X%Y%Z%`% &.&+&",
"    / *%r v C F I K @&#&$&T V %&%&%&%&%&%&%&%&%&&&*&=&-&;&>&,&'&",
"    / )&!&!&~&{&]&^&/&(&_&:&<&[&}&|&1&2&3&3&3&3&3&4&5&6&7&8&9&  ",
"        + + 0&& - , ) { ^ d a&W.w+b@f#:$:$:$:$:$:$:$b&c&d&e&    "};
