/* XPM */
static char * macdbUpdate_xpm[] = {
"32 32 700 2",
"  	c None",
". 	c #A5AAB5",
"+ 	c #A5A9B5",
"@ 	c #A4A9B5",
"# 	c #A4A8B5",
"$ 	c #A3A8B4",
"% 	c #A3A7B4",
"& 	c #A2A7B4",
"* 	c #A2A7B3",
"= 	c #A2A6B3",
"- 	c #A1A6B3",
"; 	c #A0A5B3",
"> 	c #A0A5B2",
", 	c #9FA4B2",
"' 	c #9FA4B1",
") 	c #9EA3B1",
"! 	c #9DA2B0",
"~ 	c #9CA2B0",
"{ 	c #9CA1B0",
"] 	c #9BA1AF",
"^ 	c #9AA0AF",
"/ 	c #A6AAB6",
"( 	c #AAADB9",
"_ 	c #BBBEC7",
": 	c #BABEC7",
"< 	c #BABDC6",
"[ 	c #B9BDC6",
"} 	c #B9BCC6",
"| 	c #B8BCC6",
"1 	c #B8BBC5",
"2 	c #B7BBC5",
"3 	c #B6BAC5",
"4 	c #B6BAC4",
"5 	c #B6B9C4",
"6 	c #B5B9C4",
"7 	c #B5B9C3",
"8 	c #B4B8C3",
"9 	c #B3B8C3",
"0 	c #B3B7C3",
"a 	c #B2B7C2",
"b 	c #B1B6C1",
"c 	c #9DA3B2",
"d 	c #989EAE",
"e 	c #E3E4E8",
"f 	c #EFF1F5",
"g 	c #EEF0F5",
"h 	c #EEEFF4",
"i 	c #EDEFF4",
"j 	c #ECEEF4",
"k 	c #ECEEF3",
"l 	c #EBEDF3",
"m 	c #EAECF3",
"n 	c #EAECF2",
"o 	c #E9EBF2",
"p 	c #E9EBF1",
"q 	c #E8EAF1",
"r 	c #E7EAF1",
"s 	c #E7E9F0",
"t 	c #E6E9F0",
"u 	c #E5E8F0",
"v 	c #E5E8EF",
"w 	c #E4E7EF",
"x 	c #E4E6EF",
"y 	c #E3E6EE",
"z 	c #DBDEE4",
"A 	c #ECEDF0",
"B 	c #E3E6EF",
"C 	c #E2E5EE",
"D 	c #E1E5EE",
"E 	c #E1E4ED",
"F 	c #E0E3ED",
"G 	c #DFE3EC",
"H 	c #DEE2EC",
"I 	c #DDE1EB",
"J 	c #DCE0EB",
"K 	c #DBDFEA",
"L 	c #DADEEA",
"M 	c #D9DDE9",
"N 	c #D8DCE8",
"O 	c #D7DCE8",
"P 	c #D6DBE7",
"Q 	c #D5DAE7",
"R 	c #D4D9E6",
"S 	c #D3D8E5",
"T 	c #D2D7E5",
"U 	c #D1D6E4",
"V 	c #D0D5E4",
"W 	c #D0D5E3",
"X 	c #E4E6EB",
"Y 	c #979DAD",
"Z 	c #A5AAB6",
"` 	c #A4B2D5",
" .	c #4A67B0",
"..	c #4765AF",
"+.	c #4765AE",
"@.	c #4764AE",
"#.	c #4764AD",
"$.	c #4763AC",
"%.	c #4663AB",
"&.	c #4662AB",
"*.	c #4662AA",
"=.	c #4662A9",
"-.	c #4661A8",
";.	c #4561A7",
">.	c #4560A7",
",.	c #4560A6",
"'.	c #455FA5",
").	c #445FA4",
"!.	c #445EA3",
"~.	c #4861A4",
"{.	c #A4AFCF",
"].	c #CED3E2",
"^.	c #E3E5EB",
"/.	c #EBECF0",
"(.	c #E2E6EE",
"_.	c #8296C7",
":.	c #5470BF",
"<.	c #6A84DC",
"[.	c #6983DC",
"}.	c #6D86DC",
"|.	c #7A91DD",
"1.	c #7990DD",
"2.	c #788FDD",
"3.	c #788FDC",
"4.	c #778EDC",
"5.	c #768DDC",
"6.	c #768CDB",
"7.	c #758CDB",
"8.	c #758BDB",
"9.	c #748BDB",
"0.	c #728ADA",
"a.	c #4C65AD",
"b.	c #8897C1",
"c.	c #CCD2E2",
"d.	c #969CAD",
"e.	c #8295C7",
"f.	c #5A76C5",
"g.	c #5674EA",
"h.	c #4365E8",
"i.	c #4667E8",
"j.	c #889DF0",
"k.	c #8A9FF1",
"l.	c #869BF0",
"m.	c #849AF0",
"n.	c #8298F0",
"o.	c #8096EF",
"p.	c #7D94EF",
"q.	c #7B93EF",
"r.	c #7991EF",
"s.	c #778FEE",
"t.	c #758DEE",
"u.	c #7E95EF",
"v.	c #5069B2",
"w.	c #8796C0",
"x.	c #CBD0E1",
"y.	c #E2E5EB",
"z.	c #959CAC",
"A.	c #EAECF0",
"B.	c #8195C6",
"C.	c #5A76C4",
"D.	c #5473EA",
"E.	c #3F61E8",
"F.	c #6883ED",
"G.	c #8399F0",
"H.	c #8197F0",
"I.	c #7F95EF",
"J.	c #7C93EF",
"K.	c #7A91EF",
"L.	c #7890EF",
"M.	c #768EEE",
"N.	c #738CEE",
"O.	c #718AEE",
"P.	c #6F88EE",
"Q.	c #6D86ED",
"R.	c #7A92EE",
"S.	c #5068B1",
"T.	c #8695BF",
"U.	c #C9CFE0",
"V.	c #E2E4EA",
"W.	c #959BAC",
"X.	c #EAEBEF",
"Y.	c #8094C5",
"Z.	c #5A75C4",
"`.	c #4C6CE9",
" +	c #7F96EF",
".+	c #7891EF",
"++	c #6F88ED",
"@+	c #6C86ED",
"#+	c #6A84ED",
"$+	c #5068B0",
"%+	c #8594BF",
"&+	c #C7CEDF",
"*+	c #E1E4EA",
"=+	c #949BAC",
"-+	c #E9EBEF",
";+	c #8093C5",
">+	c #8FA3F1",
",+	c #5875EB",
"'+	c #4063E8",
")+	c #4166E8",
"!+	c #728EEE",
"~+	c #7B96EF",
"{+	c #7994EF",
"]+	c #7692EE",
"^+	c #738EEE",
"/+	c #708BEE",
"(+	c #6D87ED",
"_+	c #6882ED",
":+	c #6581EC",
"<+	c #637FEC",
"[+	c #748DEE",
"}+	c #8493BE",
"|+	c #C5CCDE",
"1+	c #E1E3EA",
"2+	c #949AAB",
"3+	c #7F92C4",
"4+	c #5A75C3",
"5+	c #8CA0F1",
"6+	c #496AE9",
"7+	c #446AE9",
"8+	c #466EE9",
"9+	c #5D82EC",
"0+	c #7A99F0",
"a+	c #7898EF",
"b+	c #7695EF",
"c+	c #7291EE",
"d+	c #6F8DEE",
"e+	c #6B88ED",
"f+	c #6682EC",
"g+	c #617DEC",
"h+	c #5F7BEC",
"i+	c #718AED",
"j+	c #5068AF",
"k+	c #8393BD",
"l+	c #C4CBDD",
"m+	c #939AAB",
"n+	c #E9EAEF",
"o+	c #DADEE9",
"p+	c #7F92C3",
"q+	c #7C94EF",
"r+	c #476EE9",
"s+	c #4872EA",
"t+	c #4B78EA",
"u+	c #507EEB",
"v+	c #799DEF",
"w+	c #789DEF",
"x+	c #769AEF",
"y+	c #7296EF",
"z+	c #6E90EE",
"A+	c #698AED",
"B+	c #6584EC",
"C+	c #607DEC",
"D+	c #5D79EB",
"E+	c #5B78EB",
"F+	c #6E88ED",
"G+	c #4F67AF",
"H+	c #8292BC",
"I+	c #C3CADC",
"J+	c #E0E3EA",
"K+	c #E8EAEE",
"L+	c #7E91C3",
"M+	c #5A74C2",
"N+	c #849BF0",
"O+	c #7993EF",
"P+	c #7996EF",
"Q+	c #688BED",
"R+	c #4D7BEA",
"S+	c #5182EB",
"T+	c #5387EB",
"U+	c #6E9CEE",
"V+	c #7AA4EF",
"W+	c #77A1EF",
"X+	c #739BEF",
"Y+	c #6E95EE",
"Z+	c #688DED",
"`+	c #6385EC",
" @	c #5E7EEB",
".@	c #5977EB",
"+@	c #5674EB",
"@@	c #6B86ED",
"#@	c #4F67AE",
"$@	c #8191BC",
"%@	c #C2C9DC",
"&@	c #E0E2E9",
"*@	c #9299AB",
"=@	c #E8E9EE",
"-@	c #7D90C2",
";@	c #8199EF",
">@	c #7692EF",
",@	c #7796EF",
"'@	c #799CEF",
")@	c #618FEC",
"!@	c #568DEB",
"~@	c #5A93EC",
"{@	c #649CEE",
"]@	c #7BABF0",
"^@	c #78A8F0",
"/@	c #73A2EF",
"(@	c #6E9AEE",
"_@	c #6891EE",
":@	c #6288ED",
"<@	c #5C7EEC",
"[@	c #5676EB",
"}@	c #5271EA",
"|@	c #6883EC",
"1@	c #8191BB",
"2@	c #C1C8DB",
"3@	c #DFE2E9",
"4@	c #9299AA",
"5@	c #E7E9EE",
"6@	c #D5D9E6",
"7@	c #7C8FC1",
"8@	c #7F97EF",
"9@	c #7391EE",
"0@	c #7597EF",
"a@	c #779DEF",
"b@	c #78A3EF",
"c@	c #6199ED",
"d@	c #5F9EED",
"e@	c #62A3EE",
"f@	c #79B1F1",
"g@	c #79AEF0",
"h@	c #74A8EF",
"i@	c #6E9FEE",
"j@	c #6894ED",
"k@	c #618AEC",
"l@	c #5A7FEB",
"m@	c #5476EA",
"n@	c #4F6FEA",
"o@	c #6681EC",
"p@	c #4F67AD",
"q@	c #8090BA",
"r@	c #C0C7DB",
"s@	c #9198AA",
"t@	c #E7E8EE",
"u@	c #D3D8E6",
"v@	c #7B8EC0",
"w@	c #5A74C1",
"x@	c #7C96EF",
"y@	c #7090EE",
"z@	c #7297EF",
"A@	c #759EEF",
"B@	c #78A7F0",
"C@	c #77ACF0",
"D@	c #65A7EE",
"E@	c #67ACEF",
"F@	c #73B3F0",
"G@	c #7AB4F0",
"H@	c #74ACF0",
"I@	c #6B9FE8",
"J@	c #5C92CC",
"K@	c #4D95A7",
"L@	c #45A17F",
"M@	c #43AA63",
"N@	c #43AD5B",
"O@	c #48AB66",
"P@	c #419167",
"Q@	c #64948A",
"R@	c #A8BAC0",
"S@	c #D9DDE3",
"T@	c #8E95A6",
"U@	c #E6E8ED",
"V@	c #D1D6E5",
"W@	c #7B8DBF",
"X@	c #5A74C0",
"Y@	c #7893EF",
"Z@	c #6C8EED",
"`@	c #6F95EE",
" #	c #729EEE",
".#	c #76A7EF",
"+#	c #7AB0F1",
"@#	c #75B3F0",
"##	c #6BB4EF",
"$#	c #6EB6EF",
"%#	c #79B8F0",
"&#	c #6DA8E3",
"*#	c #549CA8",
"=#	c #4DA973",
"-#	c #55BA59",
";#	c #63C553",
">#	c #6DCD54",
",#	c #72D157",
"'#	c #74D359",
")#	c #6BCA56",
"!#	c #60BC58",
"~#	c #70B774",
"{#	c #9DC5A3",
"]#	c #709282",
"^#	c #319634",
"/#	c #E5E8ED",
"(#	c #7A8CBE",
"_#	c #5973C0",
":#	c #7494EE",
"<#	c #779BEF",
"[#	c #7BA4EF",
"}#	c #7FADF0",
"|#	c #83B5F1",
"1#	c #86BDF2",
"2#	c #80BFF1",
"3#	c #7DBEF1",
"4#	c #7AB5E0",
"5#	c #5DA8A1",
"6#	c #57B763",
"7#	c #63C351",
"8#	c #6BCA50",
"9#	c #72CF54",
"0#	c #79D458",
"a#	c #7DD95B",
"b#	c #83DF61",
"c#	c #88E266",
"d#	c #85E165",
"e#	c #7AD660",
"f#	c #71C861",
"g#	c #56AB53",
"h#	c #3EAB35",
"i#	c #E5E7EC",
"j#	c #CED3E3",
"k#	c #7B8EBF",
"l#	c #4A65AE",
"m#	c #5A74BF",
"n#	c #5B75BE",
"o#	c #5B77BE",
"p#	c #5D79BD",
"q#	c #5E7CBD",
"r#	c #607EBD",
"s#	c #6080BC",
"t#	c #6181BC",
"u#	c #6080B8",
"v#	c #4D848A",
"w#	c #50AD57",
"x#	c #63C34D",
"y#	c #6DC950",
"z#	c #73CF51",
"A#	c #68CB4B",
"B#	c #5BC249",
"C#	c #57BF4B",
"D#	c #60C74C",
"E#	c #76D757",
"F#	c #8CE867",
"G#	c #8EEB6B",
"H#	c #86E364",
"I#	c #76D257",
"J#	c #52B73E",
"K#	c #B5BED7",
"L#	c #7B8DBE",
"M#	c #778ABB",
"N#	c #7689BA",
"O#	c #7688BA",
"P#	c #7588B9",
"Q#	c #7587B8",
"R#	c #7486B7",
"S#	c #7385B6",
"T#	c #64829C",
"U#	c #51A65D",
"V#	c #65C44E",
"W#	c #6DCA50",
"X#	c #6AC84F",
"Y#	c #57B454",
"Z#	c #53946C",
"`#	c #588182",
" $	c #587A85",
".$	c #55807E",
"+$	c #559B69",
"@$	c #69C759",
"#$	c #83E260",
"$$	c #87E967",
"%$	c #7DDD5C",
"&$	c #55B940",
"*$	c #9DA3B1",
"=$	c #E4E6EC",
"-$	c #CCD1E1",
";$	c #CACFE0",
">$	c #C8CEDF",
",$	c #C6CDDE",
"'$	c #C3CBDD",
")$	c #C3CADD",
"!$	c #C1C9DC",
"~$	c #87BB96",
"{$	c #65C652",
"]$	c #6ECC53",
"^$	c #72CF52",
"/$	c #68C05D",
"($	c #7FB08A",
"_$	c #A4B5BB",
":$	c #9AACAE",
"<$	c #52B049",
"[$	c #4DAB45",
"}$	c #64A96A",
"|$	c #5BBD53",
"1$	c #73D551",
"2$	c #7CDF5B",
"3$	c #72D553",
"4$	c #4EB43C",
"5$	c #C9CCD4",
"6$	c #E5E7ED",
"7$	c #E3E5EC",
"8$	c #E2E5EC",
"9$	c #79C978",
"0$	c #70CE4F",
"a$	c #76D255",
"b$	c #84C082",
"c$	c #BFCDC7",
"d$	c #DDE0E7",
"e$	c #D7DEE0",
"f$	c #B4D2B7",
"g$	c #A6C6A8",
"h$	c #8EBF91",
"i$	c #6AB967",
"j$	c #70BE62",
"k$	c #6DBA5F",
"l$	c #5DAC53",
"m$	c #379E2E",
"n$	c #9A9FAF",
"o$	c #999FAE",
"p$	c #52B055",
"q$	c #5DC249",
"r$	c #63C64D",
"s$	c #58B650",
"t$	c #6E927E",
"u$	c #8B93A1",
"v$	c #8891A0",
"w$	c #77898B",
"x$	c #6B867B",
"y$	c #6C8A7C",
"z$	c #6C8E7B",
"A$	c #508858",
"B$	c #418E46",
"C$	c #419640",
"D$	c #439740",
"E$	c #419143",
"F$	c #A4A8B4",
"G$	c #98A1A8",
"H$	c #819B8F",
"I$	c #7C9A88",
"J$	c #7A9887",
"K$	c #779285",
"L$	c #748D83",
"M$	c #809093",
"N$	c #8E96A4",
"O$	c #9198A9",
"P$	c #88909F",
"Q$	c #698C78",
"R$	c #4FAC46",
"S$	c #51BB3A",
"T$	c #4BB635",
"U$	c #2FA329",
"V$	c #C8CBD2",
"W$	c #E7E8EC",
"X$	c #E6E8EC",
"Y$	c #E6E7EB",
"Z$	c #E5E7EB",
"`$	c #E5E6EB",
" %	c #E4E5EA",
".%	c #E3E5EA",
"+%	c #E2E4E9",
"@%	c #BBCBC1",
"#%	c #78C075",
"$%	c #78C66B",
"%%	c #79C66C",
"&%	c #72C167",
"*%	c #6BBA6A",
"=%	c #98C19E",
"-%	c #C9D0D2",
";%	c #DBDEE5",
">%	c #D6D9E1",
",%	c #B6C4BF",
"'%	c #7CB57B",
")%	c #60C345",
"!%	c #65CF44",
"~%	c #5EC33D",
"{%	c #32A32A",
"]%	c #E8EBF1",
"^%	c #E6E9F1",
"/%	c #E4E8EF",
"(%	c #D9DEE9",
"_%	c #CFD5E3",
":%	c #9BB6AB",
"<%	c #67C559",
"[%	c #82E261",
"}%	c #86E563",
"|%	c #75D653",
"1%	c #5BBB54",
"2%	c #85B395",
"3%	c #B3BECC",
"4%	c #B2B8C9",
"5%	c #8E8483",
"6%	c #759B76",
"7%	c #62B956",
"8%	c #64CD45",
"9%	c #5ECB42",
"0%	c #51B839",
"a%	c #ECEDF1",
"b%	c #D8DAE1",
"c%	c #8A8B8D",
"d%	c #88898B",
"e%	c #88888A",
"f%	c #87888A",
"g%	c #87878A",
"h%	c #868789",
"i%	c #858689",
"j%	c #848588",
"k%	c #838488",
"l%	c #657D69",
"m%	c #63BC4F",
"n%	c #8AE768",
"o%	c #8CEC6B",
"p%	c #7DDD5B",
"q%	c #60BE50",
"r%	c #77B480",
"s%	c #93B1A6",
"t%	c #9CB2B1",
"u%	c #787865",
"v%	c #7F7E44",
"w%	c #5DA43C",
"x%	c #61C845",
"y%	c #61CE43",
"z%	c #5EC144",
"A%	c #40A134",
"B%	c #DFE2EA",
"C%	c #B7BAC0",
"D%	c #B4B7BD",
"E%	c #B2B5BC",
"F%	c #B0B3BB",
"G%	c #AEB1BA",
"H%	c #ACAFB8",
"I%	c #AAADB7",
"J%	c #A8ABB6",
"K%	c #7C9688",
"L%	c #63BD52",
"M%	c #7FD85C",
"N%	c #80E060",
"O%	c #7EE35E",
"P%	c #79DC54",
"Q%	c #63CB45",
"R%	c #54BD41",
"S%	c #50B942",
"T%	c #52B93B",
"U%	c #5DC53E",
"V%	c #65CF43",
"W%	c #61CF43",
"X%	c #62C747",
"Y%	c #57A54E",
"Z%	c #D8DDE8",
"`%	c #D6DAE7",
" &	c #D4D8E6",
".&	c #9EB7AC",
"+&	c #5DB958",
"@&	c #64BC5F",
"#&	c #68C358",
"$&	c #6FD153",
"%&	c #70D64F",
"&&	c #6AD44A",
"*&	c #66D146",
"=&	c #64CF44",
"-&	c #63D043",
";&	c #63CF43",
">&	c #61CD44",
",&	c #60C546",
"'&	c #68B95B",
")&	c #648D72",
"!&	c #B0B4BE",
"~&	c #C7CAD1",
"{&	c #C7C9D1",
"]&	c #C6C9D1",
"^&	c #C5C8D0",
"/&	c #C4C7CF",
"(&	c #C3C6CF",
"_&	c #C2C5CE",
":&	c #C1C4CD",
"<&	c #BFC3CD",
"[&	c #BEC2CC",
"}&	c #9BAEA7",
"|&	c #6EAE75",
"1&	c #8DAE98",
"2&	c #81AC8A",
"3&	c #66B063",
"4&	c #5EBC4D",
"5&	c #61C746",
"6&	c #64CC44",
"7&	c #63CC43",
"8&	c #63CB44",
"9&	c #5FC443",
"0&	c #5BB849",
"a&	c #63AB60",
"b&	c #71957F",
"c&	c #84909C",
"d&	c #969DAD",
"e&	c #8E95A3",
"f&	c #85919A",
"g&	c #8E96A5",
"h&	c #8A92A1",
"i&	c #768B8A",
"j&	c #60936E",
"k&	c #50A054",
"l&	c #47A645",
"m&	c #45A840",
"n&	c #47A544",
"o&	c #4F9D53",
"p&	c #5F916C",
"q&	c #758B8A",
"          . + + @ # $ % & * = - ; > , ' ) ) ! ~ { ] ^           ",
"    / ( _ _ : < < [ [ [ } | 1 2 2 3 4 5 6 7 8 8 9 0 a b c d     ",
"    / e f g g h i i j k l l m n o p q r s t u v w x y y z d     ",
"    / A u w B C D E F G H I J K L M N O P Q R S T U V W X Y     ",
"    Z A w `  .....+.@.#.#.$.%.&.*.=.-.;.>.,.'.).!.~.{.].^.Y     ",
"    + /.(._.:.<.[.[.[.}.|.1.1.2.3.4.4.5.6.7.8.9.0.a.b.c.^.d.    ",
"    + /.D e.f.g.h.h.h.i.j.k.j.l.m.n.o.p.q.r.s.t.u.v.w.x.y.z.    ",
"    @ A.F B.C.D.E.E.E.E.F.G.H.I.J.K.L.M.N.O.P.Q.R.S.T.U.V.W.    ",
"    # X.H Y.Z.M.E.E.E.E.`. +p.q..+M.N.O.++@+#+F.s.$+%+&+*+=+    ",
"    $ -+I ;+Z.>+,+E.E.'+)+!+~+{+]+^+/+(+#+_+:+<+[+$+}+|+1+2+    ",
"    % -+K 3+4+5+p.6+)+7+8+9+0+a+b+c+d+e+f+<+g+h+i+j+k+l+1+m+    ",
"    & n+o+p+4+j.q+!+r+s+t+u+v+w+x+y+z+A+B+C+D+E+F+G+H+I+J+m+    ",
"    & K+N L+M+N+O+P+Q+R+S+T+U+V+W+X+Y+Z+`+ @.@+@@@#@$@%@&@*@    ",
"    - =@P -@M+;@>@,@'@)@!@~@{@]@^@/@(@_@:@<@[@}@|@#@1@2@3@4@    ",
"    - 5@6@7@M+8@9@0@a@b@c@d@e@f@g@h@i@j@k@l@m@n@o@p@q@r@3@s@    ",
"    ; t@u@v@w@x@y@z@A@B@C@D@E@F@G@H@I@J@K@L@M@N@O@P@Q@R@S@T@    ",
"    > U@V@W@X@Y@Z@`@ #.#+#@###$#%#&#*#=#-#;#>#,#'#)#!#~#{#]#^#  ",
"    , /#V (#_#{+:#<#[#}#|#1#2#3#4#5#6#7#8#9#0#a#b#c#d#e#f#g#h#  ",
"    , i#j#k#l#m#n#o#p#q#r#s#t#u#v#w#x#y#z#A#B#C#D#E#F#G#H#I#J#  ",
"    ) i#c.K#L#M#N#O#P#Q#R#R#S#T#U#V#W#X#Y#Z#`# $.$+$@$#$$$%$&$  ",
"    *$=$-$;$U.>$,$|+l+'$)$%@!$~${$]$^$/$($_$:$<$[$}$|$1$2$3$4$  ",
"    ! 5$6$6$=$=$=$7$7$7$8$y.y.9$0$a$]$b$c$d$e$f$g$h$i$j$k$l$m$  ",
"      { ] ^ n$o$d d Y Y d.z.W.p$q$r$s$t$u$s@s@s@v$w$x$y$z$A$    ",
"                              B$C$D$E$                          ",
"      + / / / / / / / / + F$% G$H$I$J$K$L$M$N$m+4@O$P$Q$R$S$T$U$",
"    / V$W$W$W$W$X$Y$Z$`$ %.%+%@%#%$%%%&%*%=%-%;%;%>%,%'%)%!%~%{%",
"    / A ]%r ^%/%(.F I (%P S _%:%<%[%}%|%1%2%3%r@4%5%6%7%8%9%0%  ",
"    / a%b%c%d%e%f%g%h%i%j%j%k%l%m%n%o%p%q%r%s%t%u%v%w%x%y%z%A%  ",
"    / A B%C%D%E%F%G%H%I%J%. $ K%L%M%N%O%P%Q%R%S%T%U%V%W%X%Y%    ",
"    / X$r v C F I K Z%`% &T V .&+&@&#&$&%&&&*&=&-&;&>&,&'&)&    ",
"    / !&~&~&{&]&^&/&(&_&:&<&[&}&|&1&2&3&4&5&6&7&8&9&0&a&b&c&    ",
"        + + F$& - , ) { ^ d d&e&f&g&h&i&j&k&l&m&n&o&p&q&        "};
