/* XPM */
static const char * open1_xpm[] = {
"24 24 337 2",
"  	c None",
". 	c #F09322",
"+ 	c #F4B759",
"@ 	c #F6CE7D",
"# 	c #F5C774",
"$ 	c #F4BF68",
"% 	c #F3B65C",
"& 	c #F2AD4F",
"* 	c #F1A441",
"= 	c #EF9A33",
"- 	c #EE8F27",
"; 	c #ED8A23",
"> 	c #ED8823",
", 	c #EC8723",
"' 	c #F3AE3D",
") 	c #F4B353",
"! 	c #F7D88D",
"~ 	c #F9EBA9",
"{ 	c #FAEDAD",
"] 	c #F9EFB0",
"^ 	c #FAF0B3",
"/ 	c #FAF2B5",
"( 	c #F9F1B4",
"_ 	c #F9EBAC",
": 	c #F7E19F",
"< 	c #F6D892",
"[ 	c #F5CE86",
"} 	c #EFA751",
"| 	c #F9E9A2",
"1 	c #F7DC85",
"2 	c #F3B443",
"3 	c #F2A63B",
"4 	c #F5BE61",
"5 	c #F8DB89",
"6 	c #F9E99A",
"7 	c #F9EB9C",
"8 	c #F9ED9F",
"9 	c #F9EFA1",
"0 	c #F9F1A4",
"a 	c #F9F2A6",
"b 	c #F9F3B0",
"c 	c #F2C074",
"d 	c #FAEEB7",
"e 	c #FCF4CA",
"f 	c #F9E996",
"g 	c #F6DE6E",
"h 	c #F4C554",
"i 	c #F1AB3D",
"j 	c #F0A53F",
"k 	c #F3BC5F",
"l 	c #F7D983",
"m 	c #F9F09D",
"n 	c #FAF29F",
"o 	c #F9F29E",
"p 	c #FAF3AC",
"q 	c #F1BF74",
"r 	c #FCF4C9",
"s 	c #F9E791",
"t 	c #F6DB5D",
"u 	c #F4D442",
"v 	c #F4D44B",
"w 	c #F4D458",
"x 	c #F3C353",
"y 	c #EFA039",
"z 	c #F4CC73",
"A 	c #FAF39F",
"B 	c #F1BC72",
"C 	c #FAEDB7",
"D 	c #FCF3C8",
"E 	c #F9E68F",
"F 	c #F6D85B",
"G 	c #F3CF3B",
"H 	c #F2CB36",
"I 	c #F2C935",
"J 	c #F3C838",
"K 	c #F1B84D",
"L 	c #F1C56D",
"M 	c #F9F3AC",
"N 	c #F0BA70",
"O 	c #FAEDB8",
"P 	c #FCF2C8",
"Q 	c #F9E48E",
"R 	c #F6D658",
"S 	c #F3CB39",
"T 	c #F2C734",
"U 	c #F3C431",
"V 	c #F3C333",
"W 	c #F1B74C",
"X 	c #D6A557",
"Y 	c #D4C880",
"Z 	c #E5DA8D",
"` 	c #F9F1AB",
" .	c #F0B66D",
"..	c #EF9122",
"+.	c #FAECB8",
"@.	c #FCF1C6",
"#.	c #F9E28C",
"$.	c #F5D256",
"%.	c #F3C635",
"&.	c #F2C22F",
"*.	c #F2BF2E",
"=.	c #F2BE31",
"-.	c #F0B54A",
";.	c #D19F52",
">.	c #C3B672",
",.	c #CEC079",
"'.	c #F7EFAB",
").	c #EFB36A",
"!.	c #249524",
"~.	c #EF9022",
"{.	c #FAEBB7",
"].	c #FBF0C6",
"^.	c #F9DF8A",
"/.	c #F5CF53",
"(.	c #F2C132",
"_.	c #F1BD2D",
":.	c #F0BA2B",
"<.	c #F1BA2E",
"[.	c #EFB34A",
"}.	c #C7954D",
"|.	c #BCAE6D",
"1.	c #CDBE78",
"2.	c #F7EEAB",
"3.	c #EEB067",
"4.	c #124B12",
"5.	c #28A628",
"6.	c #EE8F22",
"7.	c #FAEBB8",
"8.	c #FBEFC5",
"9.	c #F9DD88",
"0.	c #F5CB51",
"a.	c #F1BC2F",
"b.	c #F0B92B",
"c.	c #F1B72A",
"d.	c #EFB52C",
"e.	c #DBA445",
"f.	c #8F8537",
"g.	c #72AA4A",
"h.	c #CDBD77",
"i.	c #F7EEAA",
"j.	c #EEAD65",
"k.	c #27A027",
"l.	c #2FA92B",
"m.	c #ED8D22",
"n.	c #FAEAB7",
"o.	c #FBEEC3",
"p.	c #F8DB86",
"q.	c #F5C74E",
"r.	c #F1B92E",
"s.	c #F0B629",
"t.	c #ECB127",
"u.	c #D5A026",
"v.	c #87A239",
"w.	c #2FAF2B",
"x.	c #3CB033",
"y.	c #CDBB76",
"z.	c #F7EDAA",
"A.	c #EDAC64",
"B.	c #238F23",
"C.	c #5FC53E",
"D.	c #36AC2D",
"E.	c #ED8A22",
"F.	c #FBEDC2",
"G.	c #F8D984",
"H.	c #F5C54C",
"I.	c #F1B62C",
"J.	c #E9AE26",
"K.	c #CA9A22",
"L.	c #6AA327",
"M.	c #36B731",
"N.	c #70D44B",
"O.	c #3BAF32",
"P.	c #CCBA74",
"Q.	c #F6EAA6",
"R.	c #E8AE6B",
"S.	c #7E421A",
"T.	c #249324",
"U.	c #53BE39",
"V.	c #90E051",
"W.	c #28A228",
"X.	c #EC8822",
"Y.	c #FAEAB6",
"Z.	c #FBEBC1",
"`.	c #F8D883",
" +	c #F4C24A",
".+	c #E5AC29",
"++	c #BC9822",
"@+	c #51A929",
"#+	c #44BE37",
"$+	c #9AEB60",
"%+	c #8EE359",
"&+	c #38AC30",
"*+	c #B7A668",
"=+	c #D4C686",
"-+	c #B3BD83",
";+	c #669838",
">+	c #2EA629",
",+	c #65C840",
"'+	c #8DE252",
")+	c #67C841",
"!+	c #258F25",
"~+	c #EB8622",
"{+	c #F7D581",
"]+	c #E2B245",
"^+	c #A89A25",
"/+	c #3EAE2B",
"(+	c #58C840",
"_+	c #9FEF65",
":+	c #84E962",
"<+	c #8BE257",
"[+	c #2EAB2C",
"}+	c #50A239",
"|+	c #40AA35",
"1+	c #2CAA2B",
"2+	c #52BE39",
"3+	c #84DB4D",
"4+	c #77DB4A",
"5+	c #8AE050",
"6+	c #33A82C",
"7+	c #EA8322",
"8+	c #FAE9B7",
"9+	c #F9E9BF",
"0+	c #DFC075",
"a+	c #91A439",
"b+	c #33B22D",
"c+	c #9DF066",
"d+	c #79E660",
"e+	c #6FE159",
"f+	c #93E85B",
"g+	c #69CD44",
"h+	c #6CCE45",
"i+	c #7AD64A",
"j+	c #76DA4A",
"k+	c #5CD041",
"l+	c #7EDD4D",
"m+	c #57BD3A",
"n+	c #268526",
"o+	c #E88022",
"p+	c #FAEAB8",
"q+	c #F8E7BE",
"r+	c #88B756",
"s+	c #33B630",
"t+	c #87E156",
"u+	c #95EE66",
"v+	c #75E55F",
"w+	c #6BDF58",
"x+	c #64DA51",
"y+	c #64D84D",
"z+	c #6CD94B",
"A+	c #65D546",
"B+	c #58CF40",
"C+	c #4FCC3D",
"D+	c #82DE4E",
"E+	c #60C33E",
"F+	c #269726",
"G+	c #E77D22",
"H+	c #FAEAB9",
"I+	c #FBEAC1",
"J+	c #A9C966",
"K+	c #33B42F",
"L+	c #7FDC52",
"M+	c #92EC62",
"N+	c #6DDF58",
"O+	c #63DA50",
"P+	c #5CD54A",
"Q+	c #56D144",
"R+	c #53CE40",
"S+	c #54CE3F",
"T+	c #60D242",
"U+	c #7BDC4C",
"V+	c #48B534",
"W+	c #269126",
"X+	c #E67A22",
"Y+	c #FAEBB9",
"Z+	c #F8D682",
"`+	c #BCBD44",
" @	c #38AF2C",
".@	c #67CD45",
"+@	c #90E75A",
"@@	c #63D74B",
"#@	c #55D044",
"$@	c #73DA4A",
"%@	c #89E050",
"&@	c #80D94B",
"*@	c #6DCC43",
"=@	c #48B635",
"-@	c #2DA42B",
";@	c #789734",
">@	c #E57723",
",@	c #F1BB64",
"'@	c #F9E3A2",
")@	c #F8D885",
"!@	c #F4C14A",
"~@	c #D1B32B",
"{@	c #46AD2A",
"]@	c #50BF3A",
"^@	c #8CE253",
"/@	c #62D345",
"(@	c #87DE4F",
"_@	c #2AA629",
":@	c #38AA33",
"<@	c #62B950",
"[@	c #99CC81",
"}@	c #DFE7BB",
"|@	c #EB9E5C",
"1@	c #E37323",
"2@	c #E6822E",
"3@	c #EFB456",
"4@	c #F5CC5D",
"5@	c #F2B832",
"6@	c #E2B52C",
"7@	c #5DB137",
"8@	c #3FB432",
"9@	c #87DD4E",
"0@	c #2CA328",
"a@	c #E28943",
"b@	c #EA9A56",
"c@	c #EDAB69",
"d@	c #ECA866",
"e@	c #D47030",
"f@	c #E16D23",
"g@	c #E57E2E",
"h@	c #EFAF4B",
"i@	c #F3C64C",
"j@	c #E9A848",
"k@	c #5E8927",
"l@	c #32AB2C",
"m@	c #75D046",
"n@	c #27A227",
"o@	c #E26A23",
"p@	c #E57D2E",
"q@	c #E88F39",
"r@	c #925527",
"s@	c #28A328",
"t@	c #26A127",
"u@	c #E16923",
"v@	c #26A026",
"                                                ",
"    . + @ # $ % & * = - ; > ,                   ",
"    . ' ) ! ~ { ] ^ / ( _ : < [ }               ",
"    . | 1 2 3 4 5 6 7 8 9 0 a b c               ",
"    . d e f g h i j k l m n o p q               ",
"    . d r s t u v w x y z A o p B               ",
"    . C D E F G H I J K L o o M N               ",
"    . O P Q R S T U V W X Y Z `  .              ",
"    ..+.@.#.$.%.&.*.=.-.;.>.,.'.).          !.  ",
"    ~.{.].^./.(._.:.<.[.}.|.1.2.3.        4.5.  ",
"    6.7.8.9.0.a.b.c.d.e.f.g.h.i.j.        k.l.  ",
"    m.n.o.p.q.r.s.t.u.v.w.x.y.z.A.      B.C.D.  ",
"    E.n.F.G.H.I.J.K.L.M.N.O.P.Q.R.S.  T.U.V.W.  ",
"    X.Y.Z.`. +.+++@+#+$+%+&+*+=+-+;+>+,+'+)+!+  ",
"    ~+n.Z.{+]+^+/+(+_+:+<+[+}+|+1+2+3+4+5+6+    ",
"    7+8+9+0+a+b+N.c+d+e+f+g+h+i+5+j+k+l+m+n+    ",
"    o+p+q+r+s+t+u+v+w+x+y+z+A+B+C+B+D+E+F+      ",
"    G+H+I+J+K+L+M+N+O+P+Q+R+S+T+U+3+V+W+        ",
"    X+Y+I+Z+`+ @.@+@@@#@$@%@&@*@=@-@;@          ",
"    >@,@'@)@!@~@{@]@^@/@(@_@:@<@[@}@|@          ",
"      1@2@3@4@5@6@7@8@(@9@0@a@b@c@d@e@          ",
"          f@g@h@i@j@k@l@m@n@                    ",
"              o@p@q@r@  s@t@                    ",
"                  u@      v@                    "};
