/* XPM */
static const char * paste_xpm[] = {
"24 24 288 2",
"  	c None",
". 	c #A1A1A6",
"+ 	c #9D9EA2",
"@ 	c #9B9BA0",
"# 	c #98989D",
"$ 	c #959599",
"% 	c #919196",
"& 	c #8D8D91",
"* 	c #CA8401",
"= 	c #C68201",
"- 	c #B97D0E",
"; 	c #9F9C98",
"> 	c #EAEAEB",
", 	c #EEEEEE",
"' 	c #EDEDEE",
") 	c #A6A6A9",
"! 	c #705324",
"~ 	c #A86804",
"{ 	c #B96F01",
"] 	c #D49920",
"^ 	c #EBC35D",
"/ 	c #ECC55F",
"( 	c #BAA372",
"_ 	c #A9A9AC",
": 	c #CACACA",
"< 	c #BCBCBC",
"[ 	c #BFBFBF",
"} 	c #B6B6B8",
"| 	c #8A8070",
"1 	c #DBBA5C",
"2 	c #ECC761",
"3 	c #DDA238",
"4 	c #CC7A0C",
"5 	c #CF911C",
"6 	c #F0CB68",
"7 	c #FECB64",
"8 	c #FECA62",
"9 	c #A7A096",
"0 	c #C0C0C2",
"a 	c #B4B4B6",
"b 	c #B3B3B5",
"c 	c #B2B2B4",
"d 	c #B1B1B3",
"e 	c #B9B9BB",
"f 	c #8E8E92",
"g 	c #C7C562",
"h 	c #FBFA6E",
"i 	c #FCF084",
"j 	c #CC7708",
"k 	c #F2CD6B",
"l 	c #FECA61",
"m 	c #FECA60",
"n 	c #D0B273",
"o 	c #A0957B",
"p 	c #9C9378",
"q 	c #9A9276",
"r 	c #989275",
"s 	c #969273",
"t 	c #959272",
"u 	c #949372",
"v 	c #99986C",
"w 	c #BCBC53",
"x 	c #F7F66A",
"y 	c #FDF182",
"z 	c #CD7608",
"A 	c #FECC61",
"B 	c #F8CB60",
"C 	c #D4B253",
"D 	c #CAB051",
"E 	c #CAB553",
"F 	c #CABB55",
"G 	c #CAC056",
"H 	c #CAC557",
"I 	c #CAC857",
"J 	c #CBCA57",
"K 	c #DCDB5E",
"L 	c #FCF769",
"M 	c #FDEE80",
"N 	c #CD7408",
"O 	c #FECC62",
"P 	c #FED163",
"Q 	c #FED764",
"R 	c #FDDC66",
"S 	c #FCE368",
"T 	c #FCE96A",
"U 	c #CCC68F",
"V 	c #C9C7AB",
"W 	c #C9C8AB",
"X 	c #C8C8AB",
"Y 	c #C8C8AA",
"Z 	c #C9C7A8",
"` 	c #C8C4AD",
" .	c #BCA891",
"..	c #A6A3A1",
"+.	c #F2CE6B",
"@.	c #FEDD67",
"#.	c #FEE469",
"$.	c #FEEB6B",
"%.	c #FEF26D",
"&.	c #CCCAAA",
"*.	c #F8F9FA",
"=.	c #F4F6F9",
"-.	c #F4F6FA",
";.	c #F4F5F9",
">.	c #D2D3D7",
",.	c #AAA9AD",
"'.	c #CF901C",
").	c #F2CE6C",
"!.	c #FED765",
"~.	c #FEF76E",
"{.	c #CCCBAA",
"].	c #F5F6F9",
"^.	c #EDF0F7",
"/.	c #EDF0F8",
"(.	c #EDEFF7",
"_.	c #CBCDD3",
":.	c #D2D1D3",
"<.	c #B6B5B8",
"[.	c #CF8F1C",
"}.	c #F2D06C",
"|.	c #FEDE67",
"1.	c #FEFB6E",
"2.	c #CCCCAA",
"3.	c #CED0D7",
"4.	c #B1B0B4",
"5.	c #B2B2B5",
"6.	c #99999D",
"7.	c #CF8E1C",
"8.	c #F2D16C",
"9.	c #FEFE6E",
"0.	c #CBCBA9",
"a.	c #E7EAF2",
"b.	c #D6D9E0",
"c.	c #D3D6DD",
"d.	c #D2D2D3",
"e.	c #CF8D1C",
"f.	c #F2D26D",
"g.	c #FEFD6D",
"h.	c #CBCAA8",
"i.	c #E5E7EF",
"j.	c #D7DAE0",
"k.	c #D5D8DF",
"l.	c #E6E9F0",
"m.	c #D8DBE2",
"n.	c #D4D6DE",
"o.	c #DBDEE6",
"p.	c #ECEFF7",
"q.	c #E1E1E2",
"r.	c #CF8C1C",
"s.	c #F2D36D",
"t.	c #FEF96A",
"u.	c #CAC8A6",
"v.	c #DDE0E7",
"w.	c #DCDEE6",
"x.	c #E8EBF2",
"y.	c #CDCFD6",
"z.	c #E4E6EE",
"A.	c #E3E6ED",
"B.	c #E3E6EE",
"C.	c #CED0D8",
"D.	c #E1E2E3",
"E.	c #CF8B1C",
"F.	c #F2D46E",
"G.	c #FEF264",
"H.	c #CAC5A4",
"I.	c #E4E7EE",
"J.	c #D6D8DF",
"K.	c #D4D6DD",
"L.	c #E5E8EF",
"M.	c #CFD2D8",
"N.	c #CDCFD8",
"O.	c #E8ECF6",
"P.	c #E1E1E3",
"Q.	c #CF891C",
"R.	c #F2D56E",
"S.	c #FEFB6F",
"T.	c #FEF265",
"U.	c #FEE85E",
"V.	c #C9C2A2",
"W.	c #F5F6FA",
"X.	c #DFE2E9",
"Y.	c #DEE1E8",
"Z.	c #E8EBF3",
"`.	c #EBEEF7",
" +	c #CACDD7",
".+	c #E3E8F4",
"++	c #E0E1E2",
"@+	c #CF871C",
"#+	c #FEFE6F",
"$+	c #FEF969",
"%+	c #FEDE58",
"&+	c #C9BFA0",
"*+	c #D1D4DB",
"=+	c #C9CCD3",
"-+	c #D7D9E2",
";+	c #D4D6E1",
">+	c #D1D5E0",
",+	c #C5C8D3",
"'+	c #DEE3F2",
")+	c #E0E0E2",
"!+	c #CF861C",
"~+	c #FEFD6E",
"{+	c #FED351",
"]+	c #C8BC9E",
"^+	c #E9ECF3",
"/+	c #E0E3EA",
"(+	c #E7EAF3",
"_+	c #DDE0EA",
":+	c #D8DCE7",
"<+	c #D5D9E5",
"[+	c #D2D7E4",
"}+	c #D4D9E9",
"|+	c #D9DFF0",
"1+	c #DFE0E2",
"2+	c #CF841C",
"3+	c #F2D46D",
"4+	c #FEC94C",
"5+	c #C8B99C",
"6+	c #E2E5EC",
"7+	c #CFD3DA",
"8+	c #CACDD6",
"9+	c #C8CBD5",
"0+	c #C5C9D5",
"a+	c #C3C6D3",
"b+	c #C0C4D1",
"c+	c #C6CBDB",
"d+	c #D4DBEF",
"e+	c #DFDFE1",
"f+	c #CF811A",
"g+	c #F1D06B",
"h+	c #FEF266",
"i+	c #FEE85F",
"j+	c #FED352",
"k+	c #FECA4D",
"l+	c #FEC148",
"m+	c #C7B79B",
"n+	c #E6E9F2",
"o+	c #DCE0EA",
"p+	c #D9DDE8",
"q+	c #D6DAE7",
"r+	c #D3D7E6",
"s+	c #D0D5E5",
"t+	c #CDD3E3",
"u+	c #CAD0E2",
"v+	c #CCD3E7",
"w+	c #D1D9EE",
"x+	c #DEDFE1",
"y+	c #D89129",
"z+	c #F1CD69",
"A+	c #F2CC69",
"B+	c #F2C968",
"C+	c #F2C666",
"D+	c #F2C465",
"E+	c #F2C364",
"F+	c #C3B7A2",
"G+	c #F2F4F9",
"H+	c #E5E9F5",
"I+	c #E1E6F3",
"J+	c #DBE1F1",
"K+	c #D8DEF0",
"L+	c #D5DBEF",
"M+	c #D2D9EE",
"N+	c #D0D8ED",
"O+	c #CFD7ED",
"P+	c #D1D8ED",
"Q+	c #A75A07",
"R+	c #A65907",
"S+	c #A55606",
"T+	c #A55506",
"U+	c #A45306",
"V+	c #A45206",
"W+	c #B19C8B",
"X+	c #EAEDF6",
"Y+	c #E8EBF5",
"Z+	c #E5E9F4",
"`+	c #E3E8F3",
" @	c #E2E6F3",
".@	c #E0E5F2",
"+@	c #DFE4F2",
"@@	c #DEE4F2",
"#@	c #75757D",
"$@	c #B5B5B8",
"%@	c #B4B4B7",
"&@	c #B3B3B7",
"*@	c #B3B3B6",
"=@	c #B1B1B5",
"-@	c #B1B1B4",
";@	c #A8A8AB",
"            . + @ # $ % &                       ",
"      * = - ; > , , ' , ) ! ~ {                 ",
"    ] ^ / ( _ : < < < [ } | 1 2 3 4             ",
"  5 6 7 8 9 0 } a b c d e f g h i j             ",
"  5 k l m n o p q r s t u v w x y z             ",
"  5 k l A B C D E F G H I J K L M N             ",
"  5 k O P Q R S T U V W X Y Y Z `  ...          ",
"  5 +.P Q @.#.$.%.&.*.=.=.=.=.=.-.;.>.,.        ",
"  '.).!.@.#.$.%.~.{.].^.^.^.^.^./.(._.:.<.      ",
"  [.}.|.#.$.%.~.1.2.].^.^.^.^.^./.^.3.4.5.6.    ",
"  7.8.#.$.%.~.1.9.0.].^.^.^.^.^./.(.a.b.c.d.    ",
"  e.f.$.%.~.1.9.g.h.].i.j.k.l.m.k.n.n.o.p.q.    ",
"  r.s.%.~.1.9.g.t.u.].a.v.w.x.y.z.A.B.C.p.D.    ",
"  E.F.~.1.9.g.t.G.H.].I.J.K.L.M./.(.p.N.O.P.    ",
"  Q.R.S.9.g.t.T.U.V.W.x.X.Y.Z.M.p.`.O. +.+++    ",
"  @+R.#+g.$+T.U.%+&+].A.c.*+I.=+-+;+>+,+'+)+    ",
"  !+R.~+t.G.U.%+{+]+].^+/+X.(+_+:+<+[+}+|+1+    ",
"  2+3+t.G.U.%+{+4+5+].6+7+N.8+9+0+a+b+c+d+e+    ",
"  f+g+h+i+%+j+k+l+m+;.n+o+p+q+r+s+t+u+v+w+x+    ",
"    y+z+A+B+C+D+E+F+G+H+I+'+J+K+L+M+N+O+P+x+    ",
"      Q+R+S+T+U+V+W+;.X+Y+Z+`+ @.@+@@@@@+@e+    ",
"                  #@$@%@&@*@5.5.=@-@-@-@-@;@    ",
"                                                ",
"                                                "};
