/* XPM */
static const char * profileremove_xpm[] = {
"24 24 277 2",
"  	c None",
". 	c #9C9CA2",
"+ 	c #9C9CA0",
"@ 	c #9B9BA0",
"# 	c #9A9B9F",
"$ 	c #9A9A9F",
"% 	c #99999E",
"& 	c #98989D",
"* 	c #97989C",
"= 	c #97979C",
"- 	c #96969B",
"; 	c #95969A",
"> 	c #939398",
", 	c #BCBCC0",
"' 	c #F0F0F1",
") 	c #F0F0F0",
"! 	c #EDEDEE",
"~ 	c #929297",
"{ 	c #C0C0C4",
"] 	c #F8F9FB",
"^ 	c #F0F2F9",
"/ 	c #EBEDF4",
"( 	c #A5A5A8",
"_ 	c #B7B7BA",
": 	c #919195",
"< 	c #C0C0C3",
"[ 	c #ECEFF8",
"} 	c #E6E9F1",
"| 	c #A8A7AB",
"1 	c #DEDCDE",
"2 	c #B7B6B9",
"3 	c #909094",
"4 	c #EDF0F9",
"5 	c #E6E8F1",
"6 	c #A6A6AA",
"7 	c #E1DFE1",
"8 	c #D6D5D7",
"9 	c #B0AFB3",
"0 	c #8E8E92",
"a 	c #BFC0C3",
"b 	c #E7EAF2",
"c 	c #AAABB1",
"d 	c #9FA0A6",
"e 	c #9FA0A5",
"f 	c #A5A5A9",
"g 	c #9A9A9E",
"h 	c #BFBFC2",
"i 	c #EAEDF5",
"j 	c #DDE0E8",
"k 	c #D3D6DD",
"l 	c #D2D4DC",
"m 	c #DEDFE2",
"n 	c #B6B6B8",
"o 	c #EAEDF6",
"p 	c #E9ECF4",
"q 	c #E8EBF4",
"r 	c #F2F3F7",
"s 	c #BEBEC1",
"t 	c #BEBFC1",
"u 	c #ECEFF9",
"v 	c #F6F7FB",
"w 	c #C0C0C2",
"x 	c #EBEFF8",
"y 	c #F5F7FA",
"z 	c #E0E1E9",
"A 	c #CBBBC0",
"B 	c #BA8483",
"C 	c #B5605A",
"D 	c #B5584F",
"E 	c #B55851",
"F 	c #B46965",
"G 	c #BC8F90",
"H 	c #DBD1D4",
"I 	c #B9B8BB",
"J 	c #BDBDC0",
"K 	c #D8D7DF",
"L 	c #BBA3A6",
"M 	c #B77E7B",
"N 	c #C77771",
"O 	c #D27C75",
"P 	c #D57F77",
"Q 	c #D57D76",
"R 	c #CE7972",
"S 	c #C2746F",
"T 	c #B88481",
"U 	c #A39190",
"V 	c #E5E7F0",
"W 	c #BDA3A5",
"X 	c #B96F6A",
"Y 	c #D0675F",
"Z 	c #E88379",
"` 	c #F39990",
" .	c #F59E96",
"..	c #F59C94",
"+.	c #F09088",
"@.	c #E27970",
"#.	c #C85E55",
"$.	c #A86863",
"%.	c #BCBCBF",
"&.	c #D4CCD3",
"*.	c #B2635E",
"=.	c #D05F56",
"-.	c #EC7A71",
";.	c #F88F85",
">.	c #FB968D",
",.	c #FC9990",
"'.	c #FC988F",
").	c #FB9389",
"!.	c #F6887E",
"~.	c #E87166",
"{.	c #C45348",
"].	c #8B362F",
"^.	c #BC8F8F",
"/.	c #C7544B",
"(.	c #E56256",
"_.	c #F77C72",
":.	c #FD897F",
"<.	c #FD9187",
"[.	c #FD948A",
"}.	c #FD9389",
"|.	c #FD8E84",
"1.	c #FC857A",
"2.	c #F5766B",
"3.	c #DD5549",
"4.	c #AF3C32",
"5.	c #BBBBBE",
"6.	c #B3645F",
"7.	c #D34E42",
"8.	c #EB675A",
"9.	c #F4847A",
"0.	c #F6958D",
"a.	c #F69A92",
"b.	c #F69C94",
"c.	c #F69B93",
"d.	c #F69890",
"e.	c #F59289",
"f.	c #F38177",
"g.	c #E55A4E",
"h.	c #C13E32",
"i.	c #9E2E23",
"j.	c #EAEEF8",
"k.	c #E9ECF7",
"l.	c #B24D45",
"m.	c #D9493B",
"n.	c #ED7369",
"o.	c #F3A7A0",
"p.	c #F7CAC6",
"q.	c #F7CCC9",
"r.	c #F7CDC9",
"s.	c #F7CCC7",
"t.	c #F7C7C2",
"u.	c #F3ABA4",
"v.	c #E9695D",
"w.	c #C93E32",
"x.	c #A83126",
"y.	c #BABABD",
"z.	c #EBEEF8",
"A.	c #E7EBF6",
"B.	c #E6EAF6",
"C.	c #B24A41",
"D.	c #DA4639",
"E.	c #EC766B",
"F.	c #F3B3AB",
"G.	c #F9E0DB",
"H.	c #F9E1DC",
"I.	c #F9E1DB",
"J.	c #F8DDD7",
"K.	c #F3BBB5",
"L.	c #E86D62",
"M.	c #C93E31",
"N.	c #AA3126",
"O.	c #F7F8FB",
"P.	c #E9EDF7",
"Q.	c #E8ECF7",
"R.	c #E4E9F5",
"S.	c #E3E7F5",
"T.	c #B15751",
"U.	c #D6473B",
"V.	c #EB5E4E",
"W.	c #F27E6F",
"X.	c #F39987",
"Y.	c #F39E88",
"Z.	c #F39F88",
"`.	c #F39D88",
" +	c #F39685",
".+	c #F08073",
"++	c #E65849",
"@+	c #C43C30",
"#+	c #A32F24",
"$+	c #B9B9BC",
"%+	c #E1E6F4",
"&+	c #DFE4F3",
"*+	c #B17C7E",
"=+	c #C94C41",
"-+	c #E74E38",
";+	c #F75D3F",
">+	c #FC6B45",
",+	c #FC7245",
"'+	c #FC7445",
")+	c #FC7345",
"!+	c #FC6F46",
"~+	c #FB6845",
"{+	c #F55A40",
"]+	c #E04836",
"^+	c #B53A2E",
"/+	c #912A1F",
"(+	c #E5E9F6",
"_+	c #E2E7F5",
":+	c #DCE2F2",
"<+	c #DAE1F1",
"[+	c #BAAEB9",
"}+	c #B15853",
"|+	c #D44A36",
"1+	c #EE5531",
"2+	c #FA6230",
"3+	c #FD6A2E",
"4+	c #FD6D2E",
"5+	c #FD6C2E",
"6+	c #FC6730",
"7+	c #F85D32",
"8+	c #EA4F32",
"9+	c #C84535",
"0+	c #92352C",
"a+	c #B8B8BB",
"b+	c #E5EAF6",
"c+	c #E4E8F4",
"d+	c #E2E7F4",
"e+	c #E0E6F3",
"f+	c #DEE4F3",
"g+	c #DDE3F2",
"h+	c #D0D4E2",
"i+	c #AB8489",
"j+	c #B7594E",
"k+	c #D44E32",
"l+	c #EA592B",
"m+	c #F46428",
"n+	c #F86927",
"o+	c #F76727",
"p+	c #F1602A",
"q+	c #E5542E",
"r+	c #CF4C34",
"s+	c #AB584E",
"t+	c #6D3833",
"u+	c #B5B5B8",
"v+	c #F5F5F5",
"w+	c #F4F4F5",
"x+	c #D9D2D2",
"y+	c #B88F8A",
"z+	c #B86052",
"A+	c #CC563C",
"B+	c #DB5A31",
"C+	c #E15D2B",
"D+	c #E05C2C",
"E+	c #D65934",
"F+	c #C75640",
"G+	c #B36459",
"H+	c #9C7F7D",
"I+	c #8D8D92",
"J+	c #8D8D91",
"K+	c #8C8C90",
"L+	c #8B8B8F",
"M+	c #8A8A8F",
"N+	c #8A8A8E",
"O+	c #89898D",
"P+	c #88888D",
"Q+	c #88888C",
"R+	c #87878B",
"S+	c #7E7B7F",
"T+	c #796363",
"U+	c #8A4A44",
"V+	c #9C3E33",
"W+	c #A33A2C",
"X+	c #A13B2E",
"Y+	c #964037",
"Z+	c #854E4A",
"`+	c #786A6C",
" @	c #7D7C80",
"    . . . + @ @ # $ % % & * = - ; >             ",
"    , ' ' ' ' ' ' ' ' ' ) ) ) ) ! = ~           ",
"    { ] ^ ^ ^ ^ ^ ^ ^ ^ ^ ^ ^ ^ / ( _ :         ",
"    < ] [ [ [ [ [ [ [ [ [ [ [ [ } | 1 2 3       ",
"    < ] 4 [ 4 4 [ 4 4 4 [ 4 [ 4 5 6 7 8 9 0     ",
"    a ] 4 [ 4 4 [ 4 4 4 [ 4 [ 4 b c d e f g     ",
"    h ] [ [ [ [ [ [ [ [ [ [ [ [ i j k l m n     ",
"    h ] 4 [ 4 4 [ 4 4 4 [ 4 [ 4 [ o p q r s     ",
"    t ] 4 [ 4 4 [ 4 4 4 [ 4 [ 4 4 [ 4 u v w     ",
"    s ] [ [ [ [ [ [ [ [ [ [ [ [ [ [ [ x y w     ",
"    s ] 4 [ 4 4 [ 4 4 4 z A B C D E F G H I     ",
"    J ] [ [ [ [ [ [ [ K L M N O P Q R S T U     ",
"    J ] 4 [ 4 4 [ 4 V W X Y Z `  ...+.@.#.$.    ",
"    %.] 4 [ 4 4 [ 4 &.*.=.-.;.>.,.'.).!.~.{.].  ",
"    %.] 4 [ 4 4 [ 4 ^./.(._.:.<.[.}.|.1.2.3.4.  ",
"    5.] [ [ [ [ [ x 6.7.8.9.0.a.b.c.d.e.f.g.h.i.",
"    5.] 4 [ [ x j.k.l.m.n.o.p.q.r.r.s.t.u.v.w.x.",
"    y.] [ z.j.k.A.B.C.D.E.F.G.H.I.I.I.J.K.L.M.N.",
"    y.O.z.P.Q.B.R.S.T.U.V.W.X.Y.Z.Z.`. +.+++@+#+",
"    $+O.Q.B.R.S.%+&+*+=+-+;+>+,+'+)+!+~+{+]+^+/+",
"    $+v (+_+%+&+:+<+[+}+|+1+2+3+4+5+6+7+8+9+0+  ",
"    a+y b+c+d+e+f+g+h+i+j+k+l+m+n+o+p+q+r+s+t+  ",
"    u+v+w+w+w+w+w+w+w+x+y+z+A+B+C+D+E+F+G+H+    ",
"    I+J+K+L+M+N+O+P+Q+R+S+T+U+V+W+X+Y+Z+`+ @    "};
