/* XPM */
static const char * profileload_xpm[] = {
"24 24 229 2",
"  	c None",
". 	c #9F9FA4",
"+ 	c #B7B7BA",
"@ 	c #B6B7BA",
"# 	c #B6B6BA",
"$ 	c #B5B6B9",
"% 	c #B5B5B9",
"& 	c #B5B5B8",
"* 	c #B4B4B8",
"= 	c #B4B4B7",
"- 	c #B3B3B7",
"; 	c #B3B3B6",
"> 	c #B2B2B6",
", 	c #ABACAF",
"' 	c #95959A",
") 	c #FCFCFC",
"! 	c #FAFAFC",
"~ 	c #E2E3E5",
"{ 	c #A3A2A6",
"] 	c #8C8C90",
"^ 	c #EFF2F9",
"/ 	c #EEF1F9",
"( 	c #EEF1F8",
"_ 	c #D6D8DF",
": 	c #B6B6B9",
"< 	c #C3C2C4",
"[ 	c #89898D",
"} 	c #EDF0F8",
"| 	c #D5D7DE",
"1 	c #BCBBBE",
"2 	c #E2E0E1",
"3 	c #C2C1C4",
"4 	c #88888C",
"5 	c #9E9EA3",
"6 	c #A9A9AC",
"7 	c #C1C0C3",
"8 	c #BABABD",
"9 	c #A3A3A7",
"0 	c #838387",
"a 	c #E4E7EE",
"b 	c #C0C2C9",
"c 	c #B7B9BF",
"d 	c #B8B9C0",
"e 	c #C6C7C9",
"f 	c #9D9DA1",
"g 	c #9D9DA2",
"h 	c #EBEEF6",
"i 	c #E3E5ED",
"j 	c #DEE1E8",
"k 	c #ECECEE",
"l 	c #A5A6A9",
"m 	c #9C9DA1",
"n 	c #ECEFF7",
"o 	c #EDF0F7",
"p 	c #F9F9FB",
"q 	c #A9A9AD",
"r 	c #9C9CA1",
"s 	c #F9FAFC",
"t 	c #9B9BA0",
"u 	c #ECEFF8",
"v 	c #EBEEF7",
"w 	c #F9FAFB",
"x 	c #A8A8AC",
"y 	c #9A9B9F",
"z 	c #D5E3E1",
"A 	c #90C997",
"B 	c #D3E0E0",
"C 	c #F7F8FA",
"D 	c #A8A8AB",
"E 	c #9A9A9E",
"F 	c #EAEEF7",
"G 	c #BAD3C6",
"H 	c #34A832",
"I 	c #70BF72",
"J 	c #D2E5D4",
"K 	c #A6A7A9",
"L 	c #99999E",
"M 	c #E9EDF7",
"N 	c #E7EBF6",
"O 	c #BAD4C6",
"P 	c #45B434",
"Q 	c #6ACA46",
"R 	c #64C060",
"S 	c #8AA28D",
"T 	c #98989D",
"U 	c #EDF0F9",
"V 	c #EBEFF8",
"W 	c #EAEDF7",
"X 	c #E4E9F2",
"Y 	c #CEDDDC",
"Z 	c #A1C9AC",
"` 	c #6CBA72",
" .	c #4BBA37",
"..	c #7FDD4E",
"+.	c #6FD146",
"@.	c #48AE43",
"#.	c #97979C",
"$.	c #E5E9F3",
"%.	c #C2D9CF",
"&.	c #71BE74",
"*.	c #49B33C",
"=.	c #54BE3A",
"-.	c #66CB43",
";.	c #72D549",
">.	c #61D447",
",.	c #69D84D",
"'.	c #7EDC51",
").	c #46BB36",
"!.	c #96979B",
"~.	c #ECF0F8",
"{.	c #E4E8F2",
"].	c #ABCDB6",
"^.	c #5AB753",
"/.	c #61C63F",
"(.	c #6CD346",
"_.	c #65D345",
":.	c #5DD143",
"<.	c #5BD246",
"[.	c #5BD44A",
"}.	c #64DA52",
"|.	c #78E35B",
"1.	c #87E259",
"2.	c #48C039",
"3.	c #96969A",
"4.	c #E8ECF6",
"5.	c #E6EAF6",
"6.	c #B8D1C5",
"7.	c #5AB656",
"8.	c #6BCD44",
"9.	c #66D445",
"0.	c #69D545",
"a.	c #74D94A",
"b.	c #76D94B",
"c.	c #79DC50",
"d.	c #6FDE55",
"e.	c #70E15B",
"f.	c #88E961",
"g.	c #74D850",
"h.	c #3CBB34",
"i.	c #959599",
"j.	c #E9ECF7",
"k.	c #E4E9F5",
"l.	c #D3DDE4",
"m.	c #73BD78",
"n.	c #68C944",
"o.	c #73D849",
"p.	c #76D54A",
"q.	c #5BC242",
"r.	c #46B63F",
"s.	c #45B543",
"t.	c #53C33F",
"u.	c #8AE860",
"v.	c #8CE962",
"w.	c #68D04B",
"x.	c #2FA92C",
"y.	c #949499",
"z.	c #EBEFF7",
"A.	c #E5EAF5",
"B.	c #E3E8F5",
"C.	c #E1E6F4",
"D.	c #B6D1C6",
"E.	c #56BA45",
"F.	c #7AD64A",
"G.	c #63C744",
"H.	c #59B55E",
"I.	c #8CBE9D",
"J.	c #BCCDD4",
"K.	c #B6CECE",
"L.	c #4DC03B",
"M.	c #8FE55C",
"N.	c #61CB4C",
"O.	c #60AA60",
"P.	c #939398",
"Q.	c #E4E8F5",
"R.	c #DFE4F3",
"S.	c #DDE2F2",
"T.	c #92C79E",
"U.	c #56BE3A",
"V.	c #5EC243",
"W.	c #71BC7B",
"X.	c #BDCED5",
"Y.	c #D1D9EE",
"Z.	c #D0D8EE",
"`.	c #B7CBD1",
" +	c #3CB834",
".+	c #5DC451",
"++	c #97D499",
"@+	c #9DA1A0",
"#+	c #929297",
"$+	c #E6EAF5",
"%+	c #E5E9F5",
"&+	c #E3E8F4",
"*+	c #74BF7A",
"=+	c #3FB233",
"-+	c #75C17C",
";+	c #CBD8DE",
">+	c #DCE2F2",
",+	c #DCE2F1",
"'+	c #C8D7DB",
")+	c #52BC57",
"!+	c #A0CEAF",
"~+	c #EBF0F0",
"{+	c #A3A3A6",
"]+	c #919196",
"^+	c #E8E8E8",
"/+	c #E7E7E8",
"(+	c #64BA64",
"_+	c #5AB75A",
":+	c #C7D6C7",
"<+	c #E6E6E7",
"[+	c #E5E5E6",
"}+	c #DBDFDB",
"|+	c #E3E4E3",
"1+	c #E6E6E6",
"2+	c #5A5B5D",
"3+	c #545456",
"4+	c #535356",
"5+	c #535355",
"6+	c #525255",
"7+	c #525254",
"8+	c #378738",
"9+	c #3B733D",
"0+	c #505053",
"a+	c #505052",
"b+	c #4F4F52",
"c+	c #4F4F51",
"d+	c #4E4E51",
"e+	c #4E4E50",
"f+	c #49494B",
"    . + + @ # $ % & * = - ; > , '               ",
"    . ) ! ! ! ! ! ! ! ! ! ! ! ~ { ]             ",
"    . ) ^ / / / / / / / / / ( _ : < [           ",
"    . ) ^ } } } } } } } } } } | 1 2 3 4         ",
"    5 ) ^ } / / } / / / } / } | 6 7 8 9 0       ",
"    5 ) ^ } / / } / / / } / } a b c d e f       ",
"    g ) ^ } } } } } } } } } } h i j j k l       ",
"    m ) ^ } / / } / / / } / } } } n o p q       ",
"    r ) ^ } / / } / / / } / } / / } } s 6       ",
"    t ) ^ } } } } } } } } } } } } u v w x       ",
"    y ) ^ } / / } / / / } / } } z A B C D       ",
"    E ) ^ } } } } } } } } } u F G H I J K       ",
"    L ) ^ } / / } / / } u v M N O P Q R S       ",
"    T ) ^ } / / } U } V W X Y Z `  ...+.@.      ",
"    #.) ^ } / / } u F $.%.&.*.=.-.;.>.,.'.).    ",
"    !.) ^ } } ~.v M {.].^./.(._.:.<.[.}.|.1.2.  ",
"    3.) ^ } V W 4.5.6.7.8.9.0.a.b.c.d.e.f.g.h.  ",
"    i.) ( F j.N k.l.m.n.o.p.q.r.s.t.u.v.w.x.    ",
"    y.) z.N A.B.C.D.E.F.G.H.I.J.K.L.M.N.O.      ",
"    P.) 4.Q.C.R.S.T.U.V.W.X.Y.Z.`. +.+++@+      ",
"    #+) v 4.$+%+&+*+=+-+;+>+,+,+'+)+!+~+{+      ",
"    ]+^+/+/+/+/+/+(+_+:+<+<+<+<+[+}+|+1+f       ",
"      2+3+4+5+6+7+8+9+0+a+a+b+c+c+d+e+e+f+      ",
"                                                "};
