/* XPM */
static const char * save_xpm[] = {
"24 24 377 2",
"  	c None",
". 	c #3D5BA8",
"+ 	c #4460AB",
"@ 	c #4662AB",
"# 	c #4560AB",
"$ 	c #435EAA",
"% 	c #445FAC",
"& 	c #455FAC",
"* 	c #4761AB",
"= 	c #4761AA",
"- 	c #4761A9",
"; 	c #475FA9",
"> 	c #475FA8",
", 	c #465EA8",
"' 	c #455CA8",
") 	c #445BA7",
"! 	c #4458A2",
"~ 	c #46569F",
"{ 	c #41509A",
"] 	c #4561AB",
"^ 	c #99A6D8",
"/ 	c #B0B7E7",
"( 	c #A3ACE0",
"_ 	c #8897D9",
": 	c #8D98EC",
"< 	c #98A1EB",
"[ 	c #B3BAE3",
"} 	c #BEC4E1",
"| 	c #BCC3E0",
"1 	c #AFB7D8",
"2 	c #AAB2D5",
"3 	c #ACB5D7",
"4 	c #A9B1E0",
"5 	c #939BEE",
"6 	c #8A95E9",
"7 	c #8B97D8",
"8 	c #A0A7DA",
"9 	c #6F78B7",
"0 	c #46529B",
"a 	c #4762AC",
"b 	c #B4BAE9",
"c 	c #C7C7FE",
"d 	c #B7BBF4",
"e 	c #919CE5",
"f 	c #8A92F5",
"g 	c #999EF3",
"h 	c #CFD3EF",
"i 	c #E6E9F0",
"j 	c #E2E5ED",
"k 	c #9BA7C6",
"l 	c #7C8EBB",
"m 	c #909EC3",
"n 	c #B6BBE3",
"o 	c #8C92F5",
"p 	c #8690F1",
"q 	c #939DE6",
"r 	c #BABCF6",
"s 	c #C0C2F3",
"t 	c #747CBA",
"u 	c #424D97",
"v 	c #B3BAE9",
"w 	c #C6C6FE",
"x 	c #B6BAF4",
"y 	c #8F9AE5",
"z 	c #858DF5",
"A 	c #9499F3",
"B 	c #CACEEC",
"C 	c #E0E4ED",
"D 	c #DDE0EA",
"E 	c #8494BE",
"F 	c #546DAD",
"G 	c #7185B8",
"H 	c #B3B8E2",
"I 	c #878CF5",
"J 	c #828BF1",
"K 	c #919AE6",
"L 	c #B6B9F6",
"M 	c #C2C2FE",
"N 	c #ACAFE1",
"O 	c #47519A",
"P 	c #B2B8E9",
"Q 	c #C4C4FE",
"R 	c #B4B8F5",
"S 	c #8C97E5",
"T 	c #8088F5",
"U 	c #8F94F3",
"V 	c #C1C6E8",
"W 	c #D4D9E6",
"X 	c #D2D6E4",
"Y 	c #7D8FBC",
"Z 	c #4D68AC",
"` 	c #6A80B7",
" .	c #ADB2DF",
"..	c #8187F4",
"+.	c #7E86F1",
"@.	c #8E98E6",
"#.	c #B3B6F6",
"$.	c #BFBFFE",
"%.	c #ACAEE2",
"&.	c #475199",
"*.	c #4760AA",
"=.	c #B0B7E9",
"-.	c #C1C1FE",
";.	c #B2B5F4",
">.	c #8A94E5",
",.	c #7C83F5",
"'.	c #8A8EF2",
").	c #B7BDE3",
"!.	c #C7CEDF",
"~.	c #C5CBDD",
"{.	c #7689BA",
"].	c #4562AB",
"^.	c #627AB5",
"/.	c #A7ADDD",
"(.	c #7D81F4",
"_.	c #7A81F1",
":.	c #8C95E6",
"<.	c #B1B4F6",
"[.	c #BCBCFE",
"}.	c #ABADE2",
"|.	c #475098",
"1.	c #AFB5E9",
"2.	c #BEBEFE",
"3.	c #AFB3F4",
"4.	c #8892E5",
"5.	c #787EF5",
"6.	c #868AF2",
"7.	c #B1B7DF",
"8.	c #BFC6DA",
"9.	c #BDC4D8",
"0.	c #8797BE",
"a.	c #677DB5",
"b.	c #7B8DBC",
"c.	c #A3A9DB",
"d.	c #797DF4",
"e.	c #767DF1",
"f.	c #8A93E6",
"g.	c #AEB1F6",
"h.	c #B9B9FE",
"i.	c #A9ABE1",
"j.	c #474F97",
"k.	c #485FA9",
"l.	c #AEB3E9",
"m.	c #ADB0F5",
"n.	c #838EDF",
"o.	c #727DE4",
"p.	c #7C85E2",
"q.	c #949ED4",
"r.	c #9CA7D0",
"s.	c #9CA6D0",
"t.	c #9BA5CF",
"u.	c #8E9AC8",
"v.	c #8794C6",
"w.	c #8B98C8",
"x.	c #8C96D3",
"y.	c #757DE5",
"z.	c #707CE2",
"A.	c #858FE0",
"B.	c #ABAEF6",
"C.	c #B7B7FE",
"D.	c #A7A9E1",
"E.	c #474E96",
"F.	c #475EA8",
"G.	c #ACB1E8",
"H.	c #B8B8FE",
"I.	c #B3B4FA",
"J.	c #9DA3ED",
"K.	c #8F98E6",
"L.	c #9099E5",
"M.	c #949CE2",
"N.	c #959EE1",
"O.	c #959DE1",
"P.	c #949CE1",
"Q.	c #949DE1",
"R.	c #939BE1",
"S.	c #919AE2",
"T.	c #8E96E6",
"U.	c #8C95E5",
"V.	c #9CA2EE",
"W.	c #AFB0FB",
"X.	c #B3B3FE",
"Y.	c #A6A7E1",
"Z.	c #484D96",
"`.	c #475EA7",
" +	c #AAB0E8",
".+	c #A5A9F2",
"++	c #6F80CB",
"@+	c #6579C4",
"#+	c #6277C2",
"$+	c #6276C1",
"%+	c #6275C1",
"&+	c #6274C0",
"*+	c #6274BF",
"=+	c #6272BE",
"-+	c #6271BD",
";+	c #6271BC",
">+	c #626FBB",
",+	c #626FBA",
"'+	c #636EB9",
")+	c #626DB8",
"!+	c #646DB9",
"~+	c #7A7FCC",
"{+	c #A5A5F4",
"]+	c #A4A6E1",
"^+	c #484C95",
"/+	c #465DA7",
"(+	c #A8AEE8",
"_+	c #989FEA",
":+	c #768AC3",
"<+	c #CED5E9",
"[+	c #CFD6E9",
"}+	c #CFD5E9",
"|+	c #CFD5E8",
"1+	c #CFD4E8",
"2+	c #CFD4E7",
"3+	c #CFD3E7",
"4+	c #CFD3E6",
"5+	c #BABFDA",
"6+	c #7C81BF",
"7+	c #9A9BEC",
"8+	c #A2A3E0",
"9+	c #474B94",
"0+	c #475CA6",
"a+	c #A6ACE8",
"b+	c #959BEA",
"c+	c #8193C7",
"d+	c #F1F3F8",
"e+	c #EFF1F7",
"f+	c #EEF0F6",
"g+	c #D9DBEA",
"h+	c #8287C2",
"i+	c #9697EB",
"j+	c #A0A2E0",
"k+	c #474A93",
"l+	c #475BA5",
"m+	c #A5AAE7",
"n+	c #9299EA",
"o+	c #8092C7",
"p+	c #E8EAF1",
"q+	c #D3D5DD",
"r+	c #C9CCD3",
"s+	c #C8CBD3",
"t+	c #C8CCD3",
"u+	c #D4D7DF",
"v+	c #D2D5E4",
"w+	c #8286C1",
"x+	c #9495EB",
"y+	c #9F9FE0",
"z+	c #474A92",
"A+	c #475AA4",
"B+	c #A3A7E7",
"C+	c #9096E9",
"D+	c #8091C6",
"E+	c #D0D3DC",
"F+	c #C6CAD3",
"G+	c #D2D5DE",
"H+	c #D1D4E3",
"I+	c #8284C0",
"J+	c #9192EB",
"K+	c #9D9EE0",
"L+	c #474992",
"M+	c #4659A3",
"N+	c #A1A6E7",
"O+	c #8E93E9",
"P+	c #8090C5",
"Q+	c #EAEDF5",
"R+	c #E2E5EE",
"S+	c #DEE2EA",
"T+	c #DEE1EA",
"U+	c #E2E6EE",
"V+	c #D4D7E7",
"W+	c #8182BF",
"X+	c #8E8FEA",
"Y+	c #9C9CE0",
"Z+	c #474891",
"`+	c #4758A3",
" @	c #9FA4E7",
".@	c #8B91E9",
"+@	c #7F8FC4",
"@@	c #E3E6EE",
"#@	c #CBCED9",
"$@	c #C0C4CF",
"%@	c #CDD0DA",
"&@	c #CED1E2",
"*@	c #8081BE",
"=@	c #8C8CEA",
"-@	c #9A9AE0",
";@	c #474790",
">@	c #4657A2",
",@	c #9DA2E7",
"'@	c #888EE9",
")@	c #7E8EC3",
"!@	c #E5E8F2",
"~@	c #D8DCE7",
"{@	c #D3D7E2",
"]@	c #D2D6E1",
"^@	c #D9DDE8",
"/@	c #D0D3E4",
"(@	c #7F7FBD",
"_@	c #8989EA",
":@	c #9898DF",
"<@	c #4657A1",
"[@	c #9CA0E6",
"}@	c #868BE8",
"|@	c #7D8DC2",
"1@	c #E2E6F0",
"2@	c #CBCFDB",
"3@	c #CED1E3",
"4@	c #7E7EBC",
"5@	c #8787EA",
"6@	c #9797DF",
"7@	c #47468F",
"8@	c #4656A0",
"9@	c #9A9EE6",
"0@	c #8489E8",
"a@	c #7D8BC1",
"b@	c #DEE2ED",
"c@	c #C8CCD9",
"d@	c #BEC3D0",
"e@	c #BEC3CF",
"f@	c #C9CEDA",
"g@	c #CBCEE1",
"h@	c #7D7DBC",
"i@	c #8584EA",
"j@	c #9695DF",
"k@	c #47468E",
"l@	c #46549F",
"m@	c #999CE6",
"n@	c #8286E7",
"o@	c #7D8AC0",
"p@	c #E3E7F2",
"q@	c #DBE0EE",
"r@	c #D9DEEC",
"s@	c #D9DEEB",
"t@	c #CFD2E5",
"u@	c #7C7CBB",
"v@	c #8383E9",
"w@	c #9594DF",
"x@	c #47458D",
"y@	c #45529C",
"z@	c #8A90D1",
"A@	c #8288D2",
"B@	c #6E7CB6",
"C@	c #BEC4DE",
"D@	c #BEC3DD",
"E@	c #BEC3DC",
"F@	c #BEC2DB",
"G@	c #BEC1DB",
"H@	c #BEC1DA",
"I@	c #BEC0DA",
"J@	c #AEAFCF",
"K@	c #7271AD",
"L@	c #8585CF",
"M@	c #8786C8",
"N@	c #45438B",
"O@	c #404D97",
"P@	c #45519B",
"Q@	c #44509B",
"R@	c #43509A",
"S@	c #49569C",
"T@	c #49549B",
"U@	c #49539A",
"V@	c #495298",
"W@	c #495197",
"X@	c #494F95",
"Y@	c #494D94",
"Z@	c #4A4C93",
"`@	c #4A4B92",
" #	c #4A4A91",
".#	c #4A4A90",
"+#	c #4A498E",
"@#	c #4A488D",
"##	c #49468C",
"$#	c #44428A",
"%#	c #46448D",
"&#	c #46438C",
"*#	c #403D87",
"                                                ",
"  . + @ # $ % & * = = - ; ; > , ' ) ! ~ {       ",
"  ] ^ / ( _ : < [ } } | 1 2 3 4 5 6 7 8 9 0     ",
"  a b c d e f g h i i j k l m n o p q r s t u   ",
"  * v w x y z A B C C D E F G H I J K L M N O   ",
"  * P Q R S T U V W W X Y Z `  ...+.@.#.$.%.&.  ",
"  *.=.-.;.>.,.'.).!.!.~.{.].^./.(._.:.<.[.}.|.  ",
"  *.1.2.3.4.5.6.7.8.8.9.0.a.b.c.d.e.f.g.h.i.j.  ",
"  k.l.[.m.n.o.p.q.r.s.t.u.v.w.x.y.z.A.B.C.D.E.  ",
"  F.G.H.I.J.K.L.M.N.O.P.Q.P.R.S.T.U.V.W.X.Y.Z.  ",
"  `. +.+++@+#+$+%+&+*+=+-+;+>+,+'+)+!+~+{+]+^+  ",
"  /+(+_+:+<+[+[+}+|+|+|+|+1+2+2+3+4+5+6+7+8+9+  ",
"  0+a+b+c+d+e+f+f+f+f+f+f+f+f+f+f+e+g+h+i+j+k+  ",
"  l+m+n+o+p+q+r+s+t+r+t+s+t+s+r+s+u+v+w+x+y+z+  ",
"  A+B+C+D+i E+F+F+F+F+F+F+F+F+F+F+G+H+I+J+K+L+  ",
"  M+N+O+P+Q+R+S+S+S+S+T+S+S+S+S+S+U+V+W+X+Y+Z+  ",
"  `+ @.@+@@@#@$@$@$@$@$@$@$@$@$@$@%@&@*@=@-@;@  ",
"  >@,@'@)@!@~@{@{@{@{@]@{@{@{@{@{@^@/@(@_@:@;@  ",
"  <@[@}@|@1@]@2@2@2@2@2@2@2@2@2@2@{@3@4@5@6@7@  ",
"  8@9@0@a@b@c@d@d@d@d@e@d@d@d@d@d@f@g@h@i@j@k@  ",
"  l@m@n@o@p@q@r@r@r@r@s@r@r@r@r@r@q@t@u@v@w@x@  ",
"  y@z@A@B@C@C@D@D@E@E@F@F@G@G@H@I@I@J@K@L@M@N@  ",
"  O@P@Q@R@S@T@U@V@W@X@Y@Z@`@ #.#+#@###$#%#&#*#  ",
"                                                "};
