/* XPM */
static const char * search_xpm[] = {
"24 24 244 2",
"  	c None",
". 	c #9C9CA1",
"+ 	c #9F9FA3",
"@ 	c #A7A7AB",
"# 	c #A9A9AD",
"$ 	c #A2A3A7",
"% 	c #99999D",
"& 	c #9D9DA2",
"* 	c #ADADB1",
"= 	c #C0C0C5",
"- 	c #D1D1D4",
"; 	c #CFCFD2",
"> 	c #D4D4D8",
", 	c #E6E6E8",
"' 	c #EDEDEF",
") 	c #CCCCCF",
"! 	c #A2A2A7",
"~ 	c #BBBBBF",
"{ 	c #BEBEC2",
"] 	c #ADADB2",
"^ 	c #AAB3BA",
"/ 	c #AFC0C9",
"( 	c #B1C2CC",
"_ 	c #ADB8C0",
": 	c #ABADB2",
"< 	c #CBCCCF",
"[ 	c #EFEFF1",
"} 	c #B4B4B8",
"| 	c #A2A2A6",
"1 	c #B2B2B6",
"2 	c #ADB9C2",
"3 	c #B5E1F4",
"4 	c #A4E3FE",
"5 	c #97DFFE",
"6 	c #96DFFE",
"7 	c #9DE1FE",
"8 	c #B7E7FC",
"9 	c #BACDD7",
"0 	c #AAABAF",
"a 	c #E3E3E6",
"b 	c #B5B5B8",
"c 	c #B2B3B7",
"d 	c #B3C7D2",
"e 	c #B2E8FE",
"f 	c #AFE7FE",
"g 	c #AEE7FF",
"h 	c #A1E2FE",
"i 	c #91DDFF",
"j 	c #88DAFE",
"k 	c #87D9FE",
"l 	c #A2E1FD",
"m 	c #C6E0ED",
"n 	c #A6A8AC",
"o 	c #DBDBDF",
"p 	c #A1A1A5",
"q 	c #ACACB0",
"r 	c #BEBFC3",
"s 	c #ACB8C1",
"t 	c #B3E8FE",
"u 	c #C5EDFE",
"v 	c #DAF4FF",
"w 	c #CCEFFF",
"x 	c #A9E5FE",
"y 	c #8FDCFE",
"z 	c #87D8FE",
"A 	c #8CD9FD",
"B 	c #ACE2FD",
"C 	c #C9D9E3",
"D 	c #AEAEB2",
"E 	c #C5C5C9",
"F 	c #8F8F93",
"G 	c #BFBFC3",
"H 	c #B6E0F2",
"I 	c #B1E7FE",
"J 	c #DCF4FE",
"K 	c #DEF5FE",
"L 	c #BBEAFE",
"M 	c #91DDFE",
"N 	c #7FD6FE",
"O 	c #83D7FD",
"P 	c #8BD8FD",
"Q 	c #94DBFD",
"R 	c #A1DEFD",
"S 	c #CAEBFD",
"T 	c #ACB0B5",
"U 	c #C6C6CB",
"V 	c #9B9B9F",
"W 	c #D2D2D5",
"X 	c #AAB2B8",
"Y 	c #A6E4FE",
"Z 	c #B1E7FF",
"` 	c #CDEFFE",
" .	c #BAEAFF",
"..	c #92DDFE",
"+.	c #7CD5FE",
"@.	c #7ED5FE",
"#.	c #89D8FE",
"$.	c #94DBFE",
"%.	c #9FDDFD",
"&.	c #A9E0FE",
"*.	c #BFE7FD",
"=.	c #C7D1D8",
"-.	c #B0B0B5",
";.	c #A4A5A9",
">.	c #ADBDC6",
",.	c #99E0FE",
"'.	c #A1E2FF",
").	c #A9E4FE",
"!.	c #90DCFE",
"~.	c #7BD5FE",
"{.	c #7ED5FD",
"].	c #88D8FE",
"^.	c #9FDDFE",
"/.	c #A9E0FD",
"(.	c #B2E2FE",
"_.	c #BFE6FD",
":.	c #D4E1EA",
"<.	c #A5A5AA",
"[.	c #AAA9AE",
"}.	c #A6A6AA",
"|.	c #D8D8DB",
"1.	c #AEBEC7",
"2.	c #98DFFE",
"3.	c #8CDBFE",
"4.	c #7ED6FE",
"5.	c #88D7FD",
"6.	c #B2E2FD",
"7.	c #B9E4FD",
"8.	c #C3E7FD",
"9.	c #D6E3EC",
"0.	c #A8A7AD",
"a.	c #9E9EA3",
"b.	c #E9E9EC",
"c.	c #ABB4BB",
"d.	c #A0E1FE",
"e.	c #85D9FE",
"f.	c #84D8FE",
"g.	c #82D6FE",
"h.	c #BDE5FE",
"i.	c #C6E9FD",
"j.	c #CDD7DF",
"k.	c #A4A4A9",
"l.	c #A3A2A7",
"m.	c #98989D",
"n.	c #E8E8EA",
"o.	c #ADAFB3",
"p.	c #B8E5FA",
"q.	c #85D7FD",
"r.	c #8AD8FD",
"s.	c #BDE5FD",
"t.	c #BEE6FD",
"u.	c #D2EDFD",
"v.	c #B4B9BF",
"w.	c #ADACB2",
"x.	c #9A9A9F",
"y.	c #D3D3D5",
"z.	c #B6C6CF",
"A.	c #A4E1FD",
"B.	c #B9E4FE",
"C.	c #BEE5FD",
"D.	c #C6E8FE",
"E.	c #DAE9F2",
"F.	c #9C9CA0",
"G.	c #B1B0B6",
"H.	c #8B8B8F",
"I.	c #ADAEB2",
"J.	c #C4DBE7",
"K.	c #AEE3FD",
"L.	c #A2DEFE",
"M.	c #BEE6FE",
"N.	c #C6E8FD",
"O.	c #DBEEFA",
"P.	c #A6A9AD",
"Q.	c #ADADB3",
"R.	c #9F9EA3",
"S.	c #E6E6E9",
"T.	c #A8A9AD",
"U.	c #C3D2DB",
"V.	c #CCECFD",
"W.	c #C0E7FD",
"X.	c #C3E7FE",
"Y.	c #C7E9FE",
"Z.	c #D9E7F1",
"`.	c #A5A8AC",
" +	c #AAA9AF",
".+	c #A0A0A4",
"++	c #DCDCDF",
"@+	c #B3B3B7",
"#+	c #A7AAAF",
"$+	c #C2CBD1",
"%+	c #D0DCE4",
"&+	c #D2DFE7",
"*+	c #C9D3DA",
"=+	c #B2B6BC",
"-+	c #AEADB3",
";+	c #A5A5A8",
">+	c #CAC8C9",
",+	c #EDB345",
"'+	c #FDB318",
")+	c #C0C0C4",
"!+	c #C9C8CD",
"~+	c #B3B3B8",
"{+	c #A8A7AC",
"]+	c #A4A3A8",
"^+	c #A6A5AB",
"/+	c #9E9DA2",
"(+	c #F3F1F0",
"_+	c #F9C052",
":+	c #FDCB3D",
"<+	c #FCD447",
"[+	c #FBB321",
"}+	c #8E8E93",
"|+	c #96969B",
"1+	c #A4A4A8",
"2+	c #A1A1A6",
"3+	c #8A8A8E",
"4+	c #F2B94A",
"5+	c #FDD946",
"6+	c #FDDB40",
"7+	c #FDC92F",
"8+	c #FCD142",
"9+	c #F8AB21",
"0+	c #FDAF10",
"a+	c #FDF35D",
"b+	c #FEF64D",
"c+	c #FDD839",
"d+	c #FCC92F",
"e+	c #F6A421",
"f+	c #FBAD17",
"g+	c #FDF35B",
"h+	c #F39D21",
"i+	c #F8A517",
"j+	c #FDF25B",
"k+	c #FDCB32",
"l+	c #F8C346",
"m+	c #ED7600",
"n+	c #F59C17",
"o+	c #FDF15B",
"p+	c #FEF650",
"q+	c #F8CA49",
"r+	c #EE7B05",
"s+	c #F29417",
"t+	c #F8CF4D",
"u+	c #EE7C06",
"            . + @ # $ %                         ",
"        & * = - ; > , ' ) +                     ",
"      ! ~ { ] ^ / ( _ : < [ }                   ",
"    | { 1 2 3 4 5 6 7 8 9 0 a b                 ",
"  & ~ c d e f g h i j k l m n o p               ",
"  q r s t u v w x y k z A B C D E F             ",
"  G D H I J K L M N O P Q R S T U V             ",
"& W X Y Z `  ...+.@.#.$.%.&.*.=.-.@             ",
";.W >.,.'.).!.~.{.].$.^./.(._.:.<.[.            ",
"}.|.1.2.y 3.4.{.5.Q %./.6.7.8.9.| 0.            ",
"a.b.c.d.e.f.g.].Q ^.&.(.7.h.i.j.k.l.            ",
"m.n.o.p.k q.r.Q %./.6.7.s.t.u.v.w.x.            ",
"  E y.z.A.A $.^./.(.B.h.C.D.E.F.G.H.            ",
"  V ' I.J.K.L.&.6.B.h.M.N.O.P.Q.R.              ",
"    * S.T.U.V.W.W.X.Y.u.Z.`. + +.+              ",
"      D ++@+#+$+%+&+*+=+. -+ +;+>+,+'+          ",
"        F.)+!+~+{+]+^+-+G./+;+(+_+:+<+[+        ",
"          }+|+1+{+^+2+% 3+    4+5+6+7+8+9+      ",
"                              0+a+b+c+d+8+e+    ",
"                                f+g+b+c+d+8+h+  ",
"                                  i+j+b+c+k+l+m+",
"                                    n+o+p+q+r+  ",
"                                      s+t+u+    ",
"                                        m+      "};
