/* XPM */
static const char * settings_xpm[] = {
"24 24 161 2",
"  	c None",
". 	c #757575",
"+ 	c #7E7E7E",
"@ 	c #9D9D9E",
"# 	c #999999",
"$ 	c #787878",
"% 	c #777777",
"& 	c #A2A2A2",
"* 	c #CBCBCB",
"= 	c #C6C6C6",
"- 	c #7C7C7C",
"; 	c #767676",
"> 	c #A8A8A8",
", 	c #DDDDDE",
"' 	c #BDBDBE",
") 	c #D7D7D7",
"! 	c #E9E9EA",
"~ 	c #808080",
"{ 	c #7D7D7D",
"] 	c #DCDCDC",
"^ 	c #ECECEC",
"/ 	c #939393",
"( 	c #A7A7A7",
"_ 	c #9E9E9E",
": 	c #EBEBEC",
"< 	c #888888",
"[ 	c #B6B5B5",
"} 	c #CDCCCC",
"| 	c #8A8A8A",
"1 	c #C4C4C4",
"2 	c #DBDBDB",
"3 	c #8B8B8B",
"4 	c #E1E0E0",
"5 	c #C5C4C4",
"6 	c #B9B9BA",
"7 	c #B6B6B6",
"8 	c #949494",
"9 	c #C9C8C8",
"0 	c #B5B5B5",
"a 	c #AEAEAF",
"b 	c #DEDEDE",
"c 	c #9B9B9B",
"d 	c #777373",
"e 	c #797979",
"f 	c #919191",
"g 	c #8E8E8E",
"h 	c #888889",
"i 	c #D0D0D0",
"j 	c #D8D8D8",
"k 	c #C0C0C0",
"l 	c #9E9D9D",
"m 	c #A55252",
"n 	c #C03838",
"o 	c #BB2F2F",
"p 	c #818181",
"q 	c #A5A5A5",
"r 	c #AF6262",
"s 	c #C44242",
"t 	c #F4A3A3",
"u 	c #E08484",
"v 	c #BA3333",
"w 	c #7A7A7A",
"x 	c #B06565",
"y 	c #C33F3F",
"z 	c #F39C9C",
"A 	c #FD8C8C",
"B 	c #F88B8B",
"C 	c #E99494",
"D 	c #BD4242",
"E 	c #B12C2C",
"F 	c #A64545",
"G 	c #C23E3E",
"H 	c #EE9493",
"I 	c #FC8585",
"J 	c #FE8A8A",
"K 	c #F98686",
"L 	c #EF7C7C",
"M 	c #E9908F",
"N 	c #C45959",
"O 	c #AD2B2B",
"P 	c #C24141",
"Q 	c #F09292",
"R 	c #FA7F7F",
"S 	c #FE8989",
"T 	c #FB8787",
"U 	c #F27D7D",
"V 	c #E56D6D",
"W 	c #E07A79",
"X 	c #CE7271",
"Y 	c #A92B2B",
"Z 	c #B92E2E",
"` 	c #C64F4F",
" .	c #F89898",
"..	c #FE8888",
"+.	c #FC8989",
"@.	c #F48080",
"#.	c #E87171",
"$.	c #D95E5E",
"%.	c #D05B5B",
"&.	c #D27C7C",
"*.	c #A83232",
"=.	c #B62D2D",
"-.	c #CC6161",
";.	c #FD9A9A",
">.	c #FD8A8A",
",.	c #F78383",
"'.	c #EB7575",
").	c #DD6363",
"!.	c #CD4E4E",
"~.	c #C04343",
"{.	c #CF7877",
"].	c #A63535",
"^.	c #D47575",
"/.	c #FE9796",
"(.	c #F98585",
"_.	c #EE7979",
":.	c #E06767",
"<.	c #D15353",
"[.	c #C03E3E",
"}.	c #B53232",
"|.	c #CB7473",
"1.	c #9D2A2A",
"2.	c #DD8787",
"3.	c #FA8E8E",
"4.	c #F17C7C",
"5.	c #E46C6C",
"6.	c #D45858",
"7.	c #C44343",
"8.	c #B53030",
"9.	c #B23434",
"0.	c #BA5F5F",
"a.	c #982525",
"b.	c #AA2E2E",
"c.	c #E49292",
"d.	c #F48484",
"e.	c #E77070",
"f.	c #D85D5D",
"g.	c #C84848",
"h.	c #B83434",
"i.	c #AD2727",
"j.	c #C16968",
"k.	c #972424",
"l.	c #A83131",
"m.	c #E49393",
"n.	c #EB7A7A",
"o.	c #DC6262",
"p.	c #CC4D4D",
"q.	c #BC3939",
"r.	c #C96767",
"s.	c #A73F3F",
"t.	c #A32F2F",
"u.	c #DB8A89",
"v.	c #E37776",
"w.	c #D05353",
"x.	c #D37171",
"y.	c #AE4C4C",
"z.	c #972525",
"A.	c #9C2727",
"B.	c #BB5F5F",
"C.	c #CE7878",
"D.	c #AC4848",
"            .                                   ",
"          + @ # $                               ",
"          % & * = -                             ",
"            ; > , ' ;                           ",
"              % ) ! ~                           ",
"  ;           { ] ^ /                           ",
". ( {       . _ , : <                           ",
"; [ } - ; ; | 1 , 2 ;                           ",
"  3 4 5 # ( 6 * , ^ 7 ;                         ",
"  . 8 9 0 a 6 * , ! b c d                       ",
"      e | f g h i j k l m n o                   ",
"                p 7 q r s t u v                 ",
"                  w x y z A B C D E             ",
"                  F G H I J K L M N O           ",
"                    P Q R S T U V W X Y         ",
"                    Z `  ...+.@.#.$.%.&.*.      ",
"                      =.-.;.>.,.'.).!.~.{.].    ",
"                        E ^./.(._.:.<.[.}.|.1.  ",
"                          O 2.3.4.5.6.7.8.9.0.a.",
"                            b.c.d.e.f.g.h.i.j.k.",
"                              l.m.n.o.p.q.r.s.  ",
"                                t.u.v.w.x.y.z.  ",
"                                  A.B.C.D.z.    ",
"                                    a.a.k.      "};
