/* XPM */
static char * xmlSwitch_xpm[] = {
"24 24 182 2",
"  	c None",
". 	c #2D4BB3",
"+ 	c #2E4AB3",
"@ 	c #2D49B3",
"# 	c #4170C7",
"$ 	c #2E46B0",
"% 	c #2E4CB5",
"& 	c #2D49B2",
"* 	c #304DB4",
"= 	c #6CC1F4",
"- 	c #3E67C2",
"; 	c #2D43AE",
"> 	c #2E50B7",
", 	c #365DBE",
"' 	c #4478CC",
") 	c #4B85D3",
"! 	c #4C86D3",
"~ 	c #477DCE",
"{ 	c #4F8BD6",
"] 	c #72B2F4",
"^ 	c #68B3EE",
"/ 	c #314AB1",
"( 	c #2F51B8",
"_ 	c #3760C0",
": 	c #569BDE",
"< 	c #67ABE9",
"[ 	c #699CE7",
"} 	c #6D99E8",
"| 	c #6F9DEC",
"1 	c #72A5F0",
"2 	c #73A8F2",
"3 	c #7799F0",
"4 	c #74A8F3",
"5 	c #5797DC",
"6 	c #2D3EAA",
"7 	c #2E51B8",
"8 	c #3C6BC5",
"9 	c #62ACE7",
"0 	c #669EE5",
"a 	c #68A4E8",
"b 	c #6BAEED",
"c 	c #6DB0F0",
"d 	c #70ACF1",
"e 	c #73A2F0",
"f 	c #7797F0",
"g 	c #7796F0",
"h 	c #7597F0",
"i 	c #6FB4F4",
"j 	c #426CC3",
"k 	c #2C3AA7",
"l 	c #3660BF",
"m 	c #63B4EA",
"n 	c #5CA4E3",
"o 	c #4A83D1",
"p 	c #3D68C3",
"q 	c #365ABB",
"r 	c #375ABB",
"s 	c #3F6AC3",
"t 	c #5697DC",
"u 	c #74ACF4",
"v 	c #7696F0",
"w 	c #7397EF",
"x 	c #6EA4F0",
"y 	c #65B9EF",
"z 	c #3042AB",
"A 	c #2F50B7",
"B 	c #5092D8",
"C 	c #3E6EC6",
"D 	c #2E4CB4",
"E 	c #2D4AB3",
"F 	c #416DC5",
"G 	c #72B2F5",
"H 	c #71A9F3",
"I 	c #6BB8F2",
"J 	c #5290D7",
"K 	c #3752B4",
"L 	c #2C37A5",
"M 	c #3052B8",
"N 	c #3153B8",
"O 	c #2D4BB4",
"P 	c #2C41AC",
"Q 	c #5391D8",
"R 	c #68B5EF",
"S 	c #4B80CF",
"T 	c #3246AE",
"U 	c #2C38A6",
"V 	c #2E4EB6",
"W 	c #2E4DB5",
"X 	c #2C3FAB",
"Y 	c #3C60BD",
"Z 	c #2E3FAB",
"` 	c #2D3AA7",
" .	c #2C3EAA",
"..	c #2C3CA9",
"+.	c #2D3FAB",
"@.	c #2C30A0",
"#.	c #3047AF",
"$.	c #344FB3",
"%.	c #2D3CA9",
"&.	c #716CB7",
"*.	c #3554B7",
"=.	c #8BABDC",
"-.	c #9CCDF0",
";.	c #3A5AB9",
">.	c #2B30A0",
",.	c #968FC6",
"'.	c #A89BCA",
").	c #2D46B0",
"!.	c #2E45AF",
"~.	c #4D70C3",
"{.	c #9FBDE4",
"].	c #DBDDEC",
"^.	c #DCD9EC",
"/.	c #A8CCEE",
"(.	c #2E3CA8",
"_.	c #2B31A1",
":.	c #2C33A1",
"<.	c #416CC0",
"[.	c #4C69BC",
"}.	c #4544A7",
"|.	c #2D44AF",
"1.	c #658BD0",
"2.	c #CFDAED",
"3.	c #DDD7EB",
"4.	c #DDD5EB",
"5.	c #DCD5EB",
"6.	c #D9DCEB",
"7.	c #4066BF",
"8.	c #3247AE",
"9.	c #2D3AA6",
"0.	c #2F3DA8",
"a.	c #3752B3",
"b.	c #7392CF",
"c.	c #AAC7E4",
"d.	c #C4CEE4",
"e.	c #2B2D9D",
"f.	c #4052B3",
"g.	c #D7D9E8",
"h.	c #DCD7EB",
"i.	c #DCD4EB",
"j.	c #DBD3EA",
"k.	c #DAD5EA",
"l.	c #CBD3EA",
"m.	c #B1CCEB",
"n.	c #B0CDEB",
"o.	c #B4CDE9",
"p.	c #A0C0E5",
"q.	c #CAD2E7",
"r.	c #D4D6E6",
"s.	c #4047A9",
"t.	c #576CBE",
"u.	c #DADDEC",
"v.	c #DBD5EB",
"w.	c #D9D6EA",
"x.	c #D7D4E8",
"y.	c #D6D2E7",
"z.	c #C6CAE5",
"A.	c #AABFE4",
"B.	c #ABC9E7",
"C.	c #A4B5DB",
"D.	c #3E43A7",
"E.	c #2C3CA8",
"F.	c #A3AFD8",
"G.	c #DADAEB",
"H.	c #D8DBEA",
"I.	c #849ED4",
"J.	c #779BD5",
"K.	c #6995D4",
"L.	c #497ECB",
"M.	c #4067BE",
"N.	c #303CA6",
"O.	c #2B2C9D",
"P.	c #2C39A6",
"Q.	c #B9C8E4",
"R.	c #7DA5DB",
"S.	c #2C33A2",
"T.	c #2C32A1",
"U.	c #2B2F9F",
"V.	c #2B2D9E",
"W.	c #3143AB",
"X.	c #3C5DBA",
"Y.	c #2B32A1",
"                                                ",
"                            . +                 ",
"                            @ # $               ",
"                      % . & * = - ;             ",
"                > , ' ) ! ~ { ] ^ /             ",
"            ( _ : < [ } | 1 2 3 4 5 6           ",
"          7 8 9 0 a b c d e f g h i j k         ",
"          l m n o p q r s t u v w x y z         ",
"        A B C D E       ; F G H I J K L         ",
"        M N O           P Q R S T U             ",
"      V W               X Y Z `                 ",
"      W                  ...                    ",
"                    +.6               @.        ",
"                P #.$.%.            @.&.        ",
"            ; *.=.-.;.            >.,.'.        ",
"      ).!.~.{.].^./.(.        _.:.<.[.}.        ",
"      |.1.2.3.4.5.6.7.8.9.0.a.b.c.d.e.          ",
"        f.g.h.i.j.k.l.m.n.o.p.q.r.s.            ",
"          t.u.v.k.w.x.y.z.A.B.C.D.              ",
"          E.F.G.H.I.J.K.L.M.N.O.                ",
"            P.Q.R.S.T.@.U.V.                    ",
"              W.X.Y.                            ",
"              S.Y.                              ",
"                >.                              "};
