/* XPM */
static const char * check3_xpm[] = {
"16 16 43 1",
" 	c None",
".	c #000000",
"+	c #FFFFFF",
"@	c #B1B1B1",
"#	c #626262",
"$	c #DADADA",
"%	c #5D5C5C",
"&	c #5C5C5C",
"*	c #D5D5D5",
"=	c #F4F4F4",
"-	c #FBFBFB",
";	c #F9F9F9",
">	c #666666",
",	c #545353",
"'	c #8E8E8E",
")	c #FCFCFC",
"!	c #FAFAFA",
"~	c #505050",
"{	c #636363",
"]	c #E7E7E7",
"^	c #909090",
"/	c #4A4949",
"(	c #5B5A5A",
"_	c #F2F2F2",
":	c #555555",
"<	c #3F3F3F",
"[	c #535353",
"}	c #E1E1E1",
"|	c #CACACA",
"1	c #404040",
"2	c #D2D2D2",
"3	c #444444",
"4	c #353535",
"5	c #474747",
"6	c #FEFEFE",
"7	c #DBDBDB",
"8	c #414141",
"9	c #2B2B2B",
"0	c #4A4A4A",
"a	c #252525",
"b	c #D6D6D6",
"c	c #EFEFEF",
"d	c #D7D7D7",
"                ",
" .............. ",
" .++++++++++++. ",
" .++++++++++++. ",
" .++++++++@#$+. ",
" .+++++++$%&*+. ",
" .+=-+++;>,')+. ",
" .!~{]++^/(_++. ",
" .):<[}|1<2+++. ",
" .+$34554^6+++. ",
" .++78990=++++. ",
" .+++}1ab+++++. ",
" .++++cd6+++++. ",
" .++++++++++++. ",
" .............. ",
"                "};
