/* XPM */
static const char * dip_xpm[] = {
"32 32 389 2",
"  	c None",
". 	c #444444",
"+ 	c #484848",
"@ 	c #474747",
"# 	c #464646",
"$ 	c #434343",
"% 	c #4D4D4D",
"& 	c #403F3F",
"* 	c #2F2E3E",
"= 	c #272747",
"- 	c #282848",
"; 	c #303040",
"> 	c #4E4E4E",
", 	c #3A3945",
"' 	c #43438C",
") 	c #5C5CAE",
"! 	c #6C6CB6",
"~ 	c #7A7ABD",
"{ 	c #8787C3",
"] 	c #9393C9",
"^ 	c #9F9FCF",
"/ 	c #AAAAD5",
"( 	c #B3B3D9",
"_ 	c #BBBBDD",
": 	c #C1C1E0",
"< 	c #C5C5E2",
"[ 	c #C2C2E1",
"} 	c #BCBCDE",
"| 	c #B4B4DA",
"1 	c #ABABD5",
"2 	c #A0A0D0",
"3 	c #9595CA",
"4 	c #8888C4",
"5 	c #7B7BBD",
"6 	c #6E6EB7",
"7 	c #40408B",
"8 	c #3F3E4A",
"9 	c #3E3E3E",
"0 	c #414141",
"a 	c #393987",
"b 	c #4E4EA7",
"c 	c #5A5AAD",
"d 	c #6868B4",
"e 	c #7474BA",
"f 	c #8181C0",
"g 	c #8D8DC6",
"h 	c #9898CC",
"i 	c #A2A2D1",
"j 	c #B2B2D9",
"k 	c #B7B7DB",
"l 	c #BABADD",
"m 	c #B8B8DC",
"n 	c #ACACD6",
"o 	c #A3A3D1",
"p 	c #9999CC",
"q 	c #8E8EC7",
"r 	c #8282C1",
"s 	c #7676BB",
"t 	c #6969B4",
"u 	c #4F4FA7",
"v 	c #333383",
"w 	c #464545",
"x 	c #393838",
"y 	c #4B4B4B",
"z 	c #313142",
"A 	c #3A3A9D",
"B 	c #4949A4",
"C 	c #5555AA",
"D 	c #6161B0",
"E 	c #7979BC",
"F 	c #8585C2",
"G 	c #8F8FC7",
"H 	c #A1A1D0",
"I 	c #A7A7D3",
"J 	c #AEAED7",
"K 	c #AFAFD7",
"L 	c #A8A8D4",
"M 	c #9A9ACD",
"N 	c #9191C8",
"O 	c #8686C3",
"P 	c #6F6FB7",
"Q 	c #6363B1",
"R 	c #5656AB",
"S 	c #4A4AA5",
"T 	c #35359A",
"U 	c #3F3F50",
"V 	c #383838",
"W 	c #4A4A4A",
"X 	c #2B2B4B",
"Y 	c #37379B",
"Z 	c #4343A1",
"` 	c #6666B3",
" .	c #7171B8",
"..	c #7C7CBE",
"+.	c #8E8EC4",
"@.	c #9696C6",
"#.	c #9C9CC9",
"$.	c #A0A0CC",
"%.	c #A2A2CF",
"&.	c #9C9CCE",
"*.	c #9696CB",
"=.	c #7D7DBE",
"-.	c #7272B9",
";.	c #6767B3",
">.	c #5050A8",
",.	c #4444A2",
"'.	c #323299",
").	c #393959",
"!.	c #3A3A3A",
"~.	c #4B4A4A",
"{.	c #2C2C4C",
"].	c #313198",
"^.	c #3C3C9E",
"/.	c #4747A3",
"(.	c #5252A9",
"_.	c #5D5DAE",
":.	c #7272B4",
"<.	c #8787AF",
"[.	c #B9B9C8",
"}.	c #E1E1E5",
"|.	c #EBEBED",
"1.	c #DADAE0",
"2.	c #B7B7C8",
"3.	c #9898C0",
"4.	c #9393C8",
"5.	c #9090C8",
"6.	c #8A8AC5",
"7.	c #8484C2",
"8.	c #7373B9",
"9.	c #5E5EAF",
"0.	c #5454AA",
"a.	c #3D3D9E",
"b.	c #2D2D96",
"c.	c #3B3B5B",
"d.	c #3B3B3B",
"e.	c #2E2D4D",
"f.	c #2B2B95",
"g.	c #3F3F9F",
"h.	c #5F5FA5",
"i.	c #A6A6B9",
"j.	c #F0F0F0",
"k.	c #F4F4F4",
"l.	c #F6F6F6",
"m.	c #EAEAEB",
"n.	c #9A9AB8",
"o.	c #8282BE",
"p.	c #7E7EBF",
"q.	c #7777BB",
"r.	c #7070B8",
"s.	c #5F5FAF",
"t.	c #4B4BA5",
"u.	c #4141A0",
"v.	c #36369B",
"w.	c #272793",
"x.	c #3C3C5C",
"y.	c #3D3C3C",
"z.	c #4C4C4C",
"A.	c #2E2E4E",
"B.	c #242492",
"C.	c #2E2E97",
"D.	c #4B4B9E",
"E.	c #9D9DB2",
"F.	c #EEEEEE",
"G.	c #CACAD3",
"H.	c #9494B0",
"I.	c #8F8FAF",
"J.	c #A4A4BB",
"K.	c #E3E3E5",
"L.	c #F2F2F2",
"M.	c #EEEEEF",
"N.	c #8888AC",
"O.	c #7070B6",
"P.	c #6B6BB5",
"Q.	c #6464B2",
"R.	c #4242A1",
"S.	c #38389C",
"T.	c #2F2F97",
"U.	c #212190",
"V.	c #3D3C5C",
"W.	c #2F2F4F",
"X.	c #1E1E8F",
"Y.	c #262693",
"Z.	c #56568C",
"`.	c #EAEAEA",
" +	c #EFEFEF",
".+	c #9090AB",
"++	c #5E5EA5",
"@+	c #6363AF",
"#+	c #6767B2",
"$+	c #6969B1",
"%+	c #6E6EA7",
"&+	c #C8C8D2",
"*+	c #F3F3F3",
"=+	c #DBDBDF",
"-+	c #6565A6",
";+	c #5858AC",
">+	c #5151A8",
",+	c #303098",
"'+	c #1B1B8D",
")+	c #3D3D5D",
"!+	c #3F3F3F",
"~+	c #4E4D4D",
"{+	c #303050",
"]+	c #17178B",
"^+	c #2E2E91",
"/+	c #9999AE",
"(+	c #B8B8C5",
"_+	c #4C4C9C",
":+	c #5959AC",
"<+	c #5B5BAD",
"[+	c #64649D",
"}+	c #73739C",
"|+	c #4C4CA6",
"1+	c #4545A2",
"2+	c #3E3E9F",
"3+	c #1F1F8F",
"4+	c #15158A",
"5+	c #3D3D5E",
"6+	c #414040",
"7+	c #313151",
"8+	c #101088",
"9+	c #262686",
"0+	c #D6D6D9",
"a+	c #62628E",
"b+	c #3F3F9E",
"c+	c #4848A4",
"d+	c #4F4FA1",
"e+	c #AFAFBE",
"f+	c #8F8FA9",
"g+	c #44449F",
"h+	c #4040A0",
"i+	c #34349A",
"j+	c #18188C",
"k+	c #0F0F87",
"l+	c #424141",
"m+	c #4F4F4F",
"n+	c #313152",
"o+	c #0A0A85",
"p+	c #16168B",
"q+	c #1E1E7F",
"r+	c #E4E4E4",
"s+	c #494982",
"t+	c #333399",
"u+	c #3B3B9D",
"v+	c #42429C",
"w+	c #9393AB",
"x+	c #EDEDED",
"y+	c #9595AC",
"z+	c #383898",
"A+	c #292994",
"B+	c #232391",
"C+	c #1D1D8E",
"D+	c #111188",
"E+	c #3E3D5E",
"F+	c #424242",
"G+	c #323152",
"H+	c #050582",
"I+	c #14147E",
"J+	c #CBCBD1",
"K+	c #595986",
"L+	c #282891",
"M+	c #2C2C96",
"N+	c #353592",
"O+	c #AFAFBD",
"P+	c #ECECEC",
"Q+	c #777798",
"R+	c #2C2C93",
"S+	c #1A1A8D",
"T+	c #3E3E5E",
"U+	c #434242",
"V+	c #000080",
"W+	c #040482",
"X+	c #080884",
"Y+	c #0C0C80",
"Z+	c #787896",
"`+	c #BBBBC5",
" @	c #20207E",
".@	c #282894",
"+@	c #292992",
"@@	c #3B3B7C",
"#@	c #E9E9E9",
"$@	c #3F3F7C",
"%@	c #121289",
"&@	c #0D0D86",
"*@	c #090984",
"=@	c #010180",
"-@	c #020281",
";@	c #060682",
">@	c #1A1A6A",
",@	c #E3E3E4",
"'@	c #8A8AA1",
")@	c #1C1C76",
"!@	c #1A1A87",
"~@	c #1B1B8A",
"{@	c #1E1E86",
"]@	c #2E2E75",
"^@	c #C8C8CF",
"/@	c #F1F1F1",
"(@	c #D4D4D9",
"_@	c #1F1F73",
":@	c #171789",
"<@	c #14148A",
"[@	c #0E0E87",
"}@	c #060683",
"|@	c #030381",
"1@	c #03037C",
"2@	c #4B4B7A",
"3@	c #E6E6E6",
"4@	c #EBEBEB",
"5@	c #D4D4D8",
"6@	c #7F7F9A",
"7@	c #68688C",
"8@	c #9999AD",
"9@	c #E7E7E8",
"0@	c #CACACF",
"a@	c #1F1F6D",
"b@	c #0C0C83",
"c@	c #4F4E4E",
"d@	c #020277",
"e@	c #3C3C72",
"f@	c #D5D5D7",
"g@	c #E5E5E5",
"h@	c #DBDBDE",
"i@	c #CECED3",
"j@	c #161666",
"k@	c #02027E",
"l@	c #313050",
"m@	c #00007B",
"n@	c #070768",
"o@	c #3E3E72",
"p@	c #787894",
"q@	c #88889F",
"r@	c #6A6A8C",
"s@	c #2B2B6A",
"t@	c #0E0E62",
"u@	c #DFDFE2",
"v@	c #F7F7F7",
"w@	c #CCCCD1",
"x@	c #121263",
"y@	c #00007D",
"z@	c #00007E",
"A@	c #00007A",
"B@	c #000079",
"C@	c #00007F",
"D@	c #00007C",
"E@	c #1D1D66",
"F@	c #E5E5E8",
"G@	c #CBCBD0",
"H@	c #121264",
"I@	c #404040",
"J@	c #4D4C4C",
"K@	c #2F2E4F",
"L@	c #1E1E67",
"M@	c #F5F5F5",
"N@	c #080868",
"O@	c #E3E3E6",
"P@	c #E7E7E7",
"Q@	c #31316D",
"R@	c #3E3D3D",
"S@	c #2D2D4D",
"T@	c #E1E1E4",
"U@	c #DBDBDD",
"V@	c #0D0D66",
"W@	c #2C2B4C",
"X@	c #0E0E66",
"Y@	c #101066",
"Z@	c #01017C",
"`@	c #494949",
" #	c #2B2A4A",
".#	c #3A3959",
"+#	c #3A3939",
"@#	c #323242",
"##	c #434251",
"$#	c #373737",
"%#	c #0E0E6D",
"&#	c #0F0F6E",
"*#	c #353535",
"=#	c #3B3A44",
"-#	c #10106E",
";#	c #464651",
">#	c #3D3D3D",
",#	c #3E3E4D",
"'#	c #373757",
")#	c #393858",
"!#	c #383857",
"~#	c #414150",
"{#	c #343434",
"]#	c #333333",
"^#	c #323232",
"                                                                ",
"        . + @ # # # # # # # # # # # # # # # # # # # # $         ",
"      % & * = - - - - - - - - - - - - - - - - - - - ; & .       ",
"    > , ' ) ! ~ { ] ^ / ( _ : < < [ } | 1 2 3 4 5 6 ) 7 8 9     ",
"  # 0 a b c d e f g h i 1 j k l l m ( n o p q r s t ) u v w x   ",
"  y z A B C D 6 E F G p H I n J K n L i M N O 5 P Q R S T U V   ",
"  W X Y Z b c `  ...F +.@.#.$.%.i 2 &.*.G { =.-.;.) >.,.'.).!.  ",
"  ~.{.].^./.(._.d :.<.[.}.|.1.2.3.4.5.6.7...8.t 9.0.B a.b.c.d.  ",
"  y e.f.T g.S 0.h.i.j.k.k.k.k.l.m.n.o.p.q.r.d s.C t.u.v.w.x.y.  ",
"  z.A.B.C.Y u.D.E.j.F.G.H.I.J.K.L.M.N.O.P.Q._.0.t.R.S.T.U.V.9   ",
"  % W.X.Y.T.Y Z.`. +.+++@+#+$+%+&+*+=+-+9.;+>+B u.S.,+w.'+)+!+  ",
"  ~+{+]+X.Y.^+/+F.(+_+>+C :+<+_.[+m. +}+>+|+1+2+Y T.w.3+4+5+6+  ",
"  > 7+8+]+X.9+0+j.a+b+,.c+t.b u d+e+ +f+g+h+A i+b.Y.3+j+k+5+l+  ",
"  m+n+o+8+p+q+r+ +s+t+S.u+2+h+u.v+w+x+y+z+i+T.A+B+C+]+D+o+E+F+  ",
"  m+G+H+o+k+I+J+F.K+L+M+T.'.i+T N+O+P+Q+R+A+B.3+S+4+k+o+H+T+U+  ",
"  m+G+V+W+X+Y+Z+x+`+ @U.B.Y..@+@@@#@`.$@U.X.S+p+%@&@*@W+=@T+$   ",
"  m+G+V+V+-@;@>@,@`.'@)@!@~@{@]@^@/@(@_@:@<@D+[@o+}@|@V+V+T+$   ",
"  m+G+V+V+V+=@1@2@3@4@5@6@7@8@9@j./@L.0@a@b@*@}@|@=@V+V+V+E+U+  ",
"  c@7+V+V+V+V+V+d@e@f@3@x+ +4@g@h@*+/@j.i@j@k@=@V+V+V+V+V+5+F+  ",
"  > l@V+V+V+V+V+V+m@n@o@p@q@r@s@t@u@v@*+j.w@x@y@V+V+V+V+V+5+0   ",
"  ~+{+V+V+V+V+V+V+V+V+z@A@B@m@C@D@E@F@v@/@ +G@H@y@V+V+V+V+)+I@  ",
"  J@K@V+V+V+V+V+V+V+V+V+V+V+V+V+V+D@L@F@M@ + +0@N@V+V+V+V+)+!+  ",
"  z.A.V+V+V+V+V+V+V+V+V+V+V+V+V+V+V+D@L@O@*+F.P@Q@C@V+V+V+x.R@  ",
"  y S@V+V+V+V+V+V+V+V+V+V+V+V+V+V+V+V+D@E@T@j.U@V@V+V+V+V+x.y.  ",
"  W W@V+V+V+V+V+V+V+V+V+V+V+V+V+V+V+V+V+D@X@e@Y@Z@V+V+V+V+c.d.  ",
"  `@ #V+V+V+V+V+V+V+V+V+V+V+V+V+V+V+V+V+V+V+C@V+V+V+V+V+V+.#+#  ",
"  + @#V+V+V+V+V+V+V+V+V+V+V+V+V+V+V+V+V+V+V+V+V+V+V+V+V+V+##$#  ",
"  . 0 %#V+V+V+V+C@C@C@C@C@C@C@C@C@C@C@C@V+V+V+V+V+V+V+V+&#% *#  ",
"    . =#%#V+V+V+V+V+V+V+V+V+V+V+V+V+V+V+V+V+V+V+V+V+V+-#;#d.    ",
"      >#. ,#'#)#).).).).).).).).).).).).).).).).).!#~#z.!.      ",
"        *#{#{#{#{#{#{#{#{#{#{#{#{#{#{#{#{#{#{#{#{#{#]#^#        ",
"                                                                "};
