/* XPM */
static const char * lic_xpm[] = {
"32 32 403 2",
"  	c None",
". 	c #444444",
"+ 	c #484848",
"@ 	c #474747",
"# 	c #464646",
"$ 	c #434343",
"% 	c #4D4D4D",
"& 	c #403F3F",
"* 	c #2F2E3E",
"= 	c #272747",
"- 	c #282848",
"; 	c #303040",
"> 	c #4E4E4E",
", 	c #3A3945",
"' 	c #43438C",
") 	c #5C5CAE",
"! 	c #6C6CB6",
"~ 	c #7A7ABD",
"{ 	c #8787C3",
"] 	c #9393C9",
"^ 	c #9F9FCF",
"/ 	c #AAAAD5",
"( 	c #B3B3D9",
"_ 	c #BBBBDD",
": 	c #C1C1E0",
"< 	c #C5C5E2",
"[ 	c #C2C2E1",
"} 	c #BCBCDE",
"| 	c #B4B4DA",
"1 	c #ABABD5",
"2 	c #A0A0D0",
"3 	c #9595CA",
"4 	c #8888C4",
"5 	c #7B7BBD",
"6 	c #6E6EB7",
"7 	c #40408B",
"8 	c #3F3E4A",
"9 	c #3E3E3E",
"0 	c #414141",
"a 	c #393987",
"b 	c #4E4EA7",
"c 	c #5A5AAD",
"d 	c #6868B4",
"e 	c #7474BA",
"f 	c #8181C0",
"g 	c #8D8DC6",
"h 	c #9898CC",
"i 	c #A2A2D1",
"j 	c #B2B2D9",
"k 	c #B7B7DB",
"l 	c #BABADD",
"m 	c #B8B8DC",
"n 	c #ACACD6",
"o 	c #A3A3D1",
"p 	c #9999CC",
"q 	c #8E8EC7",
"r 	c #8282C1",
"s 	c #7676BB",
"t 	c #6969B4",
"u 	c #4F4FA7",
"v 	c #333383",
"w 	c #464545",
"x 	c #393838",
"y 	c #4B4B4B",
"z 	c #313142",
"A 	c #3A3A9D",
"B 	c #4949A4",
"C 	c #5555AA",
"D 	c #6161B0",
"E 	c #7979BC",
"F 	c #8585C2",
"G 	c #8F8FC7",
"H 	c #A1A1D0",
"I 	c #A7A7D3",
"J 	c #AEAED7",
"K 	c #AFAFD7",
"L 	c #A8A8D4",
"M 	c #9A9ACD",
"N 	c #9191C8",
"O 	c #8686C3",
"P 	c #6F6FB7",
"Q 	c #6363B1",
"R 	c #5656AB",
"S 	c #4A4AA5",
"T 	c #35359A",
"U 	c #3F3F50",
"V 	c #383838",
"W 	c #4A4A4A",
"X 	c #2B2B4B",
"Y 	c #37379B",
"Z 	c #4343A1",
"` 	c #6666B3",
" .	c #7171B8",
"..	c #7C7CBE",
"+.	c #9696CB",
"@.	c #9C9CCE",
"#.	c #7D7DBE",
"$.	c #7272B9",
"%.	c #6767B3",
"&.	c #5050A8",
"*.	c #4444A2",
"=.	c #323299",
"-.	c #393959",
";.	c #3A3A3A",
">.	c #4B4A4A",
",.	c #2C2C4C",
"'.	c #313198",
").	c #3C3C9E",
"!.	c #4747A3",
"~.	c #5252A9",
"{.	c #5D5DAE",
"].	c #8383C1",
"^.	c #8C8CC5",
"/.	c #9F9FC7",
"(.	c #B6B6CF",
"_.	c #C5C5D8",
":.	c #C6C6D9",
"<.	c #B9B9D1",
"[.	c #A4A4CA",
"}.	c #8D8DC5",
"|.	c #8484C2",
"1.	c #7373B9",
"2.	c #5E5EAF",
"3.	c #5454AA",
"4.	c #3D3D9E",
"5.	c #2D2D96",
"6.	c #3B3B5B",
"7.	c #3B3B3B",
"8.	c #2E2D4D",
"9.	c #2B2B95",
"0.	c #3F3F9F",
"a.	c #7070B7",
"b.	c #9494BC",
"c.	c #D2D2DA",
"d.	c #F9F9F9",
"e.	c #FDFDFD",
"f.	c #FEFEFE",
"g.	c #FBFBFB",
"h.	c #DDDDE3",
"i.	c #9D9DC2",
"j.	c #7272B8",
"k.	c #5F5FAF",
"l.	c #4B4BA5",
"m.	c #4141A0",
"n.	c #36369B",
"o.	c #272793",
"p.	c #3C3C5C",
"q.	c #3D3C3C",
"r.	c #4C4C4C",
"s.	c #2E2E4E",
"t.	c #242492",
"u.	c #2E2E97",
"v.	c #5353A9",
"w.	c #5F5FAD",
"x.	c #A5A5BD",
"y.	c #F7F7F8",
"z.	c #EAEAEF",
"A.	c #C9C9E0",
"B.	c #B2B2D5",
"C.	c #AEAED3",
"D.	c #BABAD8",
"E.	c #DADAE7",
"F.	c #F8F8F9",
"G.	c #BABACE",
"H.	c #6464B0",
"I.	c #4242A1",
"J.	c #38389C",
"K.	c #2F2F97",
"L.	c #212190",
"M.	c #3D3C5C",
"N.	c #2F2F4F",
"O.	c #1E1E8F",
"P.	c #262693",
"Q.	c #4040A0",
"R.	c #9A9AB5",
"S.	c #F1F1F2",
"T.	c #B3B3D5",
"U.	c #6B6BB5",
"V.	c #6A6AB5",
"W.	c #8585BF",
"X.	c #D5D5E1",
"Y.	c #FCFCFC",
"Z.	c #B9B9CF",
"`.	c #4C4CA5",
" +	c #303098",
".+	c #1B1B8D",
"++	c #3D3D5D",
"@+	c #3F3F3F",
"#+	c #4E4D4D",
"$+	c #303050",
"%+	c #17178B",
"&+	c #65659F",
"*+	c #F6F6F6",
"=+	c #EFEFF1",
"-+	c #8E8EC4",
";+	c #5959AC",
">+	c #6767AD",
",+	c #8282B2",
"'+	c #8383B3",
")+	c #6969AE",
"!+	c #5A5AAA",
"~+	c #C6C6D4",
"{+	c #9090C1",
"]+	c #1F1F8F",
"^+	c #15158A",
"/+	c #3D3D5E",
"(+	c #414040",
"_+	c #313151",
":+	c #101088",
"<+	c #252592",
"[+	c #2F2F95",
"}+	c #B9B9C5",
"|+	c #FAFAFA",
"1+	c #A1A1CB",
"2+	c #7F7FAA",
"3+	c #E6E6E8",
"4+	c #ECECEE",
"5+	c #8B8BB5",
"6+	c #4A4AA4",
"7+	c #5656A1",
"8+	c #EDEDEF",
"9+	c #E5E5EA",
"0+	c #3E3E9E",
"a+	c #18188C",
"b+	c #0F0F87",
"c+	c #424141",
"d+	c #4F4F4F",
"e+	c #313152",
"f+	c #0A0A85",
"g+	c #16168B",
"h+	c #1C1C8E",
"i+	c #424291",
"j+	c #F4F4F4",
"k+	c #E0E0E6",
"l+	c #68689F",
"m+	c #F2F2F3",
"n+	c #C3C3DA",
"o+	c #ADADD0",
"p+	c #E3E3E9",
"q+	c #F8F8F8",
"r+	c #8282B7",
"s+	c #34349A",
"t+	c #9393B2",
"u+	c #7979B6",
"v+	c #1D1D8E",
"w+	c #111188",
"x+	c #3E3D5E",
"y+	c #424242",
"z+	c #323152",
"A+	c #050582",
"B+	c #14148A",
"C+	c #636398",
"D+	c #A7A7CB",
"E+	c #282894",
"F+	c #2F2F96",
"G+	c #BFBFC9",
"H+	c #F5F5F6",
"I+	c #8E8EC2",
"J+	c #36369A",
"K+	c #4D4DA0",
"L+	c #C1C1D6",
"M+	c #6A6AB2",
"N+	c #2C2C96",
"O+	c #292994",
"P+	c #545498",
"Q+	c #AEAECE",
"R+	c #3E3E5E",
"S+	c #434242",
"T+	c #000080",
"U+	c #040482",
"V+	c #080884",
"W+	c #0C0C86",
"X+	c #7E7EA7",
"Y+	c #7A7AB7",
"Z+	c #32328F",
"`+	c #EEEEEF",
" @	c #DBDBE5",
".@	c #35358D",
"+@	c #F3F3F3",
"@@	c #CCCCDC",
"#@	c #0E0E86",
"$@	c #090984",
"%@	c #010180",
"&@	c #020281",
"*@	c #060683",
"=@	c #7C7CA7",
"-@	c #6D6DB1",
";@	c #2D2D8A",
">@	c #F1F1F1",
",@	c #C9C9DB",
"'@	c #21218D",
")@	c #1A1A8D",
"!@	c #2C2C88",
"~@	c #D1D1DD",
"{@	c #030381",
"]@	c #5B5B93",
"^@	c #7F7FB8",
"/@	c #141486",
"(@	c #CFCFD6",
"_@	c #E8E8EB",
":@	c #292992",
"<@	c #131389",
"[@	c #212189",
"}@	c #BBBBC4",
"|@	c #8787A6",
"1@	c #16168A",
"2@	c #383887",
"3@	c #BDBDD5",
"4@	c #4F4E4E",
"5@	c #2C2C83",
"6@	c #B7B7D0",
"7@	c #5D5D95",
"8@	c #B0B0C4",
"9@	c #3F3F8E",
"0@	c #3B3B89",
"a@	c #A1A1B5",
"b@	c #B8B8D1",
"c@	c #6C6C96",
"d@	c #8A8ABC",
"e@	c #313050",
"f@	c #050580",
"g@	c #BEBECA",
"h@	c #363696",
"i@	c #060681",
"j@	c #8989B0",
"k@	c #F5F5F5",
"l@	c #F7F7F7",
"m@	c #CDCDD9",
"n@	c #292993",
"o@	c #15157E",
"p@	c #D9D9DD",
"q@	c #EDEDEE",
"r@	c #41419D",
"s@	c #44448B",
"t@	c #BDBDD0",
"u@	c #0E0E83",
"v@	c #4C4CA0",
"w@	c #9D9DC4",
"x@	c #ABABCB",
"y@	c #7A7AB5",
"z@	c #17178A",
"A@	c #080880",
"B@	c #8C8CA6",
"C@	c #B5B5D0",
"D@	c #404040",
"E@	c #4D4C4C",
"F@	c #2F2E4F",
"G@	c #030380",
"H@	c #8C8CAD",
"I@	c #B2B2C5",
"J@	c #212185",
"K@	c #17177F",
"L@	c #8E8EA7",
"M@	c #DEDEE3",
"N@	c #303096",
"O@	c #0A0A82",
"P@	c #9797B7",
"Q@	c #EAEAEC",
"R@	c #7D7DA2",
"S@	c #3A3A89",
"T@	c #212183",
"U@	c #1F1F82",
"V@	c #323284",
"W@	c #6B6B95",
"X@	c #4C4CA3",
"Y@	c #3E3D3D",
"Z@	c #2D2D4D",
"`@	c #6D6DAD",
" #	c #DDDDE4",
".#	c #F2F2F2",
"+#	c #B5B5CF",
"@#	c #313197",
"##	c #2C2B4C",
"$#	c #6262AA",
"%#	c #A3A3C7",
"&#	c #C8C8D9",
"*#	c #CFCFDC",
"=#	c #BBBBD3",
"-#	c #8888BB",
";#	c #494949",
">#	c #2B2A4A",
",#	c #3A3959",
"'#	c #3A3939",
")#	c #323242",
"!#	c #00007F",
"~#	c #00007E",
"{#	c #434251",
"]#	c #373737",
"^#	c #0E0E6D",
"/#	c #0F0F6E",
"(#	c #353535",
"_#	c #3B3A44",
":#	c #10106E",
"<#	c #464651",
"[#	c #3D3D3D",
"}#	c #3E3E4D",
"|#	c #373757",
"1#	c #393858",
"2#	c #383857",
"3#	c #414150",
"4#	c #343434",
"5#	c #333333",
"6#	c #323232",
"                                                                ",
"        . + @ # # # # # # # # # # # # # # # # # # # # $         ",
"      % & * = - - - - - - - - - - - - - - - - - - - ; & .       ",
"    > , ' ) ! ~ { ] ^ / ( _ : < < [ } | 1 2 3 4 5 6 ) 7 8 9     ",
"  # 0 a b c d e f g h i 1 j k l l m ( n o p q r s t ) u v w x   ",
"  y z A B C D 6 E F G p H I n J K n L i M N O 5 P Q R S T U V   ",
"  W X Y Z b c `  ...F q +.@.2 i i 2 @.+.G { #.$.%.) &.*.=.-.;.  ",
"  >.,.'.).!.~.{.d  .5 ].^./.(._.:.<.[.}.|...1.t 2.3.B 4.5.6.7.  ",
"  y 8.9.T 0.S 3.2.%.a.b.c.d.e.e.e.f.g.h.i.j.d k.C l.m.n.o.p.q.  ",
"  r.s.t.u.Y m.S v.w.x.y.g.z.A.B.C.D.E.F.g.G.H.3.l.I.J.K.L.M.9   ",
"  % N.O.P.K.Y Q.B R.g.S.T.j.t U.U.V.d W.X.Y.Z.`.m.J. +o..+++@+  ",
"  #+$+%+O.P.u.n.&+*+=+-+C ;+>+,+'+)+;+R !+~+g.{+Y K.o.]+^+/+(+  ",
"  > _+:+%+O.<+[+}+|+1+*.B 2+3+g.g.4+5+6+*.7+8+9+0+P.]+a+b+/+c+  ",
"  d+e+f+:+g+h+i+j+k+Z J.l+j+m+n+o+p+q+r+J.s+t+g.u+v+%+w+f+x+y+  ",
"  d+z+A+f+b+B+C+g.D+E+F+G+H+I+J+T K+L+M+N+O+P+|+Q+^+b+f+A+R+S+  ",
"  d+z+T+U+V+W+X+g.Y+v+Z+`+ @K.O+O+E+P.t.L.O..@+@@@#@$@U+%@R+$   ",
"  d+z+T+T+&@*@=@g.-@B+;@>@,@v+v+v+v+'@)@%+B+!@+@~@$@{@T+T+R+$   ",
"  d+z+T+T+T+%@]@Y.^@W+/@(@_@:@<@<@[@}@|@1@W+2@q+3@%@T+T+T+x+S+  ",
"  4@_+T+T+T+T+5@*+6@*@*@7@d.8@9@0@a@|+b@$@U+c@g.d@T+T+T+T+/+y+  ",
"  > e@T+T+T+T+f@g@m+h@T+i@j@k@l@l@q+m@n@T+o@p@q@r@T+T+T+T+/+0   ",
"  #+$+T+T+T+T+T+s@q+t@u@T+%@v@w@x@y@z@T+A@B@g.C@{@T+T+T+T+++D@  ",
"  E@F@T+T+T+T+T+G@H@g.I@J@T+T+T+T+T+T+K@L@|+M@N@T+T+T+T+T+++@+  ",
"  r.s.T+T+T+T+T+T+O@P@|+Q@R@S@T@U@V@W@p@g.M@X@T+T+T+T+T+T+p.Y@  ",
"  y Z@T+T+T+T+T+T+T+{@`@ #|+d.+@.#q+g.q@+#@#T+T+T+T+T+T+T+p.q.  ",
"  W ##T+T+T+T+T+T+T+T+T+1@$#%#&#*#=#-#r@{@T+T+T+T+T+T+T+T+6.7.  ",
"  ;#>#T+T+T+T+T+T+T+T+T+T+T+T+&@{@T+T+T+T+T+T+T+T+T+T+T+T+,#'#  ",
"  + )#T+T+T+T+T+T+T+T+T+T+!#!#~#~#!#T+T+T+T+T+T+T+T+T+T+T+{#]#  ",
"  . 0 ^#T+T+T+T+!#!#!#!#!#!#!#!#!#!#!#!#T+T+T+T+T+T+T+T+/#% (#  ",
"    . _#^#T+T+T+T+T+T+T+T+T+T+T+T+T+T+T+T+T+T+T+T+T+T+:#<#7.    ",
"      [#. }#|#1#-.-.-.-.-.-.-.-.-.-.-.-.-.-.-.-.-.2#3#r.;.      ",
"        (#4#4#4#4#4#4#4#4#4#4#4#4#4#4#4#4#4#4#4#4#4#5#6#        ",
"                                                                "};
