/* XPM */
static const char * sched_xpm[] = {
"32 32 405 2",
"  	c None",
". 	c #444444",
"+ 	c #484848",
"@ 	c #474747",
"# 	c #464646",
"$ 	c #434343",
"% 	c #4D4D4D",
"& 	c #403F3F",
"* 	c #2F2E3E",
"= 	c #272747",
"- 	c #282848",
"; 	c #303040",
"> 	c #4E4E4E",
", 	c #3A3945",
"' 	c #43438C",
") 	c #5C5CAE",
"! 	c #6C6CB6",
"~ 	c #7A7ABD",
"{ 	c #8787C3",
"] 	c #9393C9",
"^ 	c #9F9FCF",
"/ 	c #AAAAD5",
"( 	c #B3B3D9",
"_ 	c #BBBBDD",
": 	c #C1C1E0",
"< 	c #C5C5E2",
"[ 	c #C2C2E1",
"} 	c #BCBCDE",
"| 	c #B4B4DA",
"1 	c #ABABD5",
"2 	c #A0A0D0",
"3 	c #9595CA",
"4 	c #8888C4",
"5 	c #7B7BBD",
"6 	c #6E6EB7",
"7 	c #40408B",
"8 	c #3F3E4A",
"9 	c #3E3E3E",
"0 	c #414141",
"a 	c #393987",
"b 	c #4E4EA7",
"c 	c #5A5AAD",
"d 	c #6868B4",
"e 	c #7474BA",
"f 	c #8181C0",
"g 	c #8D8DC6",
"h 	c #9898CC",
"i 	c #A2A2D1",
"j 	c #B2B2D9",
"k 	c #B7B7DB",
"l 	c #BABADD",
"m 	c #B8B8DC",
"n 	c #ACACD6",
"o 	c #A3A3D1",
"p 	c #9999CC",
"q 	c #8E8EC7",
"r 	c #8282C1",
"s 	c #7676BB",
"t 	c #6969B4",
"u 	c #4F4FA7",
"v 	c #333383",
"w 	c #464545",
"x 	c #393838",
"y 	c #4B4B4B",
"z 	c #313142",
"A 	c #3A3A9D",
"B 	c #4949A4",
"C 	c #5555AA",
"D 	c #6161B0",
"E 	c #7979BC",
"F 	c #8585C2",
"G 	c #8F8FC7",
"H 	c #A1A1D0",
"I 	c #A7A7D3",
"J 	c #AEAED7",
"K 	c #AFAFD7",
"L 	c #A8A8D4",
"M 	c #9A9ACD",
"N 	c #9191C8",
"O 	c #8686C3",
"P 	c #6F6FB7",
"Q 	c #6363B1",
"R 	c #5656AB",
"S 	c #4A4AA5",
"T 	c #35359A",
"U 	c #3F3F50",
"V 	c #383838",
"W 	c #4A4A4A",
"X 	c #2B2B4B",
"Y 	c #37379B",
"Z 	c #4343A1",
"` 	c #6666B3",
" .	c #7171B8",
"..	c #7C7CBE",
"+.	c #9696CB",
"@.	c #9C9CCE",
"#.	c #A6A6CF",
"$.	c #C1C1D7",
"%.	c #C2C2D9",
"&.	c #ABABD3",
"*.	c #7D7DBE",
"=.	c #7272B9",
"-.	c #6767B3",
";.	c #5050A8",
">.	c #4444A2",
",.	c #323299",
"'.	c #393959",
").	c #3A3A3A",
"!.	c #4B4A4A",
"~.	c #2C2C4C",
"{.	c #313198",
"].	c #3C3C9E",
"^.	c #4747A3",
"/.	c #5252A9",
"(.	c #5D5DAE",
"_.	c #8383C1",
":.	c #8A8AC5",
"<.	c #9E9EC9",
"[.	c #F8F8F8",
"}.	c #FBFBFB",
"|.	c #B4B4D7",
"1.	c #9090C8",
"2.	c #8484C2",
"3.	c #7373B9",
"4.	c #5E5EAF",
"5.	c #5454AA",
"6.	c #3D3D9E",
"7.	c #2D2D96",
"8.	c #3B3B5B",
"9.	c #3B3B3B",
"0.	c #2E2D4D",
"a.	c #2B2B95",
"b.	c #3F3F9F",
"c.	c #6868B3",
"d.	c #7777BB",
"e.	c #8B8BC2",
"f.	c #D5D5DF",
"g.	c #EDEDF2",
"h.	c #9898C7",
"i.	c #7E7EBF",
"j.	c #7070B8",
"k.	c #5F5FAF",
"l.	c #4B4BA5",
"m.	c #4141A0",
"n.	c #36369B",
"o.	c #272793",
"p.	c #3C3C5C",
"q.	c #3D3C3C",
"r.	c #4C4C4C",
"s.	c #2E2E4E",
"t.	c #242492",
"u.	c #2E2E97",
"v.	c #6969A8",
"w.	c #B8B8C8",
"x.	c #6E6EB4",
"y.	c #6B6BB5",
"z.	c #8585B7",
"A.	c #B6B6C9",
"B.	c #E3E3E6",
"C.	c #FAFAFA",
"D.	c #FCFCFC",
"E.	c #E9E9EB",
"F.	c #BFBFCF",
"G.	c #8D8DBC",
"H.	c #6C6CB5",
"I.	c #6B6BB2",
"J.	c #ADADC0",
"K.	c #6D6DAF",
"L.	c #4242A1",
"M.	c #38389C",
"N.	c #2F2F97",
"O.	c #212190",
"P.	c #3D3C5C",
"Q.	c #2F2F4F",
"R.	c #1E1E8F",
"S.	c #262693",
"T.	c #4040A0",
"U.	c #8585AF",
"V.	c #F9F9F9",
"W.	c #C4C4D7",
"X.	c #A0A0BC",
"Y.	c #F3F3F3",
"Z.	c #E9E9EE",
"`.	c #D6D6E5",
" +	c #D0D0E3",
".+	c #E0E0E9",
"++	c #F7F7F7",
"@+	c #B4B4C9",
"#+	c #A5A5BD",
"$+	c #C8C8D8",
"%+	c #45459E",
"&+	c #303098",
"*+	c #1B1B8D",
"=+	c #3D3D5D",
"-+	c #3F3F3F",
";+	c #4E4D4D",
">+	c #303050",
",+	c #17178B",
"'+	c #3E3E9E",
")+	c #8A8AB7",
"!+	c #F4F4F4",
"~+	c #E1E1E8",
"{+	c #9292C4",
"]+	c #6363B0",
"^+	c #5E5EAE",
"/+	c #7575B7",
"(+	c #C4C4DA",
"_+	c #5858AB",
":+	c #383895",
"<+	c #1F1F8F",
"[+	c #15158A",
"}+	c #3D3D5E",
"|+	c #414040",
"1+	c #313151",
"2+	c #101088",
"3+	c #252592",
"4+	c #2C2C96",
"5+	c #333399",
"6+	c #7474A3",
"7+	c #D4D4E1",
"8+	c #5C5CAC",
"9+	c #5D5DA7",
"0+	c #9595B4",
"a+	c #C5C5CF",
"b+	c #C9C9D2",
"c+	c #A1A1BC",
"d+	c #6363AA",
"e+	c #9A9ABB",
"f+	c #A5A5CA",
"g+	c #34349A",
"h+	c #2E2E92",
"i+	c #18188C",
"j+	c #0F0F87",
"k+	c #424141",
"l+	c #4F4F4F",
"m+	c #313152",
"n+	c #0A0A85",
"o+	c #16168B",
"p+	c #1C1C8E",
"q+	c #232391",
"r+	c #323293",
"s+	c #D5D5DA",
"t+	c #E9E9EC",
"u+	c #5A5AAA",
"v+	c #5757A0",
"w+	c #D6D6DB",
"x+	c #FEFEFE",
"y+	c #E7E7EE",
"z+	c #EBEBED",
"A+	c #6666A9",
"B+	c #3E3E9D",
"C+	c #C3C3D0",
"D+	c #F1F1F2",
"E+	c #5050A5",
"F+	c #1D1D8E",
"G+	c #111188",
"H+	c #3E3D5E",
"I+	c #424242",
"J+	c #323152",
"K+	c #050582",
"L+	c #14148A",
"M+	c #19198C",
"N+	c #505092",
"O+	c #333398",
"P+	c #B8B8C4",
"Q+	c #FFFFFF",
"R+	c #FDFDFD",
"S+	c #C8C8D6",
"T+	c #E1E1E7",
"U+	c #3D3D9D",
"V+	c #6666A1",
"W+	c #9595C2",
"X+	c #1A1A8D",
"Y+	c #3E3E5E",
"Z+	c #434242",
"`+	c #000080",
" @	c #040482",
".@	c #080884",
"+@	c #0C0C86",
"@@	c #6F6F9B",
"#@	c #F6F6F6",
"$@	c #5F5FA9",
"%@	c #464695",
"&@	c #F5F5F5",
"*@	c #AFAFC3",
"=@	c #7D7DB6",
"-@	c #373792",
";@	c #F2F2F2",
">@	c #C5C5D9",
",@	c #121289",
"'@	c #0D0D86",
")@	c #090984",
"!@	c #010180",
"~@	c #020281",
"{@	c #060683",
"]@	c #7E7EA2",
"^@	c #3E3E9B",
"/@	c #515194",
"(@	c #9B9BC5",
"_@	c #5D5D9E",
":@	c #9E9EC5",
"<@	c #23238D",
"[@	c #EAEAEA",
"}@	c #D4D4DF",
"|@	c #101087",
"1@	c #030381",
"2@	c #6E6E99",
"3@	c #42429C",
"4@	c #3A3A8E",
"5@	c #C9C9D4",
"6@	c #BEBEC9",
"7@	c #262689",
"8@	c #EFEFEF",
"9@	c #D0D0DD",
"0@	c #060682",
"a@	c #4F4E4E",
"b@	c #444489",
"c@	c #6D6DAE",
"d@	c #0E0E85",
"e@	c #C0C0CC",
"f@	c #EFEFF0",
"g@	c #45459B",
"h@	c #46468B",
"i@	c #ADADCC",
"j@	c #313050",
"k@	c #12127F",
"l@	c #E2E2E5",
"m@	c #C6C6D8",
"n@	c #2D2D87",
"o@	c #E4E4E7",
"p@	c #9B9BC3",
"q@	c #0A0A82",
"r@	c #A4A4B5",
"s@	c #6767AE",
"t@	c #676798",
"u@	c #7373A6",
"v@	c #29298D",
"w@	c #B0B0CC",
"x@	c #E5E5E7",
"y@	c #E9E9EA",
"z@	c #D6D6DF",
"A@	c #7979B3",
"B@	c #0B0B83",
"C@	c #626291",
"D@	c #D1D1DC",
"E@	c #121288",
"F@	c #00007F",
"G@	c #404040",
"H@	c #4D4C4C",
"I@	c #2F2E4F",
"J@	c #090981",
"K@	c #ADADC1",
"L@	c #7E7EA6",
"M@	c #151584",
"N@	c #141487",
"O@	c #1F1F8B",
"P@	c #090983",
"Q@	c #171782",
"R@	c #76769A",
"S@	c #F4F4F5",
"T@	c #5151A5",
"U@	c #00007D",
"V@	c #111184",
"W@	c #AAAAC3",
"X@	c #8A8AA8",
"Y@	c #646497",
"Z@	c #8686A4",
"`@	c #DCDCDF",
" #	c #6363AD",
".#	c #3E3D3D",
"+#	c #2D2D4D",
"@#	c #6B6BAD",
"##	c #D2D2DD",
"$#	c #353598",
"%#	c #2C2B4C",
"&#	c #00007E",
"*#	c #3C3C9A",
"=#	c #6060A9",
"-#	c #6868AC",
";#	c #5454A5",
">#	c #242491",
",#	c #494949",
"'#	c #2B2A4A",
")#	c #00007B",
"!#	c #000078",
"~#	c #3A3959",
"{#	c #3A3939",
"]#	c #323242",
"^#	c #434251",
"/#	c #373737",
"(#	c #0E0E6D",
"_#	c #0F0F6E",
":#	c #353535",
"<#	c #3B3A44",
"[#	c #10106E",
"}#	c #464651",
"|#	c #3D3D3D",
"1#	c #3E3E4D",
"2#	c #373757",
"3#	c #393858",
"4#	c #383857",
"5#	c #414150",
"6#	c #343434",
"7#	c #333333",
"8#	c #323232",
"                                                                ",
"        . + @ # # # # # # # # # # # # # # # # # # # # $         ",
"      % & * = - - - - - - - - - - - - - - - - - - - ; & .       ",
"    > , ' ) ! ~ { ] ^ / ( _ : < < [ } | 1 2 3 4 5 6 ) 7 8 9     ",
"  # 0 a b c d e f g h i 1 j k l l m ( n o p q r s t ) u v w x   ",
"  y z A B C D 6 E F G p H I n J K n L i M N O 5 P Q R S T U V   ",
"  W X Y Z b c `  ...F q +.@.#.$.%.&.@.+.G { *.=.-.) ;.>.,.'.).  ",
"  !.~.{.].^./.(.d  .5 _.:.G <.[.}.|.1.:.2...3.t 4.5.B 6.7.8.9.  ",
"  y 0.a.T b.S 5.4.c.P d.*.r e.f.g.h.r i.d.j.t k.C l.m.n.o.p.q.  ",
"  r.s.t.u.Y m.S v.w.x.y.z.A.B.C.D.E.F.G.H.I.J.K.l.L.M.N.O.P.9   ",
"  % Q.R.S.N.Y T.U.V.W.X.Y.[.Z.`. +.+++V.@+#+}.$+%+M.&+o.*+=+-+  ",
"  ;+>+,+R.S.u.n.'+)+!+}.~+{+]+^+^+^+/+$.}.C.(+_+:+N.o.<+[+}+|+  ",
"  > 1+2+,+R.3+4+5+6+V.7+8+9+0+a+b+c+d+S e+}.f+g+h+S.<+i+j+}+k+  ",
"  l+m+n+2+o+p+q+r+s+t+u+v+w+x+x+y+D.z+A+B+C+D+E+q+F+,+G+n+H+I+  ",
"  l+J+K+n+j+L+M+N+[.f+O+P+x+Q+R+S+D.x+T+U+V+}.W+X+[+j+n+K+Y+Z+  ",
"  l+J+`+ @.@+@G+@@#@$@%@&@Q+x+D+*@R+Q+D.=@-@;@>@,@'@)@ @!@Y+$   ",
"  l+J+`+`+~@{@n+]@;@^@/@C.Q+R+(@_@}.Q+x+:@<@[@}@|@{@1@`+`+Y+$   ",
"  l+J+`+`+`+!@1@2@&@3@4@++Q+x+5@6@x+Q+R+G.7@8@9@0@!@`+`+`+H+Z+  ",
"  a@1+`+`+`+`+`+b@V.c@d@e@x+Q+Q+Q+Q+Q+f@g@h@V.i@`+`+`+`+`+}+I+  ",
"  > j@`+`+`+`+`+k@l@m@K+n@o@R+x+x+R+&@p@q@r@++s@`+`+`+`+`+}+0   ",
"  ;+>+`+`+`+`+`+`+t@V.u@!@v@w@x@y@z@A@B@C@[.D@E@F@`+`+`+`+=+G@  ",
"  H@I@`+`+`+`+`+`+J@K@[.L@M@!@N@O@P@Q@R@S@E.T@`+U@`+`+`+`+=+-+  ",
"  r.s.`+`+`+`+`+`+`+V@W@V.l@X@Y@Y@Z@`@}.B. #`+`+`+`+`+`+`+p..#  ",
"  y +#`+`+`+`+`+`+`+`+0@@###!+C.C.++x@i@$#`+`+`+`+`+`+`+`+p.q.  ",
"  W %#`+`+`+`+`+`+`+`+&#F@)@*#=#-#;#>#!@`+`+`+`+`+`+`+`+`+8.9.  ",
"  ,#'#`+`+`+`+`+`+`+`+`+`+F@)#!#!#)#&#`+`+`+`+`+`+`+`+`+`+~#{#  ",
"  + ]#`+`+`+`+`+`+`+`+`+`+F@F@&#&#F@`+`+`+`+`+`+`+`+`+`+`+^#/#  ",
"  . 0 (#`+`+`+`+F@F@F@F@F@F@F@F@F@F@F@F@`+`+`+`+`+`+`+`+_#% :#  ",
"    . <#(#`+`+`+`+`+`+`+`+`+`+`+`+`+`+`+`+`+`+`+`+`+`+[#}#9.    ",
"      |#. 1#2#3#'.'.'.'.'.'.'.'.'.'.'.'.'.'.'.'.'.4#5#r.).      ",
"        :#6#6#6#6#6#6#6#6#6#6#6#6#6#6#6#6#6#6#6#6#6#7#8#        ",
"                                                                "};
