/* XPM */
static const char * wkc_xpm[] = {
"32 32 359 2",
"  	c None",
". 	c #444444",
"+ 	c #484848",
"@ 	c #474747",
"# 	c #464646",
"$ 	c #434343",
"% 	c #4D4D4D",
"& 	c #403F3F",
"* 	c #2F2E3E",
"= 	c #272747",
"- 	c #282848",
"; 	c #303040",
"> 	c #4E4E4E",
", 	c #3A3945",
"' 	c #43438C",
") 	c #5C5CAE",
"! 	c #6C6CB6",
"~ 	c #7A7ABD",
"{ 	c #8787C3",
"] 	c #9393C9",
"^ 	c #9F9FCF",
"/ 	c #AAAAD5",
"( 	c #B3B3D9",
"_ 	c #BBBBDD",
": 	c #C1C1E0",
"< 	c #C5C5E2",
"[ 	c #C2C2E1",
"} 	c #BCBCDE",
"| 	c #B4B4DA",
"1 	c #ABABD5",
"2 	c #A0A0D0",
"3 	c #9595CA",
"4 	c #8888C4",
"5 	c #7B7BBD",
"6 	c #6E6EB7",
"7 	c #40408B",
"8 	c #3F3E4A",
"9 	c #3E3E3E",
"0 	c #414141",
"a 	c #393987",
"b 	c #4E4EA7",
"c 	c #5A5AAD",
"d 	c #6868B4",
"e 	c #7474BA",
"f 	c #8181C0",
"g 	c #8D8DC6",
"h 	c #9898CC",
"i 	c #A2A2D1",
"j 	c #B2B2D9",
"k 	c #B7B7DB",
"l 	c #BABADD",
"m 	c #B8B8DC",
"n 	c #ACACD6",
"o 	c #A3A3D1",
"p 	c #9999CC",
"q 	c #8E8EC7",
"r 	c #8282C1",
"s 	c #7676BB",
"t 	c #6969B4",
"u 	c #4F4FA7",
"v 	c #333383",
"w 	c #464545",
"x 	c #393838",
"y 	c #4B4B4B",
"z 	c #313142",
"A 	c #3A3A9D",
"B 	c #4949A4",
"C 	c #5555AA",
"D 	c #6161B0",
"E 	c #7979BC",
"F 	c #8585C2",
"G 	c #8F8FC7",
"H 	c #A1A1D0",
"I 	c #A7A7D3",
"J 	c #AEAED7",
"K 	c #AFAFD7",
"L 	c #A8A8D4",
"M 	c #9A9ACD",
"N 	c #9191C8",
"O 	c #8686C3",
"P 	c #6F6FB7",
"Q 	c #6363B1",
"R 	c #5656AB",
"S 	c #4A4AA5",
"T 	c #35359A",
"U 	c #3F3F50",
"V 	c #383838",
"W 	c #4A4A4A",
"X 	c #2B2B4B",
"Y 	c #37379B",
"Z 	c #4343A1",
"` 	c #6666B3",
" .	c #7171B8",
"..	c #7C7CBE",
"+.	c #9696CB",
"@.	c #9C9CCE",
"#.	c #7D7DBE",
"$.	c #7272B9",
"%.	c #6767B3",
"&.	c #5050A8",
"*.	c #4444A2",
"=.	c #323299",
"-.	c #393959",
";.	c #3A3A3A",
">.	c #4B4A4A",
",.	c #2C2C4C",
"'.	c #313198",
").	c #3C3C9E",
"!.	c #4747A3",
"~.	c #5252A9",
"{.	c #5D5DAE",
"].	c #7272B4",
"^.	c #7C7CB5",
"/.	c #8383BA",
"(.	c #8A8ABE",
"_.	c #8F8FC1",
":.	c #9393C3",
"<.	c #9595C4",
"[.	c #9090C1",
"}.	c #8A8AC0",
"|.	c #8484BF",
"1.	c #7C7CBD",
"2.	c #7373B9",
"3.	c #5E5EAF",
"4.	c #5454AA",
"5.	c #3D3D9E",
"6.	c #2D2D96",
"7.	c #3B3B5B",
"8.	c #3B3B3B",
"9.	c #2E2D4D",
"0.	c #2B2B95",
"a.	c #3F3F9F",
"b.	c #5E5EAD",
"c.	c #9C9CB4",
"d.	c #EEEEEE",
"e.	c #F1F1F1",
"f.	c #F2F2F2",
"g.	c #F3F3F3",
"h.	c #CACAD2",
"i.	c #9D9DB5",
"j.	c #7979A8",
"k.	c #6868B2",
"l.	c #5F5FAF",
"m.	c #4B4BA5",
"n.	c #4141A0",
"o.	c #36369B",
"p.	c #272793",
"q.	c #3C3C5C",
"r.	c #3D3C3C",
"s.	c #4C4C4C",
"t.	c #2E2E4E",
"u.	c #242492",
"v.	c #2E2E97",
"w.	c #5353A6",
"x.	c #9C9CB2",
"y.	c #F5F5F5",
"z.	c #F6F6F6",
"A.	c #CDCDD5",
"B.	c #A7A7B9",
"C.	c #DCDCE0",
"D.	c #65659D",
"E.	c #5454A8",
"F.	c #4242A1",
"G.	c #38389C",
"H.	c #2F2F97",
"I.	c #212190",
"J.	c #3D3C5C",
"K.	c #2F2F4F",
"L.	c #1E1E8F",
"M.	c #262693",
"N.	c #4040A0",
"O.	c #4848A0",
"P.	c #9797AF",
"Q.	c #F4F4F4",
"R.	c #F7F7F7",
"S.	c #F8F8F8",
"T.	c #F9F9F9",
"U.	c #CECED5",
"V.	c #9898AD",
"W.	c #E7E7E7",
"X.	c #C5C5CC",
"Y.	c #4A4A9B",
"Z.	c #303098",
"`.	c #1B1B8D",
" +	c #3D3D5D",
".+	c #3F3F3F",
"++	c #4E4D4D",
"@+	c #303050",
"#+	c #17178B",
"$+	c #3D3D9B",
"%+	c #9191AA",
"&+	c #FAFAFA",
"*+	c #EAEAEC",
"=+	c #8F8FAA",
"-+	c #8686A4",
";+	c #787897",
">+	c #42428F",
",+	c #1F1F8F",
"'+	c #15158A",
")+	c #3D3D5E",
"!+	c #414040",
"~+	c #313151",
"{+	c #101088",
"]+	c #252592",
"^+	c #2C2C96",
"/+	c #333395",
"(+	c #8A8AA4",
"_+	c #FBFBFB",
":+	c #F0F0F0",
"<+	c #EAEAEA",
"[+	c #424283",
"}+	c #18188C",
"|+	c #0F0F87",
"1+	c #424141",
"2+	c #4F4F4F",
"3+	c #313152",
"4+	c #0A0A85",
"5+	c #16168B",
"6+	c #1C1C8E",
"7+	c #232391",
"8+	c #282890",
"9+	c #83839F",
"0+	c #FDFDFD",
"a+	c #FEFEFE",
"b+	c #C6C6D0",
"c+	c #7A7A9A",
"d+	c #E6E6E6",
"e+	c #3B3B7D",
"f+	c #1D1D8E",
"g+	c #111188",
"h+	c #3E3D5E",
"i+	c #424242",
"j+	c #323152",
"k+	c #050582",
"l+	c #14148A",
"m+	c #19198C",
"n+	c #1F1F8B",
"o+	c #7D7D9B",
"p+	c #EAEAED",
"q+	c #3C3C81",
"r+	c #2D2D81",
"s+	c #D3D3D8",
"t+	c #E8E8E8",
"u+	c #313177",
"v+	c #1A1A8D",
"w+	c #3E3E5E",
"x+	c #434242",
"y+	c #000080",
"z+	c #040482",
"A+	c #080884",
"B+	c #0C0C86",
"C+	c #151586",
"D+	c #7A7A99",
"E+	c #FCFCFC",
"F+	c #585887",
"G+	c #242488",
"H+	c #69698E",
"I+	c #EDEDED",
"J+	c #2A2A71",
"K+	c #121289",
"L+	c #0D0D86",
"M+	c #090984",
"N+	c #010180",
"O+	c #020281",
"P+	c #060683",
"Q+	c #0D0D82",
"R+	c #757595",
"S+	c #D4D4DC",
"T+	c #6E6E90",
"U+	c #E6E6E9",
"V+	c #1B1B80",
"W+	c #303074",
"X+	c #23236D",
"Y+	c #030381",
"Z+	c #06067E",
"`+	c #6F6F90",
" @	c #8A8AA2",
".@	c #101078",
"+@	c #27276F",
"@@	c #DADADF",
"#@	c #D6D6DB",
"$@	c #191971",
"%@	c #161674",
"&@	c #BFBFC8",
"*@	c #1D1D69",
"=@	c #4F4E4E",
"-@	c #01017B",
";@	c #6A6A8C",
">@	c #EBEBEB",
",@	c #E7E7E8",
"'@	c #2C2C6C",
")@	c #09097B",
"!@	c #1B1B6A",
"~@	c #CDCDD3",
"{@	c #303070",
"]@	c #0A0A78",
"^@	c #727291",
"/@	c #ECECEC",
"(@	c #191965",
"_@	c #313050",
":@	c #00007B",
"<@	c #DCDCDE",
"[@	c #282868",
"}@	c #020278",
"|@	c #040473",
"1@	c #252567",
"2@	c #E2E2E2",
"3@	c #191966",
"4@	c #6B6B8D",
"5@	c #EFEFEF",
"6@	c #DFDFE0",
"7@	c #2E2E6A",
"8@	c #000078",
"9@	c #050568",
"0@	c #C1C1C7",
"a@	c #404040",
"b@	c #4D4C4C",
"c@	c #2F2E4F",
"d@	c #E4E4E5",
"e@	c #4F4F7B",
"f@	c #8A8AA1",
"g@	c #1A1A65",
"h@	c #6D6D8E",
"i@	c #3E3D3D",
"j@	c #2D2D4D",
"k@	c #00007C",
"l@	c #585882",
"m@	c #D8D8DD",
"n@	c #DFDFE3",
"o@	c #DDDDE1",
"p@	c #D5D5DA",
"q@	c #D2D2D7",
"r@	c #141467",
"s@	c #2C2B4C",
"t@	c #000072",
"u@	c #000073",
"v@	c #494949",
"w@	c #2B2A4A",
"x@	c #00007F",
"y@	c #3A3959",
"z@	c #3A3939",
"A@	c #323242",
"B@	c #434251",
"C@	c #373737",
"D@	c #0E0E6D",
"E@	c #0F0F6E",
"F@	c #353535",
"G@	c #3B3A44",
"H@	c #10106E",
"I@	c #464651",
"J@	c #3D3D3D",
"K@	c #3E3E4D",
"L@	c #373757",
"M@	c #393858",
"N@	c #383857",
"O@	c #414150",
"P@	c #343434",
"Q@	c #333333",
"R@	c #323232",
"                                                                ",
"        . + @ # # # # # # # # # # # # # # # # # # # # $         ",
"      % & * = - - - - - - - - - - - - - - - - - - - ; & .       ",
"    > , ' ) ! ~ { ] ^ / ( _ : < < [ } | 1 2 3 4 5 6 ) 7 8 9     ",
"  # 0 a b c d e f g h i 1 j k l l m ( n o p q r s t ) u v w x   ",
"  y z A B C D 6 E F G p H I n J K n L i M N O 5 P Q R S T U V   ",
"  W X Y Z b c `  ...F q +.@.2 i i 2 @.+.G { #.$.%.) &.*.=.-.;.  ",
"  >.,.'.).!.~.{.d ].^./.(._.:.<.<.:.[.}.|.1.2.t 3.4.B 5.6.7.8.  ",
"  y 9.0.T a.S 4.b.c.d.e.e.e.f.f.f.g.e.h.i.j.k.l.C m.n.o.p.q.r.  ",
"  s.t.u.v.Y n.S w.x.f.y.y.y.y.y.z.z.y.A.B.C.D.E.m.F.G.H.I.J.9   ",
"  % K.L.M.H.Y N.O.P.Q.R.S.S.T.T.S.R.y.U.V.W.X.Y.n.G.Z.p.`. +.+  ",
"  ++@+#+L.M.v.o.$+%+Q.S.T.&+T.T.T.T.z.*+=+-+;+>+Y H.p.,+'+)+!+  ",
"  > ~+{+#+L.]+^+/+(+Q.S.&+_+_+_+_+&+R.e.:+y.<+[+6.M.,+}+|+)+1+  ",
"  2+3+4+{+5+6+7+8+9+y._+0+a+a+a+a+a+&+b+c+d+W.e+7+f+#+g+4+h+i+  ",
"  2+j+k+4+|+l+m+n+o+R.0+a+a+a+a+a+0+p+q+r+s+t+u+v+'+|+4+k+w+x+  ",
"  2+j+y+z+A+B+g+C+D+z.E+E+_+E+E+E+R.F+G+H+I+t+J+K+L+M+z+N+w+$   ",
"  2+j+y+y+O+P+4+Q+R+y.S+T+U+S.T.R.V.V+W+d+:+<+X+4+P+Y+y+y+w+$   ",
"  2+j+y+y+y+N+Y+Z+`+:+ @.@+@@@z.#@$@%@&@e.Q.I+*@Y+N+y+y+y+h+x+  ",
"  =@~+y+y+y+y+y+-@;@>@,@'@)@!@~@{@]@^@d.f.y./@(@y+y+y+y+y+)+i+  ",
"  > _@y+y+y+y+y+:@;@<+I+<@[@}@|@}@1@2@I+g.Q.>@3@y+y+y+y+y+)+0   ",
"  ++@+y+y+y+y+y+:@4@5@d.I+6@7@8@9@0@>@e.z.z.I+(@y+y+y+y+y+ +a@  ",
"  b@c@y+y+y+y+y+:@4@Q.R.f.5@d@e@f@I+f.S._+T.d.g@y+y+y+y+y+ +.+  ",
"  s.t.y+y+y+y+y+:@h@y.E+&+Q.:+f.e.g.T.0+0+&+d.g@y+y+y+y+y+q.i@  ",
"  y j@y+y+y+y+y+k@l@m@n@n@o@m@s+p@@@n@n@n@o@q@r@y+y+y+y+y+q.r.  ",
"  W s@y+y+y+y+y+y+8@t@t@t@t@t@t@t@t@t@t@t@t@u@k@y+y+y+y+y+7.8.  ",
"  v@w@y+y+y+y+y+y+y+y+y+y+y+y+y+y+y+y+y+y+y+x@y+y+y+y+y+y+y@z@  ",
"  + A@y+y+y+y+y+y+y+y+y+y+y+y+y+y+y+y+y+y+y+y+y+y+y+y+y+y+B@C@  ",
"  . 0 D@y+y+y+y+x@x@x@x@x@x@x@x@x@x@x@x@y+y+y+y+y+y+y+y+E@% F@  ",
"    . G@D@y+y+y+y+y+y+y+y+y+y+y+y+y+y+y+y+y+y+y+y+y+y+H@I@8.    ",
"      J@. K@L@M@-.-.-.-.-.-.-.-.-.-.-.-.-.-.-.-.-.N@O@s.;.      ",
"        F@P@P@P@P@P@P@P@P@P@P@P@P@P@P@P@P@P@P@P@P@P@Q@R@        ",
"                                                                "};
