/* XPM */
static const char * wke_xpm[] = {
"32 32 354 2",
"  	c None",
". 	c #444444",
"+ 	c #484848",
"@ 	c #474747",
"# 	c #464646",
"$ 	c #434343",
"% 	c #4D4D4D",
"& 	c #403F3F",
"* 	c #2F2E3E",
"= 	c #272747",
"- 	c #282848",
"; 	c #303040",
"> 	c #4E4E4E",
", 	c #3A3945",
"' 	c #43438C",
") 	c #5C5CAE",
"! 	c #6C6CB6",
"~ 	c #7A7ABD",
"{ 	c #8787C3",
"] 	c #9393C9",
"^ 	c #9F9FCF",
"/ 	c #AAAAD5",
"( 	c #B3B3D9",
"_ 	c #BBBBDD",
": 	c #C1C1E0",
"< 	c #C5C5E2",
"[ 	c #C2C2E1",
"} 	c #BCBCDE",
"| 	c #B4B4DA",
"1 	c #ABABD5",
"2 	c #A0A0D0",
"3 	c #9595CA",
"4 	c #8888C4",
"5 	c #7B7BBD",
"6 	c #6E6EB7",
"7 	c #40408B",
"8 	c #3F3E4A",
"9 	c #3E3E3E",
"0 	c #414141",
"a 	c #393987",
"b 	c #4E4EA7",
"c 	c #5A5AAD",
"d 	c #6868B4",
"e 	c #7474BA",
"f 	c #8181C0",
"g 	c #8D8DC6",
"h 	c #9898CC",
"i 	c #A2A2D1",
"j 	c #B2B2D9",
"k 	c #B7B7DB",
"l 	c #BABADD",
"m 	c #B8B8DC",
"n 	c #ACACD6",
"o 	c #A3A3D1",
"p 	c #9999CC",
"q 	c #8E8EC7",
"r 	c #8282C1",
"s 	c #7676BB",
"t 	c #6969B4",
"u 	c #4F4FA7",
"v 	c #333383",
"w 	c #464545",
"x 	c #393838",
"y 	c #4B4B4B",
"z 	c #313142",
"A 	c #3A3A9D",
"B 	c #4949A4",
"C 	c #5555AA",
"D 	c #6161B0",
"E 	c #7979BC",
"F 	c #8585C2",
"G 	c #8F8FC7",
"H 	c #A1A1D0",
"I 	c #A7A7D3",
"J 	c #AEAED7",
"K 	c #AFAFD7",
"L 	c #A8A8D4",
"M 	c #9A9ACD",
"N 	c #9191C8",
"O 	c #8686C3",
"P 	c #6F6FB7",
"Q 	c #6363B1",
"R 	c #5656AB",
"S 	c #4A4AA5",
"T 	c #35359A",
"U 	c #3F3F50",
"V 	c #383838",
"W 	c #4A4A4A",
"X 	c #2B2B4B",
"Y 	c #37379B",
"Z 	c #4343A1",
"` 	c #6666B3",
" .	c #7171B8",
"..	c #7C7CBE",
"+.	c #9696CB",
"@.	c #9C9CCE",
"#.	c #7D7DBE",
"$.	c #7272B9",
"%.	c #6767B3",
"&.	c #5050A8",
"*.	c #4444A2",
"=.	c #323299",
"-.	c #393959",
";.	c #3A3A3A",
">.	c #4B4A4A",
",.	c #2C2C4C",
"'.	c #313198",
").	c #3C3C9E",
"!.	c #4747A3",
"~.	c #5252A9",
"{.	c #5D5DAE",
"].	c #8383C1",
"^.	c #8A8AC5",
"/.	c #9090C8",
"(.	c #8484C2",
"_.	c #7373B9",
":.	c #5E5EAF",
"<.	c #5454AA",
"[.	c #3D3D9E",
"}.	c #2D2D96",
"|.	c #3B3B5B",
"1.	c #3B3B3B",
"2.	c #2E2D4D",
"3.	c #2B2B95",
"4.	c #3F3F9F",
"5.	c #7777BB",
"6.	c #7E7EBF",
"7.	c #7070B8",
"8.	c #5F5FAF",
"9.	c #4B4BA5",
"0.	c #4141A0",
"a.	c #36369B",
"b.	c #272793",
"c.	c #3C3C5C",
"d.	c #3D3C3C",
"e.	c #4C4C4C",
"f.	c #2E2E4E",
"g.	c #242492",
"h.	c #2E2E97",
"i.	c #5353A9",
"j.	c #5B5BAD",
"k.	c #6A6AB5",
"l.	c #7878BC",
"m.	c #7575BA",
"n.	c #6B6BB5",
"o.	c #6464B1",
"p.	c #5D5DAD",
"q.	c #4242A1",
"r.	c #38389C",
"s.	c #2F2F97",
"t.	c #212190",
"u.	c #3D3C5C",
"v.	c #2F2F4F",
"w.	c #1E1E8F",
"x.	c #262693",
"y.	c #4040A0",
"z.	c #4848A4",
"A.	c #5757AB",
"B.	c #5D5DAB",
"C.	c #6464A9",
"D.	c #6969A8",
"E.	c #6B6BA9",
"F.	c #6C6CAF",
"G.	c #6B6BB2",
"H.	c #6A6AB4",
"I.	c #5E5EAE",
"J.	c #65659B",
"K.	c #616198",
"L.	c #303098",
"M.	c #1B1B8D",
"N.	c #3D3D5D",
"O.	c #3F3F3F",
"P.	c #4E4D4D",
"Q.	c #303050",
"R.	c #17178B",
"S.	c #45459F",
"T.	c #515194",
"U.	c #9090AA",
"V.	c #DADADE",
"W.	c #EFEFEF",
"X.	c #F0F0F0",
"Y.	c #D4D4DB",
"Z.	c #9797B0",
"`.	c #66669C",
" +	c #5A5AA7",
".+	c #5656AA",
"++	c #545499",
"@+	c #CDCDD4",
"#+	c #8787A4",
"$+	c #3E3E9B",
"%+	c #1F1F8F",
"&+	c #15158A",
"*+	c #3D3D5E",
"=+	c #414040",
"-+	c #313151",
";+	c #101088",
">+	c #252592",
",+	c #2C2C96",
"'+	c #343495",
")+	c #525287",
"!+	c #DADADD",
"~+	c #F3F3F3",
"{+	c #F1F1F1",
"]+	c #F5F5F5",
"^+	c #F7F7F7",
"/+	c #A2A2B5",
"(+	c #51518E",
"_+	c #A1A1B3",
":+	c #C6C6CE",
"<+	c #353590",
"[+	c #18188C",
"}+	c #0F0F87",
"|+	c #424141",
"1+	c #4F4F4F",
"2+	c #313152",
"3+	c #0A0A85",
"4+	c #16168B",
"5+	c #1C1C8E",
"6+	c #232390",
"7+	c #3B3B7C",
"8+	c #E1E1E2",
"9+	c #F6F6F6",
"0+	c #F2F2F2",
"a+	c #F0F0F2",
"b+	c #F4F4F4",
"c+	c #E8E8E8",
"d+	c #33337E",
"e+	c #232391",
"f+	c #1D1D8E",
"g+	c #111188",
"h+	c #3E3D5E",
"i+	c #424242",
"j+	c #323152",
"k+	c #050582",
"l+	c #14148A",
"m+	c #1C1C7B",
"n+	c #C2C2CA",
"o+	c #F8F8F8",
"p+	c #FBFBFB",
"q+	c #FDFDFD",
"r+	c #FCFCFC",
"s+	c #F9F9F9",
"t+	c #EEEEEE",
"u+	c #515181",
"v+	c #1A1A8B",
"w+	c #3E3E5E",
"x+	c #434242",
"y+	c #000080",
"z+	c #040482",
"A+	c #080884",
"B+	c #0C0C82",
"C+	c #54547F",
"D+	c #E9E9E9",
"E+	c #EBEBEB",
"F+	c #B5B5C2",
"G+	c #68688E",
"H+	c #545485",
"I+	c #686890",
"J+	c #C1C1CD",
"K+	c #FAFAFA",
"L+	c #9191A7",
"M+	c #131382",
"N+	c #0D0D86",
"O+	c #090984",
"P+	c #010180",
"Q+	c #020281",
"R+	c #090970",
"S+	c #C7C7CD",
"T+	c #BEBEC6",
"U+	c #323271",
"V+	c #15157F",
"W+	c #171788",
"X+	c #19198B",
"Y+	c #1B1B8B",
"Z+	c #1E1E82",
"`+	c #555584",
" @	c #EFEFF0",
".@	c #DDDDDF",
"+@	c #0D0D72",
"@@	c #060683",
"#@	c #030381",
"$@	c #00007E",
"%@	c #282868",
"&@	c #8C8CA1",
"*@	c #0B0B6D",
"=@	c #090983",
"-@	c #0C0C86",
";@	c #0E0E87",
">@	c #121289",
",@	c #131389",
"'@	c #13137E",
")@	c #85859F",
"!@	c #EAEAEA",
"~@	c #212168",
"{@	c #01017F",
"]@	c #4F4E4E",
"^@	c #00007D",
"/@	c #2D2D6D",
"(@	c #020270",
"_@	c #0A0A82",
":@	c #23236B",
"<@	c #E6E6E7",
"[@	c #EDEDED",
"}@	c #5B5B81",
"|@	c #00007B",
"1@	c #313050",
"2@	c #08086A",
"3@	c #C1C1C8",
"4@	c #FEFEFE",
"5@	c #B3B3BD",
"6@	c #010174",
"7@	c #00007C",
"8@	c #57577F",
"9@	c #AFAFBA",
"0@	c #B5B5C0",
"a@	c #B9B9C5",
"b@	c #BABAC5",
"c@	c #BCBCC7",
"d@	c #BDBDC8",
"e@	c #B6B6C1",
"f@	c #A6A6B2",
"g@	c #07076B",
"h@	c #404040",
"i@	c #4D4C4C",
"j@	c #2F2E4F",
"k@	c #00007F",
"l@	c #000078",
"m@	c #000075",
"n@	c #000076",
"o@	c #3E3D3D",
"p@	c #2D2D4D",
"q@	c #2C2B4C",
"r@	c #494949",
"s@	c #2B2A4A",
"t@	c #3A3959",
"u@	c #3A3939",
"v@	c #323242",
"w@	c #434251",
"x@	c #373737",
"y@	c #0E0E6D",
"z@	c #0F0F6E",
"A@	c #353535",
"B@	c #3B3A44",
"C@	c #10106E",
"D@	c #464651",
"E@	c #3D3D3D",
"F@	c #3E3E4D",
"G@	c #373757",
"H@	c #393858",
"I@	c #383857",
"J@	c #414150",
"K@	c #343434",
"L@	c #333333",
"M@	c #323232",
"                                                                ",
"        . + @ # # # # # # # # # # # # # # # # # # # # $         ",
"      % & * = - - - - - - - - - - - - - - - - - - - ; & .       ",
"    > , ' ) ! ~ { ] ^ / ( _ : < < [ } | 1 2 3 4 5 6 ) 7 8 9     ",
"  # 0 a b c d e f g h i 1 j k l l m ( n o p q r s t ) u v w x   ",
"  y z A B C D 6 E F G p H I n J K n L i M N O 5 P Q R S T U V   ",
"  W X Y Z b c `  ...F q +.@.2 i i 2 @.+.G { #.$.%.) &.*.=.-.;.  ",
"  >.,.'.).!.~.{.d  .5 ].^.G ] 3 3 ] /.^.(..._.t :.<.B [.}.|.1.  ",
"  y 2.3.T 4.S <.:.%.P 5.#.r F { { O r 6.5.7.d 8.C 9.0.a.b.c.d.  ",
"  e.f.g.h.Y 0.S i.j.Q k.7.e 5.E E l.m.7.n.o.p.<.9.q.r.s.t.u.9   ",
"  % v.w.x.s.Y y.z.&.A.B.C.D.E.F.G.H.%.Q I.J.K.B 0.r.L.b.M.N.O.  ",
"  P.Q.R.w.x.h.a.[.S.T.U.V.W.X.Y.Z.`. +.+++@+#+$+Y s.b.%+&+*+=+  ",
"  > -+;+R.w.>+,+'+)+!+~+{+W.{+]+^+X./+(+_+X.:+<+}.x.%+[+}+*+|+  ",
"  1+2+3+;+4+5+6+7+8+{+~+]+]+]+9+~+0+]+a+b+{+c+d+e+f+R.g+3+h+i+  ",
"  1+j+k+3+}+l+m+n+X.~+^+o+p+q+r+s+]+{+X.{+0+t+u+v+&+}+3+k+w+x+  ",
"  1+j+y+z+A+B+C+D+E+F+G+H+I+J+K+r+K+9+b+]+]+0+L+M+N+O+z+P+w+$   ",
"  1+j+y+y+Q+R+S+T+U+V+W+X+Y+Z+`+ @p+p+p+r+p+9+.@+@@@#@y+y+w+$   ",
"  1+j+y+y+$@%@&@*@=@-@;@;+>@,@'@)@9+o+s+s+K+^+!@~@{@y+y+y+h+x+  ",
"  ]@-+y+y+^@/@(@{@Q+z+@@A+O+_@:@<@^+p+r+p+p+s+[@}@|@y+y+y+*+i+  ",
"  > 1@y+y+y+$@y+y+y+y+y+P+P+2@3@t+9+p+r+r+4@p+X.5@6@y+y+y+*+0   ",
"  P.Q.y+y+y+y+y+y+y+y+y+y+7@8@9@0@a@a@a@b@c@d@e@f@g@y+y+y+N.h@  ",
"  i@j@y+y+y+y+y+y+y+y+y+y+k@l@m@m@m@m@m@m@m@m@m@n@^@y+y+y+N.O.  ",
"  e.f.y+y+y+y+y+y+y+y+y+y+y+y+y+y+y+y+y+y+y+y+y+y+y+y+y+y+c.o@  ",
"  y p@y+y+y+y+y+y+y+y+y+y+y+y+y+y+y+y+y+y+y+y+y+y+y+y+y+y+c.d.  ",
"  W q@y+y+y+y+y+y+y+y+y+y+y+y+y+y+y+y+y+y+y+y+y+y+y+y+y+y+|.1.  ",
"  r@s@y+y+y+y+y+y+y+y+y+y+y+y+y+y+y+y+y+y+y+y+y+y+y+y+y+y+t@u@  ",
"  + v@y+y+y+y+y+y+y+y+y+y+y+y+y+y+y+y+y+y+y+y+y+y+y+y+y+y+w@x@  ",
"  . 0 y@y+y+y+y+y+y+y+y+y+y+y+y+y+y+y+y+y+y+y+y+y+y+y+y+z@% A@  ",
"    . B@y@y+y+y+y+y+y+y+y+y+y+y+y+y+y+y+y+y+y+y+y+y+y+C@D@1.    ",
"      E@. F@G@H@-.-.-.-.-.-.-.-.-.-.-.-.-.-.-.-.-.I@J@e.;.      ",
"        A@K@K@K@K@K@K@K@K@K@K@K@K@K@K@K@K@K@K@K@K@K@L@M@        ",
"                                                                "};
