/* XPM */
static const char * wkl_xpm[] = {
"32 32 324 2",
"  	c None",
". 	c #444444",
"+ 	c #484848",
"@ 	c #474747",
"# 	c #464646",
"$ 	c #434343",
"% 	c #4D4D4D",
"& 	c #403F3F",
"* 	c #2F2E3E",
"= 	c #272747",
"- 	c #282848",
"; 	c #303040",
"> 	c #4E4E4E",
", 	c #3A3945",
"' 	c #43438C",
") 	c #5C5CAE",
"! 	c #6C6CB6",
"~ 	c #7A7ABD",
"{ 	c #8787C3",
"] 	c #9393C9",
"^ 	c #9F9FCF",
"/ 	c #AAAAD5",
"( 	c #B3B3D9",
"_ 	c #BBBBDD",
": 	c #C1C1E0",
"< 	c #C5C5E2",
"[ 	c #C2C2E1",
"} 	c #BCBCDE",
"| 	c #B4B4DA",
"1 	c #ABABD5",
"2 	c #A0A0D0",
"3 	c #9595CA",
"4 	c #8888C4",
"5 	c #7B7BBD",
"6 	c #6E6EB7",
"7 	c #40408B",
"8 	c #3F3E4A",
"9 	c #3E3E3E",
"0 	c #414141",
"a 	c #393987",
"b 	c #4E4EA7",
"c 	c #5A5AAD",
"d 	c #6868B4",
"e 	c #7474BA",
"f 	c #8181C0",
"g 	c #8D8DC6",
"h 	c #9898CC",
"i 	c #A2A2D1",
"j 	c #B2B2D9",
"k 	c #B7B7DB",
"l 	c #BABADD",
"m 	c #B8B8DC",
"n 	c #ACACD6",
"o 	c #A3A3D1",
"p 	c #9999CC",
"q 	c #8E8EC7",
"r 	c #8282C1",
"s 	c #7676BB",
"t 	c #6969B4",
"u 	c #4F4FA7",
"v 	c #333383",
"w 	c #464545",
"x 	c #393838",
"y 	c #4B4B4B",
"z 	c #313142",
"A 	c #3A3A9D",
"B 	c #4949A4",
"C 	c #5555AA",
"D 	c #6161B0",
"E 	c #7979BC",
"F 	c #8585C2",
"G 	c #8F8FC7",
"H 	c #A1A1D0",
"I 	c #A7A7D3",
"J 	c #AEAED7",
"K 	c #AFAFD7",
"L 	c #A8A8D4",
"M 	c #9A9ACD",
"N 	c #9191C8",
"O 	c #8686C3",
"P 	c #6F6FB7",
"Q 	c #6363B1",
"R 	c #5656AB",
"S 	c #4A4AA5",
"T 	c #35359A",
"U 	c #3F3F50",
"V 	c #383838",
"W 	c #4A4A4A",
"X 	c #2B2B4B",
"Y 	c #37379B",
"Z 	c #4343A1",
"` 	c #6666B3",
" .	c #7171B8",
"..	c #7C7CBE",
"+.	c #9696CB",
"@.	c #9C9CCE",
"#.	c #7D7DBE",
"$.	c #7272B9",
"%.	c #6767B3",
"&.	c #5050A8",
"*.	c #4444A2",
"=.	c #323299",
"-.	c #393959",
";.	c #3A3A3A",
">.	c #4B4A4A",
",.	c #2C2C4C",
"'.	c #313198",
").	c #3C3C9E",
"!.	c #4747A3",
"~.	c #5252A9",
"{.	c #5D5DAE",
"].	c #8383C1",
"^.	c #8A8AC5",
"/.	c #9090C8",
"(.	c #8484C2",
"_.	c #7373B9",
":.	c #5E5EAF",
"<.	c #5454AA",
"[.	c #3D3D9E",
"}.	c #2D2D96",
"|.	c #3B3B5B",
"1.	c #3B3B3B",
"2.	c #2E2D4D",
"3.	c #2B2B95",
"4.	c #3F3F9F",
"5.	c #7F7FB5",
"6.	c #BBBBCD",
"7.	c #C0C0D1",
"8.	c #C3C3D3",
"9.	c #C5C5D5",
"0.	c #C7C7D6",
"a.	c #C7C7D7",
"b.	c #B2B2CD",
"c.	c #8787BB",
"d.	c #7070B8",
"e.	c #5F5FAF",
"f.	c #4B4BA5",
"g.	c #4141A0",
"h.	c #36369B",
"i.	c #272793",
"j.	c #3C3C5C",
"k.	c #3D3C3C",
"l.	c #4C4C4C",
"m.	c #2E2E4E",
"n.	c #242492",
"o.	c #2E2E97",
"p.	c #5353A9",
"q.	c #8585B6",
"r.	c #FCFCFC",
"s.	c #FFFFFF",
"t.	c #FEFEFE",
"u.	c #DEDEE9",
"v.	c #B6B6C6",
"w.	c #9292BD",
"x.	c #4242A1",
"y.	c #38389C",
"z.	c #2F2F97",
"A.	c #212190",
"B.	c #3D3C5C",
"C.	c #2F2F4F",
"D.	c #1E1E8F",
"E.	c #262693",
"F.	c #4040A0",
"G.	c #4848A4",
"H.	c #7F7FB2",
"I.	c #DDDDE8",
"J.	c #A9A9C2",
"K.	c #DEDEE4",
"L.	c #7B7BB5",
"M.	c #303098",
"N.	c #1B1B8D",
"O.	c #3D3D5D",
"P.	c #3F3F3F",
"Q.	c #4E4D4D",
"R.	c #303050",
"S.	c #17178B",
"T.	c #7777AD",
"U.	c #EEEEF2",
"V.	c #A4A4C0",
"W.	c #A0A0BC",
"X.	c #8484B5",
"Y.	c #3E3E9F",
"Z.	c #1F1F8F",
"`.	c #15158A",
" +	c #3D3D5E",
".+	c #414040",
"++	c #313151",
"@+	c #101088",
"#+	c #252592",
"$+	c #2C2C96",
"%+	c #333399",
"&+	c #6F6FA8",
"*+	c #C4C4DB",
"=+	c #34349A",
"-+	c #18188C",
";+	c #0F0F87",
">+	c #424141",
",+	c #4F4F4F",
"'+	c #313152",
")+	c #0A0A85",
"!+	c #16168B",
"~+	c #1C1C8E",
"{+	c #232391",
"]+	c #282894",
"^+	c #6767A3",
"/+	c #F2F2F4",
"(+	c #C5C5DC",
"_+	c #C5C5DB",
":+	c #C6C6DC",
"<+	c #D8D8E2",
"[+	c #C2C2D9",
"}+	c #292994",
"|+	c #1D1D8E",
"1+	c #111188",
"2+	c #3E3D5E",
"3+	c #424242",
"4+	c #323152",
"5+	c #050582",
"6+	c #14148A",
"7+	c #19198C",
"8+	c #5F5F9F",
"9+	c #E1E1E9",
"0+	c #7575AB",
"a+	c #7474A9",
"b+	c #7575AA",
"c+	c #7676AA",
"d+	c #7373A8",
"e+	c #B1B1C3",
"f+	c #BFBFD7",
"g+	c #1A1A8D",
"h+	c #3E3E5E",
"i+	c #434242",
"j+	c #000080",
"k+	c #040482",
"l+	c #080884",
"m+	c #0C0C86",
"n+	c #58589A",
"o+	c #FBFBFB",
"p+	c #EEEEF1",
"q+	c #B5B5D2",
"r+	c #B3B3D1",
"s+	c #B4B4D1",
"t+	c #B4B4D2",
"u+	c #CDCDDA",
"v+	c #BDBDD6",
"w+	c #121289",
"x+	c #0D0D86",
"y+	c #090984",
"z+	c #010180",
"A+	c #020281",
"B+	c #060683",
"C+	c #515196",
"D+	c #DEDEE6",
"E+	c #6B6BA0",
"F+	c #68689D",
"G+	c #69699E",
"H+	c #67679D",
"I+	c #AFAFC0",
"J+	c #BABAD3",
"K+	c #0E0E87",
"L+	c #030381",
"M+	c #4C4C94",
"N+	c #EAEAEE",
"O+	c #9E9EC5",
"P+	c #9C9CC4",
"Q+	c #9B9BC3",
"R+	c #BABAD4",
"S+	c #4F4E4E",
"T+	c #474791",
"U+	c #DFDFE7",
"V+	c #7070A1",
"W+	c #6C6C9E",
"X+	c #6D6D9E",
"Y+	c #6C6C9D",
"Z+	c #B1B1C1",
"`+	c #B9B9D2",
" @	c #313050",
".@	c #464690",
"+@	c #E8E8EC",
"@@	c #8A8ABA",
"#@	c #8484B6",
"$@	c #B7B7CB",
"%@	c #E1E1E8",
"&@	c #6D6D9B",
"*@	c #696997",
"=@	c #B4B4C4",
"-@	c #404040",
";@	c #4D4C4C",
">@	c #2F2E4F",
",@	c #BBBBD3",
"'@	c #454590",
")@	c #F7F7F7",
"!@	c #B8B8D1",
"~@	c #3E3D3D",
"{@	c #2D2D4D",
"]@	c #161686",
"^@	c #6262A9",
"/@	c #6565AB",
"(@	c #5353A4",
"_@	c #2C2B4C",
":@	c #494949",
"<@	c #2B2A4A",
"[@	c #3A3959",
"}@	c #3A3939",
"|@	c #323242",
"1@	c #00007F",
"2@	c #00007E",
"3@	c #434251",
"4@	c #373737",
"5@	c #0E0E6D",
"6@	c #0F0F6E",
"7@	c #353535",
"8@	c #3B3A44",
"9@	c #10106E",
"0@	c #464651",
"a@	c #3D3D3D",
"b@	c #3E3E4D",
"c@	c #373757",
"d@	c #393858",
"e@	c #383857",
"f@	c #414150",
"g@	c #343434",
"h@	c #333333",
"i@	c #323232",
"                                                                ",
"        . + @ # # # # # # # # # # # # # # # # # # # # $         ",
"      % & * = - - - - - - - - - - - - - - - - - - - ; & .       ",
"    > , ' ) ! ~ { ] ^ / ( _ : < < [ } | 1 2 3 4 5 6 ) 7 8 9     ",
"  # 0 a b c d e f g h i 1 j k l l m ( n o p q r s t ) u v w x   ",
"  y z A B C D 6 E F G p H I n J K n L i M N O 5 P Q R S T U V   ",
"  W X Y Z b c `  ...F q +.@.2 i i 2 @.+.G { #.$.%.) &.*.=.-.;.  ",
"  >.,.'.).!.~.{.d  .5 ].^.G ] 3 3 ] /.^.(..._.t :.<.B [.}.|.1.  ",
"  y 2.3.T 4.S <.:.5.6.7.8.9.0.a.a.0.9.b.c.d.d e.C f.g.h.i.j.k.  ",
"  l.m.n.o.Y g.S p.q.r.s.s.s.s.s.s.s.t.u.v.w.{.<.f.x.y.z.A.B.9   ",
"  % C.D.E.z.Y F.G.H.r.s.s.s.s.s.s.s.s.I.J.K.L.B g.y.M.i.N.O.P.  ",
"  Q.R.S.D.E.o.h.[.T.r.s.s.s.s.s.s.s.s.U.V.W.X.Y.Y z.i.Z.`. +.+  ",
"  > ++@+S.D.#+$+%+&+r.s.s.s.s.s.s.s.s.t.t.t.*+=+}.E.Z.-+;+ +>+  ",
"  ,+'+)+@+!+~+{+]+^+r./+(+_+(+:+:+:+(+*+<+t.[+}+{+|+S.1+)+2+3+  ",
"  ,+4+5+)+;+6+7+Z.8+r.9+0+a+b+c+c+b+a+d+e+t.f+Z.g+`.;+)+5+h+i+  ",
"  ,+4+j+k+l+m+1+`.n+o+p+q+r+s+t+t+s+r+r+u+t.v+!+w+x+y+k+z+h+$   ",
"  ,+4+j+j+A+B+)+x+C+o+D+E+F+G+G+G+G+F+H+I+t.J+K+)+B+L+j+j+h+$   ",
"  ,+4+j+j+j+z+L+B+M+o+N+O+P+P+P+P+P+P+Q+7.t.R+B+L+z+j+j+j+2+i+  ",
"  S+++j+j+j+j+j+z+T+o+U+V+W+X+X+X+X+W+Y+Z+t.`+z+j+j+j+j+j+ +3+  ",
"  >  @j+j+j+j+j+j+.@o++@@@#@q.q.q.q.#@#@$@t.`+j+j+j+j+j+j+ +0   ",
"  Q.R.j+j+j+j+j+j+.@o+%@&@*@*@*@*@*@*@*@=@t.`+j+j+j+j+j+j+O.-@  ",
"  ;@>@j+j+j+j+j+j+.@o+t.t.t.t.t.t.t.t.t.t.s.,@j+j+j+j+j+j+O.P.  ",
"  l.m.j+j+j+j+j+j+'@)@o+o+o+o+o+o+o+o+o+o+o+!@j+j+j+j+j+j+j.~@  ",
"  y {@j+j+j+j+j+j+]@^@/@/@/@/@/@/@/@/@/@/@/@(@j+j+j+j+j+j+j.k.  ",
"  W _@j+j+j+j+j+j+j+j+j+j+j+j+j+j+j+j+j+j+j+j+j+j+j+j+j+j+|.1.  ",
"  :@<@j+j+j+j+j+j+j+j+j+j+j+j+j+j+j+j+j+j+j+j+j+j+j+j+j+j+[@}@  ",
"  + |@j+j+j+j+j+j+j+j+j+j+1@1@2@2@1@j+j+j+j+j+j+j+j+j+j+j+3@4@  ",
"  . 0 5@j+j+j+j+1@1@1@1@1@1@1@1@1@1@1@1@j+j+j+j+j+j+j+j+6@% 7@  ",
"    . 8@5@j+j+j+j+j+j+j+j+j+j+j+j+j+j+j+j+j+j+j+j+j+j+9@0@1.    ",
"      a@. b@c@d@-.-.-.-.-.-.-.-.-.-.-.-.-.-.-.-.-.e@f@l.;.      ",
"        7@g@g@g@g@g@g@g@g@g@g@g@g@g@g@g@g@g@g@g@g@g@h@i@        ",
"                                                                "};
