/* XPM */
static const char * wkn_16_xpm[] = {
"16 16 36 1",
" 	c None",
".	c #000080",
"+	c #010180",
"@	c #3C3C9A",
"#	c #030381",
"$	c #5B5BAD",
"%	c #F9F9FC",
"&	c #B2B2D9",
"*	c #8484C2",
"=	c #B6B6DB",
"-	c #A6A6D3",
";	c #FEFEFF",
">	c #1D1D8A",
",	c #BEBEDF",
"'	c #EEEEF7",
")	c #A2A2D1",
"!	c #4545A1",
"~	c #6C6CB6",
"{	c #BDBDDE",
"]	c #6B6BB5",
"^	c #7373B9",
"/	c #C6C6E3",
"(	c #9E9ECF",
"_	c #6C6CB5",
":	c #161688",
"<	c #F5F5FA",
"[	c #FFFFFF",
"}	c #C1C1E0",
"|	c #5A5AAC",
"1	c #5858AC",
"2	c #AAAAD5",
"3	c #E6E6F3",
"4	c #4F4FA6",
"5	c #7878BC",
"6	c #4B4BA5",
"7	c #080882",
"................",
"................",
"................",
".........+@#....",
".........$%&+...",
"........*=-;>...",
".......*,')!....",
"......~{'{].....",
".....^/({_......",
"....:<[}|.......",
"....1234........",
"....567.........",
"................",
"................",
"................",
"................"};
