/* XPM */
static const char * wktools41_xpm[] = {
"32 32 331 2",
"  	c None",
". 	c #0A0E89",
"+ 	c #00007F",
"@ 	c #000080",
"# 	c #131990",
"$ 	c #010281",
"% 	c #090984",
"& 	c #39399C",
"* 	c #5C5CAE",
"= 	c #6C6CB6",
"- 	c #7A7ABD",
"; 	c #8787C3",
"> 	c #9393C9",
", 	c #9F9FCF",
"' 	c #AAAAD5",
") 	c #B3B3D9",
"! 	c #BBBBDD",
"~ 	c #C1C2E1",
"{ 	c #C5C5E2",
"] 	c #C2C2E1",
"^ 	c #BCBCDE",
"/ 	c #B4B4DA",
"( 	c #ABABD5",
"_ 	c #A0A0D0",
": 	c #9595CA",
"< 	c #8888C4",
"[ 	c #7B7BBD",
"} 	c #6E6EB7",
"| 	c #36369B",
"1 	c #050582",
"2 	c #2E2E97",
"3 	c #4E4EA6",
"4 	c #5A5AAD",
"5 	c #6868B3",
"6 	c #7474BA",
"7 	c #8181C0",
"8 	c #8D8DC6",
"9 	c #9898CC",
"0 	c #A2A2D1",
"a 	c #B6B8DD",
"b 	c #C9CBE6",
"c 	c #C7CAE6",
"d 	c #BBBCDE",
"e 	c #B8B8DC",
"f 	c #ACACD6",
"g 	c #A3A3D1",
"h 	c #9999CC",
"i 	c #8E8EC7",
"j 	c #8282C1",
"k 	c #7676BA",
"l 	c #6969B4",
"m 	c #4F4FA7",
"n 	c #272793",
"o 	c #090C88",
"p 	c #3A3A9D",
"q 	c #4949A4",
"r 	c #5555AA",
"s 	c #6161B0",
"t 	c #7979BC",
"u 	c #8585C2",
"v 	c #8F8FC7",
"w 	c #A4A6D4",
"x 	c #CAD1EC",
"y 	c #F7F9FD",
"z 	c #EEF4FC",
"A 	c #CBCEE9",
"B 	c #B3B7DD",
"C 	c #A8A8D4",
"D 	c #9A9ACD",
"E 	c #9191C8",
"F 	c #8686C3",
"G 	c #6F6FB7",
"H 	c #6363B1",
"I 	c #5656AB",
"J 	c #4A4AA5",
"K 	c #35359A",
"L 	c #151E94",
"M 	c #37379B",
"N 	c #4343A1",
"O 	c #4E4EA7",
"P 	c #6666B3",
"Q 	c #7171B8",
"R 	c #7C7CBE",
"S 	c #ADB4DD",
"T 	c #F2F3FA",
"U 	c #FFFFFF",
"V 	c #FCFDFE",
"W 	c #D2DBF2",
"X 	c #A9AED9",
"Y 	c #9696CB",
"Z 	c #7D7DBE",
"` 	c #7272B9",
" .	c #6767B3",
"..	c #5050A8",
"+.	c #4444A2",
"@.	c #323299",
"#.	c #313198",
"$.	c #3C3C9D",
"%.	c #4747A3",
"&.	c #5252A8",
"*.	c #5D5DAE",
"=.	c #6868B4",
"-.	c #8383C1",
";.	c #A5ABD8",
">.	c #E0E5F5",
",.	c #FAFCFE",
"'.	c #D0D9F1",
").	c #959ACF",
"!.	c #8484C2",
"~.	c #7C7CBD",
"{.	c #7373B9",
"].	c #5E5EAE",
"^.	c #5454AA",
"/.	c #3D3D9E",
"(.	c #2D2D96",
"_.	c #2B2B95",
":.	c #3F3F9F",
"<.	c #5E5EAF",
"[.	c #7777BB",
"}.	c #9FA5D5",
"|.	c #DFE5F5",
"1.	c #FDFEFF",
"2.	c #F6F8FC",
"3.	c #BDC4E5",
"4.	c #7A7DC0",
"5.	c #7070B8",
"6.	c #5F5FAF",
"7.	c #4B4BA5",
"8.	c #4141A0",
"9.	c #242492",
"0.	c #5353A9",
"a.	c #5B5BAD",
"b.	c #6A6AB5",
"c.	c #969CD0",
"d.	c #EBF0F9",
"e.	c #EAEDF8",
"f.	c #959FD3",
"g.	c #6465B2",
"h.	c #4242A1",
"i.	c #38389C",
"j.	c #2F2F97",
"k.	c #212190",
"l.	c #1E1E8F",
"m.	c #262692",
"n.	c #4040A0",
"o.	c #4848A4",
"p.	c #5050A7",
"q.	c #5757AB",
"r.	c #989DD0",
"s.	c #FEFEFE",
"t.	c #FAFBFE",
"u.	c #BFC4E3",
"v.	c #595AAD",
"w.	c #5151A8",
"x.	c #303098",
"y.	c #1B1B8D",
"z.	c #17178B",
"A.	c #262693",
"B.	c #4545A2",
"C.	c #5959AC",
"D.	c #6063B2",
"E.	c #CACBE5",
"F.	c #4F52A9",
"G.	c #3E3E9F",
"H.	c #1F1F8F",
"I.	c #15158A",
"J.	c #101088",
"K.	c #2C339C",
"L.	c #7585C9",
"M.	c #7A7EC1",
"N.	c #34359A",
"O.	c #727EC5",
"P.	c #C5C6E3",
"Q.	c #4144A2",
"R.	c #34349A",
"S.	c #18188C",
"T.	c #0F0F87",
"U.	c #0A0A85",
"V.	c #1F2796",
"W.	c #7E92D2",
"X.	c #E9EDF8",
"Y.	c #E6E9F5",
"Z.	c #7C7FC0",
"`.	c #2F3098",
" +	c #333399",
".+	c #3B3B9D",
"++	c #4346A4",
"@+	c #D5DBEF",
"#+	c #AAB1DB",
"$+	c #35369B",
"%+	c #292994",
"&+	c #232391",
"*+	c #1D1D8E",
"=+	c #111188",
"-+	c #060784",
";+	c #3B46A7",
">+	c #CEDCF3",
",+	c #FEFEFF",
"'+	c #ECEEF6",
")+	c #7578BC",
"!+	c #282995",
"~+	c #2C2C96",
"{+	c #35389E",
"]+	c #BFC5E5",
"^+	c #FBFCFD",
"/+	c #F4F8FD",
"(+	c #A1ABDB",
"_+	c #2C3099",
":+	c #1A1A8D",
"<+	c #12188F",
"[+	c #7989CB",
"}+	c #FEFFFF",
"|+	c #F6F7FB",
"1+	c #A8B5DF",
"2+	c #5A6ABC",
"3+	c #7C91D1",
"4+	c #DFE4F3",
"5+	c #FCFCFE",
"6+	c #EEF1FA",
"7+	c #8D96CE",
"8+	c #1D2091",
"9+	c #16168B",
"0+	c #121289",
"a+	c #0D0D86",
"b+	c #040482",
"c+	c #010180",
"d+	c #010382",
"e+	c #3B47A9",
"f+	c #CBD9F2",
"g+	c #F0F4FA",
"h+	c #8892CC",
"i+	c #171B8F",
"j+	c #060683",
"k+	c #030381",
"l+	c #07108B",
"m+	c #5D70BF",
"n+	c #E3E7F4",
"o+	c #EEF2FB",
"p+	c #7F8BCA",
"q+	c #12188E",
"r+	c #050A87",
"s+	c #5D68B8",
"t+	c #DAE0F1",
"u+	c #F9FBFD",
"v+	c #EDF1FA",
"w+	c #7984C6",
"x+	c #000181",
"y+	c #040A87",
"z+	c #4D5BB3",
"A+	c #B6C2E5",
"B+	c #E5EBF7",
"C+	c #F8FAFD",
"D+	c #FAFBFD",
"E+	c #EDF2FA",
"F+	c #DFE8F5",
"G+	c #7782C4",
"H+	c #141A8F",
"I+	c #020483",
"J+	c #21329F",
"K+	c #697AC3",
"L+	c #9DA3D3",
"M+	c #A5A8D5",
"N+	c #808DCC",
"O+	c #5A71C1",
"P+	c #C6D2EC",
"Q+	c #E9ECF7",
"R+	c #C5CFEA",
"S+	c #DEE4F4",
"T+	c #FBFCFE",
"U+	c #707CC2",
"V+	c #10158C",
"W+	c #010181",
"X+	c #010282",
"Y+	c #3A4EAD",
"Z+	c #C7D3ED",
"`+	c #EBEEF7",
" @	c #8B97CF",
".@	c #2D43A9",
"+@	c #6576C1",
"@@	c #DDE3F3",
"#@	c #3940A2",
"$@	c #000180",
"%@	c #3E51AF",
"&@	c #C2CEEA",
"*@	c #C7CDE7",
"=@	c #3341A5",
"-@	c #040986",
";@	c #131F93",
">@	c #A0AAD8",
",@	c #4950AA",
"'@	c #020482",
")@	c #030482",
"!@	c #4050AD",
"~@	c #BDCAE8",
"{@	c #E1E3F1",
"]@	c #7B85C5",
"^@	c #3746A6",
"/@	c #5E6AB7",
"(@	c #CED2EA",
"_@	c #DEE6F5",
":@	c #3A43A3",
"<@	c #050784",
"[@	c #404FAB",
"}@	c #BAC8E7",
"|@	c #E9EDF7",
"1@	c #BFCBE7",
"2@	c #DAE0F0",
"3@	c #DFE7F4",
"4@	c #7488C9",
"5@	c #141C90",
"6@	c #060985",
"7@	c #404EAA",
"8@	c #B7C5E6",
"9@	c #DEE6F4",
"0@	c #7588C8",
"a@	c #182596",
"b@	c #070985",
"c@	c #3A47A7",
"d@	c #AEB9DE",
"e@	c #DAE2F2",
"f@	c #6E7EC2",
"g@	c #162193",
"h@	c #030986",
"i@	c #0B2399",
"j@	c #242B97",
"k@	c #444FA9",
"l@	c #3641A2",
"m@	c #12198D",
"n@	c #020886",
"o@	c #020885",
"p@	c #040E8A",
"                                                                ",
"          . + @ @ + @ @ + @ @ + @ @ + @ @ + @ @ + @ #           ",
"      @ @ @ @ @ @ @ @ @ @ @ @ @ @ @ @ @ @ @ @ @ @ @ @ @ $       ",
"    @ % & * = - ; > , ' ) ! ~ { { ] ^ / ( _ : < [ } * | 1 $     ",
"    @ 2 3 4 5 6 7 8 9 0 ( a b c d e ) f g h i j k l * m n @     ",
"  o @ p q r s } t u v h w x y z A B C 0 D E F [ G H I J K @ L   ",
"  @ @ M N O 4 P Q R u i S T U U V W X Y v ; Z `  .* ..+.@.@ @   ",
"  @ @ #.$.%.&.*.=.Q [ -.;.>.V U U ,.'.).!.~.{.l ].^.q /.(.@ +   ",
"  @ @ _.K :.J ^.<. .G [.Z }.|.1.U U 2.3.4.5.=.6.r 7.8.| n @ @   ",
"  @ @ 9.2 M 8.J 0.a.H b.5.6 c.d.U U U e.f.g.*.^.7.h.i.j.k.@ @   ",
"  @ @ l.m.j.M n.o.p.q.*.H  .l r.U U s.t.u.v.w.q 8.i.x.n y.@ +   ",
"  @ @ z.l.A.2 | /.B.7.w.r C.a.D.U U U U E.F.B.G.M j.n H.I.@ @   ",
"  @ @ J.z.K.L.M.N.& :.+.o.7.O O.U U U U P.Q.p R.(.A.H.S.T.@ @   ",
"  @ @ U.V.W.X.Y.Z.`. +i..+G.++@+U U s.y #+$+j.%+&+*+z.=+U.@ +   ",
"  @ @ -+;+>+U ,+'+)+!+~+j.{+]+^+U U U /+(+_+9.H.:+I.T.U.1 @ @   ",
"  @ @ @ <+[+U U }+|+1+2+3+4+5+}+U U U ,+6+7+8+9+0+a+% b+c+@ @   ",
"  @ @ @ d+e+f+s.U s.U U s.U U s.U U s.U U g+h+i+U.j+k++ @ @ +   ",
"  @ @ @ @ l+m+n+s.U U U U U U U U U U U U U o+p+q+c+@ @ @ @ @   ",
"  @ @ @ @ @ r+s+t+u+U U U U U U U U U U U U U v+w+q+x+@ @ @ @   ",
"  @ @ @ + @ + y+z+A+B+C+D+E+F+^+s.s.s.U s.s.U U d.G+H+x+@ @ +   ",
"  @ @ @ @ @ @ @ I+J+K+L+M+N+O+P+U U U U U Q+R+S+T+d.U+V+@ @ @   ",
"  @ @ @ @ @ @ @ @ @ W+X+$ X+X+Y+Z+U U U `+ @.@+@@+U @@#@X+@ @   ",
"  @ @ @ + @ + @ @ + @ @ + @ @ $@%@&@s.U *@=@-@;@>@U U ,@'@@ +   ",
"  @ @ @ @ @ @ @ @ @ @ @ @ @ @ @ )@!@~@U {@]@^@/@(@U _@:@d+@ @   ",
"  @ @ @ @ @ @ @ @ @ @ @ @ @ @ @ @ <@[@}@U |@1@2@s.3@4@5@@ @ @   ",
"  @ @ @ + @ + @ @ + @ @ + @ @ + @ @ 6@7@8@s.U U 9@0@a@d+@ @ +   ",
"  x+@ @ @ @ @ @ @ @ @ @ @ @ @ @ @ @ @ b@c@d@U e@f@g@d+@ @ @ h@  ",
"  i@@ @ + @ + @ @ + @ @ + @ @ + @ @ + @ <@j@k@l@m@x+@ + @ @     ",
"    n@@ @ @ @ @ @ @ @ @ @ @ @ @ @ @ @ @ @ $@d+d+@ @ @ @ @ n@    ",
"      o@@ @ @ @ @ @ @ @ @ @ @ @ @ @ @ @ @ @ @ @ @ @ @ @ o@      ",
"          p@@ @ @ @ @ @ @ @ @ @ @ @ @ @ @ @ @ @ @ @ p@          ",
"                                                                "};
