/* XPM */
static const char * wzrd_xpm[] = {
"32 32 293 2",
"  	c None",
". 	c #444444",
"+ 	c #484848",
"@ 	c #474747",
"# 	c #464646",
"$ 	c #434343",
"% 	c #3D3C3C",
"& 	c #4D4D4D",
"* 	c #403F3F",
"= 	c #343333",
"- 	c #2F2F3A",
"; 	c #30303C",
"> 	c #323239",
", 	c #353535",
"' 	c #373737",
") 	c #4E4E4E",
"! 	c #3C3B3D",
"~ 	c #47478B",
"{ 	c #5C5CAD",
"] 	c #6C6CB5",
"^ 	c #7A7ABC",
"/ 	c #8787C3",
"( 	c #9393C9",
"_ 	c #9F9FCF",
": 	c #AAAAD4",
"< 	c #B3B3D9",
"[ 	c #BBBBDD",
"} 	c #C1C1E0",
"| 	c #C5C5E2",
"1 	c #C2C2E0",
"2 	c #BCBCDD",
"3 	c #B4B4D9",
"4 	c #ABABD5",
"5 	c #A0A0CF",
"6 	c #9595CA",
"7 	c #8888C3",
"8 	c #7B7BBD",
"9 	c #6E6EB6",
"0 	c #45458A",
"a 	c #424143",
"b 	c #3E3E3E",
"c 	c #414141",
"d 	c #3D3D84",
"e 	c #4E4EA6",
"f 	c #5A5AAC",
"g 	c #6868B3",
"h 	c #7474B9",
"i 	c #8181C0",
"j 	c #8D8DC6",
"k 	c #9898CB",
"l 	c #A2A2D1",
"m 	c #F3F3F9",
"n 	c #F7F7FB",
"o 	c #BABADC",
"p 	c #B8B8DB",
"q 	c #ACACD5",
"r 	c #A3A3D1",
"s 	c #9999CC",
"t 	c #8E8EC6",
"u 	c #8282C0",
"v 	c #7676BA",
"w 	c #6969B4",
"x 	c #4F4FA7",
"y 	c #373781",
"z 	c #464545",
"A 	c #393838",
"B 	c #4B4B4B",
"C 	c #363638",
"D 	c #3A3A9C",
"E 	c #4949A4",
"F 	c #5555AA",
"G 	c #6161B0",
"H 	c #7979BC",
"I 	c #8585C2",
"J 	c #8F8FC7",
"K 	c #9A9ACC",
"L 	c #FBFBFD",
"M 	c #FEFEFF",
"N 	c #AFAFD7",
"O 	c #AEAED6",
"P 	c #D5D5EA",
"Q 	c #A1A1D0",
"R 	c #9191C8",
"S 	c #8686C2",
"T 	c #6F6FB7",
"U 	c #6363B1",
"V 	c #5656AA",
"W 	c #4A4AA4",
"X 	c #35359A",
"Y 	c #383838",
"Z 	c #4A4A4A",
"` 	c #34343F",
" .	c #37379B",
"..	c #4343A1",
"+.	c #B5B5DA",
"@.	c #EEEEF7",
"#.	c #7C7CBD",
"$.	c #FAFAFD",
"%.	c #A4A4D1",
"&.	c #A2A2D0",
"*.	c #E1E1F0",
"=.	c #FFFFFF",
"-.	c #E0E0EF",
";.	c #7D7DBE",
">.	c #7272B8",
",.	c #6767B3",
"'.	c #5050A7",
").	c #4444A1",
"!.	c #323298",
"~.	c #48484F",
"{.	c #3A3A3A",
"].	c #4B4A4A",
"^.	c #363641",
"/.	c #313198",
"(.	c #3C3C9D",
"_.	c #4C4CA6",
":.	c #D2D2E9",
"<.	c #8484C1",
"[.	c #FAFAFC",
"}.	c #9797CB",
"|.	c #DFDFEF",
"1.	c #F5F5FA",
"2.	c #7373B9",
"3.	c #5E5EAE",
"4.	c #5454A9",
"5.	c #3D3D9E",
"6.	c #2D2D96",
"7.	c #484853",
"8.	c #3B3B3B",
"9.	c #383742",
"0.	c #2B2B95",
"a.	c #3F3F9F",
"b.	c #5151A8",
"c.	c #D3D3E9",
"d.	c #8383C1",
"e.	c #7777BB",
"f.	c #AEAED7",
"g.	c #D4D4E9",
"h.	c #7070B7",
"i.	c #5F5FAF",
"j.	c #4B4BA5",
"k.	c #4141A0",
"l.	c #36369A",
"m.	c #272793",
"n.	c #494954",
"o.	c #4C4C4C",
"p.	c #393843",
"q.	c #242491",
"r.	c #2E2E96",
"s.	c #FEFEFE",
"t.	c #6A6AB4",
"u.	c #7878BB",
"v.	c #ABABD4",
"w.	c #8080BF",
"x.	c #EAEAF4",
"y.	c #6B6BB5",
"z.	c #6464B1",
"A.	c #5D5DAE",
"B.	c #4242A0",
"C.	c #38389B",
"D.	c #2F2F97",
"E.	c #212190",
"F.	c #4A4954",
"G.	c #3A3A45",
"H.	c #1E1E8E",
"I.	c #262692",
"J.	c #40409F",
"K.	c #8C8CC5",
"L.	c #5757AB",
"M.	c #DDDDEE",
"N.	c #E0E0F0",
"O.	c #7575BA",
"P.	c #5858AB",
"Q.	c #303097",
"R.	c #1B1B8D",
"S.	c #4A4A55",
"T.	c #3F3F3F",
"U.	c #4E4D4D",
"V.	c #17178B",
"W.	c #4545A2",
"X.	c #D9D9EC",
"Y.	c #DEDEEE",
"Z.	c #5959AC",
"`.	c #4C4CA5",
" +	c #3E3E9E",
".+	c #1F1F8F",
"++	c #15158A",
"@+	c #4B4B56",
"#+	c #414040",
"$+	c #3B3B46",
"%+	c #101087",
"&+	c #DEDEEF",
"*+	c #E7E7F3",
"=+	c #E8E8F3",
"-+	c #E9E9F3",
";+	c #6666B2",
">+	c #DBDBED",
",+	c #343499",
"'+	c #18188B",
")+	c #0F0F87",
"!+	c #424141",
"~+	c #4F4F4F",
"{+	c #3C3C47",
"]+	c #0A0A84",
"^+	c #F5F5F9",
"/+	c #6565B1",
"(+	c #6565B2",
"_+	c #D8D8EC",
":+	c #292994",
"<+	c #232391",
"[+	c #1D1D8E",
"}+	c #111188",
"|+	c #4C4B56",
"1+	c #424242",
"2+	c #3D3C47",
"3+	c #050582",
"4+	c #222291",
"5+	c #2C2C95",
"6+	c #252592",
"7+	c #1A1A8C",
"8+	c #4C4C57",
"9+	c #434242",
"0+	c #00007F",
"a+	c #040481",
"b+	c #080883",
"c+	c #0C0C85",
"d+	c #16168A",
"e+	c #1F1F8E",
"f+	c #A8A8D3",
"g+	c #121288",
"h+	c #0D0D86",
"i+	c #090984",
"j+	c #01017F",
"k+	c #020280",
"l+	c #060682",
"m+	c #CDCDE5",
"n+	c #141489",
"o+	c #19198B",
"p+	c #A5A5D2",
"q+	c #C0C0DF",
"r+	c #D0D0E7",
"s+	c #0E0E86",
"t+	c #030381",
"u+	c #DCDCED",
"v+	c #CCCCE5",
"w+	c #131389",
"x+	c #CDCDE6",
"y+	c #19198C",
"z+	c #4F4E4E",
"A+	c #3C3B46",
"B+	c #C8C8E3",
"C+	c #0B0B84",
"D+	c #7A7ABD",
"E+	c #CBCBE5",
"F+	c #3B3A45",
"G+	c #FCFCFD",
"H+	c #010180",
"I+	c #9B9BCD",
"J+	c #B0B0D7",
"K+	c #070782",
"L+	c #4B4A55",
"M+	c #404040",
"N+	c #4D4C4C",
"O+	c #3A3944",
"P+	c #3E3D3D",
"Q+	c #373742",
"R+	c #363540",
"S+	c #070783",
"T+	c #E9E9F4",
"U+	c #2A2A94",
"V+	c #494949",
"W+	c #34333E",
"X+	c #E2E2F0",
"Y+	c #464650",
"Z+	c #3A3939",
"`+	c #373739",
" @	c #101068",
".@	c #5B5BAD",
"+@	c #12126B",
"@@	c #3E3D3F",
"#@	c #111169",
"$@	c #4B4B4D",
"%@	c #363636",
"&@	c #3D3D3D",
"*@	c #444446",
"=@	c #43434E",
"-@	c #454450",
";@	c #454550",
">@	c #45444F",
",@	c #302F2F",
"'@	c #343434",
")@	c #333333",
"!@	c #323232",
"                                                                ",
"        . + @ # # # # # # # # # # # # # # # # # # # # $         ",
"    % & * = - ; ; ; ; ; ; ; ; ; ; ; ; ; ; ; ; ; ; > , * . '     ",
"    ) ! ~ { ] ^ / ( _ : < [ } | | 1 2 3 4 5 6 7 8 9 { 0 a b     ",
"  # c d e f g h i j k l m n o o o p < q r s t u v w { x y z A   ",
"  B C D E F G 8 H I J K L M N O N q : P Q R S 8 T U V W X @ Y   ",
"  Z `  ...x +.@.I #.I J $.M %.&.&.&.*.=.-./ ;.>.,.{ '.).!.~.{.  ",
"  ].^./.(._.:.=.@.I 8 <.[.M }.6 }.|.=.1.K #.2.w 3.4.E 5.6.7.8.  ",
"  B 9.0.X a.b.c.=.@.d.e.f.< / / g.=.1.6 e.h.g i.F j.k.l.m.n.%   ",
"  o.p.q.r. .k.b.:.s.l t.u.v.w.H ( x.t h.y.z.A.4.j.B.C.D.E.F.b   ",
"  & G.H.I.D. .J.x K.L.,.M.=.N.O.y.] ,.U 3.P.b.E k.C.Q.m.R.S.T.  ",
"  U.G.V.H.I.r.l.5.W.V X.=.=.=.Y.g { Z.V b.`.W. + .D.m..+++@+#+  ",
"  ) $+%+&+*+=+-+;+B.P =.=.=.=.=.>+f `.E ).J.D ,+6.I..+'+)+@+!+  ",
"  ~+{+]+^+=.=.=./+(+=.=.=.=.=.=.=._+`.(.C.,+D.:+<+[+V.}+]+|+1+  ",
"  ~+2+3+4+m.5+Q.6+6+4 =.=.=.=.=.=.=.P  +5+:+q..+7+++)+]+3+8+9+  ",
"  ~+2+0+a+b+c+}+d+7+e+f+=.=.=.=.=.=.=.:.Q.H.7+d+g+h+i+a+j+8+$   ",
"  ~+2+0+0+k+l+I.m+J.n+o+p+=.=.=.=.q+q s.r+q.}+s+]+l+t+0+0+8+$   ",
"  ~+2+0+0+0+H.u+=.o c+s+g+l =.=.v+w+g+w.s.x+y+l+t+j+0+0+0+|+9+  ",
"  z+A+0+0+[+u+=.B+g+a+l+b+C+_ =.v+%+i+b+D+s.E+g+0+0+0+0+0+@+1+  ",
"  ) F+0+0+P.G+B+)+0+0+0+j+H+a+I+s.J+K+j+0+e.s.E+}+0+0+0+0+@+c   ",
"  U.G.0+0+0+b.)+0+0+0+0+0+0+0+k+I+=.J+l+0+0+e.s.E+}+0+0+0+L+M+  ",
"  N+O+0+0+0+0+0+0+0+0+0+0+0+0+0+k+I+=.J+l+0+0+e.s.E+}+0+0+S.T.  ",
"  o.p.0+0+0+0+0+0+0+0+0+0+0+0+0+0+k+I+=.J+l+0+0+e.s.E+}+0+n.P+  ",
"  B Q+0+0+0+0+0+0+0+0+0+0+0+0+0+0+0+k+I+=.J+l+0+0+N =.J 0+n.%   ",
"  Z R+0+0+0+0+0+0+0+0+0+0+0+0+0+0+0+0+k+I+=.J+l+S+g.T+U+0+7.8.  ",
"  V+W+0+0+0+0+0+0+0+0+0+0+0+0+0+0+0+0+0+k+I+=.P X+T+6.0+0+Y+Z+  ",
"  + `+0+0+0+0+0+0+0+0+0+0+0+0+0+0+0+0+0+0+k+I+=.T+6.0+0+0+].'   ",
"  . c  @0+0+0+0+0+0+0+0+0+0+0+0+0+0+0+0+0+0+k+.@6+0+0+0++@& ,   ",
"    . @@#@0+0+0+0+0+0+0+0+0+0+0+0+0+0+0+0+0+0+0+0+0+0++@$@8.    ",
"    %@&@. *@=@-@;@;@;@;@;@;@;@;@;@;@;@;@;@;@;@;@;@>@V+o.{.,@    ",
"        , '@'@'@'@'@'@'@'@'@'@'@'@'@'@'@'@'@'@'@'@'@)@!@        ",
"                                                                "};
