/* XPM */
static const char * about_xpm[] = {
"32 32 349 2",
"  	c None",
". 	c #444444",
"+ 	c #484848",
"@ 	c #474747",
"# 	c #464646",
"$ 	c #434343",
"% 	c #4D4D4D",
"& 	c #403F3F",
"* 	c #2F2E3E",
"= 	c #272747",
"- 	c #282848",
"; 	c #303040",
"> 	c #4E4E4E",
", 	c #3A3945",
"' 	c #43438C",
") 	c #5C5CAE",
"! 	c #6C6CB6",
"~ 	c #7A7ABD",
"{ 	c #8787C3",
"] 	c #9393C9",
"^ 	c #9F9FCF",
"/ 	c #AAAAD5",
"( 	c #B3B3D9",
"_ 	c #BBBBDD",
": 	c #C1C1E0",
"< 	c #C5C5E2",
"[ 	c #C2C2E1",
"} 	c #BCBCDE",
"| 	c #B4B4DA",
"1 	c #ABABD5",
"2 	c #A0A0D0",
"3 	c #9595CA",
"4 	c #8888C4",
"5 	c #7B7BBD",
"6 	c #6E6EB7",
"7 	c #40408B",
"8 	c #3F3E4A",
"9 	c #3E3E3E",
"0 	c #414141",
"a 	c #393987",
"b 	c #4E4EA7",
"c 	c #5A5AAD",
"d 	c #6868B4",
"e 	c #7474BA",
"f 	c #8181C0",
"g 	c #8D8DC6",
"h 	c #9898CC",
"i 	c #A2A2D1",
"j 	c #B2B2D9",
"k 	c #B7B7DB",
"l 	c #BABADD",
"m 	c #B8B8DC",
"n 	c #ACACD6",
"o 	c #A3A3D1",
"p 	c #9999CC",
"q 	c #8E8EC7",
"r 	c #8282C1",
"s 	c #7676BB",
"t 	c #6969B4",
"u 	c #4F4FA7",
"v 	c #333383",
"w 	c #464545",
"x 	c #393838",
"y 	c #4B4B4B",
"z 	c #313142",
"A 	c #3A3A9D",
"B 	c #4949A4",
"C 	c #5555AA",
"D 	c #6161B0",
"E 	c #7979BC",
"F 	c #8585C2",
"G 	c #8F8FC7",
"H 	c #A1A1D0",
"I 	c #A7A7D3",
"J 	c #AEAED6",
"K 	c #AFAFD7",
"L 	c #ACACD5",
"M 	c #A8A8D4",
"N 	c #9A9ACD",
"O 	c #9191C8",
"P 	c #8686C3",
"Q 	c #6F6FB7",
"R 	c #6363B1",
"S 	c #5656AB",
"T 	c #4A4AA5",
"U 	c #35359A",
"V 	c #3F3F50",
"W 	c #383838",
"X 	c #4A4A4A",
"Y 	c #2B2B4B",
"Z 	c #37379B",
"` 	c #4343A1",
" .	c #6666B3",
"..	c #7171B8",
"+.	c #7C7CBE",
"@.	c #8E8EC5",
"#.	c #9696C5",
"$.	c #9F9FC4",
"%.	c #AAAAC5",
"&.	c #B2B2C9",
"*.	c #B4B4C9",
"=.	c #ACACC6",
"-.	c #A0A0C4",
";.	c #9696C6",
">.	c #8F8FC6",
",.	c #7D7DBE",
"'.	c #7272B9",
").	c #6767B3",
"!.	c #5050A8",
"~.	c #4444A2",
"{.	c #323299",
"].	c #393959",
"^.	c #3A3A3A",
"/.	c #4B4A4A",
"(.	c #2C2C4C",
"_.	c #313198",
":.	c #3C3C9E",
"<.	c #4747A3",
"[.	c #5252A9",
"}.	c #5D5DAE",
"|.	c #7C7CB8",
"1.	c #AAAABF",
"2.	c #E3E3E7",
"3.	c #F5F5F5",
"4.	c #F9F9F9",
"5.	c #FAFAFA",
"6.	c #F7F7F7",
"7.	c #D8D8DE",
"8.	c #9292B5",
"9.	c #7D7DBB",
"0.	c #7373B9",
"a.	c #5E5EAF",
"b.	c #5454AA",
"c.	c #3D3D9E",
"d.	c #2D2D96",
"e.	c #3B3B5B",
"f.	c #3B3B3B",
"g.	c #2E2D4D",
"h.	c #2B2B95",
"i.	c #3F3F9F",
"j.	c #7E7EA8",
"k.	c #F1F1F1",
"l.	c #F6F6F6",
"m.	c #F8F8F8",
"n.	c #8A8AAC",
"o.	c #6969B1",
"p.	c #5F5FAF",
"q.	c #4B4BA5",
"r.	c #4141A0",
"s.	c #36369B",
"t.	c #272793",
"u.	c #3C3C5C",
"v.	c #3D3C3C",
"w.	c #4C4C4C",
"x.	c #2E2E4E",
"y.	c #242492",
"z.	c #2E2E97",
"A.	c #5353A9",
"B.	c #5B5BAD",
"C.	c #7676A1",
"D.	c #F2F2F2",
"E.	c #E1E1E4",
"F.	c #6060A1",
"G.	c #4242A1",
"H.	c #38389C",
"I.	c #2F2F97",
"J.	c #212190",
"K.	c #3D3C5C",
"L.	c #2F2F4F",
"M.	c #1E1E8F",
"N.	c #262693",
"O.	c #4040A0",
"P.	c #4848A4",
"Q.	c #6B6B9B",
"R.	c #F0F0F0",
"S.	c #D1D1D8",
"T.	c #8C8CAC",
"U.	c #7272A4",
"V.	c #6E6EA8",
"W.	c #7474A5",
"X.	c #B4B4C5",
"Y.	c #EFEFEF",
"Z.	c #696997",
"`.	c #303098",
" +	c #1B1B8D",
".+	c #3D3D5D",
"++	c #3F3F3F",
"@+	c #4E4D4D",
"#+	c #303050",
"$+	c #17178B",
"%+	c #4545A2",
"&+	c #4F4F99",
"*+	c #696999",
"=+	c #5656A1",
"-+	c #5959AA",
";+	c #5E5E9F",
">+	c #EDEDEF",
",+	c #F3F3F3",
"'+	c #6F6F97",
")+	c #3E3E9D",
"!+	c #1F1F8F",
"~+	c #15158A",
"{+	c #3D3D5E",
"]+	c #414040",
"^+	c #313151",
"/+	c #101088",
"(+	c #252592",
"_+	c #2C2C96",
":+	c #333399",
"<+	c #39399C",
"[+	c #4444A1",
"}+	c #E9E9EB",
"|+	c #FBFBFB",
"1+	c #F4F4F4",
"2+	c #61618E",
"3+	c #343499",
"4+	c #18188C",
"5+	c #0F0F87",
"6+	c #424141",
"7+	c #4F4F4F",
"8+	c #313152",
"9+	c #0A0A85",
"0+	c #16168B",
"a+	c #1C1C8E",
"b+	c #232391",
"c+	c #282894",
"d+	c #3B3B9D",
"e+	c #3E3E9F",
"f+	c #42429D",
"g+	c #6B6B93",
"h+	c #3B3B81",
"i+	c #292994",
"j+	c #1D1D8E",
"k+	c #111188",
"l+	c #3E3D5E",
"m+	c #424242",
"n+	c #323152",
"o+	c #050582",
"p+	c #14148A",
"q+	c #19198C",
"r+	c #34349A",
"s+	c #363696",
"t+	c #505086",
"u+	c #E3E3E5",
"v+	c #9999AE",
"w+	c #25258B",
"x+	c #1A1A8D",
"y+	c #3E3E5E",
"z+	c #434242",
"A+	c #000080",
"B+	c #040482",
"C+	c #080884",
"D+	c #0C0C86",
"E+	c #29298F",
"F+	c #4F4F82",
"G+	c #E6E6E7",
"H+	c #CACAD3",
"I+	c #23237B",
"J+	c #1A1A8C",
"K+	c #121289",
"L+	c #0D0D86",
"M+	c #090984",
"N+	c #010180",
"O+	c #020281",
"P+	c #060683",
"Q+	c #1B1B8A",
"R+	c #404079",
"S+	c #E5E5E6",
"T+	c #C1C1CB",
"U+	c #202074",
"V+	c #141488",
"W+	c #0E0E87",
"X+	c #030381",
"Y+	c #191973",
"Z+	c #D5D5D8",
"`+	c #EEEEEE",
" @	c #B9B9C5",
".@	c #171771",
"+@	c #0E0E85",
"@@	c #4F4E4E",
"#@	c #080882",
"$@	c #3E3E74",
"%@	c #EBEBEB",
"&@	c #1B1B69",
"*@	c #313050",
"=@	c #01017E",
"-@	c #404075",
";@	c #E7E7E7",
">@	c #B4B4C0",
",@	c #020276",
"'@	c #010177",
")@	c #060666",
"!@	c #070765",
"~@	c #060665",
"{@	c #02026F",
"]@	c #00007F",
"^@	c #404040",
"/@	c #4D4C4C",
"(@	c #2F2E4F",
"_@	c #020271",
":@	c #222266",
"<@	c #252566",
"[@	c #0C0C66",
"}@	c #00007D",
"|@	c #4B4B78",
"1@	c #EAEAEA",
"2@	c #C5C5CA",
"3@	c #010174",
"4@	c #3E3D3D",
"5@	c #2D2D4D",
"6@	c #00007C",
"7@	c #5B5B81",
"8@	c #E8E8E8",
"9@	c #EDEDED",
"0@	c #ECECEC",
"a@	c #DCDCDC",
"b@	c #020270",
"c@	c #2C2B4C",
"d@	c #51517C",
"e@	c #D0D0D3",
"f@	c #010173",
"g@	c #494949",
"h@	c #2B2A4A",
"i@	c #04046D",
"j@	c #373770",
"k@	c #3F3F74",
"l@	c #3D3D73",
"m@	c #151566",
"n@	c #3A3959",
"o@	c #3A3939",
"p@	c #323242",
"q@	c #00007E",
"r@	c #434251",
"s@	c #373737",
"t@	c #0E0E6D",
"u@	c #0F0F6E",
"v@	c #353535",
"w@	c #3B3A44",
"x@	c #10106E",
"y@	c #464651",
"z@	c #3D3D3D",
"A@	c #3E3E4D",
"B@	c #373757",
"C@	c #393858",
"D@	c #383857",
"E@	c #414150",
"F@	c #343434",
"G@	c #333333",
"H@	c #323232",
"                                                                ",
"        . + @ # # # # # # # # # # # # # # # # # # # # $         ",
"      % & * = - - - - - - - - - - - - - - - - - - - ; & .       ",
"    > , ' ) ! ~ { ] ^ / ( _ : < < [ } | 1 2 3 4 5 6 ) 7 8 9     ",
"  # 0 a b c d e f g h i 1 j k l l m ( n o p q r s t ) u v w x   ",
"  y z A B C D 6 E F G p H I n J K L M i N O P 5 Q R S T U V W   ",
"  X Y Z ` b c  ...+.F @.#.$.%.&.*.=.-.;.>.{ ,.'.).) !.~.{.].^.  ",
"  /.(._.:.<.[.}.d ..|.1.2.3.4.5.5.5.6.7.8.9.0.t a.b.B c.d.e.f.  ",
"  y g.h.U i.T b.a.).j.k.6.l.3.3.l.6.l.m.k.n.o.p.C q.r.s.t.u.v.  ",
"  w.x.y.z.Z r.T A.B.C.D.6.4.6.l.m.4.m.6.3.E.F.b.q.G.H.I.J.K.9   ",
"  % L.M.N.I.Z O.P.!.Q.R.S.T.U.V.W.X.6.4.6.Y.Z.B r.H.`.t. +.+++  ",
"  @+#+$+M.N.z.s.c.%+&+*+=+-+B.}.}.;+>+5.5.,+'+)+Z I.t.!+~+{+]+  ",
"  > ^+/+$+M.(+_+:+<+i.[+P.q.b u u &+}+5.|+1+2+3+d.N.!+4+5+{+6+  ",
"  7+8+9+/+0+a+b+c+z.:+H.d+e+O.r.f+g+Y.l.5.Y.h+i+b+j+$+k+9+l+m+  ",
"  7+n+o+9+5+p+q+!+y.c+_+I.{.r+s+t+u+k.3.m.v+w+!+x+~+5+9+o+y+z+  ",
"  7+n+A+B+C+D+k+~+x+j+J.y.N.E+F+G+R.k.l.H+I+J+0+K+L+M+B+N+y+$   ",
"  7+n+A+A+O+P+9+L+k+p+$+q+Q+R+S+D.D.,+T+U+V+k+W+9+P+X+A+A+y+$   ",
"  7+n+A+A+A+N+X+P+M+D+W+/+Y+Z+`+3.3. @.@+@D+M+P+X+N+A+A+A+l+z+  ",
"  @@^+A+A+A+A+A+N+O+B+P+#@$@%@,+4.`+&@#@P+B+O+N+A+A+A+A+A+{+m+  ",
"  > *@A+A+A+A+A+A+A+A+A+=@-@;@Y.Y.>@,@N+A+A+A+A+A+A+A+A+A+{+0   ",
"  @+#+A+A+A+A+A+A+A+A+A+A+'@)@!@~@{@]@A+A+A+A+A+A+A+A+A+A+.+^@  ",
"  /@(@A+A+A+A+A+A+A+A+A+A+_@:@<@<@[@}@A+A+A+A+A+A+A+A+A+A+.+++  ",
"  w.x.A+A+A+A+A+A+A+A+A+}@|@1@3.k.2@3@A+A+A+A+A+A+A+A+A+A+u.4@  ",
"  y 5@A+A+A+A+A+A+A+A+A+6@7@8@9@0@a@b@A+A+A+A+A+A+A+A+A+A+u.v.  ",
"  X c@A+A+A+A+A+A+A+A+A+}@d@0@,+k.e@f@A+A+A+A+A+A+A+A+A+A+e.f.  ",
"  g@h@A+A+A+A+A+A+A+A+A+A+i@j@k@l@m@}@A+A+A+]@A+A+A+A+A+A+n@o@  ",
"  + p@A+A+A+A+A+A+A+A+A+A+A+]@q@q@]@A+A+A+A+A+A+A+A+A+A+A+r@s@  ",
"  . 0 t@A+A+A+A+]@]@]@]@]@]@]@]@]@]@]@]@A+A+A+A+A+A+A+A+u@% v@  ",
"    . w@t@A+A+A+A+A+A+A+A+A+A+A+A+A+A+A+A+A+A+A+A+A+A+x@y@f.    ",
"      z@. A@B@C@].].].].].].].].].].].].].].].].].D@E@w.^.      ",
"        v@F@F@F@F@F@F@F@F@F@F@F@F@F@F@F@F@F@F@F@F@F@G@H@        ",
"                                                                "};
