/* XPM */
static const char * doku_xpm[] = {
"32 32 356 2",
"  	c None",
". 	c #444444",
"+ 	c #484848",
"@ 	c #474747",
"# 	c #464646",
"$ 	c #434343",
"% 	c #4D4D4D",
"& 	c #403F3F",
"* 	c #2F2E3E",
"= 	c #272747",
"- 	c #282848",
"; 	c #303040",
"> 	c #4E4E4E",
", 	c #3A3945",
"' 	c #43438C",
") 	c #5C5CAE",
"! 	c #6C6CB6",
"~ 	c #7A7ABD",
"{ 	c #8787C3",
"] 	c #9393C9",
"^ 	c #9F9FCF",
"/ 	c #AAAAD5",
"( 	c #B3B3D9",
"_ 	c #BBBBDD",
": 	c #C1C1E0",
"< 	c #C5C5E2",
"[ 	c #C2C2E1",
"} 	c #BCBCDE",
"| 	c #B4B4DA",
"1 	c #ABABD5",
"2 	c #A0A0D0",
"3 	c #9595CA",
"4 	c #8888C4",
"5 	c #7B7BBD",
"6 	c #6E6EB7",
"7 	c #40408B",
"8 	c #3F3E4A",
"9 	c #3E3E3E",
"0 	c #414141",
"a 	c #393987",
"b 	c #4E4EA7",
"c 	c #5A5AAD",
"d 	c #6868B4",
"e 	c #7474BA",
"f 	c #8181C0",
"g 	c #8D8DC6",
"h 	c #9898CC",
"i 	c #A2A2D1",
"j 	c #B2B2D9",
"k 	c #B7B7DB",
"l 	c #BABADD",
"m 	c #B8B8DC",
"n 	c #ACACD6",
"o 	c #A3A3D1",
"p 	c #9999CC",
"q 	c #8E8EC7",
"r 	c #8282C1",
"s 	c #7676BB",
"t 	c #6969B4",
"u 	c #4F4FA7",
"v 	c #333383",
"w 	c #464545",
"x 	c #393838",
"y 	c #4B4B4B",
"z 	c #313142",
"A 	c #3A3A9D",
"B 	c #4949A4",
"C 	c #5555AA",
"D 	c #6161B0",
"E 	c #7979BC",
"F 	c #8585C2",
"G 	c #8F8FC7",
"H 	c #A1A1D0",
"I 	c #A7A7D3",
"J 	c #AEAED7",
"K 	c #AFAFD7",
"L 	c #ACACD5",
"M 	c #A8A8D3",
"N 	c #9A9ACD",
"O 	c #9191C8",
"P 	c #8686C3",
"Q 	c #6F6FB7",
"R 	c #6363B1",
"S 	c #5656AB",
"T 	c #4A4AA5",
"U 	c #35359A",
"V 	c #3F3F50",
"W 	c #383838",
"X 	c #4A4A4A",
"Y 	c #2B2B4B",
"Z 	c #37379B",
"` 	c #4343A1",
" .	c #6666B3",
"..	c #7171B8",
"+.	c #7C7CBE",
"@.	c #9696CB",
"#.	c #9C9CCE",
"$.	c #A2A2CF",
"%.	c #A6A6C7",
"&.	c #BABACC",
"*.	c #AFAFC6",
"=.	c #9797C6",
"-.	c #7D7DBE",
";.	c #7272B9",
">.	c #6767B3",
",.	c #5050A8",
"'.	c #4444A2",
").	c #323299",
"!.	c #393959",
"~.	c #3A3A3A",
"{.	c #4B4A4A",
"].	c #2C2C4C",
"^.	c #313198",
"/.	c #3C3C9E",
"(.	c #4747A3",
"_.	c #5252A9",
":.	c #5D5DAE",
"<.	c #8383C1",
"[.	c #8A8AC5",
"}.	c #9393C8",
"|.	c #9F9FBF",
"1.	c #EFEFF0",
"2.	c #FAFAFA",
"3.	c #F4F4F4",
"4.	c #ABABC0",
"5.	c #8484C0",
"6.	c #7373B9",
"7.	c #5E5EAF",
"8.	c #5454AA",
"9.	c #3D3D9E",
"0.	c #2D2D96",
"a.	c #3B3B5B",
"b.	c #3B3B3B",
"c.	c #2E2D4D",
"d.	c #2B2B95",
"e.	c #3F3F9F",
"f.	c #7777BB",
"g.	c #8585BD",
"h.	c #D4D4DB",
"i.	c #F6F6F6",
"j.	c #F3F3F3",
"k.	c #B7B7C6",
"l.	c #7777B9",
"m.	c #7070B8",
"n.	c #5F5FAF",
"o.	c #4B4BA5",
"p.	c #4141A0",
"q.	c #36369B",
"r.	c #272793",
"s.	c #3C3C5C",
"t.	c #3D3C3C",
"u.	c #4C4C4C",
"v.	c #2E2E4E",
"w.	c #242492",
"x.	c #2E2E97",
"y.	c #5353A9",
"z.	c #5B5BAD",
"A.	c #6A6AB5",
"B.	c #7777B5",
"C.	c #E0E0E4",
"D.	c #F7F7F7",
"E.	c #8484AA",
"F.	c #6B6BB4",
"G.	c #6464B2",
"H.	c #4242A1",
"I.	c #38389C",
"J.	c #2F2F97",
"K.	c #212190",
"L.	c #3D3C5C",
"M.	c #2F2F4F",
"N.	c #1E1E8F",
"O.	c #262693",
"P.	c #4040A0",
"Q.	c #4848A4",
"R.	c #5757AB",
"S.	c #6969B3",
"T.	c #8181A8",
"U.	c #DEDEE3",
"V.	c #DDDDE2",
"W.	c #8787AA",
"X.	c #6464AD",
"Y.	c #5858AC",
"Z.	c #5151A8",
"`.	c #303098",
" +	c #1B1B8D",
".+	c #3D3D5D",
"++	c #3F3F3F",
"@+	c #4E4D4D",
"#+	c #303050",
"$+	c #17178B",
"%+	c #4545A2",
"&+	c #5959AC",
"*+	c #5B5BAC",
"=+	c #5D5DA7",
"-+	c #60609A",
";+	c #606099",
">+	c #5959A5",
",+	c #4C4CA6",
"'+	c #3E3E9D",
")+	c #1F1F8F",
"!+	c #15158A",
"~+	c #3D3D5E",
"{+	c #414040",
"]+	c #313151",
"^+	c #101088",
"/+	c #252592",
"(+	c #2C2C96",
"_+	c #333399",
":+	c #39399C",
"<+	c #4848A3",
"[+	c #4C4C9E",
"}+	c #646494",
"|+	c #B1B1C0",
"1+	c #ECECED",
"2+	c #EDEDED",
"3+	c #8686A4",
"4+	c #4949A1",
"5+	c #343499",
"6+	c #18188C",
"7+	c #0F0F87",
"8+	c #424141",
"9+	c #4F4F4F",
"0+	c #313152",
"a+	c #0A0A85",
"b+	c #16168B",
"c+	c #1C1C8E",
"d+	c #232391",
"e+	c #282894",
"f+	c #383898",
"g+	c #444489",
"h+	c #A9A9B9",
"i+	c #EFEFEF",
"j+	c #F2F2F2",
"k+	c #F0F0F0",
"l+	c #BFBFC9",
"m+	c #3D3D97",
"n+	c #34349A",
"o+	c #292994",
"p+	c #1D1D8E",
"q+	c #111188",
"r+	c #3E3D5E",
"s+	c #424242",
"t+	c #323152",
"u+	c #050582",
"v+	c #14148A",
"w+	c #19198C",
"x+	c #282890",
"y+	c #5A5A87",
"z+	c #DADADC",
"A+	c #E9E9E9",
"B+	c #EBEBEB",
"C+	c #9191A8",
"D+	c #303093",
"E+	c #1A1A8D",
"F+	c #3E3E5E",
"G+	c #434242",
"H+	c #000080",
"I+	c #040482",
"J+	c #080884",
"K+	c #0C0C86",
"L+	c #1D1D88",
"M+	c #84849D",
"N+	c #9090A7",
"O+	c #4E4E7D",
"P+	c #F9F9F9",
"Q+	c #F5F5F5",
"R+	c #4A4A80",
"S+	c #242491",
"T+	c #121289",
"U+	c #0D0D86",
"V+	c #090984",
"W+	c #010180",
"X+	c #020281",
"Y+	c #060683",
"Z+	c #171785",
"`+	c #191984",
" @	c #3F3F78",
".@	c #F8F8F8",
"+@	c #FBFBFB",
"@@	c #E8E8EA",
"#@	c #1F1F7A",
"$@	c #0E0E87",
"%@	c #030381",
"&@	c #101081",
"*@	c #80809B",
"=@	c #9595AB",
"-@	c #131382",
";@	c #4F4E4E",
">@	c #0A0A71",
",@	c #D6D6D8",
"'@	c #3C3C74",
")@	c #090983",
"!@	c #313050",
"~@	c #00007F",
"{@	c #222267",
"]@	c #EAEAEA",
"^@	c #E6E6E7",
"/@	c #090968",
"(@	c #00007A",
"_@	c #6C6C8D",
":@	c #ECECEC",
"<@	c #9A9AAC",
"[@	c #000076",
"}@	c #00007E",
"|@	c #404040",
"1@	c #4D4C4C",
"2@	c #2F2E4F",
"3@	c #02026F",
"4@	c #CDCDD2",
"5@	c #484876",
"6@	c #050565",
"7@	c #4F4F7B",
"8@	c #191964",
"9@	c #E7E7E7",
"0@	c #B6B6C3",
"a@	c #CFCFD4",
"b@	c #CCCCCF",
"c@	c #1B1B66",
"d@	c #3E3D3D",
"e@	c #2D2D4D",
"f@	c #34346D",
"g@	c #9C9CAC",
"h@	c #0D0D64",
"i@	c #00007C",
"j@	c #2C2B4C",
"k@	c #0C0C66",
"l@	c #D6D6D9",
"m@	c #C5C5CE",
"n@	c #36366F",
"o@	c #010172",
"p@	c #494949",
"q@	c #2B2A4A",
"r@	c #00007D",
"s@	c #070769",
"t@	c #242469",
"u@	c #141466",
"v@	c #3A3959",
"w@	c #3A3939",
"x@	c #323242",
"y@	c #434251",
"z@	c #373737",
"A@	c #0E0E6D",
"B@	c #0F0F6E",
"C@	c #353535",
"D@	c #3B3A44",
"E@	c #10106E",
"F@	c #464651",
"G@	c #3D3D3D",
"H@	c #3E3E4D",
"I@	c #373757",
"J@	c #393858",
"K@	c #383857",
"L@	c #414150",
"M@	c #343434",
"N@	c #333333",
"O@	c #323232",
"                                                                ",
"        . + @ # # # # # # # # # # # # # # # # # # # # $         ",
"      % & * = - - - - - - - - - - - - - - - - - - - ; & .       ",
"    > , ' ) ! ~ { ] ^ / ( _ : < < [ } | 1 2 3 4 5 6 ) 7 8 9     ",
"  # 0 a b c d e f g h i 1 j k l l m ( n o p q r s t ) u v w x   ",
"  y z A B C D 6 E F G p H I n J K L M i N O P 5 Q R S T U V W   ",
"  X Y Z ` b c  ...+.F q @.#.2 $.%.&.*.=.G { -.;.>.) ,.'.).!.~.  ",
"  {.].^./.(._.:.d ..5 <.[.G }.|.1.2.3.4.5.+.6.t 7.8.B 9.0.a.b.  ",
"  y c.d.U e.T 8.7.>.Q f.-.r g.h.i.i.j.k.l.m.d n.C o.p.q.r.s.t.  ",
"  u.v.w.x.Z p.T y.z.R A.m.e B.C.D.2.3.E.F.G.:.8.o.H.I.J.K.L.9   ",
"  % M.N.O.J.Z P.Q.,.R.:.R >.S.T.U.V.W.X.7.Y.Z.B p.I.`.r. +.+++  ",
"  @+#+$+N.O.x.q.9.%+o.Z.C &+*+=+-+;+>+S Z.,+%+'+Z J.r.)+!+~+{+  ",
"  > ]+^+$+N./+(+_+:+e.'.<+[+}+|+1+2+3+4+'.P.A 5+0.O.)+6+7+~+8+  ",
"  9+0+a+^+b+c+d+e+x._+f+g+h+i+j+k+k+l+m+I.n+J.o+d+p+$+q+a+r+s+  ",
"  9+t+u+a+7+v+w+)+w.x+y+z+A+B+k+3.j.C+D+(+o+w.)+E+!+7+a+u+F+G+  ",
"  9+t+H+I+J+K+q+!+E+L+M+N+O+B+i.P+Q+R+S+K.N.E+b+T+U+V+I+W+F+$   ",
"  9+t+H+H+X+Y+a+U+q+v+Z+`+ @2+.@+@@@#@E+$+v+q+$@a+Y+%@H+H+F+$   ",
"  9+t+H+H+H+W+%@Y+V+K+$@&@*@k+P+P+=@-@^+$@K+V+Y+%@W+H+H+H+r+G+  ",
"  ;@]+H+H+H+H+H+W+X+I+Y+>@,@3.+@3.'@)@J+Y+I+X+W+H+H+H+H+H+~+s+  ",
"  > !@H+H+H+H+H+H+H+H+~@{@]@3.i.^@/@W+W+H+H+H+H+H+H+H+H+H+~+0   ",
"  @+#+H+H+H+H+H+H+H+H+(@_@:@j.j.<@[@}@~@H+H+H+H+H+H+H+H+H+.+|@  ",
"  1@2@H+H+H+H+H+H+H+H+3@4@k+Q+j+5@6@7@/@H+H+H+H+H+H+H+H+H+.+++  ",
"  u.v.H+H+H+H+H+H+H+H+8@9@i.P+3.0@a@b@c@~@H+H+H+H+H+H+H+H+s.d@  ",
"  y e@H+H+H+H+H+H+H+~@f@B+P++@Q+]@g@h@i@H+H+H+H+H+H+H+H+H+s.t.  ",
"  X j@H+H+H+H+H+H+H+H+k@l@D.D.m@n@o@~@H+H+H+H+H+H+H+H+H+H+a.b.  ",
"  p@q@H+H+H+H+H+H+H+H+r@s@t@u@o@r@H+H+H+H+H+H+H+H+H+H+H+H+v@w@  ",
"  + x@H+H+H+H+H+H+H+H+H+H+~@~@}@}@~@H+H+H+H+H+H+H+H+H+H+H+y@z@  ",
"  . 0 A@H+H+H+H+~@~@~@~@~@~@~@~@~@~@~@~@H+H+H+H+H+H+H+H+B@% C@  ",
"    . D@A@H+H+H+H+H+H+H+H+H+H+H+H+H+H+H+H+H+H+H+H+H+H+E@F@b.    ",
"      G@. H@I@J@!.!.!.!.!.!.!.!.!.!.!.!.!.!.!.!.!.K@L@u.~.      ",
"        C@M@M@M@M@M@M@M@M@M@M@M@M@M@M@M@M@M@M@M@M@M@N@O@        ",
"                                                                "};
