/* XPM */
static char * wkm_xpm[] = {
"32 32 450 2",
"  	c None",
". 	c #3D3E43",
"+ 	c #454547",
"@ 	c #474747",
"# 	c #464646",
"$ 	c #434445",
"% 	c #3B3D41",
"& 	c #35363F",
"* 	c #4D4D4D",
"= 	c #403F3F",
"- 	c #323235",
"; 	c #2F313A",
"> 	c #30323B",
", 	c #333337",
"' 	c #444444",
") 	c #30323A",
"! 	c #4E4E4E",
"~ 	c #3B3B3D",
"{ 	c #505A84",
"] 	c #6A76A9",
"^ 	c #7984B1",
"/ 	c #8590B9",
"( 	c #919BBF",
"_ 	c #9CA5C6",
": 	c #A7AFCC",
"< 	c #B1B8D2",
"[ 	c #BAC0D7",
"} 	c #C1C6DB",
"| 	c #C6CBDE",
"1 	c #CACFE0",
"2 	c #C7CCDF",
"3 	c #C2C7DC",
"4 	c #B2B9D3",
"5 	c #A8B0CD",
"6 	c #9EA6C7",
"7 	c #929CC0",
"8 	c #8691B9",
"9 	c #7B85B2",
"0 	c #4E5983",
"a 	c #404042",
"b 	c #3E3E3E",
"c 	c #3E3F44",
"d 	c #414141",
"e 	c #47517E",
"f 	c #5D6BA1",
"g 	c #6875A8",
"h 	c #7581B0",
"i 	c #808BB6",
"j 	c #8C96BD",
"k 	c #97A0C3",
"l 	c #A0A9C9",
"m 	c #AAB1CE",
"n 	c #B9BFD7",
"o 	c #BDC3D9",
"p 	c #C0C5DB",
"q 	c #BEC4DA",
"r 	c #B3BAD3",
"s 	c #ABB2CF",
"t 	c #A2AAC9",
"u 	c #98A1C4",
"v 	c #8D97BD",
"w 	c #828DB7",
"x 	c #7582B0",
"y 	c #6A77A9",
"z 	c #5E6CA2",
"A 	c #414C7B",
"B 	c #464545",
"C 	c #343438",
"D 	c #484849",
"E 	c #343539",
"F 	c #4B5A97",
"G 	c #59669F",
"H 	c #6470A6",
"I 	c #6F7BAC",
"J 	c #7B85B3",
"K 	c #858FB9",
"L 	c #9099BF",
"M 	c #A2A9C9",
"N 	c #A9B0CE",
"O 	c #AFB5D1",
"P 	c #B3B9D3",
"Q 	c #B5BBD4",
"R 	c #B6BCD5",
"S 	c #B0B6D1",
"T 	c #A3ABCA",
"U 	c #9AA3C5",
"V 	c #8690BA",
"W 	c #7B87B3",
"X 	c #707CAD",
"Y 	c #6471A6",
"Z 	c #5A68A0",
"` 	c #465594",
" .	c #424346",
"..	c #363738",
"+.	c #4A4A4A",
"@.	c #32343D",
"#.	c #485796",
"$.	c #53619B",
"%.	c #5D6AA1",
"&.	c #737FAE",
"*.	c #7D88B4",
"=.	c #8791BA",
"-.	c #8F99BE",
";.	c #98A0C3",
">.	c #9FA7C8",
",.	c #A5ACCB",
"'.	c #A8AFCD",
").	c #9FA7C7",
"!.	c #99A1C4",
"~.	c #919AC0",
"{.	c #8892BA",
"].	c #7E89B4",
"^.	c #7480AF",
"/.	c #6976A9",
"(.	c #54629D",
"_.	c #445392",
":.	c #41434B",
"<.	c #3A3A3A",
"[.	c #4B4A4A",
"}.	c #33363F",
"|.	c #435292",
"1.	c #4D5B98",
"2.	c #57659E",
"3.	c #616EA3",
"4.	c #6B77A9",
"5.	c #7580AF",
"6.	c #8690B9",
"7.	c #8E97BD",
"8.	c #ABB2CE",
"9.	c #DDE0EB",
"0.	c #DFE1EC",
"a.	c #DFE2EC",
"b.	c #DFE2ED",
"c.	c #8F98BE",
"d.	c #7F8AB5",
"e.	c #7681B0",
"f.	c #6C78AA",
"g.	c #636FA4",
"h.	c #58669F",
"i.	c #4E5C98",
"j.	c #3F4F90",
"k.	c #42454D",
"l.	c #3B3B3B",
"m.	c #4B4B4B",
"n.	c #3D4D8F",
"o.	c #505E99",
"p.	c #5A679F",
"q.	c #747FAF",
"r.	c #7B86B3",
"s.	c #838DB7",
"t.	c #D2D6E5",
"u.	c #FFFFFF",
"v.	c #FEFEFF",
"w.	c #EFF1F6",
"x.	c #EFF0F6",
"y.	c #FDFEFE",
"z.	c #FEFEFE",
"A.	c #E1E3ED",
"B.	c #7C87B3",
"C.	c #6D79AA",
"D.	c #6470A5",
"E.	c #5B68A0",
"F.	c #51609A",
"G.	c #475695",
"H.	c #3A4A8D",
"I.	c #43454E",
"J.	c #3D3C3C",
"K.	c #4C4C4C",
"L.	c #353740",
"M.	c #37478A",
"N.	c #405090",
"O.	c #485794",
"P.	c #5A679E",
"Q.	c #626FA3",
"R.	c #6975A8",
"S.	c #707CAC",
"T.	c #7782B0",
"U.	c #CED2E2",
"V.	c #F8F9FB",
"W.	c #AAB1CD",
"X.	c #8690B8",
"Y.	c #A1A9C8",
"Z.	c #F1F2F6",
"`.	c #DEE1EB",
" +	c #7883B0",
".+	c #717DAC",
"++	c #5B689F",
"@+	c #52609A",
"#+	c #495895",
"$+	c #415090",
"%+	c #344589",
"&+	c #44454E",
"*+	c #363841",
"=+	c #314287",
"-+	c #39498B",
";+	c #505F99",
">+	c #58659D",
",+	c #5F6CA2",
"'+	c #6572A5",
")+	c #CACEE0",
"!+	c #EBEDF4",
"~+	c #7B86B2",
"{+	c #7884B1",
"]+	c #D8DBE8",
"^+	c #DCDEEA",
"/+	c #6C78A9",
"(+	c #6673A6",
"_+	c #606DA2",
":+	c #59669E",
"<+	c #425191",
"[+	c #3A4A8C",
"}+	c #2F4085",
"|+	c #43464E",
"1+	c #3F3F3F",
"2+	c #4E4D4D",
"3+	c #363942",
"4+	c #2B3C83",
"5+	c #475694",
"6+	c #55639C",
"7+	c #C5CADD",
"8+	c #E3E6EF",
"9+	c #ABB1CD",
"0+	c #A9B0CD",
"a+	c #D9DBE8",
"b+	c #5B69A0",
"c+	c #4F5D98",
"d+	c #324388",
"e+	c #293B82",
"f+	c #44464F",
"g+	c #414040",
"h+	c #373942",
"i+	c #25367F",
"j+	c #2B3C82",
"k+	c #314286",
"l+	c #38488A",
"m+	c #3E4E8E",
"n+	c #455491",
"o+	c #4A5995",
"p+	c #505E98",
"q+	c #54629B",
"r+	c #A2AAC8",
"s+	c #F4F5F9",
"t+	c #F5F6F9",
"u+	c #FDFDFE",
"v+	c #B4BAD3",
"w+	c #505F98",
"x+	c #4B5A95",
"y+	c #465592",
"z+	c #3F4F8E",
"A+	c #39498A",
"B+	c #324387",
"C+	c #2C3D83",
"D+	c #24367E",
"E+	c #424141",
"F+	c #4F4F4F",
"G+	c #383A43",
"H+	c #1F317B",
"I+	c #2A3B82",
"J+	c #304085",
"K+	c #364689",
"L+	c #3B4B8B",
"M+	c #40508F",
"N+	c #495894",
"O+	c #4C5B96",
"P+	c #58679D",
"Q+	c #5C699F",
"R+	c #F2F3F7",
"S+	c #F3F4F8",
"T+	c #5D6AA0",
"U+	c #5A689E",
"V+	c #4E5D97",
"W+	c #3B4B8C",
"X+	c #304186",
"Y+	c #26377F",
"Z+	c #44464E",
"`+	c #424242",
" @	c #1B2D79",
".@	c #283A81",
"+@	c #3B4C8C",
"@@	c #4D5C96",
"#@	c #516099",
"$@	c #55639B",
"%@	c #56649B",
"&@	c #59679E",
"*@	c #F2F4F8",
"=@	c #5B699F",
"-@	c #59669D",
";@	c #58669D",
">@	c #404F8F",
",@	c #293B81",
"'@	c #434242",
")@	c #162875",
"!@	c #1A2B77",
"~@	c #1D2F79",
"{@	c #455391",
"]@	c #F8F8FA",
"^@	c #FDFDFD",
"/@	c #FAFBFC",
"(@	c #5B679D",
"_@	c #1E307A",
":@	c #172975",
"<@	c #434343",
"[@	c #182A76",
"}@	c #55639A",
"|@	c #EAECF3",
"1@	c #CACEDF",
"2@	c #CBD0E0",
"3@	c #CCCFE0",
"4@	c #CCD1E1",
"5@	c #FAFBFB",
"6@	c #FBFBFC",
"7@	c #CCD0E1",
"8@	c #CCD0E0",
"9@	c #E4E5EF",
"0@	c #6E7AAA",
"a@	c #192B77",
"b@	c #515F98",
"c@	c #A7AECB",
"d@	c #20327B",
"e@	c #23347D",
"f@	c #25357E",
"g@	c #293A80",
"h@	c #EEEFF5",
"i@	c #283A80",
"j@	c #21327B",
"k@	c #8D96BC",
"l@	c #6C78A8",
"m@	c #4F4E4E",
"n@	c #383942",
"o@	c #162874",
"p@	c #495792",
"q@	c #848EB5",
"r@	c #BEC3D8",
"s@	c #57649B",
"t@	c #1E2F79",
"u@	c #1B2D77",
"v@	c #2B3B80",
"w@	c #616DA0",
"x@	c #636FA2",
"y@	c #F2F3F6",
"z@	c #626FA2",
"A@	c #626EA1",
"B@	c #324184",
"C@	c #1D2E78",
"D@	c #546199",
"E@	c #ACB2CD",
"F@	c #98A0C1",
"G@	c #4D5B95",
"H@	c #373841",
"I@	c #152874",
"J@	c #354587",
"K@	c #FCFCFD",
"L@	c #6F7BA9",
"M@	c #9CA4C4",
"N@	c #B8BED5",
"O@	c #606DA0",
"P@	c #41508E",
"Q@	c #3F4F8D",
"R@	c #B3B9D2",
"S@	c #394989",
"T@	c #7E88B2",
"U@	c #7C87B2",
"V@	c #A8AFCB",
"W@	c #42518F",
"X@	c #929CBF",
"Y@	c #C4C9DC",
"Z@	c #6C78A7",
"`@	c #939CBF",
" #	c #374788",
".#	c #9FA6C6",
"+#	c #4C5A94",
"@#	c #43454D",
"##	c #404040",
"$#	c #4D4C4C",
"%#	c #35373F",
"&#	c #152873",
"*#	c #3F4F8C",
"=#	c #4F5E96",
"-#	c #1A2C76",
";#	c #ECEDF3",
">#	c #7C87B1",
",#	c #D8DBE7",
"'#	c #172A74",
")#	c #142873",
"!#	c #B2B8D1",
"~#	c #C4C8DB",
"{#	c #25377D",
"]#	c #364687",
"^#	c #A9B0CB",
"/#	c #293B7F",
"(#	c #6E7AA8",
"_#	c #959EC0",
":#	c #334485",
"<#	c #304083",
"[#	c #838DB5",
"}#	c #F6F6F9",
"|#	c #8690B7",
"1#	c #27397E",
"2#	c #949CBF",
"3#	c #42444D",
"4#	c #3E3D3D",
"5#	c #33353E",
"6#	c #152773",
"7#	c #364587",
"8#	c #6F7AA9",
"9#	c #B7BDD4",
"0#	c #606CA0",
"a#	c #414F8D",
"b#	c #5F6B9F",
"c#	c #58659B",
"d#	c #25357C",
"e#	c #5D6A9E",
"f#	c #5E6A9F",
"g#	c #2C3C81",
"h#	c #192A75",
"i#	c #556299",
"j#	c #5F6C9F",
"k#	c #4F5D96",
"l#	c #41444C",
"m#	c #494949",
"n#	c #31333B",
"o#	c #152772",
"p#	c #142772",
"q#	c #152872",
"r#	c #40424A",
"s#	c #3A3939",
"t#	c #454546",
"u#	c #454548",
"v#	c #353536",
"w#	c #3B3C41",
"x#	c #1D2B60",
"y#	c #1F2C62",
"z#	c #2F3035",
"A#	c #3C3B3E",
"B#	c #1E2B60",
"C#	c #1F2C61",
"D#	c #47484A",
"E#	c #2F3138",
"F#	c #3D3D3D",
"G#	c #404144",
"H#	c #3E4048",
"I#	c #404149",
"J#	c #3F4049",
"K#	c #434448",
"L#	c #292B31",
"M#	c #303135",
"N#	c #323334",
"O#	c #343434",
"P#	c #313233",
"Q#	c #2D2E32",
"                                                                ",
"        . + @ # # # # # # # # # # # # # # # # # # # $ %         ",
"    & * = - ; > > > > > > > > > > > > > > > > > > > , = ' )     ",
"    ! ~ { ] ^ / ( _ : < [ } | 1 1 2 3 [ 4 5 6 7 8 9 ] 0 a b     ",
"  c d e f g h i j k l m 4 n o p p q [ r s t u v w x y z A B C   ",
"  D E F G H I J K L u M N O P Q R P S m T U L V W X Y Z `  ...  ",
"  +.@.#.$.%.g &.*.=.-.;.>.,.'.m m '.,.).!.~.{.].^./.z (._.:.<.  ",
"  [.}.|.1.2.3.4.5.*.6.7.8.9.0.a.b.0.9.P c.=.d.e.f.g.h.i.j.k.l.  ",
"  m.& n.` o.p.g.f.q.r.s.t.u.v.w.x.y.z.A.s.B.5.C.D.E.F.G.H.I.J.  ",
"  K.L.M.N.O.F.P.Q.R.S.T.U.V.W.6.X.Y.Z.`. +.+4.g.++@+#+$+%+&+b   ",
"  * *+=+-+$+O.;+>+,+'+4.)+!+~+ + +{+]+^+/+(+_+:+F.#+<+[+}+|+1+  ",
"  2+3+4+=+-+N.5+i.6+++_+7+z.8+9+0+9.z.a+_+b+6+c+O.$+[+d+e+f+g+  ",
"  ! h+i+j+k+l+m+n+o+p+q+r+s+t+u+u+t+s+v+q+w+x+y+z+A+B+C+D+f+E+  ",
"  F+G+H+i+I+J+K+L+M+n+N+O+P+Q+R+S+T+U+V+N+y+M+W+K+X+j+Y+H+Z+`+  ",
"  F+G+ @H+D+.@+@o+@@#@$@%@&@Q+R+*@=@-@;@$@#@V+o+>@,@D+H+ @f+'@  ",
"  F+G+)@!@~@{@]@^@^@^@^@^@^@^@^@^@^@^@^@^@^@^@^@/@(@_@!@:@f+<@  ",
"  F+G+)@)@[@}@u.|@1@1 2@3@4@4@5@6@4@7@8@2@)+1@9@^@0@a@)@)@f+<@  ",
"  F+G+)@)@)@b@u.c@_@d@e@f@Y+g@h@x.i@Y+f@e@j@_@k@^@l@)@)@)@Z+'@  ",
"  m@n@o@o@p@q@^@r@s@t@u@v@w@x@y@y@z@A@B@u@C@D@E@^@F@G@o@o@Z+`+  ",
"  ! H@I@J@u+^@K@z.^@L@I@M@z.z.6@K@z.^@N@I@O@u.z./@u.z.P@I@|+d   ",
"  2+*+I@Q@u.R@S@T@^@U@I@V@u+r+W@Q@X@]@Y@I@Z@u.`@ #.#u.+#I@@###  ",
"  $#%#&#*#^@=#&#-#;#>#&#V@,#'#&#&#)#!#~#&#Z@K@{#&#]#/@+#&#@#1+  ",
"  K.& &#*#u.^#/#(#^@>#&#V@K@_#:#<#[#}#Y@&#Z@u.|#1#2#z.+#&#3#4#  ",
"  m.5#6#7#K@^@u+u.^@8#&#M@u.u.^@z.u.^@9#6#0#z.u.K@u.u+a#6#3#J.  ",
"  +.@.6#6#+#b#b#b#c#u@6#d#e#b#b#b#b#f#g#6#h#i#b#j#b#k#o@6#l#l.  ",
"  m#n#o#o#o#o#o#o#o#o#o#o#o#p#o#o#o#o#o#o#o#o#o#q#o#o#o#o#r#s#  ",
"  t#E o#o#o#o#o#o#o#o#o#o#o#p#o#o#o#o#o#o#o#o#o#q#o#o#o#o#u#v#  ",
"  w#d x#o#o#o#o#o#o#o#o#o#o#p#o#o#o#o#o#o#o#o#o#q#o#o#o#y#* z#  ",
"    ' A#B#p#o#o#o#o#o#o#o#o#o#o#o#o#o#o#o#o#p#o#q#p#p#C#D#l.    ",
"    E#F#' G#H#I#r#r#r#r#r#r#r#r#r#r#r#r#r#r#r#r#r#J#K#K.<.L#    ",
"        M#N#O#O#O#O#O#O#O#O#O#O#O#O#O#O#O#O#O#O#O#O#P#Q#        ",
"                                                                "};
