/* XPM */
static const char * wkn_xpm[] = {
"32 32 353 2",
"  	c None",
". 	c #444444",
"+ 	c #484848",
"@ 	c #474747",
"# 	c #464646",
"$ 	c #434343",
"% 	c #4D4D4D",
"& 	c #403F3F",
"* 	c #2F2E3E",
"= 	c #272747",
"- 	c #282848",
"; 	c #303040",
"> 	c #4E4E4E",
", 	c #3A3945",
"' 	c #43438C",
") 	c #5C5CAE",
"! 	c #6C6CB6",
"~ 	c #7A7ABD",
"{ 	c #8787C3",
"] 	c #9393C9",
"^ 	c #9F9FCF",
"/ 	c #AAAAD5",
"( 	c #B3B3D9",
"_ 	c #BBBBDD",
": 	c #C1C1E0",
"< 	c #C5C5E2",
"[ 	c #C2C2E1",
"} 	c #BCBCDE",
"| 	c #B4B4DA",
"1 	c #ABABD5",
"2 	c #A0A0D0",
"3 	c #9595CA",
"4 	c #8888C4",
"5 	c #7B7BBD",
"6 	c #6E6EB7",
"7 	c #40408B",
"8 	c #3F3E4A",
"9 	c #3E3E3E",
"0 	c #414141",
"a 	c #393987",
"b 	c #4E4EA7",
"c 	c #5A5AAD",
"d 	c #6868B4",
"e 	c #7474BA",
"f 	c #8181C0",
"g 	c #8D8DC6",
"h 	c #9898CC",
"i 	c #A2A2D1",
"j 	c #B2B2D9",
"k 	c #B7B7DB",
"l 	c #BABADD",
"m 	c #B8B8DC",
"n 	c #ACACD6",
"o 	c #A3A3D1",
"p 	c #9999CC",
"q 	c #8E8EC7",
"r 	c #8282C1",
"s 	c #7676BB",
"t 	c #6969B4",
"u 	c #4F4FA7",
"v 	c #333383",
"w 	c #464545",
"x 	c #393838",
"y 	c #4B4B4B",
"z 	c #313142",
"A 	c #3A3A9D",
"B 	c #4949A4",
"C 	c #5555AA",
"D 	c #6161B0",
"E 	c #7979BC",
"F 	c #8585C2",
"G 	c #8F8FC7",
"H 	c #A1A1D0",
"I 	c #A7A7D3",
"J 	c #AEAED7",
"K 	c #AFAFD7",
"L 	c #A8A8D4",
"M 	c #9A9ACD",
"N 	c #9191C8",
"O 	c #8686C3",
"P 	c #6F6FB7",
"Q 	c #6363B1",
"R 	c #5656AB",
"S 	c #4A4AA5",
"T 	c #35359A",
"U 	c #3F3F50",
"V 	c #383838",
"W 	c #4A4A4A",
"X 	c #2B2B4B",
"Y 	c #37379B",
"Z 	c #4343A1",
"` 	c #6666B3",
" .	c #7171B8",
"..	c #7C7CBE",
"+.	c #9696CB",
"@.	c #9C9CCE",
"#.	c #7D7DBE",
"$.	c #7272B9",
"%.	c #6767B3",
"&.	c #5050A8",
"*.	c #4444A2",
"=.	c #323299",
"-.	c #393959",
";.	c #3A3A3A",
">.	c #4B4A4A",
",.	c #2C2C4C",
"'.	c #313198",
").	c #3C3C9E",
"!.	c #4747A3",
"~.	c #5252A9",
"{.	c #5D5DAE",
"].	c #8383C1",
"^.	c #8A8AC5",
"/.	c #9090C8",
"(.	c #9090C4",
"_.	c #B6B6CB",
":.	c #B2B2CB",
"<.	c #7B7BBA",
"[.	c #5E5EAF",
"}.	c #5454AA",
"|.	c #3D3D9E",
"1.	c #2D2D96",
"2.	c #3B3B5B",
"3.	c #3B3B3B",
"4.	c #2E2D4D",
"5.	c #2B2B95",
"6.	c #3F3F9F",
"7.	c #7777BB",
"8.	c #8484C0",
"9.	c #CCCCD6",
"0.	c #FDFDFD",
"a.	c #FEFEFE",
"b.	c #D3D3DD",
"c.	c #6C6CB2",
"d.	c #4B4BA5",
"e.	c #4141A0",
"f.	c #36369B",
"g.	c #272793",
"h.	c #3C3C5C",
"i.	c #3D3C3C",
"j.	c #4C4C4C",
"k.	c #2E2E4E",
"l.	c #242492",
"m.	c #2E2E97",
"n.	c #5353A9",
"o.	c #5B5BAD",
"p.	c #6A6AB5",
"q.	c #7070B8",
"r.	c #7B7BBC",
"s.	c #8787B9",
"t.	c #AFAFCF",
"u.	c #E8E8EE",
"v.	c #CCCCDA",
"w.	c #5151A7",
"x.	c #4242A1",
"y.	c #38389C",
"z.	c #2F2F97",
"A.	c #212190",
"B.	c #3D3C5C",
"C.	c #2F2F4F",
"D.	c #1E1E8F",
"E.	c #262693",
"F.	c #4040A0",
"G.	c #4848A4",
"H.	c #5757AB",
"I.	c #6B6BB5",
"J.	c #6E6EB5",
"K.	c #AFAFC3",
"L.	c #E2E2E5",
"M.	c #A2A2BF",
"N.	c #8888B3",
"O.	c #D8D8E1",
"P.	c #FBFBFB",
"Q.	c #8A8ABF",
"R.	c #303098",
"S.	c #1B1B8D",
"T.	c #3D3D5D",
"U.	c #3F3F3F",
"V.	c #4E4D4D",
"W.	c #303050",
"X.	c #17178B",
"Y.	c #4545A2",
"Z.	c #5151A8",
"`.	c #5959AC",
" +	c #6161AE",
".+	c #A8A8BE",
"++	c #E6E6EA",
"@+	c #B9B9CA",
"#+	c #F7F7F8",
"$+	c #EDEDEF",
"%+	c #8080B0",
"&+	c #F2F2F3",
"*+	c #F5F5F6",
"=+	c #8484BD",
"-+	c #1F1F8F",
";+	c #15158A",
">+	c #3D3D5E",
",+	c #414040",
"'+	c #313151",
")+	c #101088",
"!+	c #252592",
"~+	c #2C2C96",
"{+	c #333399",
"]+	c #39399C",
"^+	c #5252A7",
"/+	c #A0A0B9",
"(+	c #E4E4E8",
"_+	c #B4B4C6",
":+	c #F7F7F7",
"<+	c #D0D0DA",
"[+	c #7373AB",
"}+	c #A6A6BF",
"|+	c #AEAECF",
"1+	c #18188C",
"2+	c #0F0F87",
"3+	c #424141",
"4+	c #4F4F4F",
"5+	c #313152",
"6+	c #0A0A85",
"7+	c #16168B",
"8+	c #1C1C8E",
"9+	c #232391",
"0+	c #282894",
"a+	c #3B3B9D",
"b+	c #43439F",
"c+	c #9898B3",
"d+	c #E2E2E6",
"e+	c #B0B0C3",
"f+	c #F6F6F7",
"g+	c #CFCFD9",
"h+	c #ABABBD",
"i+	c #DCDCDF",
"j+	c #4242A0",
"k+	c #1D1D8E",
"l+	c #111188",
"m+	c #3E3D5E",
"n+	c #424242",
"o+	c #323152",
"p+	c #050582",
"q+	c #14148A",
"r+	c #19198C",
"s+	c #343497",
"t+	c #9292AE",
"u+	c #E0E0E5",
"v+	c #AAAABF",
"w+	c #CCCCD7",
"x+	c #A9A9BC",
"y+	c #EEEEEF",
"z+	c #9999C7",
"A+	c #1A1A8D",
"B+	c #3E3E5E",
"C+	c #434242",
"D+	c #000080",
"E+	c #040482",
"F+	c #080884",
"G+	c #0C0C86",
"H+	c #515192",
"I+	c #D4D4DB",
"J+	c #A0A0B7",
"K+	c #FCFCFC",
"L+	c #CACAD5",
"M+	c #A5A5B8",
"N+	c #9797C5",
"O+	c #121289",
"P+	c #0D0D86",
"Q+	c #090984",
"R+	c #010180",
"S+	c #020281",
"T+	c #060683",
"U+	c #17178A",
"V+	c #717197",
"W+	c #B0B0C0",
"X+	c #5B5B9D",
"Y+	c #7979A3",
"Z+	c #F8F8F8",
"`+	c #C7C7D3",
" @	c #A1A1B5",
".@	c #EDEDEE",
"+@	c #9393C3",
"@@	c #1A1A8C",
"#@	c #0E0E87",
"$@	c #030381",
"%@	c #434388",
"&@	c #65659B",
"*@	c #6C6CA6",
"=@	c #9C9CB1",
"-@	c #ECECED",
";@	c #8F8FC1",
">@	c #131389",
",@	c #4F4E4E",
"'@	c #0D0D80",
")@	c #BFBFC8",
"!@	c #FFFFFF",
"~@	c #F4F4F5",
"{@	c #595998",
"]@	c #D7D7D9",
"^@	c #8C8CBF",
"/@	c #0C0C85",
"(@	c #313050",
"_@	c #4F4F88",
":@	c #FAFAFA",
"<@	c #AAAAC9",
"[@	c #2D2D93",
"}@	c #09097E",
"|@	c #B1B1BD",
"1@	c #C8C8DA",
"2@	c #E5E5E8",
"3@	c #6A6AAF",
"4@	c #404040",
"5@	c #4D4C4C",
"6@	c #2F2E4F",
"7@	c #37377E",
"8@	c #6666A8",
"9@	c #080882",
"0@	c #ADADBF",
"a@	c #F0F0F1",
"b@	c #B6B6D0",
"c@	c #363699",
"d@	c #7B7B98",
"e@	c #2C2C88",
"f@	c #4C4C83",
"g@	c #A9A9C0",
"h@	c #5656A6",
"i@	c #3E3D3D",
"j@	c #2D2D4D",
"k@	c #8787AC",
"l@	c #A0A0C0",
"m@	c #47479E",
"n@	c #2C2B4C",
"o@	c #494949",
"p@	c #2B2A4A",
"q@	c #3A3959",
"r@	c #3A3939",
"s@	c #323242",
"t@	c #00007F",
"u@	c #00007E",
"v@	c #434251",
"w@	c #373737",
"x@	c #0E0E6D",
"y@	c #0F0F6E",
"z@	c #353535",
"A@	c #3B3A44",
"B@	c #10106E",
"C@	c #464651",
"D@	c #3D3D3D",
"E@	c #3E3E4D",
"F@	c #373757",
"G@	c #393858",
"H@	c #383857",
"I@	c #414150",
"J@	c #343434",
"K@	c #333333",
"L@	c #323232",
"                                                                ",
"        . + @ # # # # # # # # # # # # # # # # # # # # $         ",
"      % & * = - - - - - - - - - - - - - - - - - - - ; & .       ",
"    > , ' ) ! ~ { ] ^ / ( _ : < < [ } | 1 2 3 4 5 6 ) 7 8 9     ",
"  # 0 a b c d e f g h i 1 j k l l m ( n o p q r s t ) u v w x   ",
"  y z A B C D 6 E F G p H I n J K n L i M N O 5 P Q R S T U V   ",
"  W X Y Z b c `  ...F q +.@.2 i i 2 @.+.G { #.$.%.) &.*.=.-.;.  ",
"  >.,.'.).!.~.{.d  .5 ].^.G ] 3 3 ] /.(._.:.<.t [.}.B |.1.2.3.  ",
"  y 4.5.T 6.S }.[.%.P 7.#.r F { { O 8.9.0.a.b.c.C d.e.f.g.h.i.  ",
"  j.k.l.m.Y e.S n.o.Q p.q.e 7.E E r.s.t.u.a.a.v.w.x.y.z.A.B.9   ",
"  % C.D.E.z.Y F.G.&.H.{.Q %.t I.J.K.L.M.N.O.a.P.Q.y.R.g.S.T.U.  ",
"  V.W.X.D.E.m.f.|.Y.d.Z.C `.o. +.+++@+#+$+%+&+*+=+z.g.-+;+>+,+  ",
"  > '+)+X.D.!+~+{+]+6.*.G.d.^+/+(+_+:+0.<+[+}+|+=.E.-+1+2+>+3+  ",
"  4+5+6+)+7+8+9+0+m.{+y.a+b+c+d+e+f+0.g+h+i+j+5.9+k+X.l+6+m+n+  ",
"  4+o+p+6+2+q+r+-+l.0+~+s+t+u+v+*+0.w+x+y+z+!+-+A+;+2+6+p+B+C+  ",
"  4+o+D+E+F+G+l+;+A+k+A.H+I+J+*+K+L+M+y+N+A.A+7+O+P+Q+E+R+B+$   ",
"  4+o+D+D+S+T+6+P+l+U+V+W+X+Y+Z+`+ @.@+@@@q+l+#@6+T+$@D+D+B+$   ",
"  4+o+D+D+D+R+$@T+Q+%@*+a.*+&@*@=@-@;@>@#@G+Q+T+$@R+D+D+D+m+C+  ",
"  ,@'+D+D+D+D+D+R+'@)@a.!@!@~@{@]@^@/@F+T+E+S+R+D+D+D+D+D+>+n+  ",
"  > (@D+D+D+D+D+D+_@:@!@!@a.0.<@[@E+R+R+D+D+D+D+D+D+D+D+D+>+0   ",
"  V.W.D+D+D+D+D+}@|@1@K+!@0.2@3@D+D+D+D+D+D+D+D+D+D+D+D+D+T.4@  ",
"  5@6@D+D+D+D+D+7@8@9@0@a@b@c@D+D+D+D+D+D+D+D+D+D+D+D+D+D+T.U.  ",
"  j.k.D+D+D+D+D+d@e@f@g@h@E+D+D+D+D+D+D+D+D+D+D+D+D+D+D+D+h.i@  ",
"  y j@D+D+D+D+D+k@l@m@E+D+D+D+D+D+D+D+D+D+D+D+D+D+D+D+D+D+h.i.  ",
"  W n@D+D+D+D+D+D+D+D+D+D+D+D+D+D+D+D+D+D+D+D+D+D+D+D+D+D+2.3.  ",
"  o@p@D+D+D+D+D+D+D+D+D+D+D+D+D+D+D+D+D+D+D+D+D+D+D+D+D+D+q@r@  ",
"  + s@D+D+D+D+D+D+D+D+D+D+t@t@u@u@t@D+D+D+D+D+D+D+D+D+D+D+v@w@  ",
"  . 0 x@D+D+D+D+t@t@t@t@t@t@t@t@t@t@t@t@D+D+D+D+D+D+D+D+y@% z@  ",
"    . A@x@D+D+D+D+D+D+D+D+D+D+D+D+D+D+D+D+D+D+D+D+D+D+B@C@3.    ",
"      D@. E@F@G@-.-.-.-.-.-.-.-.-.-.-.-.-.-.-.-.-.H@I@j.;.      ",
"        z@J@J@J@J@J@J@J@J@J@J@J@J@J@J@J@J@J@J@J@J@J@K@L@        ",
"                                                                "};
