/* XPM */
static const char * wkp_xpm[] = {
"32 32 352 2",
"  	c None",
". 	c #444444",
"+ 	c #484848",
"@ 	c #474747",
"# 	c #464646",
"$ 	c #434343",
"% 	c #4D4D4D",
"& 	c #403F3F",
"* 	c #2F2E3E",
"= 	c #272747",
"- 	c #282848",
"; 	c #303040",
"> 	c #4E4E4E",
", 	c #3A3945",
"' 	c #43438C",
") 	c #5C5CAE",
"! 	c #6C6CB6",
"~ 	c #7A7ABD",
"{ 	c #8787C3",
"] 	c #9393C9",
"^ 	c #9F9FCF",
"/ 	c #AAAAD5",
"( 	c #B3B3D9",
"_ 	c #BBBBDD",
": 	c #C1C1E0",
"< 	c #C5C5E2",
"[ 	c #C2C2E1",
"} 	c #BCBCDE",
"| 	c #B4B4DA",
"1 	c #ABABD5",
"2 	c #A0A0D0",
"3 	c #9595CA",
"4 	c #8888C4",
"5 	c #7B7BBD",
"6 	c #6E6EB7",
"7 	c #40408B",
"8 	c #3F3E4A",
"9 	c #3E3E3E",
"0 	c #414141",
"a 	c #393987",
"b 	c #4E4EA7",
"c 	c #5A5AAD",
"d 	c #6868B4",
"e 	c #7474BA",
"f 	c #8181C0",
"g 	c #8D8DC6",
"h 	c #9898CC",
"i 	c #A2A2D1",
"j 	c #B2B2D9",
"k 	c #B7B7DB",
"l 	c #BABADD",
"m 	c #B8B8DC",
"n 	c #ACACD6",
"o 	c #A3A3D1",
"p 	c #9999CC",
"q 	c #8E8EC7",
"r 	c #8282C1",
"s 	c #7676BB",
"t 	c #6969B4",
"u 	c #4F4FA7",
"v 	c #333383",
"w 	c #464545",
"x 	c #393838",
"y 	c #4B4B4B",
"z 	c #313142",
"A 	c #3A3A9D",
"B 	c #4949A4",
"C 	c #5555AA",
"D 	c #6161B0",
"E 	c #7979BC",
"F 	c #8585C2",
"G 	c #8F8FC7",
"H 	c #A1A1D0",
"I 	c #A7A7D3",
"J 	c #AEAED7",
"K 	c #AFAFD7",
"L 	c #A8A8D4",
"M 	c #9A9ACD",
"N 	c #9191C8",
"O 	c #8686C3",
"P 	c #6F6FB7",
"Q 	c #6363B1",
"R 	c #5656AB",
"S 	c #4A4AA5",
"T 	c #35359A",
"U 	c #3F3F50",
"V 	c #383838",
"W 	c #4A4A4A",
"X 	c #2B2B4B",
"Y 	c #37379B",
"Z 	c #4343A1",
"` 	c #6666B3",
" .	c #7171B8",
"..	c #7C7CBE",
"+.	c #9696CB",
"@.	c #9C9CCE",
"#.	c #7D7DBE",
"$.	c #7272B9",
"%.	c #6767B3",
"&.	c #5050A8",
"*.	c #4444A2",
"=.	c #323299",
"-.	c #393959",
";.	c #3A3A3A",
">.	c #4B4A4A",
",.	c #2C2C4C",
"'.	c #313198",
").	c #3C3C9E",
"!.	c #4747A3",
"~.	c #5252A9",
"{.	c #5D5DAE",
"].	c #8383C1",
"^.	c #8A8AC5",
"/.	c #9090C8",
"(.	c #8484C2",
"_.	c #7373B9",
":.	c #5E5EAF",
"<.	c #5454AA",
"[.	c #3D3D9E",
"}.	c #2D2D96",
"|.	c #3B3B5B",
"1.	c #3B3B3B",
"2.	c #2E2D4D",
"3.	c #2B2B95",
"4.	c #3F3F9F",
"5.	c #6767B0",
"6.	c #8383AA",
"7.	c #7878B4",
"8.	c #8080B8",
"9.	c #7D7DAD",
"0.	c #7777A9",
"a.	c #6A6AAB",
"b.	c #5F5FAF",
"c.	c #4B4BA5",
"d.	c #4141A0",
"e.	c #36369B",
"f.	c #272793",
"g.	c #3C3C5C",
"h.	c #3D3C3C",
"i.	c #4C4C4C",
"j.	c #2E2E4E",
"k.	c #242492",
"l.	c #2E2E97",
"m.	c #5353A9",
"n.	c #5B5BA4",
"o.	c #E0E0E3",
"p.	c #C4C4CF",
"q.	c #7979A8",
"r.	c #7575B7",
"s.	c #7777BB",
"t.	c #7878BC",
"u.	c #7575BA",
"v.	c #8E8EAE",
"w.	c #F0F0F0",
"x.	c #8A8AA9",
"y.	c #5454A8",
"z.	c #4242A1",
"A.	c #38389C",
"B.	c #2F2F97",
"C.	c #212190",
"D.	c #3D3C5C",
"E.	c #2F2F4F",
"F.	c #1E1E8F",
"G.	c #262693",
"H.	c #4040A0",
"I.	c #4848A4",
"J.	c #50509E",
"K.	c #E1E1E3",
"L.	c #F5F5F5",
"M.	c #EDEDED",
"N.	c #9898B2",
"O.	c #6B6BA9",
"P.	c #6B6BB4",
"Q.	c #6B6BB5",
"R.	c #6A6AB5",
"S.	c #6767B2",
"T.	c #8585A7",
"U.	c #F1F1F1",
"V.	c #8484A4",
"W.	c #4949A2",
"X.	c #303098",
"Y.	c #1B1B8D",
"Z.	c #3D3D5D",
"`.	c #3F3F3F",
" +	c #4E4D4D",
".+	c #303050",
"++	c #17178B",
"@+	c #454598",
"#+	c #F3F3F3",
"$+	c #F4F4F4",
"%+	c #D4D4D9",
"&+	c #75759E",
"*+	c #5E5EA8",
"=+	c #5C5CAD",
"-+	c #5959AB",
";+	c #7C7CA0",
">+	c #F2F2F2",
",+	c #7C7C9E",
"'+	c #3E3E9D",
")+	c #1F1F8F",
"!+	c #15158A",
"~+	c #3D3D5E",
"{+	c #414040",
"]+	c #313151",
"^+	c #101088",
"/+	c #252592",
"(+	c #2C2C96",
"_+	c #333399",
":+	c #393991",
"<+	c #E0E0E2",
"[+	c #F7F7F7",
"}+	c #ABABBB",
"|+	c #565694",
"1+	c #4C4CA0",
"2+	c #727299",
"3+	c #75759A",
"4+	c #343498",
"5+	c #18188C",
"6+	c #0F0F87",
"7+	c #424141",
"8+	c #4F4F4F",
"9+	c #313152",
"0+	c #0A0A85",
"a+	c #16168B",
"b+	c #1C1C8E",
"c+	c #232391",
"d+	c #282894",
"e+	c #2E2E8B",
"f+	c #DEDEE0",
"g+	c #F9F9F9",
"h+	c #F8F8F8",
"i+	c #E5E5E6",
"j+	c #787899",
"k+	c #747496",
"l+	c #EFEFEF",
"m+	c #6E6E93",
"n+	c #292992",
"o+	c #1D1D8E",
"p+	c #111188",
"q+	c #3E3D5E",
"r+	c #424242",
"s+	c #323152",
"t+	c #050582",
"u+	c #14148A",
"v+	c #19198C",
"w+	c #242485",
"x+	c #DCDCDE",
"y+	c #F6F6F6",
"z+	c #F3F3F4",
"A+	c #66668E",
"B+	c #1F1F8D",
"C+	c #1A1A8D",
"D+	c #3E3E5E",
"E+	c #434242",
"F+	c #000080",
"G+	c #040482",
"H+	c #080884",
"I+	c #0C0C86",
"J+	c #1A1A7F",
"K+	c #DDDDDF",
"L+	c #FCFCFC",
"M+	c #FBFBFB",
"N+	c #FAFAFA",
"O+	c #5F5F89",
"P+	c #161688",
"Q+	c #121289",
"R+	c #0D0D86",
"S+	c #090984",
"T+	c #010180",
"U+	c #020281",
"V+	c #060683",
"W+	c #11117A",
"X+	c #595984",
"Y+	c #0E0E84",
"Z+	c #030381",
"`+	c #090976",
" @	c #D8D8DA",
".@	c #F2F2F3",
"+@	c #535380",
"@@	c #060680",
"#@	c #4F4E4E",
"$@	c #020272",
"%@	c #D7D7D9",
"&@	c #757595",
"*@	c #5F5F85",
"=@	c #EEEEEE",
"-@	c #4E4E7C",
";@	c #01017D",
">@	c #313050",
",@	c #000071",
"'@	c #D9D9DB",
")@	c #FDFDFD",
"!@	c #B4B4C2",
"~@	c #1B1B67",
"{@	c #010177",
"]@	c #3A3A71",
"^@	c #4D4D7C",
"/@	c #00007D",
"(@	c #DADADC",
"_@	c #E1E1E4",
":@	c #454577",
"<@	c #020271",
"[@	c #00007E",
"}@	c #393971",
"|@	c #4D4D7B",
"1@	c #404040",
"2@	c #4D4C4C",
"3@	c #2F2E4F",
"4@	c #8989A2",
"5@	c #0A0A66",
"6@	c #00007B",
"7@	c #393970",
"8@	c #000072",
"9@	c #C5C5CE",
"0@	c #27276A",
"a@	c #010176",
"b@	c #00007F",
"c@	c #363670",
"d@	c #ECECEC",
"e@	c #494979",
"f@	c #3E3D3D",
"g@	c #2D2D4D",
"h@	c #000078",
"i@	c #3A3A72",
"j@	c #03036D",
"k@	c #030372",
"l@	c #0E0E66",
"m@	c #0E0E65",
"n@	c #040470",
"o@	c #2C2B4C",
"p@	c #494949",
"q@	c #2B2A4A",
"r@	c #3A3959",
"s@	c #3A3939",
"t@	c #323242",
"u@	c #434251",
"v@	c #373737",
"w@	c #0E0E6D",
"x@	c #0F0F6E",
"y@	c #353535",
"z@	c #3B3A44",
"A@	c #10106E",
"B@	c #464651",
"C@	c #3D3D3D",
"D@	c #3E3E4D",
"E@	c #373757",
"F@	c #393858",
"G@	c #383857",
"H@	c #414150",
"I@	c #343434",
"J@	c #333333",
"K@	c #323232",
"                                                                ",
"        . + @ # # # # # # # # # # # # # # # # # # # # $         ",
"      % & * = - - - - - - - - - - - - - - - - - - - ; & .       ",
"    > , ' ) ! ~ { ] ^ / ( _ : < < [ } | 1 2 3 4 5 6 ) 7 8 9     ",
"  # 0 a b c d e f g h i 1 j k l l m ( n o p q r s t ) u v w x   ",
"  y z A B C D 6 E F G p H I n J K n L i M N O 5 P Q R S T U V   ",
"  W X Y Z b c `  ...F q +.@.2 i i 2 @.+.G { #.$.%.) &.*.=.-.;.  ",
"  >.,.'.).!.~.{.d  .5 ].^.G ] 3 3 ] /.^.(..._.t :.<.B [.}.|.1.  ",
"  y 2.3.T 4.S <.:.5.6.7.#.r F { { O r 8.9.0.a.b.C c.d.e.f.g.h.  ",
"  i.j.k.l.Y d.S m.n.o.p.q.r.s.E E t.u.v.w.w.x.y.c.z.A.B.C.D.9   ",
"  % E.F.G.B.Y H.I.J.K.L.M.N.O.P.Q.R.S.T.w.U.V.W.d.A.X.f.Y.Z.`.  ",
"   +.+++F.G.l.e.[.@+K.#+$+$+%+&+*+=+-+;+>+>+,+'+Y B.f.)+!+~+{+  ",
"  > ]+^+++F./+(+_+:+<+L.[+$+$+U.}+|+1+2+>+>+3+4+}.G.)+5+6+~+7+  ",
"  8+9+0+^+a+b+c+d+e+f+$+g+h+L.#+L.i+j+k+l+w.m+n+c+o+++p+0+q+r+  ",
"  8+s+t+0+6+u+v+)+w+x+$+g+g+y+$+U.U.L.z+U.w.A+B+C+!+6+0+t+D+E+  ",
"  8+s+F+G+H+I+p+!+J+K+[+L+L+M+N+h+L.U.U.L.#+O+P+Q+R+S+G+T+D+$   ",
"  8+s+F+F+U+V+0+R+W+x+[+L+L+M+M+M+M+h+[+h+#+X+Y+0+V+Z+F+F+D+$   ",
"  8+s+F+F+F+T+Z+V+`+ @#+h+h+h+g+g+g+[+.@L.w.+@@@Z+T+F+F+F+q+E+  ",
"  #@]+F+F+F+F+F+T+$@%@>+g+M+L+L+L+#+&@*@U.=@-@;@F+F+F+F+F+~+r+  ",
"  > >@F+F+F+F+F+F+,@'@L.)@L+N+[+!@~@{@]@w.l+^@/@F+F+F+F+F+~+0   ",
"   +.+F+F+F+F+F+F+,@(@[+L+h+_@:@<@[@[@}@w.U.|@/@F+F+F+F+F+Z.1@  ",
"  2@3@F+F+F+F+F+F+,@(@h+L.4@5@6@F+F+[@7@U.>+|@/@F+F+F+F+F+Z.`.  ",
"  i.j.F+F+F+F+F+F+8@%@9@0@a@b@F+F+F+b@c@d@d@e@[@F+F+F+F+F+g.f@  ",
"  y g@F+F+F+F+F+F+h@i@j@/@F+F+F+F+F+F+k@l@m@n@F+F+F+F+F+F+g.h.  ",
"  W o@F+F+F+F+F+F+F+b@F+F+F+F+F+F+F+F+F+F+F+F+F+F+F+F+F+F+|.1.  ",
"  p@q@F+F+F+F+F+F+F+F+F+F+F+F+F+F+F+F+F+F+F+b@F+F+F+F+F+F+r@s@  ",
"  + t@F+F+F+F+F+F+F+F+F+F+F+F+F+F+F+F+F+F+F+F+F+F+F+F+F+F+u@v@  ",
"  . 0 w@F+F+F+F+b@b@b@b@b@b@b@b@b@b@b@b@F+F+F+F+F+F+F+F+x@% y@  ",
"    . z@w@F+F+F+F+F+F+F+F+F+F+F+F+F+F+F+F+F+F+F+F+F+F+A@B@1.    ",
"      C@. D@E@F@-.-.-.-.-.-.-.-.-.-.-.-.-.-.-.-.-.G@H@i.;.      ",
"        y@I@I@I@I@I@I@I@I@I@I@I@I@I@I@I@I@I@I@I@I@I@J@K@        ",
"                                                                "};
