/* XPM */
static const char * wktools_xpm[] = {
"32 32 194 2",
"  	c None",
". 	c #444444",
"+ 	c #484848",
"@ 	c #474747",
"# 	c #464646",
"$ 	c #434343",
"% 	c #4D4D4D",
"& 	c #403F3F",
"* 	c #2F2E3E",
"= 	c #272747",
"- 	c #282848",
"; 	c #303040",
"> 	c #4E4E4E",
", 	c #33323E",
"' 	c #0D0D6B",
") 	c #000080",
"! 	c #0D0D6C",
"~ 	c #3B3A46",
"{ 	c #3E3E3E",
"] 	c #414141",
"^ 	c #0E0E6D",
"/ 	c #464545",
"( 	c #393838",
"_ 	c #4B4B4B",
": 	c #313142",
"< 	c #3F3F50",
"[ 	c #383838",
"} 	c #4A4A4A",
"| 	c #2B2B4B",
"1 	c #393959",
"2 	c #3A3A3A",
"3 	c #4B4A4A",
"4 	c #2C2C4C",
"5 	c #00007E",
"6 	c #030372",
"7 	c #25256F",
"8 	c #1C1C6D",
"9 	c #020276",
"0 	c #00007F",
"a 	c #3B3B5B",
"b 	c #3B3B3B",
"c 	c #2E2D4D",
"d 	c #020275",
"e 	c #06066C",
"f 	c #B8B8CB",
"g 	c #FFFFFF",
"h 	c #9A9AB6",
"i 	c #040470",
"j 	c #010179",
"k 	c #0B0B6E",
"l 	c #10106E",
"m 	c #01017B",
"n 	c #3C3C5C",
"o 	c #3D3C3C",
"p 	c #4C4C4C",
"q 	c #2E2E4E",
"r 	c #020270",
"s 	c #8686AA",
"t 	c #D1D1DF",
"u 	c #EEEEF3",
"v 	c #474781",
"w 	c #232370",
"x 	c #14146B",
"y 	c #00007D",
"z 	c #010178",
"A 	c #56568A",
"B 	c #F5F5F8",
"C 	c #262671",
"D 	c #00007C",
"E 	c #3D3C5C",
"F 	c #2F2F4F",
"G 	c #000079",
"H 	c #636394",
"I 	c #EAEAF2",
"J 	c #1A1A6D",
"K 	c #0C0C6D",
"L 	c #FDFDFE",
"M 	c #2D2D74",
"N 	c #04046F",
"O 	c #3D3D5D",
"P 	c #3F3F3F",
"Q 	c #4E4D4D",
"R 	c #303050",
"S 	c #020271",
"T 	c #BBBBCE",
"U 	c #F1F1F6",
"V 	c #D0D0E1",
"W 	c #4C4C84",
"X 	c #010177",
"Y 	c #17176B",
"Z 	c #9494B2",
"` 	c #0F0F6B",
" .	c #9A9AB9",
"..	c #3D3D5E",
"+.	c #414040",
"@.	c #313151",
"#.	c #020272",
"$.	c #EDEDF2",
"%.	c #AEAEC8",
"&.	c #555589",
"*.	c #010176",
"=.	c #9E9EB9",
"-.	c #DBDBE5",
";.	c #636392",
">.	c #424141",
",.	c #4F4F4F",
"'.	c #313152",
").	c #AEAEC4",
"!.	c #313176",
"~.	c #0A0A6A",
"{.	c #D2D2DE",
"].	c #616191",
"^.	c #03036D",
"/.	c #C3C3D3",
"(.	c #6A6A96",
"_.	c #030370",
":.	c #3E3D5E",
"<.	c #424242",
"[.	c #323152",
"}.	c #05056E",
"|.	c #C9C9D8",
"1.	c #09096C",
"2.	c #D6D6E1",
"3.	c #07076C",
"4.	c #00007A",
"5.	c #3E3E5E",
"6.	c #434242",
"7.	c #05056F",
"8.	c #10106B",
"9.	c #E0E0E9",
"0.	c #A1A1BA",
"a.	c #8A8AAB",
"b.	c #01017C",
"c.	c #9191B0",
"d.	c #4F4E4E",
"e.	c #313175",
"f.	c #696994",
"g.	c #A9A9C0",
"h.	c #B3B3C7",
"i.	c #2A2A73",
"j.	c #F1F1F5",
"k.	c #313050",
"l.	c #4A4A83",
"m.	c #F4F4F7",
"n.	c #DEDEE7",
"o.	c #05056D",
"p.	c #20206E",
"q.	c #ABABC2",
"r.	c #B7B7CB",
"s.	c #13136C",
"t.	c #01017A",
"u.	c #F9F9FB",
"v.	c #B5B5C9",
"w.	c #07076D",
"x.	c #404040",
"y.	c #4D4C4C",
"z.	c #2F2E4F",
"A.	c #11116A",
"B.	c #2C2C74",
"C.	c #0E0E6E",
"D.	c #FBFBFD",
"E.	c #11116B",
"F.	c #8989AB",
"G.	c #333376",
"H.	c #FCFCFD",
"I.	c #3D3D7C",
"J.	c #3E3D3D",
"K.	c #2D2D4D",
"L.	c #000078",
"M.	c #303075",
"N.	c #2B2B73",
"O.	c #020273",
"P.	c #2C2B4C",
"Q.	c #494949",
"R.	c #2B2A4A",
"S.	c #00007B",
"T.	c #3A3959",
"U.	c #3A3939",
"V.	c #323242",
"W.	c #434251",
"X.	c #373737",
"Y.	c #0F0F6E",
"Z.	c #353535",
"`.	c #3B3A44",
" +	c #464651",
".+	c #3D3D3D",
"++	c #3E3E4D",
"@+	c #373757",
"#+	c #393858",
"$+	c #383857",
"%+	c #414150",
"&+	c #343434",
"*+	c #333333",
"=+	c #323232",
"                                                                ",
"        . + @ # # # # # # # # # # # # # # # # # # # # $         ",
"      % & * = - - - - - - - - - - - - - - - - - - - ; & .       ",
"    > , ' ) ) ) ) ) ) ) ) ) ) ) ) ) ) ) ) ) ) ) ) ) ) ! ~ {     ",
"  # ] ! ) ) ) ) ) ) ) ) ) ) ) ) ) ) ) ) ) ) ) ) ) ) ) ) ^ / (   ",
"  _ : ) ) ) ) ) ) ) ) ) ) ) ) ) ) ) ) ) ) ) ) ) ) ) ) ) ) < [   ",
"  } | ) ) ) ) ) ) ) ) ) ) ) ) ) ) ) ) ) ) ) ) ) ) ) ) ) ) 1 2   ",
"  3 4 ) ) ) ) ) ) ) ) 5 6 7 8 9 0 ) ) ) ) ) ) ) ) ) ) ) ) a b   ",
"  _ c ) ) ) ) ) ) ) d e f g g h i ) ) j k l m ) ) ) ) ) 0 n o   ",
"  p q ) ) ) ) ) ) r s t g u v w x y z A B C D ) ) ) ) ) ) E {   ",
"  % F ) ) ) ) ) G H I g u J m ) 0 ) K L M j y N m ) ) ) ) O P   ",
"  Q R ) ) ) ) S x T g U V W X ) ) ) Y g Z r `  .z ) ) ) ) ..+.  ",
"  > @.) ) ) #.Z L g $.%.g g &.*.0 r Z g g =.-.;.m ) ) ) ) ..>.  ",
"  ,.'.) ) ) i ).g g !.~.{.g g ].^.Z g g -./.(._.) ) ) ) ) :.<.  ",
"  ,.[.) ) ) 0 }.).|.1.y ' -.g g 2.g g T 3.X 4.) ) ) ) ) ) 5.6.  ",
"  ,.[.) ) ) ) 0 7.1.5 ) y 8.9.g g g T 3.5 ) ) ) ) ) ) ) ) 5.$   ",
"  ,.[.) ) ) ) ) ) ) ) ) ) r 0.g g g a.6 ) ) ) ) ) ) ) ) ) 5.$   ",
"  ,.[.) ) ) ) ) ) ) 5 b.r Z g g g g g c._.0 ) ) ) ) ) ) ) :.6.  ",
"  d.@.) ) ) ) ) ) *.e.f.g.g g h.i.j.g g =.N 0 ) ) ) ) ) ) ..<.  ",
"  > k.) ) ) ) ) m l.m.n.g g h.o.j p.m.g g q.}.0 ) ) ) ) ) ..]   ",
"  Q R ) ) ) ) ) z r.p.` -.g s.0 ) t.C u.g g v.w.0 ) ) ) ) O x.  ",
"  y.z.) ) ) ) ) z A.t.j B.g C.) ) ) t.M D.g L !.y ) ) ) ) O P   ",
"  p q ) ) ) ) ) ) ) y E.9.F.X ) ) ) ) j G.H.I.z ) ) ) ) ) n J.  ",
"  _ K.) ) ) ) ) ) ) L.M.N.O.) ) ) ) ) ) j ` z ) ) ) ) ) ) n o   ",
"  } P.) ) ) ) ) ) ) ) 5 0 ) ) ) ) ) ) ) ) ) ) ) ) ) ) ) ) a b   ",
"  Q.R.) ) ) ) ) ) ) ) ) ) 0 S.L.L.S.5 ) ) ) ) ) ) ) ) ) ) T.U.  ",
"  + V.) ) ) ) ) ) ) ) ) ) 0 0 5 5 0 ) ) ) ) ) ) ) ) ) ) ) W.X.  ",
"  . ] ^ ) ) ) ) 0 0 0 0 0 0 0 0 0 0 0 0 ) ) ) ) ) ) ) ) Y.% Z.  ",
"    . `.^ ) ) ) ) ) ) ) ) ) ) ) ) ) ) ) ) ) ) ) ) ) ) l  +b     ",
"      .+. ++@+#+1 1 1 1 1 1 1 1 1 1 1 1 1 1 1 1 1 $+%+p 2       ",
"        Z.&+&+&+&+&+&+&+&+&+&+&+&+&+&+&+&+&+&+&+&+&+*+=+        ",
"                                                                "};
