/* XPM */
static const char * copy_xpm[] = {
"24 24 255 2",
"  	c None",
". 	c #9B9B9F",
"+ 	c #9A9B9F",
"@ 	c #9A9A9F",
"# 	c #99999E",
"$ 	c #98999D",
"% 	c #98989C",
"& 	c #97979C",
"* 	c #96969B",
"= 	c #959599",
"- 	c #8E8E92",
"; 	c #A4A4A8",
"> 	c #EFEFEF",
", 	c #EDEEEF",
"' 	c #EBECED",
") 	c #9B9B9E",
"! 	c #838386",
"~ 	c #EEEFF1",
"{ 	c #E4E7EF",
"] 	c #E0E2EA",
"^ 	c #ABABAE",
"/ 	c #B9B8BB",
"( 	c #7C7C7F",
"_ 	c #E3E6EE",
": 	c #DFE2EA",
"< 	c #AEADB0",
"[ 	c #D9D7D8",
"} 	c #B7B6B9",
"| 	c #7B7B7F",
"1 	c #A3A3A7",
"2 	c #AAABB0",
"3 	c #9FA0A5",
"4 	c #A2A3A7",
"5 	c #C8C9D0",
"6 	c #BBBCC2",
"7 	c #BABBC1",
"8 	c #B4B5BB",
"9 	c #AFB1B6",
"0 	c #B1B2B6",
"a 	c #A9A9AD",
"b 	c #9B9BA0",
"c 	c #9E9EA3",
"d 	c #9D9DA2",
"e 	c #96969A",
"f 	c #A2A2A6",
"g 	c #D3D5DC",
"h 	c #CFD1D8",
"i 	c #CDCFD6",
"j 	c #DEE1E9",
"k 	c #D2D4DB",
"l 	c #BABABF",
"m 	c #FBFCFC",
"n 	c #FAFAFC",
"o 	c #F7F7F9",
"p 	c #A1A1A5",
"q 	c #88888C",
"r 	c #CED0D7",
"s 	c #CCCED5",
"t 	c #DEE1E8",
"u 	c #C1C2C8",
"v 	c #BCBDC1",
"w 	c #F8F9FB",
"x 	c #EEF1F9",
"y 	c #E8EBF3",
"z 	c #B3B3B6",
"A 	c #C1C0C3",
"B 	c #828285",
"C 	c #A0A1A5",
"D 	c #DCDEE6",
"E 	c #D9DBE3",
"F 	c #D8DAE2",
"G 	c #E2E5ED",
"H 	c #C1C2C9",
"I 	c #BFC0C5",
"J 	c #EDF0F8",
"K 	c #E8EBF2",
"L 	c #B6B6B9",
"M 	c #E1E0E1",
"N 	c #BEBDC0",
"O 	c #818184",
"P 	c #9FA0A4",
"Q 	c #C8CAD1",
"R 	c #C3C5CB",
"S 	c #C0C2C8",
"T 	c #DADDE4",
"U 	c #BEC0C4",
"V 	c #E9ECF4",
"W 	c #B1B2B8",
"X 	c #A7A8AD",
"Y 	c #9F9FA3",
"Z 	c #BEBFC4",
"` 	c #ECEFF7",
" .	c #DCDFE6",
"..	c #E1E3E8",
"+.	c #C3C3C5",
"@.	c #9E9EA2",
"#.	c #C4C5CC",
"$.	c #BEBFC5",
"%.	c #BABCC1",
"&.	c #BFC1C7",
"*.	c #B4B5BA",
"=.	c #D7D9E1",
"-.	c #D5D7DE",
";.	c #DADCE3",
">.	c #D6D8E0",
",.	c #D4D6DE",
"'.	c #D3D5DD",
").	c #E1E4EB",
"!.	c #F1F3F9",
"~.	c #CBCBCD",
"{.	c #9D9DA1",
"].	c #E1E4EC",
"^.	c #DDE0E9",
"/.	c #DEE2EC",
"(.	c #DADEE9",
"_.	c #D9DBE2",
":.	c #D6D9E0",
"<.	c #CACBD2",
"[.	c #D4D7DE",
"}.	c #F0F3F9",
"|.	c #9D9DA0",
"1.	c #CBCDD4",
"2.	c #C6C8CF",
"3.	c #C3C6CD",
"4.	c #C1C3CC",
"5.	c #BEC2CB",
"6.	c #B2B3B8",
"7.	c #E4E6EE",
"8.	c #E0E3EA",
"9.	c #ECEFF6",
"0.	c #D2D5DE",
"a.	c #EEF1F8",
"b.	c #CACACC",
"c.	c #9C9C9F",
"d.	c #EEEEF0",
"e.	c #E0E4ED",
"f.	c #D3D7E0",
"g.	c #CFD2DC",
"h.	c #CCD0DB",
"i.	c #C9CDD9",
"j.	c #C7CBD9",
"k.	c #B4B5BC",
"l.	c #D2D3DB",
"m.	c #CECFD6",
"n.	c #CACCD3",
"o.	c #E5E8F0",
"p.	c #ECF0F8",
"q.	c #EBEEF7",
"r.	c #DFE2EC",
"s.	c #EDEEF0",
"t.	c #DCE0EC",
"u.	c #D9DEEB",
"v.	c #D7DCEA",
"w.	c #D5D9E9",
"x.	c #D2D7E8",
"y.	c #CFD5E6",
"z.	c #B5B7BF",
"A.	c #EDF0F7",
"B.	c #C9CBD2",
"C.	c #EBEFF8",
"D.	c #E9EDF7",
"E.	c #E7EBF6",
"F.	c #DBDFEB",
"G.	c #CCCFDB",
"H.	c #C9C9CB",
"I.	c #9A9A9D",
"J.	c #ECEDF0",
"K.	c #DCE0EB",
"L.	c #DADEEA",
"M.	c #D8DCEA",
"N.	c #D6DBE9",
"O.	c #D3D9E8",
"P.	c #D1D7E7",
"Q.	c #CCCDD4",
"R.	c #C7C8CF",
"S.	c #C2C4CB",
"T.	c #E2E5EE",
"U.	c #C6C9D0",
"V.	c #C9CBD4",
"W.	c #C5C7D1",
"X.	c #C3C6D0",
"Y.	c #BFC2CD",
"Z.	c #C9CEDB",
"`.	c #E4E8F4",
" +	c #D2D2D3",
".+	c #D1D1D3",
"++	c #D1D1D2",
"@+	c #D0D0D2",
"#+	c #D0D0D1",
"$+	c #B5B5B8",
"%+	c #EAEDF5",
"&+	c #E8EBF4",
"*+	c #E8ECF6",
"=+	c #E1E5F2",
"-+	c #DEE3F1",
";+	c #DBE0EF",
">+	c #D8DEEE",
",+	c #D7DDF0",
"'+	c #E1E6F3",
")+	c #D2D5DC",
"!+	c #CDD0D8",
"~+	c #CACDD6",
"{+	c #C8CAD4",
"]+	c #C6C9D4",
"^+	c #C4C7D3",
"/+	c #C2C5D2",
"(+	c #BFC3D0",
"_+	c #BDC2CF",
":+	c #C8CEE0",
"<+	c #DEE3F2",
"[+	c #C8C8CA",
"}+	c #A6A6A9",
"|+	c #EAEEF7",
"1+	c #DDE1EB",
"2+	c #D9DCE7",
"3+	c #D6DAE6",
"4+	c #D3D7E5",
"5+	c #D0D5E4",
"6+	c #CED3E3",
"7+	c #CCD1E2",
"8+	c #CACFE1",
"9+	c #CCD3E8",
"0+	c #DDE2F2",
"a+	c #A5A5A9",
"b+	c #F7F8FB",
"c+	c #E6EAF6",
"d+	c #E3E8F5",
"e+	c #E0E5F4",
"f+	c #DDE3F3",
"g+	c #DAE1F1",
"h+	c #D8DEF0",
"i+	c #D5DCF0",
"j+	c #D3DAEF",
"k+	c #D1D9EE",
"l+	c #D0D8EE",
"m+	c #CFD7ED",
"n+	c #F7F8FA",
"o+	c #E4E9F5",
"p+	c #E2E7F4",
"q+	c #E0E5F3",
"r+	c #DDE3F2",
"s+	c #DCE1F1",
"t+	c #DAE0F1",
"u+	c #D8DFF0",
"v+	c #E2E7F3",
"w+	c #C8C8C9",
"x+	c #D8D8D9",
"y+	c #D7D7D9",
"z+	c #D7D7D8",
"A+	c #D6D6D8",
"B+	c #D6D6D7",
"C+	c #D5D5D7",
"D+	c #D5D5D6",
"E+	c #D4D4D6",
"F+	c #B1B1B4",
"  . + @ # $ % & * = -                           ",
"; > , , , , , , , , ' ) !                       ",
"; ~ { { { { { { { { ] ^ / (                     ",
"; ~ _ _ _ _ _ _ _ _ : < [ } |                   ",
"1 ~ _ { { _ { { _ { ] 2 3 4 .                   ",
"1 ~ _ { { _ { { 5 6 7 8 9 0 a b c d e           ",
"f ~ _ g h i j k l m n n n n n n n n o p q       ",
"p ~ _ k r s t u v w x x x x x x x x y z A B     ",
"C ~ _ D E F G H I w x x J x J x x J K L M N O   ",
"P ~ _ Q R S T H U w J J J J J J J J V W X 2 f   ",
"Y ~ _ _ _ _ _ u Z w x x J x J x x J ` G  ...+.  ",
"@.~ _ #.$.%.F &.*.w J T =.-.y ;.>.,.,.'.).!.~.  ",
"{.~ _ ].: ^./.(.7 w x D _.:.V <.).] ] E [.}.~.  ",
"|.~ _ 1.2.3.4.5.6.w x 7.).8.9.<.x J J G 0.a.b.  ",
"c.d.e.f.g.h.i.j.k.w a.l.m.n.o.<.J p.q.r.g.q.b.  ",
") s.t.u.v.w.x.y.z.w J A.` ` J B.C.D.E.F.G.E.H.  ",
"I.J.K.L.M.N.O.P.z.w a.Q.R.S.T.U.V.W.X.Y.Z.`.H.  ",
"e  + +.+++++@+#+$+w x ` %+&+*+`.=+-+;+>+,+'+H.  ",
"                f w J )+!+~+{+]+^+/+(+_+:+<+[+  ",
"                }+w |+1+2+3+4+5+6+7+8+:+9+0+[+  ",
"                a+b+c+d+e+f+g+h+i+j+k+l+m+0+[+  ",
"                ; n+E.o+p+q+r+s+t+u+h+h+h+v+w+  ",
"                @.x+x+y+z+z+A+B+B+C+C+D+D+E+F+  ",
"                                                "};
