/* XPM */
static const char * logReduce_xpm[] = {
"24 24 201 2",
"  	c None",
". 	c #B1B6C1",
"+ 	c #FFFFFF",
"@ 	c #FEFEFE",
"# 	c #FCFCFC",
"$ 	c #F8F8F8",
"% 	c #F4F4F4",
"& 	c #EFEFEF",
"* 	c #E9E9E9",
"= 	c #E4E4E4",
"- 	c #DEDEDE",
"; 	c #D9D9D9",
"> 	c #D4D4D4",
", 	c #BDC0C6",
"' 	c #B2B7C1",
") 	c #FBFBFC",
"! 	c #FAFAFB",
"~ 	c #F8F8F9",
"{ 	c #F4F5F5",
"] 	c #F0F1F1",
"^ 	c #ECECEC",
"/ 	c #E6E7E7",
"( 	c #E1E1E2",
"_ 	c #DDDDDD",
": 	c #D7D7D8",
"< 	c #C3C6CC",
"[ 	c #D3D4D6",
"} 	c #ADB2BB",
"| 	c #FAFBFC",
"1 	c #F7F7F8",
"2 	c #F4F4F5",
"3 	c #F0F0F1",
"4 	c #EBEBEC",
"5 	c #E6E6E7",
"6 	c #DCDCDD",
"7 	c #C3C5CB",
"8 	c #F7F7F7",
"9 	c #D2D2D5",
"0 	c #A4A8B1",
"a 	c #FAFAFC",
"b 	c #F9FAFB",
"c 	c #F7F8F9",
"d 	c #F3F4F5",
"e 	c #EFF0F1",
"f 	c #EAEBEC",
"g 	c #E0E1E2",
"h 	c #C0C3C8",
"i 	c #F5F5F5",
"j 	c #CDCDD0",
"k 	c #999DA5",
"l 	c #F9FAFC",
"m 	c #F9F9FB",
"n 	c #F6F7F9",
"o 	c #F3F3F5",
"p 	c #EFEFF1",
"q 	c #E5E6E7",
"r 	c #BBBEC3",
"s 	c #B5B7BC",
"t 	c #ACAEB3",
"u 	c #A4A6AA",
"v 	c #95979C",
"w 	c #8C9098",
"x 	c #F8F9FB",
"y 	c #F5F6F8",
"z 	c #F2F3F5",
"A 	c #EEEFF1",
"B 	c #EAEAEC",
"C 	c #E4E4E6",
"D 	c #DCDDDE",
"E 	c #D2D2D3",
"F 	c #D1D1D2",
"G 	c #878B93",
"H 	c #F7F9FB",
"I 	c #F7F8FA",
"J 	c #F4F6F8",
"K 	c #F1F3F4",
"L 	c #EEEFF0",
"M 	c #E9EAEC",
"N 	c #E4E5E6",
"O 	c #DFE0E1",
"P 	c #DBDBDC",
"Q 	c #858990",
"R 	c #F7F8FB",
"S 	c #F6F7FA",
"T 	c #F4F5F8",
"U 	c #F1F2F4",
"V 	c #EDEEF0",
"W 	c #E8E9EB",
"X 	c #E3E4E6",
"Y 	c #F6F8FB",
"Z 	c #F5F7FA",
"` 	c #F3F5F8",
" .	c #F0F2F4",
"..	c #ECEEF0",
"+.	c #E7E9EB",
"@.	c #F5F7FB",
"#.	c #F4F6FA",
"$.	c #F2F4F8",
"%.	c #EFF1F4",
"&.	c #EBEDF0",
"*.	c #E7E9EC",
"=.	c #F4F6FB",
"-.	c #F1F3F8",
";.	c #EEF0F4",
">.	c #F3F6FB",
",.	c #DBE7E2",
"'.	c #A9D2AF",
").	c #A6D0AB",
"!.	c #A6CFAB",
"~.	c #A5CEAA",
"{.	c #A4CCA8",
"].	c #A1C8A5",
"^.	c #A5C9A5",
"/.	c #5F8566",
"(.	c #F2F5FB",
"_.	c #A6D3AD",
":.	c #5ECD44",
"<.	c #72D651",
"[.	c #74D853",
"}.	c #76DB55",
"|.	c #78DD57",
"1.	c #79DD58",
"2.	c #7ADD58",
"3.	c #78DB56",
"4.	c #75D854",
"5.	c #72D450",
"6.	c #6ED04B",
"7.	c #68CB47",
"8.	c #65C843",
"9.	c #54B839",
"0.	c #B0B5C0",
"a.	c #F2F5FA",
"b.	c #A6D3AC",
"c.	c #76D751",
"d.	c #7DDE64",
"e.	c #82E369",
"f.	c #88E96F",
"g.	c #8CED72",
"h.	c #8EF074",
"i.	c #8DF173",
"j.	c #88EE6E",
"k.	c #81EA68",
"l.	c #78E35E",
"m.	c #6EDD55",
"n.	c #63D64B",
"o.	c #5DD245",
"p.	c #69C843",
"q.	c #AFB4BE",
"r.	c #F1F4FA",
"s.	c #A6D2AC",
"t.	c #79DB54",
"u.	c #85E56A",
"v.	c #89EA6F",
"w.	c #8DEE71",
"x.	c #8DF171",
"y.	c #89EE6D",
"z.	c #7FE965",
"A.	c #76E35E",
"B.	c #6CDC53",
"C.	c #5BD043",
"D.	c #58CE41",
"E.	c #69C842",
"F.	c #ABB0BA",
"G.	c #F0F3FA",
"H.	c #A5D2AC",
"I.	c #60D047",
"J.	c #76DB54",
"K.	c #77DB56",
"L.	c #77D956",
"M.	c #75D653",
"N.	c #72D350",
"O.	c #6ECF4C",
"P.	c #6ACB49",
"Q.	c #65C744",
"R.	c #62C441",
"S.	c #5FC33F",
"T.	c #52B638",
"U.	c #A7ABB5",
"V.	c #EFF3FA",
"W.	c #D9E5E2",
"X.	c #A8CFAF",
"Y.	c #A5CCAC",
"Z.	c #A4CBAC",
"`.	c #A4CAAB",
" +	c #A4C9AB",
".+	c #A3C8AB",
"++	c #A3C6AA",
"@+	c #A3C5AA",
"#+	c #A3C4AA",
"$+	c #ADCBAD",
"%+	c #5E8065",
"&+	c #A2A6B0",
"*+	c #EFF2FA",
"=+	c #9CA1AA",
"-+	c #EEF2FA",
";+	c #969BA4",
">+	c #91959E",
",+	c #8C9099",
"'+	c #888C94",
")+	c #858991",
"!+	c #80848B",
"                                                ",
"  . . . . . . . . . . . . .                     ",
"  . + @ # $ % & * = - ; > , '                   ",
"  . + ) ! ~ { ] ^ / ( _ : < [ }                 ",
"  . + | | ! 1 2 3 4 5 ( 6 7 8 9 0               ",
"  . + a a a b c d e f 5 g h 1 i j k             ",
"  . + l l l l m n o p f q r s t u v w           ",
"  . + x x x x x x y z A B C D : E F G           ",
"  . + H H H H H H I J K L M N O P ; Q           ",
"  . + R R R R R R R S T U V W X O - Q           ",
"  . + Y Y Y Y Y Y Y Y Z `  ...+.X = Q           ",
"  . + @.@.@.@.@.@.@.@.@.#.$.%.&.*.* Q           ",
"  . + =.=.=.=.=.=.=.=.=.=.#.-.;.&.& Q           ",
"  . + >.>.>.>.,.'.).).).).!.~.{.].^./.          ",
"  . + (.(.(.(._.:.<.[.}.|.1.2.3.4.5.6.7.8.9.    ",
"  0.+ a.a.a.a.b.c.d.e.f.g.h.i.j.k.l.m.n.o.p.    ",
"  q.+ r.r.r.r.s.t.u.v.w.h.x.y.z.A.B.n.C.D.E.    ",
"  F.+ G.G.G.G.H.I.J.K.3.L.M.N.O.P.Q.R.S.S.T.    ",
"  U.+ V.V.V.V.W.X.Y.Z.`. +.+++@+#+$+%+          ",
"  &++ *+*+*+*+*+*+*+*+*+*+*+*+*+*++ Q           ",
"  =++ -+-+-+-+-+-+-+-+-+-+-+-+-+-++ Q           ",
"  ;++ + + + + + + + + + + + + + + + Q           ",
"  >+,+'+)+Q Q Q Q Q Q Q Q Q Q Q Q Q !+          ",
"                                                "};
