/* XPM */
static const char * cut_xpm[] = {
"24 24 185 2",
"  	c None",
". 	c #9E9EA3",
"+ 	c #909094",
"@ 	c #A2A2A6",
"# 	c #9D9DA2",
"$ 	c #959599",
"% 	c #BDBDC1",
"& 	c #AEAEB2",
"* 	c #ADAEB2",
"= 	c #ACACB0",
"- 	c #B0B0B4",
"; 	c #E1E3E9",
"> 	c #9D9DA1",
", 	c #97979B",
"' 	c #E1E4ED",
") 	c #9B9CA0",
"! 	c #E6E9F0",
"~ 	c #C6C7CC",
"{ 	c #98989D",
"] 	c #8F8F93",
"^ 	c #C9CBD2",
"/ 	c #DADDE8",
"( 	c #8B8B90",
"_ 	c #CACCD1",
": 	c #E6EAF4",
"< 	c #A9A9AE",
"[ 	c #ABABB0",
"} 	c #DEE4F2",
"| 	c #BCBDC4",
"1 	c #A5A5AA",
"2 	c #E5E9F4",
"3 	c #DADDE5",
"4 	c #96979B",
"5 	c #939397",
"6 	c #D9DDE8",
"7 	c #DDE2EF",
"8 	c #CBCDD3",
"9 	c #E1E6F3",
"0 	c #C0C1C7",
"a 	c #929296",
"b 	c #8D8D92",
"c 	c #C3C4CB",
"d 	c #DAE0F1",
"e 	c #BEC0C7",
"f 	c #89898D",
"g 	c #9D9EA2",
"h 	c #E0E3EE",
"i 	c #E0E4F1",
"j 	c #A2A2A7",
"k 	c #A4A5A9",
"l 	c #DCE2F1",
"m 	c #D9DDE9",
"n 	c #8F9094",
"o 	c #B6B6BB",
"p 	c #DEE3F2",
"q 	c #D5D8E2",
"r 	c #919195",
"s 	c #D6DAE5",
"t 	c #DBE1F1",
"u 	c #A7A8AC",
"v 	c #8E8F96",
"w 	c #CCCED6",
"x 	c #C1C3C9",
"y 	c #C5C7CF",
"z 	c #D9DFF1",
"A 	c #BDBFC6",
"B 	c #85868D",
"C 	c #868B9D",
"D 	c #A7B2D6",
"E 	c #A8B2D7",
"F 	c #A7B1D6",
"G 	c #A0A9CC",
"H 	c #7C7F93",
"I 	c #3A62C1",
"J 	c #4974CF",
"K 	c #4771CC",
"L 	c #3555B8",
"M 	c #3763C3",
"N 	c #4B77D1",
"O 	c #4874CF",
"P 	c #375EBE",
"Q 	c #4F7DD4",
"R 	c #6C95EC",
"S 	c #648FE7",
"T 	c #426BC7",
"U 	c #3352B5",
"V 	c #3B60BE",
"W 	c #3A5FBD",
"X 	c #3045AC",
"Y 	c #3C68C6",
"Z 	c #6C8EE6",
"` 	c #7293EC",
" .	c #7498F0",
"..	c #7498F1",
"+.	c #7095EE",
"@.	c #4970CC",
"#.	c #426AC6",
"$.	c #5480DB",
"%.	c #4B79D4",
"&.	c #4575D0",
"*.	c #4170CD",
"=.	c #4373CD",
"-.	c #3245AC",
";.	c #2E54BA",
">.	c #638BE2",
",.	c #628AE1",
"'.	c #375EBF",
").	c #3458BB",
"!.	c #638FE5",
"~.	c #6A8FEA",
"{.	c #3A5EBD",
"].	c #3656B8",
"^.	c #4C78D4",
"/.	c #4472CB",
"(.	c #3046AD",
"_.	c #334AAF",
":.	c #4170CA",
"<.	c #406CC6",
"[.	c #292B9C",
"}.	c #3D69C6",
"|.	c #6F94EA",
"1.	c #476FCB",
"2.	c #628EE5",
"3.	c #304AB1",
"4.	c #2E42AC",
"5.	c #4779D1",
"6.	c #3758B8",
"7.	c #3246AC",
"8.	c #4476CF",
"9.	c #303CA5",
"0.	c #4E79D3",
"a.	c #5E87DF",
"b.	c #2C4BB3",
"c.	c #4871CC",
"d.	c #5686DC",
"e.	c #2B3DA9",
"f.	c #2B39A6",
"g.	c #3859B9",
"h.	c #292B9B",
"i.	c #4270C9",
"j.	c #3750B2",
"k.	c #557FD8",
"l.	c #5E88DF",
"m.	c #2C48B1",
"n.	c #2F48B0",
"o.	c #5584DB",
"p.	c #466FCA",
"q.	c #3A5EBC",
"r.	c #416EC8",
"s.	c #2A2E9E",
"t.	c #29289A",
"u.	c #416DC7",
"v.	c #3954B5",
"w.	c #4973CE",
"x.	c #7298EF",
"y.	c #4770CB",
"z.	c #5180D8",
"A.	c #324AB0",
"B.	c #2E3BA4",
"C.	c #4374CD",
"D.	c #3D63BF",
"E.	c #303DA6",
"F.	c #3956B6",
"G.	c #4272CD",
"H.	c #3547AC",
"I.	c #2C49AD",
"J.	c #5A86DC",
"K.	c #6691E9",
"L.	c #5D8AE2",
"M.	c #4F7ED5",
"N.	c #3651B4",
"O.	c #3347AC",
"P.	c #4272CB",
"Q.	c #4375CF",
"R.	c #4374CE",
"S.	c #3E62BF",
"T.	c #26228C",
"U.	c #203082",
"V.	c #2F49AC",
"W.	c #2F47AB",
"X.	c #212D85",
"Y.	c #222182",
"Z.	c #2F38A1",
"`.	c #2D319A",
" +	c #1C196D",
"          .                         +           ",
"          @ #                     + $           ",
"          % &                     * =           ",
"          - ; >                 , ' )           ",
"          > ! ~ {             ] ^ / (           ",
"            _ : <             [ } |             ",
"            1 2 3 4         5 6 7 $             ",
"            4 8 9 0 a     b c d e f             ",
"              g h i j     k l m n               ",
"                o p q + r s t u                 ",
"                v w t x y z A B                 ",
"                  C D E F G H                   ",
"                    I J K L                     ",
"            M N O P Q R S T U V W X             ",
"          Y Z `  ...+.@.#.$.%.&.*.=.-.          ",
"        ;.>.,.'.).!.~.{.].^./.(._.:.<.[.        ",
"        }.|.).    1.2.3.4.5.6.    7.8.9.        ",
"        0.a.b.    c.d.e.f.:.g.    h.i.j.        ",
"        k.l.m.  n.o.p.f.  q.r.s.  t.u.v.        ",
"        w.x.y.{.Q z.A.    B.C.D.E.F.G.H.        ",
"        I.J.K.L.M.N.        O.P.Q.R.S.T.        ",
"          U.V.W.X.            Y.Z.`. +          ",
"                                                ",
"                                                "};
