/* XPM */
static const char * delete_xpm[] = {
"24 24 268 2",
"  	c None",
". 	c #6B6F7D",
"+ 	c #5A5E69",
"@ 	c #636773",
"# 	c #6E7481",
"$ 	c #797F8D",
"% 	c #7B8190",
"& 	c #898E9C",
"* 	c #A3A7B3",
"= 	c #B1B5C0",
"- 	c #5B5F6A",
"; 	c #5B5F6B",
"> 	c #595D68",
", 	c #585C67",
"' 	c #8E939F",
") 	c #AFB4C1",
"! 	c #A2A7B3",
"~ 	c #8C919E",
"{ 	c #7C8291",
"] 	c #A0A4B0",
"^ 	c #CED1DA",
"/ 	c #DFE2EC",
"( 	c #DADEE9",
"_ 	c #CFD3E0",
": 	c #A9AEBA",
"< 	c #9195A2",
"[ 	c #686C77",
"} 	c #5F646F",
"| 	c #AAB0C1",
"1 	c #B1B8CA",
"2 	c #C4CBDC",
"3 	c #C0C6D5",
"4 	c #A2A7B4",
"5 	c #B3B7C2",
"6 	c #DBDFEA",
"7 	c #D8DDE9",
"8 	c #D6DBE7",
"9 	c #D3D8E6",
"0 	c #969AA7",
"a 	c #B3B8C5",
"b 	c #BDC2D1",
"c 	c #BFC5D5",
"d 	c #8A8F9D",
"e 	c #9EA5B7",
"f 	c #9FA7B9",
"g 	c #B6BED1",
"h 	c #BEC5DA",
"i 	c #BFC6DB",
"j 	c #B0B5C3",
"k 	c #818695",
"l 	c #E5E7EE",
"m 	c #E2E6EE",
"n 	c #D9DDE9",
"o 	c #D5DAE7",
"p 	c #D3D8E5",
"q 	c #D0D5E4",
"r 	c #CED3E2",
"s 	c #CBD1E1",
"t 	c #C9CFE0",
"u 	c #C6CDDE",
"v 	c #AEB5C6",
"w 	c #848998",
"x 	c #B1B8CB",
"y 	c #B9C0D4",
"z 	c #BFC6DA",
"A 	c #CDD2E1",
"B 	c #7E8493",
"C 	c #959AA7",
"D 	c #DDE1EB",
"E 	c #E7E9F1",
"F 	c #EBEDF3",
"G 	c #E8EAF1",
"H 	c #E0E4ED",
"I 	c #CED4E3",
"J 	c #CAD1E1",
"K 	c #C8CFE0",
"L 	c #C7CEDF",
"M 	c #C6CCDE",
"N 	c #C5CBDD",
"O 	c #C2C9DC",
"P 	c #9095A2",
"Q 	c #9CA1AD",
"R 	c #D7DBE8",
"S 	c #D4D8E6",
"T 	c #D1D6E4",
"U 	c #CFD4E3",
"V 	c #D2D7E5",
"W 	c #D8DDE8",
"X 	c #DCE0EB",
"Y 	c #DCE1EB",
"Z 	c #DADFEA",
"` 	c #D0D6E4",
" .	c #CAD0E0",
"..	c #C4CBDD",
"+.	c #C0C7DB",
"@.	c #BDC4D9",
"#.	c #9A9FAC",
"$.	c #9499A5",
"%.	c #D6DAE7",
"&.	c #C0C8DB",
"*.	c #BEC6DA",
"=.	c #999EAB",
"-.	c #A6ABB7",
";.	c #CFD4E0",
">.	c #CCD1E1",
",.	c #C8CEDF",
"'.	c #C5CCDE",
").	c #C3CADD",
"!.	c #C1C9DC",
"~.	c #BFC7DB",
"{.	c #BFC5DA",
"].	c #C4CADB",
"^.	c #A7ACB9",
"/.	c #767B89",
"(.	c #858A98",
"_.	c #9EA3AF",
":.	c #BFC5D3",
"<.	c #C9CEDE",
"[.	c #C8CFDF",
"}.	c #C4CADD",
"|.	c #C6CCDD",
"1.	c #BDC3D2",
"2.	c #B1B6C4",
"3.	c #9EA3B0",
"4.	c #777D8B",
"5.	c #737885",
"6.	c #C1C2C7",
"7.	c #A5A9B2",
"8.	c #8F94A0",
"9.	c #8A8F9C",
"0.	c #818694",
"a.	c #848A98",
"b.	c #8B909E",
"c.	c #8F94A1",
"d.	c #8B919E",
"e.	c #808694",
"f.	c #888D9B",
"g.	c #8D919E",
"h.	c #969BA9",
"i.	c #B3B6BE",
"j.	c #767B87",
"k.	c #7A808D",
"l.	c #D5D7DB",
"m.	c #C6C9D1",
"n.	c #B1B5BE",
"o.	c #BCBEC6",
"p.	c #ABAEB6",
"q.	c #AFB3BC",
"r.	c #A3A7B1",
"s.	c #B0B3B9",
"t.	c #A0A4AF",
"u.	c #A7ABB7",
"v.	c #A5A9B3",
"w.	c #B3B7C1",
"x.	c #AEB1BB",
"y.	c #ADB3C2",
"z.	c #C5C8D1",
"A.	c #7D828F",
"B.	c #7F8593",
"C.	c #E5E7EC",
"D.	c #D8DBE4",
"E.	c #C5C9D3",
"F.	c #D4D7DF",
"G.	c #C0C4CE",
"H.	c #C7CBD6",
"I.	c #BDC1CC",
"J.	c #BDC1CD",
"K.	c #CED0D7",
"L.	c #B6BAC7",
"M.	c #BDC2D0",
"N.	c #B9BECA",
"O.	c #CACEDA",
"P.	c #C0C4D0",
"Q.	c #BEC4D5",
"R.	c #D4D8E2",
"S.	c #838896",
"T.	c #818795",
"U.	c #EBEEF2",
"V.	c #DFE3EC",
"W.	c #CED2DD",
"X.	c #E1E4ED",
"Y.	c #CBD0DB",
"Z.	c #D7DBE7",
"`.	c #CDD2DE",
" +	c #D0D5E1",
".+	c #E2E5EC",
"++	c #C5CAD9",
"@+	c #CCD2E1",
"#+	c #C7CBD8",
"$+	c #C9CDDA",
"%+	c #DBDFE9",
"&+	c #858B99",
"*+	c #EBEEF3",
"=+	c #CDD1DD",
"-+	c #E2E5EE",
";+	c #CACFDB",
">+	c #CDD2DF",
",+	c #D2D6E3",
"'+	c #E3E6ED",
")+	c #CCD2E2",
"!+	c #C6CBD9",
"~+	c #C8CDDA",
"{+	c #868B99",
"]+	c #EBEDF2",
"^+	c #CBCFDB",
"/+	c #CBD0DD",
"(+	c #C3C8D8",
"_+	c #C4C9D7",
":+	c #C6CCD9",
"<+	c #808695",
"[+	c #EAECF2",
"}+	c #C9CEDA",
"|+	c #C7CCD9",
"1+	c #D4D9E6",
"2+	c #C9CEDC",
"3+	c #D1D6E3",
"4+	c #C1C7D7",
"5+	c #C2C7D6",
"6+	c #EAECF1",
"7+	c #C8CCDA",
"8+	c #C7CCDB",
"9+	c #E3E5ED",
"0+	c #BFC6D6",
"a+	c #C6CBD8",
"b+	c #C1C8DC",
"c+	c #D9DEE9",
"d+	c #E9EBF1",
"e+	c #C5CAD8",
"f+	c #D1D6E5",
"g+	c #C4CAD9",
"h+	c #E2E5ED",
"i+	c #BEC5D6",
"j+	c #C7CDDF",
"k+	c #C5CBD8",
"l+	c #7D8392",
"m+	c #DCDEE4",
"n+	c #C9CEDB",
"o+	c #D1D5DF",
"p+	c #C5CBD9",
"q+	c #BBC2D3",
"r+	c #CCD1DD",
"s+	c #BAC1D3",
"t+	c #D7DBE3",
"u+	c #8E94A1",
"v+	c #DDE0E6",
"w+	c #DADEEA",
"x+	c #C7CDDD",
"y+	c #C3C9D6",
"z+	c #C9CED9",
"A+	c #C2C8DA",
"B+	c #BEC5D8",
"C+	c #D7DBE4",
"D+	c #9298A4",
"E+	c #828896",
"F+	c #B9BCC5",
"G+	c #E0E3EA",
"H+	c #C7CDDE",
"I+	c #C6CDDF",
"J+	c #D9DDE7",
"K+	c #BBBFC8",
"L+	c #A0A5B0",
"M+	c #CACDD5",
"N+	c #D0D3DB",
"O+	c #CFD3DB",
"P+	c #C9CCD5",
"Q+	c #BCBFC8",
"R+	c #A2A7B2",
"S+	c #818796",
"                  . + @ # $ %                   ",
"          % & * = - ; > , + ' ) ! ~ {           ",
"      { ] ^ / ( _ > ' : < [ } | 1 2 3 4 {       ",
"    % 5 / 6 7 8 9 0 a b c d , e f g h i j %     ",
"    k l m n o p q r s t u v w x y h h z A B     ",
"    C 6 D E F G H n p I J K L M N O z h O P     ",
"    Q R S T U V W X Y Z 8 `  ...+.h @.@.z #.    ",
"    $.%.q r s t u ..O &.*.h @.h h @.h h +.=.    ",
"    % -.;.>.,.'.).!.~.*.h h @.h h @.{.].^.{     ",
"      /.(._.a :.<.[.}.O O ).M |.1.2.3.(.4.      ",
"      5.6.7.8.9.0.a.b.c.c.d.(.e.f.g.h.i.j.      ",
"      k.l.m.n.o.p.q.7.r.s.t.u.v.w.x.y.z.A.      ",
"      B.C.D.E.F.G.H.I.J.K.L.M.N.O.P.Q.R.S.      ",
"      T.U.V.W.X.Y.Z.`. +.+++@+#+Z.$+..%+&+      ",
"      T.*+/ =+-+;+R >+,+'+++)+!+n ~+..6 {+      ",
"      k ]+D ^+-+~+o /+,+'+(+s _+n :+).( {+      ",
"      <+[+X }+-+|+1+2+3+'+4+ .5+n !+O ( {+      ",
"      <+6+6 7+-+!+p 8+3+9+0+,.3 n a+b+c+{+      ",
"      e.d+( |+-+e+f+g+3+h+i+j+c n k+&.n {+      ",
"      l+m+( n+o+p+q (+3+h+Q.M q+r+s+b+t+B.      ",
"        u+v+w+T T U x+y+z+A+..O B+j+C+D+        ",
"          E+F+G+( q >.,.H+'.I+I J+K+a.          ",
"            l+<+L+K+M+N+O+P+Q+R+S+{             ",
"                    l+l+{ l+                    "};
