/* XPM */
static const char * dgfRefresh_xpm[] = {
"24 24 288 2",
"  	c None",
". 	c #7F7F7F",
"+ 	c #818181",
"@ 	c #828282",
"# 	c #818182",
"$ 	c #BABABB",
"% 	c #CECECF",
"& 	c #D1D1D2",
"* 	c #D4D4D5",
"= 	c #D8D8D8",
"- 	c #DADADB",
"; 	c #DCDCDC",
"> 	c #DBDBDC",
", 	c #D8D8D9",
"' 	c #D3D3D3",
") 	c #CCCCCD",
"! 	c #CBCBCD",
"~ 	c #B7B7B7",
"{ 	c #7E7E7E",
"] 	c #7E7E7F",
"^ 	c #BCBBBE",
"/ 	c #C9C9CE",
"( 	c #D4D4D8",
"_ 	c #E0DFE2",
": 	c #EBEBED",
"< 	c #F4F4F5",
"[ 	c #F9F9FB",
"} 	c #F8F8FA",
"| 	c #EEEEF0",
"1 	c #DBDBDE",
"2 	c #CBCBCF",
"3 	c #C2C2C7",
"4 	c #C1C1C5",
"5 	c #B8B8BA",
"6 	c #7D7D7D",
"7 	c #7D7D7E",
"8 	c #B5B5B8",
"9 	c #BEBEC3",
"0 	c #CBCACF",
"a 	c #D9D8DC",
"b 	c #E7E6EA",
"c 	c #F1F1F4",
"d 	c #F6F6F8",
"e 	c #EBEBEE",
"f 	c #D3D3D7",
"g 	c #C0C0C4",
"h 	c #B5B5BA",
"i 	c #B4B4B9",
"j 	c #B1B1B4",
"k 	c #BDBCC1",
"l 	c #C8C7CC",
"m 	c #D4D4D7",
"n 	c #E0E0E3",
"o 	c #EAE9EC",
"p 	c #F0F0F2",
"q 	c #E3E3E6",
"r 	c #CFCFD2",
"s 	c #BEBEC2",
"t 	c #B3B3B7",
"u 	c #B3B3B8",
"v 	c #ADADB0",
"w 	c #7C7C7C",
"x 	c #838383",
"y 	c #9F9FA2",
"z 	c #ACACB0",
"A 	c #B5B4B8",
"B 	c #BFBEC1",
"C 	c #C8C8CA",
"D 	c #CFCFD1",
"E 	c #D2D2D4",
"F 	c #CACACB",
"G 	c #BABABD",
"H 	c #A4A4A8",
"I 	c #A3A3A6",
"J 	c #9C9C9F",
"K 	c #838384",
"L 	c #89888A",
"M 	c #BBBABC",
"N 	c #D1D1D3",
"O 	c #D5D5D7",
"P 	c #D9D9DB",
"Q 	c #DEDDDF",
"R 	c #E1E1E2",
"S 	c #E3E3E3",
"T 	c #E2E2E3",
"U 	c #DEDEDE",
"V 	c #D7D7D8",
"W 	c #CDCDCF",
"X 	c #CCCCCE",
"Y 	c #CDCDCE",
"Z 	c #B8B8B9",
"` 	c #89898A",
" .	c #828283",
"..	c #C2C2C4",
"+.	c #D5D5D9",
"@.	c #DDDCE0",
"#.	c #E5E4E7",
"$.	c #EDEDEF",
"%.	c #F7F7F8",
"&.	c #F6F6F7",
"*.	c #EFEFF1",
"=.	c #CBCCD1",
"-.	c #ABAEC1",
";.	c #9098C6",
">.	c #828ECB",
",.	c #838FCB",
"'.	c #929BC6",
").	c #ACAFC2",
"!.	c #B5B6B9",
"~.	c #808081",
"{.	c #B6B6B9",
"].	c #C0C0C6",
"^.	c #CDCCD1",
"/.	c #DADADE",
"(.	c #E8E7EA",
"_.	c #F2F2F4",
":.	c #E7E7EB",
"<.	c #B7B9C7",
"[.	c #7A85BB",
"}.	c #6475CD",
"|.	c #7889DF",
"1.	c #8696E7",
"2.	c #8596E7",
"3.	c #ACB6EB",
"4.	c #909CDC",
"5.	c #747EB3",
"6.	c #6D707A",
"7.	c #B4B4B8",
"8.	c #BEBDC3",
"9.	c #CAC9CF",
"0.	c #D8D8DC",
"a.	c #E6E6E9",
"b.	c #F5F5F7",
"c.	c #CACCD9",
"d.	c #6B7ACA",
"e.	c #6478DC",
"f.	c #8798EE",
"g.	c #A3B1F7",
"h.	c #AFBBF9",
"i.	c #A9B7F9",
"j.	c #DFE4FC",
"k.	c #F7F8FE",
"l.	c #4D5DAA",
"m.	c #B4B4B7",
"n.	c #BFBEC4",
"o.	c #D8D7DB",
"p.	c #E5E5E7",
"q.	c #E5E5EA",
"r.	c #8793CD",
"s.	c #5067D9",
"t.	c #95A4F3",
"u.	c #ECEFFE",
"v.	c #FFFFFF",
"w.	c #FEFEFE",
"x.	c #E7EAFC",
"y.	c #546AD5",
"z.	c #A7A7A9",
"A.	c #BDBCC0",
"B.	c #C7C6C9",
"C.	c #D1D0D3",
"D.	c #D8D8DA",
"E.	c #DCDCDE",
"F.	c #B1B4C8",
"G.	c #4E63CD",
"H.	c #6B81EB",
"I.	c #F8F9FF",
"J.	c #F9FAFF",
"K.	c #E8ECFF",
"L.	c #E8ECFE",
"M.	c #FAFBFF",
"N.	c #C8D0F7",
"O.	c #354ECC",
"P.	c #A6A6A8",
"Q.	c #B6B6B8",
"R.	c #BCBCBE",
"S.	c #C9C8CA",
"T.	c #D0D0D2",
"U.	c #8891C4",
"V.	c #3B55D7",
"W.	c #ABB8F8",
"X.	c #ABB9FD",
"Y.	c #7D92FE",
"Z.	c #7E93FE",
"`.	c #8095FE",
" +	c #C2CCFF",
".+	c #FBFCFF",
"++	c #CBD3FE",
"@+	c #7B90F4",
"#+	c #3651D6",
"$+	c #878788",
"%+	c #D5D5D8",
"&+	c #DCDBDE",
"*+	c #E2E2E4",
"=+	c #E9E9EA",
"-+	c #EFEEF0",
";+	c #F2F2F3",
">+	c #8290D7",
",+	c #3652DC",
"'+	c #5F77F5",
")+	c #617AFD",
"!+	c #6F86FE",
"~+	c #748BFE",
"{+	c #768DFD",
"]+	c #CDD5FF",
"^+	c #B3BFFE",
"/+	c #798FFE",
"(+	c #5E78FD",
"_+	c #4563F4",
":+	c #3551DC",
"<+	c #2E46C3",
"[+	c #BABABC",
"}+	c #C6C6CB",
"|+	c #D1D1D5",
"1+	c #DEDDE0",
"2+	c #E9E9EC",
"3+	c #F3F2F5",
"4+	c #F9F8FA",
"5+	c #8391DA",
"6+	c #3E5CF4",
"7+	c #4F6FFD",
"8+	c #6384FE",
"9+	c #95AEFE",
"0+	c #BCCDFE",
"a+	c #6188FD",
"b+	c #6085FE",
"c+	c #5D7DFE",
"d+	c #4E6DFC",
"e+	c #526EF5",
"f+	c #3450DB",
"g+	c #9BA5D9",
"h+	c #3853D8",
"i+	c #6D85F4",
"j+	c #B7C7FE",
"k+	c #F4F7FF",
"l+	c #B2CCFE",
"m+	c #4D8AFE",
"n+	c #4E85FE",
"o+	c #4F7DFE",
"p+	c #8EA6FD",
"q+	c #A0B0F8",
"r+	c #334ED6",
"s+	c #C2C6DB",
"t+	c #4D63D1",
"u+	c #B9C6F7",
"v+	c #EBF3FE",
"w+	c #CAE1FF",
"x+	c #CDE1FF",
"y+	c #F0F5FF",
"z+	c #F6F8FF",
"A+	c #5170EA",
"B+	c #304ACB",
"C+	c #7C7C7D",
"D+	c #AEAEB0",
"E+	c #BBBBBE",
"F+	c #C2C2C5",
"G+	c #CACACD",
"H+	c #DDDDDE",
"I+	c #CDCDD1",
"J+	c #7885C1",
"K+	c #3F61D8",
"L+	c #DCE6FC",
"M+	c #FDFEFE",
"N+	c #FEFFFF",
"O+	c #DFEBFE",
"P+	c #638EF1",
"Q+	c #3456D2",
"R+	c #293FAE",
"S+	c #808080",
"T+	c #828383",
"U+	c #70727E",
"V+	c #4659AD",
"W+	c #5177DB",
"X+	c #F2F6FE",
"Y+	c #CAE4FD",
"Z+	c #5DB6FB",
"`+	c #65B9FB",
" @	c #4DA1F8",
".@	c #2E76EB",
"+@	c #315CD3",
"@@	c #3B52B7",
"#@	c #2842AD",
"$@	c #7790DD",
"%@	c #85A7E9",
"&@	c #2972E0",
"*@	c #2B64D8",
"=@	c #2C53CA",
"-@	c #2841AE",
";@	c #2C4AC1",
"                                                ",
"                                                ",
"      . + + + + @ @ @ # + + + + + + + + .       ",
"    . $ % & * = - ; > , ' % ) ! ! ! ! ! ~ {     ",
"    ] ^ / ( _ : < [ } | 1 2 3 4 4 4 4 4 5 6     ",
"    7 8 9 0 a b c } d e f g h i i i i i j 6     ",
"    { 8 9 0 a b c } d e f g h i i i i i j 6     ",
"    6 j k l m n o p | q r s i t t t t u v w     ",
"    x y z A B C D * E F G z H I I I I I J K     ",
"    L M N O P Q R S T U V & W X X X X Y Z `     ",
"     ...+.@.#.$.< %.&.*.R =.-.;.>.,.'.).!.~.    ",
"    7 {.].^./.(._.} d :.<.[.}.|.1.2.3.4.5.6.    ",
"    { 7.8.9.0.a.c } b.c.d.e.f.g.h.i.j.k.|.l.    ",
"    { m.n.0 o.p.*.b.q.r.s.t.u.v.w.v.v.v.x.y.    ",
"    ~.z.7.A.B.C.D.E.F.G.H.I.J.K.L.M.v.v.v.N.O.  ",
"    ` P.Q.R...S.% T.U.V.W.X.Y.Z.`. +v..+++@+#+  ",
"    $+..%+&+*+=+-+;+>+,+'+)+!+~+{+]+^+/+(+_+:+<+",
"    { [+}+|+1+2+3+4+5+:+6+7+8+9+0+a+b+c+d+e+f+<+",
"    { 8 9 0 a a.c } g+h+i+j+k+v.l+m+n+o+p+q+r+  ",
"    7 8 9 0 a a.c } s+t+u+v.v.v.v+w+x+y+z+A+B+  ",
"    C+D+E+F+G+E P H+I+J+K+L+v.v.M+v.N+O+P+Q+R+  ",
"      7 . S++ @ x x T+U+V+W+X+Y+Z+`+ @.@+@@@    ",
"                          #@$@%@&@&@*@=@-@      ",
"                                ;@;@            "};
