/* XPM */
static const char * dgfSave_xpm[] = {
"24 24 256 2",
"  	c None",
". 	c #7F7F7F",
"+ 	c #818181",
"@ 	c #818182",
"# 	c #828282",
"$ 	c #7D7D7D",
"% 	c #BABABB",
"& 	c #CECED0",
"* 	c #D2D2D3",
"= 	c #D5D5D6",
"- 	c #D9D9D9",
"; 	c #DBDBDB",
"> 	c #DCDCDC",
", 	c #D7D7D8",
"' 	c #D1D1D2",
") 	c #CDCDCF",
"! 	c #CCCCCD",
"~ 	c #CBCBCD",
"{ 	c #ACACAD",
"] 	c #666666",
"^ 	c #7E7E7F",
"/ 	c #BCBBBE",
"( 	c #CBCACF",
"_ 	c #D7D7DB",
": 	c #E3E3E6",
"< 	c #EEEEF0",
"[ 	c #F5F5F7",
"} 	c #F9F9FB",
"| 	c #F5F6F7",
"1 	c #E9E9EB",
"2 	c #D6D6D9",
"3 	c #C7C7CB",
"4 	c #C1C1C6",
"5 	c #C1C1C5",
"6 	c #C2C2C6",
"7 	c #606060",
"8 	c #7D7D7E",
"9 	c #B5B5B8",
"0 	c #C0C0C6",
"a 	c #CFCFD4",
"b 	c #DEDEE1",
"c 	c #EBEBED",
"d 	c #F4F4F6",
"e 	c #F8F8FA",
"f 	c #F3F4F6",
"g 	c #E5E5E7",
"h 	c #CECED1",
"i 	c #BCBCC1",
"j 	c #B5B5BA",
"k 	c #B7B7BB",
"l 	c #A6A6A9",
"m 	c #5F5F60",
"n 	c #AEADB0",
"o 	c #BBBABF",
"p 	c #C8C7CB",
"q 	c #D4D4D7",
"r 	c #E0E0E2",
"s 	c #E8E8EA",
"t 	c #ECECED",
"u 	c #E7E7E9",
"v 	c #DADADC",
"w 	c #C5C5C9",
"x 	c #AFAFB4",
"y 	c #AFAFB3",
"z 	c #B1B1B4",
"A 	c #9F9FA1",
"B 	c #59595A",
"C 	c #848485",
"D 	c #A5A4A7",
"E 	c #BEBEC0",
"F 	c #C6C6C8",
"G 	c #D3D3D5",
"H 	c #D6D6D7",
"I 	c #D2D3D4",
"J 	c #CACACB",
"K 	c #BBBBBE",
"L 	c #B1B1B3",
"M 	c #ACACAF",
"N 	c #ABABAE",
"O 	c #ACACAE",
"P 	c #8E8E90",
"Q 	c #414142",
"R 	c #89898A",
"S 	c #BCBCBE",
"T 	c #D8D8D9",
"U 	c #DDDDDE",
"V 	c #E1E1E2",
"W 	c #E4E4E5",
"X 	c #E6E6E6",
"Y 	c #DFDFE0",
"Z 	c #CECECF",
"` 	c #A0A0A1",
" .	c #444444",
"..	c #808081",
"+.	c #C0C0C2",
"@.	c #D1D1D5",
"#.	c #DBDBDE",
"$.	c #EDEDF0",
"%.	c #F7F7F9",
"&.	c #F3F4F5",
"*.	c #E9EAEC",
"=.	c #CACACD",
"-.	c #C9C9CD",
";.	c #CBCBCE",
">.	c #ADADAE",
",.	c #5B5B5B",
"'.	c #7E7E7E",
").	c #B6B6B9",
"!.	c #C2C1C7",
"~.	c #D1D0D5",
"{.	c #DEDEE2",
"].	c #E6E6E8",
"^.	c #CFCFD2",
"/.	c #BDBDC2",
"(.	c #B6B6BB",
"_.	c #B8B8BC",
":.	c #A7A7AA",
"<.	c #BFBFC5",
"[.	c #CFCED3",
"}.	c #DDDDE0",
"|.	c #CDCDD0",
"1.	c #BBBBC0",
"2.	c #B4B4B9",
"3.	c #9494B2",
"4.	c #B2B2B5",
"5.	c #BEBEC3",
"6.	c #CDCCD1",
"7.	c #DAD9DD",
"8.	c #E6E6E9",
"9.	c #EFEFF1",
"0.	c #F3F3F5",
"a.	c #414CDD",
"b.	c #2B31EE",
"c.	c #0000FF",
"d.	c #0F10F9",
"e.	c #5158E2",
"f.	c #626BDB",
"g.	c #0F10F8",
"h.	c #191BF1",
"i.	c #4E57AB",
"j.	c #A2A2A4",
"k.	c #B1B1B5",
"l.	c #C4C4C6",
"m.	c #CDCCCE",
"n.	c #D2D2D4",
"o.	c #D4D4D6",
"p.	c #2A2FED",
"q.	c #3437F4",
"r.	c #5D64ED",
"s.	c #777EE8",
"t.	c #B7BEDE",
"u.	c #B4BDD8",
"v.	c #1F20F8",
"w.	c #1B1DF4",
"x.	c #636CA9",
"y.	c #B8B7BB",
"z.	c #BFBFC1",
"A.	c #C6C6C7",
"B.	c #D1D0D2",
"C.	c #D3D2D4",
"D.	c #D0D0D1",
"E.	c #2D31EF",
"F.	c #ABB0EC",
"G.	c #9399F2",
"H.	c #A0A6EC",
"I.	c #C4C9E5",
"J.	c #BFC7DB",
"K.	c #2C2FF7",
"L.	c #999EF2",
"M.	c #7B7EE9",
"N.	c #3437E5",
"O.	c #838384",
"P.	c #DFDFE2",
"Q.	c #E7E6E8",
"R.	c #EDEDEF",
"S.	c #F4F4F5",
"T.	c #F9F9FA",
"U.	c #FBFBFC",
"V.	c #F8F8F9",
"W.	c #2E32EF",
"X.	c #A6ABEC",
"Y.	c #8C93ED",
"Z.	c #8188E7",
"`.	c #A9B1DB",
" +	c #A6B0D3",
".+	c #1C1EF8",
"++	c #9298ED",
"@+	c #9B9FE2",
"#+	c #2729EC",
"$+	c #B8B8BA",
"%+	c #C4C4C9",
"&+	c #D2D1D6",
"*+	c #ECECEE",
"=+	c #2C30EF",
"-+	c #797EEB",
";+	c #7D86E3",
">+	c #2C30F2",
",+	c #4C52E7",
"'+	c #4C53E6",
")+	c #2E31F0",
"!+	c #2D30F0",
"~+	c #2C2FF1",
"{+	c #6064EA",
"]+	c #2021F7",
"^+	c #2728EB",
"/+	c #CECED3",
"(+	c #EAEAED",
"_+	c #3034F2",
":+	c #8A8AFD",
"<+	c #AAAAFF",
"[+	c #8384FB",
"}+	c #5A5CDD",
"|+	c #2627EB",
"1+	c #C1C1C7",
"2+	c #D0D0D4",
"3+	c #EBEBEE",
"4+	c #2B2EEE",
"5+	c #979FE3",
"6+	c #FFFFFF",
"7+	c #C7C7FF",
"8+	c #3C3CE8",
"9+	c #2526EB",
"0+	c #7A7A7A",
"a+	c #A1A1A2",
"b+	c #ABAAAD",
"c+	c #B2B2B4",
"d+	c #C3C3C4",
"e+	c #C5C5C6",
"f+	c #0E0FF9",
"g+	c #969EE2",
"h+	c #3B3BE8",
"i+	c #2525EB",
"j+	c #646464",
"k+	c #616161",
"l+	c #626262",
"m+	c #636363",
"n+	c #585874",
"o+	c #282BEB",
"p+	c #3F44EC",
"q+	c #E3E3FF",
"r+	c #3A3AE7",
"s+	c #2424EA",
"t+	c #1719F1",
"u+	c #4F55E0",
"v+	c #F6F7FA",
"w+	c #6565F8",
"x+	c #4444DE",
"y+	c #2222E9",
"z+	c #1B1EE7",
"A+	c #1618F0",
"B+	c #6066DB",
"C+	c #1515FB",
"D+	c #1415FA",
"E+	c #4B4BD3",
"F+	c #2A2ADA",
"G+	c #504EAE",
"                                                ",
"                                                ",
"      . + + + @ # # # + + + + + + + + $         ",
"    . % & * = - ; > ; , ' ) ! ~ ~ ~ ! { ]       ",
"    ^ / ( _ : < [ } | 1 2 3 4 5 5 5 6 { 7       ",
"    8 9 0 a b c d e f g h i j j j j k l m       ",
"    $ n o p q r s t u v w j x y y y z A B       ",
"    C D 9 E F & G H I J K L M N N N O P Q       ",
"    R S G T U V W X W Y , ' & Z ) Z Z `  .      ",
"    ..+.@.#.g $.d %.&.*.v h =.=.-.=.;.>.,.      ",
"    '.).!.~.{.c d e d ].^./.(.(.(.(._.:.m       ",
"    $ 9 <.[.}.c d e f g |.1.2.2.2.2.j 3.m       ",
"    '.4.5.6.7.8.9.0.9.a.b.c.d.e.f.g.c.c.h.i.    ",
"    ..j.k.K l.m.n.o.' p.q.r.s.t.u.c.c.c.v.w.x.  ",
"      :.y.z.A.! B.C.D.E.F.G.H.I.J.c.c.K.L.M.N.  ",
"    O.J P.Q.R.S.T.U.V.W.X.Y.Z.`. +c.c..+++@+#+  ",
"    '.$+%+&+P.*+[ T.d =+-+;+>+,+'+)+!+~+{+]+^+  ",
"    8 9 <./+}.(+d e 0.=+_+:+<+<+<+<+<+<+[+}+|+  ",
"    '.).1+2+b 3+d e d 4+5+6+6+6+6+6+6+6+7+8+9+  ",
"    0+a+b+c+$+E d+e+d+f+g+6+6+6+6+6+6+6+6+h+i+  ",
"      j+7 k+l+l+m+m+n+o+p+6+6+6+6+6+6+6+q+r+s+  ",
"                      t+u+v+6+6+6+6+6+6+w+x+y+  ",
"                      z+A+B+C+c.c.c.c.D+E+F+G+  ",
"                                                "};
