/* XPM */
static const char * kill_xpm[] = {
"24 24 161 2",
"  	c None",
". 	c #B92E2E",
"+ 	c #BA2E2E",
"@ 	c #BE3333",
"# 	c #B82E2E",
"$ 	c #AF2B2B",
"% 	c #B22E2E",
"& 	c #AD2B2B",
"* 	c #C73C3C",
"= 	c #EC6666",
"- 	c #CE4444",
"; 	c #B72E2E",
"> 	c #C43C3C",
", 	c #E35555",
"' 	c #B93535",
") 	c #AB2A2A",
"! 	c #C63C3C",
"~ 	c #E76464",
"{ 	c #E36A6A",
"] 	c #EE6C6C",
"^ 	c #CE4545",
"/ 	c #B52D2D",
"( 	c #C43D3D",
"_ 	c #E05353",
": 	c #D24747",
"< 	c #B83434",
"[ 	c #A92929",
"} 	c #C53B3B",
"| 	c #E46161",
"1 	c #DB6464",
"2 	c #DF6969",
"3 	c #E66F6F",
"4 	c #F16F6F",
"5 	c #CD4545",
"6 	c #B42D2D",
"7 	c #C53E3E",
"8 	c #E25555",
"9 	c #CF4444",
"0 	c #CC4242",
"a 	c #D04545",
"b 	c #B63434",
"c 	c #A72929",
"d 	c #BD3232",
"e 	c #E35E5E",
"f 	c #D65F5F",
"g 	c #D86363",
"h 	c #E56F6F",
"i 	c #EB7373",
"j 	c #F37070",
"k 	c #CC4545",
"l 	c #B22C2C",
"m 	c #C63F3F",
"n 	c #E55959",
"o 	c #D24949",
"p 	c #D14747",
"q 	c #AC2D2D",
"r 	c #A52828",
"s 	c #B82D2D",
"t 	c #CA4141",
"u 	c #E36262",
"v 	c #DA6464",
"w 	c #EF7676",
"x 	c #F57171",
"y 	c #CB4444",
"z 	c #B02B2B",
"A 	c #C74040",
"B 	c #E95E5E",
"C 	c #D75050",
"D 	c #D04747",
"E 	c #CB4141",
"F 	c #CD4343",
"G 	c #DE5151",
"H 	c #C33E3E",
"I 	c #B72D2D",
"J 	c #CA4242",
"K 	c #E76666",
"L 	c #E16A6A",
"M 	c #F17777",
"N 	c #F57070",
"O 	c #CC4646",
"P 	c #CA4343",
"Q 	c #EC6464",
"R 	c #DD5858",
"S 	c #D54E4E",
"T 	c #A52929",
"U 	c #EB6969",
"V 	c #F07777",
"W 	c #F17575",
"X 	c #F36F6F",
"Y 	c #EF6969",
"Z 	c #DC5757",
"` 	c #CE4343",
" .	c #DF5151",
"..	c #B42C2C",
"+.	c #C94343",
"@.	c #EF6C6C",
"#.	c #EC7373",
"$.	c #F07676",
"%.	c #EE7171",
"&.	c #E96969",
"*.	c #E26060",
"=.	c #D14848",
"-.	c #DF5252",
";.	c #F26F6F",
">.	c #E36060",
",.	c #D74F4F",
"'.	c #E15555",
").	c #C43F3F",
"!.	c #CB4545",
"~.	c #F37272",
"{.	c #E15757",
"].	c #C74242",
"^.	c #E25757",
"/.	c #C23F3F",
"(.	c #A42828",
"_.	c #C84343",
":.	c #E25656",
"<.	c #BE3B3B",
"[.	c #A22828",
"}.	c #EF6D6D",
"|.	c #E05252",
"1.	c #BC3A3A",
"2.	c #A02727",
"3.	c #C64141",
"4.	c #BB3A3A",
"5.	c #9F2626",
"6.	c #C54040",
"7.	c #CC4949",
"8.	c #C64444",
"9.	c #BA3A3A",
"0.	c #9D2626",
"a.	c #F57272",
"b.	c #CA4747",
"c.	c #C03F3F",
"d.	c #E85E5E",
"e.	c #B93A3A",
"f.	c #9C2626",
"g.	c #B22F2F",
"h.	c #F47171",
"i.	c #C94747",
"j.	c #A22727",
"k.	c #BE3D3D",
"l.	c #D14646",
"m.	c #A12A2A",
"n.	c #9A2525",
"o.	c #BB3838",
"p.	c #E36161",
"q.	c #BC3B3B",
"r.	c #CF4545",
"s.	c #DF5353",
"t.	c #AE3333",
"u.	c #9B2626",
"v.	c #BA3838",
"w.	c #EE6D6D",
"x.	c #9F2727",
"y.	c #AF3333",
"z.	c #B93838",
"A.	c #EB6666",
"B.	c #C74646",
"C.	c #B83939",
"D.	c #AD2F2F",
"          .                                     ",
"        + @ #                     $ % &         ",
"      + * = - ;                 $ > , ' )       ",
"    . ! ~ { ] ^ /             $ ( _ : _ < [     ",
"  + } | 1 2 3 4 5 6         $ 7 8 9 0 a _ b c   ",
". d e f g 2 h i j k l     $ m n o 0 0 0 p 8 q r ",
"  s t u v 2 h i w x y z $ A B C D 0 E F G H r   ",
"    I J K L h i w M N O P Q R S D 0 F G H T     ",
"      / J U 3 i w V W X Y | Z S D `  .H r       ",
"        ..+.@.#.w V $.%.&.*.Z S =.-.H r         ",
"          l +.;.w V $.%.&.>.Z ,.'.).T           ",
"            z !.~.V $.%.&.*.Z {.].r             ",
"            $ !.~.V $.%.&.>.Z ^./.(.            ",
"          $ _.4 w V $.%.&.>.Z C :.<.[.          ",
"        $ ].}.#.w V $.%.&.>.Z S o |.1.2.        ",
"      $ 3.U 3 i w V W ;.Y | Z S D - -.4.5.      ",
"    $ 6.K L h i w M x 7.8.Q R S D 0 ` -.9.0.    ",
"  $ ).u v 2 h i w a.b.T (.c.d.,.D 0 0 ` -.e.f.  ",
"$ g.e f g 2 h i h.i.r     j.k.n o 0 E E l.8 m.n.",
"  & o.p.1 2 3 4 i.T         2.q.'.9 0 r.s.t.u.  ",
"    ) v.~ { w.i.r             x.9._ l._ y.u.    ",
"      [ z.A.B.r                 0.C.8 y.n.      ",
"        c D.T                     f.m.u.        ",
"          r                         u.          "};
