/* XPM */
static const char * profilesave_xpm[] = {
"24 24 278 2",
"  	c None",
". 	c #9B9BA1",
"+ 	c #9B9BA0",
"@ 	c #9A9B9F",
"# 	c #9A9A9F",
"$ 	c #99999E",
"% 	c #99999D",
"& 	c #98989D",
"* 	c #97989C",
"= 	c #97979C",
"- 	c #96969B",
"; 	c #95969A",
"> 	c #95959A",
", 	c #939398",
"' 	c #9C9CA2",
") 	c #E3E3E5",
"! 	c #F0F0F1",
"~ 	c #F0F0F0",
"{ 	c #EFEFF0",
"] 	c #C3C3C5",
"^ 	c #949599",
"/ 	c #9B9CA1",
"( 	c #EDEDEE",
"_ 	c #F2F5FA",
": 	c #F0F2F9",
"< 	c #EFF2F9",
"[ 	c #C1C2C7",
"} 	c #BCBCBE",
"| 	c #9C9CA0",
"1 	c #F0F3F9",
"2 	c #ECEFF8",
"3 	c #BDBEC4",
"4 	c #CCCBCD",
"5 	c #D2D1D3",
"6 	c #9B9B9F",
"7 	c #EDF0F9",
"8 	c #BCBEC4",
"9 	c #CBC9CC",
"0 	c #DDDCDD",
"a 	c #CBCACC",
"b 	c #97979B",
"c 	c #CCCED5",
"d 	c #A1A2A8",
"e 	c #9E9FA4",
"f 	c #A0A0A6",
"g 	c #A8A9AC",
"h 	c #898A8E",
"i 	c #E5E8F0",
"j 	c #D7DAE1",
"k 	c #D1D4DC",
"l 	c #D4D7DD",
"m 	c #E8E8E8",
"n 	c #87878B",
"o 	c #EBEEF7",
"p 	c #E9ECF5",
"q 	c #E8EBF4",
"r 	c #EAEDF4",
"s 	c #F8F8F9",
"t 	c #89898E",
"u 	c #EEF1F9",
"v 	c #FCFCFC",
"w 	c #EDEDED",
"x 	c #E2E5EF",
"y 	c #DDE0E9",
"z 	c #DBDDE7",
"A 	c #DDE0EA",
"B 	c #E3E6EF",
"C 	c #FBFCFC",
"D 	c #89898D",
"E 	c #E1E4ED",
"F 	c #D1D4DE",
"G 	c #C5C8D3",
"H 	c #B7BEC4",
"I 	c #99ADA3",
"J 	c #91A99A",
"K 	c #A5B6B0",
"L 	c #CDD2DB",
"M 	c #F1F1F2",
"N 	c #86878B",
"O 	c #ECEDED",
"P 	c #C7CAD5",
"Q 	c #ADB7B9",
"R 	c #588A59",
"S 	c #33842D",
"T 	c #509C49",
"U 	c #58A352",
"V 	c #45943F",
"W 	c #34802F",
"X 	c #82A681",
"Y 	c #6D7074",
"Z 	c #ECECED",
"` 	c #E2E4EE",
" .	c #C8CBD6",
"..	c #9DAEA7",
"+.	c #307D2B",
"@.	c #5EAE57",
"#.	c #8FCF8A",
"$.	c #97D591",
"%.	c #98D692",
"&.	c #94D38E",
"*.	c #82C67C",
"=.	c #41993A",
"-.	c #246223",
";.	c #959599",
">.	c #D2D5DF",
",.	c #B2BABF",
"'.	c #317D2C",
").	c #52AB4A",
"!.	c #7DCB76",
"~.	c #87D480",
"{.	c #A7D5A3",
"].	c #CBE3C9",
"^.	c #9ED49A",
"/.	c #81D07A",
"(.	c #74C36D",
"_.	c #36972E",
":.	c #154F17",
"<.	c #949499",
"[.	c #E4E7F0",
"}.	c #C6C9D4",
"|.	c #66906B",
"1.	c #2C9423",
"2.	c #65BF5D",
"3.	c #73CE6C",
"4.	c #7ED177",
"5.	c #BADDB7",
"6.	c #FEFEFE",
"7.	c #ABD8A7",
"8.	c #79D072",
"9.	c #6CC964",
"0.	c #4EB046",
"a.	c #25831D",
"b.	c #DDE1EB",
"c.	c #BEC2CE",
"d.	c #327F2E",
"e.	c #32A128",
"f.	c #5DC254",
"g.	c #6BCA63",
"h.	c #74CC6C",
"i.	c #B5DAB2",
"j.	c #A5D5A1",
"k.	c #70CB68",
"l.	c #64C85B",
"m.	c #4DB743",
"n.	c #2C9822",
"o.	c #1C6617",
"p.	c #929397",
"q.	c #EBEEF8",
"r.	c #E9EDF7",
"s.	c #D9DDE9",
"t.	c #AFB9BF",
"u.	c #247F1D",
"v.	c #30A526",
"w.	c #75C26E",
"x.	c #D1E5CF",
"y.	c #D2E5D1",
"z.	c #E8F0E7",
"A.	c #E1ECE0",
"B.	c #CEE4CD",
"C.	c #CCE3CA",
"D.	c #5AB752",
"E.	c #2E9E24",
"F.	c #1F7019",
"G.	c #929296",
"H.	c #EAEDF7",
"I.	c #E8ECF7",
"J.	c #E6EAF6",
"K.	c #D9DDEA",
"L.	c #ABB6BC",
"M.	c #25811D",
"N.	c #30A626",
"O.	c #78C472",
"P.	c #5FB857",
"Q.	c #2E9F24",
"R.	c #207219",
"S.	c #919196",
"T.	c #ECECEC",
"U.	c #E7EBF6",
"V.	c #E5EAF6",
"W.	c #E4E8F5",
"X.	c #DBE0EE",
"Y.	c #BBC1CF",
"Z.	c #2A7D24",
"`.	c #2FA325",
" +	c #46B637",
".+	c #6CC458",
"++	c #79CB5E",
"@+	c #BBDEAD",
"#+	c #ABD89B",
"$+	c #73C85C",
"%+	c #66C156",
"&+	c #3CAE31",
"*+	c #2D9B23",
"=+	c #1D6C18",
"-+	c #909095",
";+	c #EDF0F8",
">+	c #E2E7F4",
",+	c #E0E5F3",
"'+	c #DCE1F0",
")+	c #C6CCDD",
"!+	c #508654",
"~+	c #2E9B23",
"{+	c #40B726",
"]+	c #53CB29",
"^+	c #62D32C",
"/+	c #AFDF94",
"(+	c #9CDA7C",
"_+	c #5CCF2C",
":+	c #4AC428",
"<+	c #37AC25",
"[+	c #288B1F",
"}+	c #8F8F94",
"|+	c #EBEBEC",
"1+	c #E2E6F4",
"2+	c #DEE3F2",
"3+	c #DBE2F1",
"4+	c #D9E0F0",
"5+	c #D0D7E9",
"6+	c #9CAFB1",
"7+	c #27801F",
"8+	c #3DAC23",
"9+	c #59CE23",
"0+	c #6DDE22",
"a+	c #B5E590",
"b+	c #A3E177",
"c+	c #64D823",
"d+	c #4EC223",
"e+	c #339E22",
"f+	c #8E8E93",
"g+	c #E5E9F5",
"h+	c #E3E7F4",
"i+	c #E1E6F3",
"j+	c #DFE5F3",
"k+	c #DEE4F2",
"l+	c #DCE2F2",
"m+	c #DADFF0",
"n+	c #D0D6E8",
"o+	c #7DA088",
"p+	c #29841E",
"q+	c #45B121",
"r+	c #67D520",
"s+	c #81E328",
"t+	c #89E333",
"u+	c #78DD27",
"v+	c #5BCA21",
"w+	c #3AA221",
"x+	c #24761C",
"y+	c #8D8E92",
"z+	c #E5E5E6",
"A+	c #F4F4F5",
"B+	c #F4F4F4",
"C+	c #F3F3F4",
"D+	c #9EB89E",
"E+	c #317D2A",
"F+	c #31901E",
"G+	c #44AA1F",
"H+	c #4BB11F",
"I+	c #3EA31F",
"J+	c #2B861C",
"K+	c #498844",
"L+	c #6A7B6C",
"M+	c #8C8C90",
"N+	c #8B8B90",
"O+	c #8A8A8F",
"P+	c #8A8A8E",
"Q+	c #88888D",
"R+	c #88888C",
"S+	c #86868B",
"T+	c #86868A",
"U+	c #858589",
"V+	c #838388",
"W+	c #7C7F80",
"X+	c #557455",
"Y+	c #366E33",
"Z+	c #2E6E2A",
"`+	c #3D6F3B",
" @	c #627964",
".@	c #808184",
"    . . + @ # # $ % & * = - ; > ,               ",
"  ' ) ! ! ! ! ! ! ! ~ ~ ~ ~ ~ { ] ^             ",
"  / ( _ : : : : : : : : : : : < [ } |           ",
"  + ( 1 2 2 2 2 2 2 2 2 2 2 2 2 3 4 5 6         ",
"  @ ( 1 7 2 7 7 2 7 7 7 2 7 2 2 8 9 0 a b       ",
"  # ( 1 7 2 7 7 2 7 7 7 2 7 2 2 c d e f g h     ",
"  $ ( 1 2 2 2 2 2 2 2 2 2 2 2 2 i j k l m n     ",
"  $ ( 1 7 2 7 7 2 7 7 7 2 7 2 2 o p q r s t     ",
"  & ( 1 7 2 7 7 2 7 7 7 2 7 2 2 2 2 2 u v t     ",
"  * w 1 2 2 2 2 2 2 2 2 2 p x y z A B p C D     ",
"  = w 1 7 2 7 7 2 7 7 o E F G H I J K L M N     ",
"  - O 1 2 2 2 2 2 2 o A P Q R S T U V W X Y     ",
"  ; Z 1 7 2 7 7 2 2 `  ...+.@.#.$.%.&.*.=.-.    ",
"  ;.Z 1 7 2 7 7 2 p >.,.'.).!.~.{.].^./.(._.:.  ",
"  <.Z 1 7 2 7 7 2 [.}.|.1.2.3.4.5.6.7.8.9.0.a.  ",
"  , Z 1 2 2 2 2 2 b.c.d.e.f.g.h.i.6.j.k.l.m.n.o.",
"  p.Z 1 7 2 2 q.r.s.t.u.v.w.x.y.z.6.A.B.C.D.E.F.",
"  G.Z 1 2 q.H.I.J.K.L.M.N.O.6.6.6.6.6.6.6.P.Q.R.",
"  S.T.< H.I.U.V.W.X.Y.Z.`. +.+++@+6.#+$+%+&+*+=+",
"  -+T.;+U.V.W.>+,+'+)+!+~+{+]+^+/+6.(+_+:+<+[+  ",
"  }+|+o W.1+,+2+3+4+5+6+7+8+9+0+a+6.b+c+d+e+F.  ",
"  f+|+o g+h+i+j+k+l+m+n+o+p+q+r+s+t+u+v+w+x+    ",
"  y+z+A+A+A+A+A+A+A+B+C+( D+E+F+G+H+I+J+K+L+    ",
"    M+N+O+P+D Q+R+n S+T+U+V+W+X+Y+Z+`+ @.@      "};
